<svg xmlns="http://www.w3.org/2000/svg" xmlns:xlink="http://www.w3.org/1999/xlink" width="1048" height="301" viewBox="0 0 1048 301">
  <defs>
    <filter id="Trazado_232024" x="411" y="0" width="226" height="76" filterUnits="userSpaceOnUse">
      <feOffset dy="3" input="SourceAlpha"/>
      <feGaussianBlur stdDeviation="3" result="blur"/>
      <feFlood flood-opacity="0.161"/>
      <feComposite operator="in" in2="blur"/>
      <feComposite in="SourceGraphic"/>
    </filter>
    <filter id="Trazado_232033" x="274" y="225" width="226" height="76" filterUnits="userSpaceOnUse">
      <feOffset dy="3" input="SourceAlpha"/>
      <feGaussianBlur stdDeviation="3" result="blur-2"/>
      <feFlood flood-opacity="0.161"/>
      <feComposite operator="in" in2="blur-2"/>
      <feComposite in="SourceGraphic"/>
    </filter>
    <filter id="Trazado_232034" x="0" y="225" width="226" height="76" filterUnits="userSpaceOnUse">
      <feOffset dy="3" input="SourceAlpha"/>
      <feGaussianBlur stdDeviation="3" result="blur-3"/>
      <feFlood flood-opacity="0.161"/>
      <feComposite operator="in" in2="blur-3"/>
      <feComposite in="SourceGraphic"/>
    </filter>
    <filter id="Trazado_232035" x="822" y="225" width="226" height="76" filterUnits="userSpaceOnUse">
      <feOffset dy="3" input="SourceAlpha"/>
      <feGaussianBlur stdDeviation="3" result="blur-4"/>
      <feFlood flood-opacity="0.161"/>
      <feComposite operator="in" in2="blur-4"/>
      <feComposite in="SourceGraphic"/>
    </filter>
    <filter id="Trazado_232036" x="548" y="225" width="226" height="76" filterUnits="userSpaceOnUse">
      <feOffset dy="3" input="SourceAlpha"/>
      <feGaussianBlur stdDeviation="3" result="blur-5"/>
      <feFlood flood-opacity="0.161"/>
      <feComposite operator="in" in2="blur-5"/>
      <feComposite in="SourceGraphic"/>
    </filter>
    <filter id="Trazado_232027" x="206" y="112" width="226" height="76" filterUnits="userSpaceOnUse">
      <feOffset dy="3" input="SourceAlpha"/>
      <feGaussianBlur stdDeviation="3" result="blur-6"/>
      <feFlood flood-opacity="0.161"/>
      <feComposite operator="in" in2="blur-6"/>
      <feComposite in="SourceGraphic"/>
    </filter>
    <filter id="Trazado_232028" x="617" y="112" width="226" height="76" filterUnits="userSpaceOnUse">
      <feOffset dy="3" input="SourceAlpha"/>
      <feGaussianBlur stdDeviation="3" result="blur-7"/>
      <feFlood flood-opacity="0.161"/>
      <feComposite operator="in" in2="blur-7"/>
      <feComposite in="SourceGraphic"/>
    </filter>
  </defs>
  <g id="Grupo_237309" data-name="Grupo 237309" transform="translate(-276 -6338)">
    <g transform="matrix(1, 0, 0, 1, 276, 6338)" filter="url(#Trazado_232024)">
      <path id="Trazado_232024-2" data-name="Trazado 232024" d="M9,0H199a9,9,0,0,1,9,9V49a9,9,0,0,1-9,9H9a9,9,0,0,1-9-9V9A9,9,0,0,1,9,0Z" transform="translate(420 6)" fill="#2f077f"/>
    </g>
    <path id="Trazado_232025" data-name="Trazado 232025" d="M46.715,12.656H42.605L41.824,15H39.332L43.566,3.625h2.172L50,15H47.5Zm-3.477-1.9h2.844L44.652,6.5ZM53.293,15H51.027V3h2.266Zm1.531-4.289a4.954,4.954,0,0,1,.926-3.133,3,3,0,0,1,2.5-1.187,2.631,2.631,0,0,1,2.164.953l.094-.8h2.047v8.172a3.613,3.613,0,0,1-.5,1.93,3.236,3.236,0,0,1-1.418,1.25,4.985,4.985,0,0,1-2.141.43,4.635,4.635,0,0,1-1.812-.371A3.217,3.217,0,0,1,55.34,17l1-1.375a2.645,2.645,0,0,0,2.047.945,1.936,1.936,0,0,0,1.4-.48,1.8,1.8,0,0,0,.5-1.363v-.453a2.612,2.612,0,0,1-2.055.883,2.992,2.992,0,0,1-2.465-1.191,4.953,4.953,0,0,1-.941-3.16Zm2.258.168a3.085,3.085,0,0,0,.461,1.8,1.466,1.466,0,0,0,1.266.653,1.568,1.568,0,0,0,1.477-.775V9a1.564,1.564,0,0,0-1.461-.775,1.476,1.476,0,0,0-1.277.665A3.477,3.477,0,0,0,57.082,10.879Zm6.852-.184a5.013,5.013,0,0,1,.484-2.242A3.546,3.546,0,0,1,65.813,6.93a4.069,4.069,0,0,1,2.113-.539,3.849,3.849,0,0,1,2.793,1.047,4.2,4.2,0,0,1,1.207,2.844l.016.578a4.418,4.418,0,0,1-1.086,3.121,4.209,4.209,0,0,1-5.832,0,4.5,4.5,0,0,1-1.09-3.187Zm2.258.16a3.16,3.16,0,0,0,.453,1.843,1.628,1.628,0,0,0,2.578.008,3.457,3.457,0,0,0,.461-2.015,3.128,3.128,0,0,0-.461-1.831,1.5,1.5,0,0,0-1.3-.649,1.474,1.474,0,0,0-1.281.646A3.516,3.516,0,0,0,66.191,10.856ZM78.082,8.664A6.134,6.134,0,0,0,77.27,8.6a1.654,1.654,0,0,0-1.68.867V15H73.332V6.547h2.133l.063,1.008A2.092,2.092,0,0,1,77.41,6.391a2.366,2.366,0,0,1,.7.1ZM81.551,15H79.285V6.547h2.266Zm-2.4-10.641a1.112,1.112,0,0,1,.34-.836,1.465,1.465,0,0,1,1.848,0,1.105,1.105,0,0,1,.344.836,1.108,1.108,0,0,1-.348.844,1.448,1.448,0,0,1-1.836,0A1.108,1.108,0,0,1,79.152,4.359Zm6.961.109V6.547h1.445V8.2H86.113v4.219a1.007,1.007,0,0,0,.18.672.9.9,0,0,0,.688.2,3.6,3.6,0,0,0,.664-.055v1.711a4.648,4.648,0,0,1-1.367.2,2.156,2.156,0,0,1-2.422-2.4V8.2H82.621V6.547h1.234V4.469Zm4.82,2.078.07.945a2.971,2.971,0,0,1,2.43-1.1A2.255,2.255,0,0,1,95.676,7.68a2.9,2.9,0,0,1,2.539-1.289,2.521,2.521,0,0,1,2.047.8,3.681,3.681,0,0,1,.672,2.41V15H98.668V9.609a1.61,1.61,0,0,0-.281-1.051,1.246,1.246,0,0,0-.992-.332,1.409,1.409,0,0,0-1.406.969L96,15H93.738V9.617a1.59,1.59,0,0,0-.289-1.062,1.259,1.259,0,0,0-.984-.328,1.463,1.463,0,0,0-1.391.8V15H88.816V6.547ZM102.316,10.7a5.013,5.013,0,0,1,.484-2.242A3.546,3.546,0,0,1,104.2,6.93a4.069,4.069,0,0,1,2.113-.539A3.849,3.849,0,0,1,109.1,7.438a4.2,4.2,0,0,1,1.207,2.844l.016.578a4.418,4.418,0,0,1-1.086,3.121,4.209,4.209,0,0,1-5.832,0,4.5,4.5,0,0,1-1.09-3.187Zm2.258.16a3.16,3.16,0,0,0,.453,1.843,1.628,1.628,0,0,0,2.578.008,3.457,3.457,0,0,0,.461-2.015,3.128,3.128,0,0,0-.461-1.831,1.5,1.5,0,0,0-1.3-.649,1.474,1.474,0,0,0-1.281.646A3.516,3.516,0,0,0,104.574,10.856Zm11.719,1.808a.727.727,0,0,0-.41-.652,4.659,4.659,0,0,0-1.316-.426q-3.016-.633-3.016-2.562a2.323,2.323,0,0,1,.934-1.879,3.766,3.766,0,0,1,2.441-.754,4.053,4.053,0,0,1,2.574.758,2.388,2.388,0,0,1,.965,1.969h-2.258a1.092,1.092,0,0,0-.312-.8A1.322,1.322,0,0,0,114.918,8a1.351,1.351,0,0,0-.883.258.814.814,0,0,0-.312.656.7.7,0,0,0,.355.605,3.657,3.657,0,0,0,1.2.4,9.8,9.8,0,0,1,1.422.379,2.336,2.336,0,0,1,1.789,2.273,2.2,2.2,0,0,1-.992,1.871,4.28,4.28,0,0,1-2.562.715,4.47,4.47,0,0,1-1.887-.379,3.166,3.166,0,0,1-1.293-1.039,2.414,2.414,0,0,1-.469-1.426h2.141a1.179,1.179,0,0,0,.445.922,1.766,1.766,0,0,0,1.109.32,1.635,1.635,0,0,0,.98-.246A.766.766,0,0,0,116.293,12.664Zm7.281-1.953a5.094,5.094,0,0,1,.887-3.148,2.877,2.877,0,0,1,2.426-1.172,2.589,2.589,0,0,1,2.039.922V3h2.266V15h-2.039l-.109-.9a2.657,2.657,0,0,1-2.172,1.055,2.869,2.869,0,0,1-2.395-1.176A5.258,5.258,0,0,1,123.574,10.711Zm2.258.168a3.337,3.337,0,0,0,.414,1.823,1.349,1.349,0,0,0,1.2.634,1.511,1.511,0,0,0,1.477-.884V9.111a1.489,1.489,0,0,0-1.461-.884Q125.832,8.227,125.832,10.879Zm11,4.277a4.15,4.15,0,0,1-3.027-1.141,4.054,4.054,0,0,1-1.168-3.039v-.219a5.106,5.106,0,0,1,.492-2.277,3.612,3.612,0,0,1,1.395-1.547,3.914,3.914,0,0,1,2.059-.543,3.508,3.508,0,0,1,2.73,1.094,4.444,4.444,0,0,1,1,3.1v.922h-5.383a2.1,2.1,0,0,0,.66,1.328,2,2,0,0,0,1.395.5,2.437,2.437,0,0,0,2.039-.945l1.109,1.242a3.389,3.389,0,0,1-1.375,1.121A4.511,4.511,0,0,1,136.832,15.156Zm-.258-6.945a1.411,1.411,0,0,0-1.09.455,2.357,2.357,0,0,0-.535,1.3h3.141V9.788a1.681,1.681,0,0,0-.406-1.165A1.456,1.456,0,0,0,136.574,8.211ZM39.453,39H37.188V27h2.266Zm6.758,0a2.507,2.507,0,0,1-.227-.758,2.732,2.732,0,0,1-2.133.914,3,3,0,0,1-2.059-.719,2.312,2.312,0,0,1-.816-1.812,2.389,2.389,0,0,1,1-2.062,4.915,4.915,0,0,1,2.879-.727h1.039v-.484a1.393,1.393,0,0,0-.3-.937,1.183,1.183,0,0,0-.949-.352,1.345,1.345,0,0,0-.895.273.929.929,0,0,0-.324.75H41.164a2.268,2.268,0,0,1,.453-1.359,3,3,0,0,1,1.281-.98,4.669,4.669,0,0,1,1.859-.355,3.689,3.689,0,0,1,2.48.785,2.747,2.747,0,0,1,.918,2.207v3.664a4.041,4.041,0,0,0,.336,1.82V39Zm-1.867-1.57a1.945,1.945,0,0,0,.922-.223,1.462,1.462,0,0,0,.625-.6V35.156h-.844q-1.7,0-1.8,1.172l-.008.133a.9.9,0,0,0,.3.7A1.153,1.153,0,0,0,44.344,37.43ZM56.258,39H53.992V27h2.266ZM60.5,39H58.234V27H60.5Zm6.758,0a2.507,2.507,0,0,1-.227-.758,2.732,2.732,0,0,1-2.133.914,3,3,0,0,1-2.059-.719,2.312,2.312,0,0,1-.816-1.812,2.389,2.389,0,0,1,1-2.062,4.915,4.915,0,0,1,2.879-.727h1.039v-.484a1.393,1.393,0,0,0-.3-.937,1.183,1.183,0,0,0-.949-.352,1.345,1.345,0,0,0-.895.273.929.929,0,0,0-.324.75H62.211a2.268,2.268,0,0,1,.453-1.359,3,3,0,0,1,1.281-.98,4.669,4.669,0,0,1,1.859-.355,3.689,3.689,0,0,1,2.48.785,2.747,2.747,0,0,1,.918,2.207v3.664a4.041,4.041,0,0,0,.336,1.82V39Zm-1.867-1.57a1.945,1.945,0,0,0,.922-.223,1.462,1.462,0,0,0,.625-.6V35.156h-.844q-1.7,0-1.8,1.172l-.008.133a.9.9,0,0,0,.3.7A1.153,1.153,0,0,0,65.391,37.43Zm8.594-1.187,1.57-5.7h2.359L75.063,39H72.906l-2.852-8.453h2.359ZM82.7,39.156a4.15,4.15,0,0,1-3.027-1.141A4.054,4.054,0,0,1,78.5,34.977v-.219a5.106,5.106,0,0,1,.492-2.277,3.612,3.612,0,0,1,1.395-1.547,3.914,3.914,0,0,1,2.059-.543,3.508,3.508,0,0,1,2.73,1.094,4.444,4.444,0,0,1,1,3.1v.922H80.789a2.1,2.1,0,0,0,.66,1.328,2,2,0,0,0,1.395.5,2.437,2.437,0,0,0,2.039-.945l1.109,1.242a3.389,3.389,0,0,1-1.375,1.121A4.511,4.511,0,0,1,82.7,39.156Zm-.258-6.945a1.411,1.411,0,0,0-1.09.455,2.357,2.357,0,0,0-.535,1.3h3.141v-.181a1.681,1.681,0,0,0-.406-1.165A1.456,1.456,0,0,0,82.438,32.211Zm16.609,2.641a5.07,5.07,0,0,1-.887,3.129,2.843,2.843,0,0,1-2.395,1.176,2.633,2.633,0,0,1-2.07-.891V42.25H91.438v-11.7h2.094l.078.828a2.654,2.654,0,0,1,2.141-.984,2.862,2.862,0,0,1,2.43,1.156,5.207,5.207,0,0,1,.867,3.188Zm-2.258-.164a3.327,3.327,0,0,0-.418-1.82,1.361,1.361,0,0,0-1.215-.641,1.478,1.478,0,0,0-1.461.813V36.5a1.5,1.5,0,0,0,1.477.836Q96.789,37.336,96.789,34.688Zm8.406-2.023a6.134,6.134,0,0,0-.812-.062,1.654,1.654,0,0,0-1.68.867V39h-2.258V30.547h2.133l.063,1.008a2.092,2.092,0,0,1,1.883-1.164,2.366,2.366,0,0,1,.7.1ZM108.664,39H106.4V30.547h2.266Zm-2.4-10.641a1.112,1.112,0,0,1,.34-.836,1.465,1.465,0,0,1,1.848,0,1.193,1.193,0,0,1,0,1.68,1.448,1.448,0,0,1-1.836,0A1.108,1.108,0,0,1,106.266,28.359Zm7.422,7.883,1.57-5.7h2.359L114.766,39h-2.156l-2.852-8.453h2.359Zm9.7,2.758a2.507,2.507,0,0,1-.227-.758,2.732,2.732,0,0,1-2.133.914,3,3,0,0,1-2.059-.719,2.312,2.312,0,0,1-.816-1.812,2.389,2.389,0,0,1,1-2.062,4.915,4.915,0,0,1,2.879-.727h1.039v-.484a1.393,1.393,0,0,0-.3-.937,1.183,1.183,0,0,0-.949-.352,1.345,1.345,0,0,0-.895.273.929.929,0,0,0-.324.75h-2.258a2.268,2.268,0,0,1,.453-1.359,3,3,0,0,1,1.281-.98,4.669,4.669,0,0,1,1.859-.355,3.689,3.689,0,0,1,2.48.785,2.747,2.747,0,0,1,.918,2.207v3.664a4.041,4.041,0,0,0,.336,1.82V39Zm-1.867-1.57a1.945,1.945,0,0,0,.922-.223,1.462,1.462,0,0,0,.625-.6V35.156h-.844q-1.7,0-1.8,1.172l-.008.133a.9.9,0,0,0,.3.7A1.153,1.153,0,0,0,121.523,37.43Zm5.2-2.719a5.094,5.094,0,0,1,.887-3.148,2.877,2.877,0,0,1,2.426-1.172,2.589,2.589,0,0,1,2.039.922V27h2.266V39H132.3l-.109-.9a2.657,2.657,0,0,1-2.172,1.055,2.869,2.869,0,0,1-2.395-1.176A5.258,5.258,0,0,1,126.719,34.711Zm2.258.168a3.337,3.337,0,0,0,.414,1.823,1.349,1.349,0,0,0,1.2.634,1.511,1.511,0,0,0,1.477-.884V33.111a1.489,1.489,0,0,0-1.461-.884Q128.977,32.227,128.977,34.879ZM140.984,39a2.507,2.507,0,0,1-.227-.758,2.732,2.732,0,0,1-2.133.914,3,3,0,0,1-2.059-.719,2.312,2.312,0,0,1-.816-1.812,2.389,2.389,0,0,1,1-2.062,4.915,4.915,0,0,1,2.879-.727h1.039v-.484a1.393,1.393,0,0,0-.3-.937,1.183,1.183,0,0,0-.949-.352,1.345,1.345,0,0,0-.895.273.929.929,0,0,0-.324.75h-2.258a2.268,2.268,0,0,1,.453-1.359,3,3,0,0,1,1.281-.98,4.669,4.669,0,0,1,1.859-.355,3.689,3.689,0,0,1,2.48.785,2.747,2.747,0,0,1,.918,2.207v3.664a4.041,4.041,0,0,0,.336,1.82V39Zm-1.867-1.57a1.945,1.945,0,0,0,.922-.223,1.462,1.462,0,0,0,.625-.6V35.156h-.844q-1.7,0-1.8,1.172l-.008.133a.9.9,0,0,0,.3.7A1.153,1.153,0,0,0,139.117,37.43Z" transform="translate(710 6352)" fill="#fff"/>
    <g transform="matrix(1, 0, 0, 1, 276, 6338)" filter="url(#Trazado_232033)">
      <path id="Trazado_232033-2" data-name="Trazado 232033" d="M9,0H199a9,9,0,0,1,9,9V49a9,9,0,0,1-9,9H9a9,9,0,0,1-9-9V9A9,9,0,0,1,9,0Z" transform="translate(283 231)" fill="#59e5f5"/>
    </g>
    <path id="Trazado_232037" data-name="Trazado 232037" d="M85.348,9.57a6.867,6.867,0,0,1-.594,2.945,4.472,4.472,0,0,1-1.7,1.953A5.021,5.021,0,0,1,78,14.477a4.515,4.515,0,0,1-1.719-1.941,6.67,6.67,0,0,1-.617-2.9V9.07a6.831,6.831,0,0,1,.605-2.957,4.508,4.508,0,0,1,1.711-1.961,5.014,5.014,0,0,1,5.055,0,4.508,4.508,0,0,1,1.711,1.961,6.811,6.811,0,0,1,.605,2.949Zm-2.375-.516a4.787,4.787,0,0,0-.641-2.719,2.263,2.263,0,0,0-3.648-.012,4.732,4.732,0,0,0-.648,2.691V9.57a4.847,4.847,0,0,0,.641,2.7,2.243,2.243,0,0,0,3.656.035,4.819,4.819,0,0,0,.641-2.7Zm10.922,1.3h-4.5V15H87.051V3.625h7.406v1.9H89.395V8.461h4.5ZM95.816,15V3.625H99.8a5.232,5.232,0,0,1,3.141.793,2.712,2.712,0,0,1,1.07,2.324,2.57,2.57,0,0,1-.43,1.473,2.482,2.482,0,0,1-1.2.934,2.4,2.4,0,0,1,1.379.883,2.61,2.61,0,0,1,.5,1.625,3,3,0,0,1-1.047,2.484,4.713,4.713,0,0,1-2.984.859Zm2.344-4.953v3.07h2.008a1.938,1.938,0,0,0,1.293-.395,1.353,1.353,0,0,0,.465-1.09,1.428,1.428,0,0,0-1.617-1.586Zm0-1.656h1.734q1.773-.031,1.773-1.414a1.307,1.307,0,0,0-.449-1.113,2.363,2.363,0,0,0-1.418-.34H98.16ZM27.219,34.375a11.9,11.9,0,0,1,.484-3.426,9.4,9.4,0,0,1,1.422-2.9,5.646,5.646,0,0,1,1.984-1.793l.375,1.109A5.8,5.8,0,0,0,29.7,29.918a11.424,11.424,0,0,0-.746,3.926l-.008.672a12.42,12.42,0,0,0,.668,4.223,6.224,6.224,0,0,0,1.871,2.824l-.375,1.055a5.655,5.655,0,0,1-1.988-1.8,9.4,9.4,0,0,1-1.422-2.9A12.374,12.374,0,0,1,27.219,34.375Zm9.258,4.781a3.855,3.855,0,0,1-1.949-.531,3.411,3.411,0,0,1-1.309-1.473,5.62,5.62,0,0,1-.531-2.191,10.076,10.076,0,0,1,.176-2.281,7.68,7.68,0,0,1,.82-2.379,5.979,5.979,0,0,1,1.41-1.754,4.646,4.646,0,0,1,3.125-1.078,3.51,3.51,0,0,1,2.691,1.164,4.821,4.821,0,0,1,1.1,3.063,10.079,10.079,0,0,1-.176,2.223,8.056,8.056,0,0,1-.766,2.3,5.882,5.882,0,0,1-1.348,1.754A4.61,4.61,0,0,1,36.477,39.156Zm3.555-6.148.07-.828a4.963,4.963,0,0,0-.148-1.574,2.066,2.066,0,0,0-.66-1.1,1.9,1.9,0,0,0-1.176-.4,2.642,2.642,0,0,0-1.746.555,4.066,4.066,0,0,0-1.234,1.781,9.332,9.332,0,0,0-.551,3,3.8,3.8,0,0,0,.438,2.25,1.776,1.776,0,0,0,1.547.852,2.67,2.67,0,0,0,2.23-1.016,5.855,5.855,0,0,0,1.152-2.969Zm7.914,5.156a3.066,3.066,0,0,1-2.406.992,2.355,2.355,0,0,1-1.363-.406,2.113,2.113,0,0,1-.773-1.09,3.99,3.99,0,0,1-.137-1.645l.914-5.469h1.852l-.922,5.492a2.912,2.912,0,0,0-.008.563.95.95,0,0,0,.977,1.008,2.236,2.236,0,0,0,1.984-.984l1.063-6.078h1.852L49.516,39H47.781Zm7.625-9.672-.359,2.055h1.445l-.242,1.406H54.961l-.8,4.734a1.619,1.619,0,0,0-.008.352q.047.508.625.531a3.529,3.529,0,0,0,.656-.07l-.125,1.484a4.245,4.245,0,0,1-1.164.164,1.729,1.729,0,0,1-1.449-.66,2.389,2.389,0,0,1-.379-1.707l.789-4.828H51.758l.25-1.406h1.344l.359-2.055ZM64.578,34.8a6.959,6.959,0,0,1-.676,2.3,3.92,3.92,0,0,1-1.32,1.559,3.052,3.052,0,0,1-1.793.5,2.652,2.652,0,0,1-2.078-.937l-.758,4.023H56.094l2.031-11.7,1.7-.008-.141.875a2.927,2.927,0,0,1,2.3-1.023,2.477,2.477,0,0,1,1.4.41,2.532,2.532,0,0,1,.91,1.168,4.734,4.734,0,0,1,.34,1.7A10.386,10.386,0,0,1,64.578,34.8Zm-1.828-.164.039-.57a2.769,2.769,0,0,0-.332-1.562,1.217,1.217,0,0,0-1.066-.57,2.155,2.155,0,0,0-1.812.961l-.656,3.773a1.432,1.432,0,0,0,1.43.977A1.888,1.888,0,0,0,61.9,36.93,4.5,4.5,0,0,0,62.75,34.641ZM70.7,38.164a3.066,3.066,0,0,1-2.406.992,2.355,2.355,0,0,1-1.363-.406,2.113,2.113,0,0,1-.773-1.09,3.99,3.99,0,0,1-.137-1.645l.914-5.469h1.852l-.922,5.492a2.911,2.911,0,0,0-.008.563.95.95,0,0,0,.977,1.008,2.236,2.236,0,0,0,1.984-.984l1.063-6.078h1.852L72.273,39H70.539Zm7.625-9.672-.359,2.055h1.445l-.242,1.406H77.719l-.8,4.734a1.619,1.619,0,0,0-.008.352q.047.508.625.531a3.529,3.529,0,0,0,.656-.07l-.125,1.484a4.245,4.245,0,0,1-1.164.164,1.729,1.729,0,0,1-1.449-.66,2.389,2.389,0,0,1-.379-1.707l.789-4.828H74.516l.25-1.406h1.344l.359-2.055ZM84.016,39l1.227-7.047H83.984l.25-1.406h1.25l.125-.906a3.377,3.377,0,0,1,1.059-2.078,3.127,3.127,0,0,1,2.207-.75,5.994,5.994,0,0,1,1.1.156l-.2,1.484a3.128,3.128,0,0,0-.7-.078,1.565,1.565,0,0,0-1.086.359,1.7,1.7,0,0,0-.539,1.016l-.117.8h1.672l-.25,1.406H87.094L85.867,39Zm8.758.156a3.541,3.541,0,0,1-1.91-.555,3.156,3.156,0,0,1-1.2-1.453,4.32,4.32,0,0,1-.293-2.055l.023-.32a5.657,5.657,0,0,1,.754-2.316A4.3,4.3,0,0,1,91.68,30.9a3.713,3.713,0,0,1,1.984-.508,2.769,2.769,0,0,1,2.379,1.182,4.337,4.337,0,0,1,.6,3l-.109.814h-5.32A2.3,2.3,0,0,0,91.617,37a1.61,1.61,0,0,0,1.313.631,2.847,2.847,0,0,0,2.2-1.039l.938.984a3.563,3.563,0,0,1-1.4,1.176A4.166,4.166,0,0,1,92.773,39.156Zm.789-7.25q-1.469-.047-2.2,2.078l3.508.008.031-.164a2.451,2.451,0,0,0,.008-.7,1.437,1.437,0,0,0-.437-.875A1.385,1.385,0,0,0,93.563,31.906Zm7.617,7.25a3.541,3.541,0,0,1-1.91-.555,3.156,3.156,0,0,1-1.2-1.453,4.32,4.32,0,0,1-.293-2.055l.023-.32a5.657,5.657,0,0,1,.754-2.316,4.3,4.3,0,0,1,1.527-1.559,3.713,3.713,0,0,1,1.984-.508,2.769,2.769,0,0,1,2.379,1.182,4.337,4.337,0,0,1,.6,3l-.109.814h-5.32A2.3,2.3,0,0,0,100.023,37a1.61,1.61,0,0,0,1.313.631,2.847,2.847,0,0,0,2.2-1.039l.938.984a3.563,3.563,0,0,1-1.4,1.176A4.166,4.166,0,0,1,101.18,39.156Zm.789-7.25q-1.469-.047-2.2,2.078l3.508.008.031-.164a2.451,2.451,0,0,0,.008-.7,1.437,1.437,0,0,0-.437-.875A1.385,1.385,0,0,0,101.969,31.906Zm4.2,2.859a6.7,6.7,0,0,1,.7-2.344,3.968,3.968,0,0,1,1.352-1.551,3.121,3.121,0,0,1,1.789-.488,2.5,2.5,0,0,1,2.016.961L112.836,27H114.7l-2.086,12h-1.656l.125-.875a2.946,2.946,0,0,1-2.312,1.039,2.325,2.325,0,0,1-1.887-.91,3.975,3.975,0,0,1-.762-2.379,6.316,6.316,0,0,1,.023-.945Zm1.8.727a2.6,2.6,0,0,0,.3,1.539,1.2,1.2,0,0,0,1.059.586,2.175,2.175,0,0,0,1.852-1.039l.633-3.633a1.445,1.445,0,0,0-1.422-1.008,1.9,1.9,0,0,0-1.711.938A5,5,0,0,0,107.961,35.492Zm14.563-.68a6.878,6.878,0,0,1-.691,2.332,3.826,3.826,0,0,1-1.328,1.543,3.133,3.133,0,0,1-1.785.477,2.485,2.485,0,0,1-2.133-1.086l-.3.922h-1.7l2.078-12h1.859l-.844,4.367a2.872,2.872,0,0,1,2.242-.977,2.4,2.4,0,0,1,1.918.9,3.878,3.878,0,0,1,.73,2.375A10.892,10.892,0,0,1,122.523,34.813Zm-1.781-1.047a2.218,2.218,0,0,0-.352-1.332,1.22,1.22,0,0,0-1.016-.5,2.178,2.178,0,0,0-1.891,1.078l-.609,3.5a1.475,1.475,0,0,0,1.477,1.1,1.841,1.841,0,0,0,1.543-.719,4.075,4.075,0,0,0,.777-2.094Q120.734,34.141,120.742,33.766ZM128.43,39a2.507,2.507,0,0,1-.078-.789,3.134,3.134,0,0,1-2.258.945,2.589,2.589,0,0,1-1.824-.707,2.18,2.18,0,0,1-.676-1.754,2.588,2.588,0,0,1,1.156-2.1,5.034,5.034,0,0,1,2.938-.766l1.2.016.109-.578a1.744,1.744,0,0,0,0-.57,1.017,1.017,0,0,0-1.117-.867,1.685,1.685,0,0,0-1.043.3,1.3,1.3,0,0,0-.551.848l-1.852.016a2.318,2.318,0,0,1,.555-1.371,3.289,3.289,0,0,1,1.328-.918,4.5,4.5,0,0,1,1.75-.312,2.956,2.956,0,0,1,2.156.832,2.466,2.466,0,0,1,.641,2.074l-.648,3.961-.062.7a2.5,2.5,0,0,0,.117.9l-.008.141Zm-1.906-1.359a2.041,2.041,0,0,0,1.086-.27,2.861,2.861,0,0,0,.852-.738l.289-1.6-.883-.008a3.1,3.1,0,0,0-1.672.395,1.447,1.447,0,0,0-.711,1.082.957.957,0,0,0,.23.824A1.127,1.127,0,0,0,126.523,37.641Zm9.047.008a1.81,1.81,0,0,0,1.828-1.437l1.75-.008a2.993,2.993,0,0,1-.605,1.523,3.52,3.52,0,0,1-1.332,1.07,3.7,3.7,0,0,1-1.7.359,3.184,3.184,0,0,1-1.852-.562,3.11,3.11,0,0,1-1.117-1.512,4.836,4.836,0,0,1-.234-2.152l.023-.273a5.532,5.532,0,0,1,.715-2.223,4.173,4.173,0,0,1,1.5-1.535,3.766,3.766,0,0,1,2.047-.508,2.957,2.957,0,0,1,2.2.91,3.215,3.215,0,0,1,.82,2.285h-1.734a1.889,1.889,0,0,0-.355-1.187,1.3,1.3,0,0,0-1.027-.492,1.876,1.876,0,0,0-1.711.922,5.146,5.146,0,0,0-.672,2.688Q134.063,37.617,135.57,37.648Zm7.883-2.258-1.047.93L141.945,39h-1.852l2.078-12h1.852l-1.187,6.813.648-.672,2.688-2.594h2.367l-3.75,3.609L147.258,39H145.25Zm9.32-.891a11.755,11.755,0,0,1-.477,3.348,9.485,9.485,0,0,1-1.445,2.938,5.66,5.66,0,0,1-2.023,1.832l-.375-1.055a6,6,0,0,0,1.855-2.77,12.3,12.3,0,0,0,.684-4.254v-.18A12.484,12.484,0,0,0,150.4,30.4a6.98,6.98,0,0,0-1.7-2.863l-.242-.219.375-1.062a5.6,5.6,0,0,1,1.938,1.719,9.326,9.326,0,0,1,1.438,2.762,11.5,11.5,0,0,1,.563,3.152Z" transform="translate(573 6577)" fill="#12263f"/>
    <g transform="matrix(1, 0, 0, 1, 276, 6338)" filter="url(#Trazado_232034)">
      <path id="Trazado_232034-2" data-name="Trazado 232034" d="M9,0H199a9,9,0,0,1,9,9V49a9,9,0,0,1-9,9H9a9,9,0,0,1-9-9V9A9,9,0,0,1,9,0Z" transform="translate(9 231)" fill="#59e5f5"/>
    </g>
    <path id="Trazado_232038" data-name="Trazado 232038" d="M84.371,11.211A4.025,4.025,0,0,1,83.016,14.1a4.76,4.76,0,0,1-3.223,1.055,4.28,4.28,0,0,1-3.441-1.473A6.038,6.038,0,0,1,75.1,9.641v-.7a6.819,6.819,0,0,1,.578-2.891,4.332,4.332,0,0,1,1.652-1.918A5.164,5.164,0,0,1,83,4.523a4.326,4.326,0,0,1,1.391,2.961H82.043a2.376,2.376,0,0,0-.613-1.6,2.271,2.271,0,0,0-1.605-.5,1.991,1.991,0,0,0-1.754.84,4.707,4.707,0,0,0-.6,2.605V9.7a5.038,5.038,0,0,0,.559,2.7,1.954,1.954,0,0,0,1.762.852,2.314,2.314,0,0,0,1.621-.5,2.241,2.241,0,0,0,.613-1.535ZM85.91,15V3.625h3.984a5.232,5.232,0,0,1,3.141.793,2.712,2.712,0,0,1,1.07,2.324,2.57,2.57,0,0,1-.43,1.473,2.482,2.482,0,0,1-1.2.934,2.4,2.4,0,0,1,1.379.883,2.61,2.61,0,0,1,.5,1.625,3,3,0,0,1-1.047,2.484A4.713,4.713,0,0,1,90.332,15Zm2.344-4.953v3.07h2.008a1.938,1.938,0,0,0,1.293-.395,1.353,1.353,0,0,0,.465-1.09A1.428,1.428,0,0,0,90.4,10.047Zm0-1.656h1.734q1.773-.031,1.773-1.414a1.307,1.307,0,0,0-.449-1.113,2.363,2.363,0,0,0-1.418-.34H88.254Zm16.8,2.82A4.025,4.025,0,0,1,103.7,14.1a4.76,4.76,0,0,1-3.223,1.055,4.28,4.28,0,0,1-3.441-1.473,6.038,6.038,0,0,1-1.254-4.043v-.7a6.819,6.819,0,0,1,.578-2.891,4.332,4.332,0,0,1,1.652-1.918,5.164,5.164,0,0,1,5.668.387,4.326,4.326,0,0,1,1.391,2.961h-2.344a2.376,2.376,0,0,0-.613-1.6,2.271,2.271,0,0,0-1.605-.5,1.991,1.991,0,0,0-1.754.84,4.707,4.707,0,0,0-.6,2.605V9.7a5.038,5.038,0,0,0,.559,2.7,1.954,1.954,0,0,0,1.762.852,2.314,2.314,0,0,0,1.621-.5,2.241,2.241,0,0,0,.613-1.535ZM9.035,34.375a11.9,11.9,0,0,1,.484-3.426,9.4,9.4,0,0,1,1.422-2.9,5.646,5.646,0,0,1,1.984-1.793l.375,1.109a5.8,5.8,0,0,0-1.785,2.551,11.424,11.424,0,0,0-.746,3.926l-.008.672a12.42,12.42,0,0,0,.668,4.223A6.224,6.224,0,0,0,13.3,41.563l-.375,1.055a5.655,5.655,0,0,1-1.988-1.8,9.4,9.4,0,0,1-1.422-2.9A12.374,12.374,0,0,1,9.035,34.375Zm13.906.914a4.418,4.418,0,0,1-1.6,2.84,4.794,4.794,0,0,1-3.2,1.027,3.775,3.775,0,0,1-1.9-.516,3.335,3.335,0,0,1-1.277-1.434,5.35,5.35,0,0,1-.516-2.129,11.519,11.519,0,0,1,.219-2.426,7.662,7.662,0,0,1,1.02-2.754,5.158,5.158,0,0,1,1.852-1.836,4.721,4.721,0,0,1,2.441-.594,3.633,3.633,0,0,1,2.684,1.066,4.185,4.185,0,0,1,1.051,2.855H21.8a2.8,2.8,0,0,0-.512-1.762,1.824,1.824,0,0,0-1.4-.566,2.64,2.64,0,0,0-2.133.913A5.344,5.344,0,0,0,16.6,32.747l-.156,1.038-.07.8a4.711,4.711,0,0,0,.113,1.51,1.97,1.97,0,0,0,.621,1.077,1.812,1.812,0,0,0,1.133.394,2.605,2.605,0,0,0,2.8-2.258ZM25.918,39H24.066l1.469-8.453h1.852ZM25.8,28.383a1.044,1.044,0,0,1,.281-.734,1.03,1.03,0,0,1,.758-.32.985.985,0,0,1,.754.277.96.96,0,0,1,.3.715.988.988,0,0,1-.293.734,1.074,1.074,0,0,1-.746.3,1,1,0,0,1-.75-.27A.929.929,0,0,1,25.8,28.383ZM35.9,34.8a6.959,6.959,0,0,1-.676,2.3,3.92,3.92,0,0,1-1.32,1.559,3.052,3.052,0,0,1-1.793.5,2.652,2.652,0,0,1-2.078-.937l-.758,4.023H27.418l2.031-11.7,1.7-.008L31,31.414a2.927,2.927,0,0,1,2.3-1.023,2.477,2.477,0,0,1,1.4.41,2.532,2.532,0,0,1,.91,1.168,4.734,4.734,0,0,1,.34,1.7A10.386,10.386,0,0,1,35.9,34.8Zm-1.828-.164.039-.57a2.769,2.769,0,0,0-.332-1.562,1.217,1.217,0,0,0-1.066-.57A2.155,2.155,0,0,0,30.9,32.9l-.656,3.773a1.432,1.432,0,0,0,1.43.977,1.888,1.888,0,0,0,1.551-.719A4.5,4.5,0,0,0,34.074,34.641Zm5.781-3.164a3.124,3.124,0,0,1,2.4-1.078,2.062,2.062,0,0,1,1.785.852,3.381,3.381,0,0,1,.434,2.313L43.566,39H41.715l.922-5.461a3.191,3.191,0,0,0,.016-.625,1.012,1.012,0,0,0-1.125-.977,2.284,2.284,0,0,0-1.844,1.016L38.629,39H36.777l2.078-12h1.859Zm9.469,7.68a3.541,3.541,0,0,1-1.91-.555,3.156,3.156,0,0,1-1.2-1.453,4.32,4.32,0,0,1-.293-2.055l.023-.32a5.657,5.657,0,0,1,.754-2.316A4.3,4.3,0,0,1,48.23,30.9a3.713,3.713,0,0,1,1.984-.508,2.769,2.769,0,0,1,2.379,1.182,4.337,4.337,0,0,1,.6,3l-.109.814h-5.32A2.3,2.3,0,0,0,48.168,37a1.61,1.61,0,0,0,1.313.631,2.847,2.847,0,0,0,2.2-1.039l.938.984a3.563,3.563,0,0,1-1.4,1.176A4.166,4.166,0,0,1,49.324,39.156Zm.789-7.25q-1.469-.047-2.2,2.078l3.508.008.031-.164a2.451,2.451,0,0,0,.008-.7,1.438,1.438,0,0,0-.437-.875A1.385,1.385,0,0,0,50.113,31.906Zm9.32.375a3.411,3.411,0,0,0-.727-.078,2.168,2.168,0,0,0-1.937,1.008L55.754,39H53.9l1.461-8.453,1.758-.008-.187.961a2.419,2.419,0,0,1,2-1.125,3.039,3.039,0,0,1,.711.117Zm4.289,2.648H59.73L60,33.4H64Zm8.813-.117a6.878,6.878,0,0,1-.691,2.332,3.826,3.826,0,0,1-1.328,1.543,3.133,3.133,0,0,1-1.785.477A2.485,2.485,0,0,1,66.6,38.078L66.3,39h-1.7l2.078-12h1.859L67.7,31.367a2.872,2.872,0,0,1,2.242-.977,2.4,2.4,0,0,1,1.918.9,3.878,3.878,0,0,1,.73,2.375A10.892,10.892,0,0,1,72.535,34.813Zm-1.781-1.047a2.218,2.218,0,0,0-.352-1.332,1.22,1.22,0,0,0-1.016-.5A2.178,2.178,0,0,0,67.5,33.016l-.609,3.5a1.475,1.475,0,0,0,1.477,1.1,1.841,1.841,0,0,0,1.543-.719,4.075,4.075,0,0,0,.777-2.094Q70.746,34.141,70.754,33.766ZM75.387,39H73.535l2.086-12h1.852ZM77.9,34.742a5.562,5.562,0,0,1,.73-2.258,4.335,4.335,0,0,1,1.535-1.57,3.794,3.794,0,0,1,2.078-.523,3.139,3.139,0,0,1,3.027,2.117,4.887,4.887,0,0,1,.254,2.172,5.665,5.665,0,0,1-.73,2.375,4.319,4.319,0,0,1-1.547,1.582,3.848,3.848,0,0,1-2.09.52,3.136,3.136,0,0,1-3.016-2.105,4.824,4.824,0,0,1-.266-2.145Zm1.82,1.07a2.232,2.232,0,0,0,.434,1.316,1.387,1.387,0,0,0,1.1.52,1.948,1.948,0,0,0,1.6-.734,3.863,3.863,0,0,0,.809-2.07l.047-.766a2.7,2.7,0,0,0-.4-1.57,1.4,1.4,0,0,0-1.156-.6,2.024,2.024,0,0,0-1.875,1.164,4.349,4.349,0,0,0-.523,1.672A6.541,6.541,0,0,0,79.723,35.813Zm10.336,1.836a1.81,1.81,0,0,0,1.828-1.437l1.75-.008a2.993,2.993,0,0,1-.605,1.523A3.52,3.52,0,0,1,91.7,38.8a3.7,3.7,0,0,1-1.7.359,3.184,3.184,0,0,1-1.852-.562,3.11,3.11,0,0,1-1.117-1.512A4.836,4.836,0,0,1,86.8,34.93l.023-.273a5.531,5.531,0,0,1,.715-2.223,4.173,4.173,0,0,1,1.5-1.535,3.766,3.766,0,0,1,2.047-.508,2.957,2.957,0,0,1,2.2.91,3.215,3.215,0,0,1,.82,2.285H92.371a1.889,1.889,0,0,0-.355-1.187,1.3,1.3,0,0,0-1.027-.492,1.876,1.876,0,0,0-1.711.922,5.146,5.146,0,0,0-.672,2.688Q88.551,37.617,90.059,37.648Zm7.883-2.258-1.047.93L96.434,39H94.582L96.66,27h1.852l-1.187,6.813.648-.672,2.688-2.594h2.367l-3.75,3.609L101.746,39H99.738Zm12.445,2.258a1.81,1.81,0,0,0,1.828-1.437l1.75-.008a2.993,2.993,0,0,1-.605,1.523,3.52,3.52,0,0,1-1.332,1.07,3.7,3.7,0,0,1-1.7.359,3.184,3.184,0,0,1-1.852-.562,3.11,3.11,0,0,1-1.117-1.512,4.836,4.836,0,0,1-.234-2.152l.023-.273a5.531,5.531,0,0,1,.715-2.223,4.173,4.173,0,0,1,1.5-1.535,3.766,3.766,0,0,1,2.047-.508,2.957,2.957,0,0,1,2.2.91,3.215,3.215,0,0,1,.82,2.285H112.7a1.889,1.889,0,0,0-.355-1.187,1.3,1.3,0,0,0-1.027-.492,1.876,1.876,0,0,0-1.711.922,5.146,5.146,0,0,0-.672,2.688Q108.879,37.617,110.387,37.648Zm7.57-6.172a3.124,3.124,0,0,1,2.4-1.078,2.062,2.062,0,0,1,1.785.852,3.381,3.381,0,0,1,.434,2.313L121.668,39h-1.852l.922-5.461a3.191,3.191,0,0,0,.016-.625,1.012,1.012,0,0,0-1.125-.977,2.284,2.284,0,0,0-1.844,1.016L116.73,39h-1.852l2.078-12h1.859ZM128.621,39a2.507,2.507,0,0,1-.078-.789,3.134,3.134,0,0,1-2.258.945,2.589,2.589,0,0,1-1.824-.707,2.18,2.18,0,0,1-.676-1.754,2.588,2.588,0,0,1,1.156-2.1,5.034,5.034,0,0,1,2.938-.766l1.2.016.109-.578a1.744,1.744,0,0,0,0-.57,1.017,1.017,0,0,0-1.117-.867,1.685,1.685,0,0,0-1.043.3,1.3,1.3,0,0,0-.551.848l-1.852.016a2.318,2.318,0,0,1,.555-1.371,3.289,3.289,0,0,1,1.328-.918,4.5,4.5,0,0,1,1.75-.312,2.956,2.956,0,0,1,2.156.832,2.466,2.466,0,0,1,.641,2.074l-.648,3.961-.062.7a2.5,2.5,0,0,0,.117.9l-.008.141Zm-1.906-1.359a2.041,2.041,0,0,0,1.086-.27,2.862,2.862,0,0,0,.852-.738l.289-1.6-.883-.008a3.1,3.1,0,0,0-1.672.395,1.447,1.447,0,0,0-.711,1.082.957.957,0,0,0,.23.824A1.127,1.127,0,0,0,126.715,37.641ZM134.043,39h-1.852l1.469-8.453h1.852Zm-.117-10.617a1.044,1.044,0,0,1,.281-.734,1.03,1.03,0,0,1,.758-.32.985.985,0,0,1,.754.277.96.96,0,0,1,.3.715.988.988,0,0,1-.293.734,1.074,1.074,0,0,1-.746.3,1,1,0,0,1-.75-.27A.929.929,0,0,1,133.926,28.383Zm5.367,2.156-.187.992a3.226,3.226,0,0,1,2.508-1.141,2.044,2.044,0,0,1,1.758.848,3.383,3.383,0,0,1,.422,2.3L142.879,39h-1.852l.922-5.484a2.806,2.806,0,0,0,.008-.625,1,1,0,0,0-1.109-.953A2.25,2.25,0,0,0,139,32.977L137.941,39H136.09l1.461-8.453Zm7.5,8.461h-1.852l1.469-8.453h1.852Zm-.117-10.617a1.044,1.044,0,0,1,.281-.734,1.03,1.03,0,0,1,.758-.32.985.985,0,0,1,.754.277.96.96,0,0,1,.3.715.988.988,0,0,1-.293.734,1.074,1.074,0,0,1-.746.3,1,1,0,0,1-.75-.27A.929.929,0,0,1,146.676,28.383Zm5.367,2.156-.187.992a3.226,3.226,0,0,1,2.508-1.141,2.044,2.044,0,0,1,1.758.848,3.383,3.383,0,0,1,.422,2.3L155.629,39h-1.852l.922-5.484a2.806,2.806,0,0,0,.008-.625,1,1,0,0,0-1.109-.953,2.25,2.25,0,0,0-1.852,1.039L150.691,39H148.84l1.461-8.453ZM158,34.766a6.538,6.538,0,0,1,.684-2.289,4.135,4.135,0,0,1,1.348-1.566,3.18,3.18,0,0,1,1.859-.527,2.494,2.494,0,0,1,2.1,1.023l.289-.867,1.688.008-1.4,8.219a3.99,3.99,0,0,1-4.219,3.57,3.945,3.945,0,0,1-1.687-.406,3.508,3.508,0,0,1-1.281-1.031l.984-1.117a2.372,2.372,0,0,0,1.938,1.055,2.271,2.271,0,0,0,1.559-.5,2.585,2.585,0,0,0,.871-1.5l.133-.594a2.991,2.991,0,0,1-2.219.914,2.367,2.367,0,0,1-1.9-.9,3.974,3.974,0,0,1-.785-2.375A7.806,7.806,0,0,1,158,34.766Zm1.836.164a5.713,5.713,0,0,0-.031.859,2.23,2.23,0,0,0,.375,1.313,1.258,1.258,0,0,0,1.023.508,2.186,2.186,0,0,0,1.844-.977l.664-3.734a1.508,1.508,0,0,0-1.445-.961,1.928,1.928,0,0,0-1.578.727,4.071,4.071,0,0,0-.836,2.1Zm11.125-.43a11.755,11.755,0,0,1-.477,3.348,9.485,9.485,0,0,1-1.445,2.938,5.66,5.66,0,0,1-2.023,1.832l-.375-1.055a6,6,0,0,0,1.855-2.77,12.3,12.3,0,0,0,.684-4.254v-.18a12.484,12.484,0,0,0-.594-3.957,6.98,6.98,0,0,0-1.7-2.863l-.242-.219.375-1.062a5.6,5.6,0,0,1,1.938,1.719,9.326,9.326,0,0,1,1.438,2.762,11.5,11.5,0,0,1,.563,3.152Z" transform="translate(299 6577)" fill="#12263f"/>
    <g transform="matrix(1, 0, 0, 1, 276, 6338)" filter="url(#Trazado_232035)">
      <path id="Trazado_232035-2" data-name="Trazado 232035" d="M9,0H199a9,9,0,0,1,9,9V49a9,9,0,0,1-9,9H9a9,9,0,0,1-9-9V9A9,9,0,0,1,9,0Z" transform="translate(831 231)" fill="#59e5f5"/>
    </g>
    <path id="Trazado_232039" data-name="Trazado 232039" d="M82.324,13.563a4.068,4.068,0,0,1-1.789,1.176,7.492,7.492,0,0,1-2.562.418,5.076,5.076,0,0,1-2.59-.645,4.3,4.3,0,0,1-1.719-1.871,6.585,6.585,0,0,1-.621-2.883V8.984a6.994,6.994,0,0,1,.574-2.949,4.248,4.248,0,0,1,1.656-1.906,5.453,5.453,0,0,1,5.7.3,4.123,4.123,0,0,1,1.352,2.809H80.043a2.268,2.268,0,0,0-.691-1.43,2.208,2.208,0,0,0-1.473-.453,2.078,2.078,0,0,0-1.82.9,4.724,4.724,0,0,0-.633,2.672v.727a4.5,4.5,0,0,0,.68,2.7,2.327,2.327,0,0,0,1.992.914,2.6,2.6,0,0,0,1.883-.562V10.75H77.848V9.023h4.477Zm10.828-2.352A4.025,4.025,0,0,1,91.8,14.1a4.76,4.76,0,0,1-3.223,1.055,4.28,4.28,0,0,1-3.441-1.473,6.038,6.038,0,0,1-1.254-4.043v-.7a6.819,6.819,0,0,1,.578-2.891,4.332,4.332,0,0,1,1.652-1.918,5.164,5.164,0,0,1,5.668.387,4.326,4.326,0,0,1,1.391,2.961H90.824a2.376,2.376,0,0,0-.613-1.6,2.271,2.271,0,0,0-1.605-.5,1.991,1.991,0,0,0-1.754.84,4.707,4.707,0,0,0-.6,2.605V9.7a5.038,5.038,0,0,0,.559,2.7,1.954,1.954,0,0,0,1.762.852,2.314,2.314,0,0,0,1.621-.5,2.241,2.241,0,0,0,.613-1.535Zm4.6-7.586,2.922,8.25,2.906-8.25h3.078V15h-2.352V11.891l.234-5.367L101.473,15H99.863L96.8,6.531l.234,5.359V15H94.691V3.625ZM10.441,34.375a11.9,11.9,0,0,1,.484-3.426,9.4,9.4,0,0,1,1.422-2.9,5.646,5.646,0,0,1,1.984-1.793l.375,1.109a5.8,5.8,0,0,0-1.785,2.551,11.424,11.424,0,0,0-.746,3.926l-.008.672a12.42,12.42,0,0,0,.668,4.223,6.224,6.224,0,0,0,1.871,2.824l-.375,1.055a5.655,5.655,0,0,1-1.988-1.8,9.4,9.4,0,0,1-1.422-2.9A12.374,12.374,0,0,1,10.441,34.375Zm13.7,3.148a3.814,3.814,0,0,1-1.766,1.23,7.126,7.126,0,0,1-2.547.4,3.954,3.954,0,0,1-1.984-.5,3.535,3.535,0,0,1-1.363-1.445,5.193,5.193,0,0,1-.574-2.16,10.887,10.887,0,0,1,.2-2.391A7.847,7.847,0,0,1,17,30.074a5.315,5.315,0,0,1,1.566-1.77,4.726,4.726,0,0,1,2.859-.836,3.745,3.745,0,0,1,2.676.984,4.019,4.019,0,0,1,1.09,2.672l-1.867-.008q-.172-2-1.945-2.055a2.668,2.668,0,0,0-2.184.932,5.593,5.593,0,0,0-1.168,2.8,12.746,12.746,0,0,0-.2,1.747,3.579,3.579,0,0,0,.512,2.2,1.9,1.9,0,0,0,1.629.819,3.351,3.351,0,0,0,2.25-.678l.422-2.221H20.363l.266-1.5h4.18ZM30.809,39a2.507,2.507,0,0,1-.078-.789,3.134,3.134,0,0,1-2.258.945,2.589,2.589,0,0,1-1.824-.707,2.18,2.18,0,0,1-.676-1.754,2.588,2.588,0,0,1,1.156-2.1,5.034,5.034,0,0,1,2.938-.766l1.2.016.109-.578a1.744,1.744,0,0,0,0-.57,1.017,1.017,0,0,0-1.117-.867,1.685,1.685,0,0,0-1.043.3,1.3,1.3,0,0,0-.551.848l-1.852.016a2.318,2.318,0,0,1,.555-1.371A3.289,3.289,0,0,1,28.7,30.7a4.5,4.5,0,0,1,1.75-.312,2.956,2.956,0,0,1,2.156.832,2.466,2.466,0,0,1,.641,2.074L32.6,37.258l-.062.7a2.5,2.5,0,0,0,.117.9L32.645,39ZM28.9,37.641a2.041,2.041,0,0,0,1.086-.27,2.861,2.861,0,0,0,.852-.738l.289-1.6-.883-.008a3.1,3.1,0,0,0-1.672.395,1.447,1.447,0,0,0-.711,1.082.957.957,0,0,0,.23.824A1.127,1.127,0,0,0,28.9,37.641ZM36.23,39H34.379l2.086-12h1.852Zm2.516-4.258a5.562,5.562,0,0,1,.73-2.258,4.335,4.335,0,0,1,1.535-1.57,3.794,3.794,0,0,1,2.078-.523,3.139,3.139,0,0,1,3.027,2.117,4.887,4.887,0,0,1,.254,2.172,5.665,5.665,0,0,1-.73,2.375,4.318,4.318,0,0,1-1.547,1.582,3.848,3.848,0,0,1-2.09.52,3.136,3.136,0,0,1-3.016-2.105,4.824,4.824,0,0,1-.266-2.145Zm1.82,1.07A2.232,2.232,0,0,0,41,37.129a1.387,1.387,0,0,0,1.1.52,1.948,1.948,0,0,0,1.6-.734,3.863,3.863,0,0,0,.809-2.07l.047-.766a2.7,2.7,0,0,0-.4-1.57,1.4,1.4,0,0,0-1.156-.6,2.024,2.024,0,0,0-1.875,1.164,4.349,4.349,0,0,0-.523,1.672A6.541,6.541,0,0,0,40.566,35.813ZM49.184,39H47.332L48.8,30.547h1.852Zm-.117-10.617a1.044,1.044,0,0,1,.281-.734,1.03,1.03,0,0,1,.758-.32.985.985,0,0,1,.754.277.96.96,0,0,1,.3.715.988.988,0,0,1-.293.734,1.074,1.074,0,0,1-.746.3,1,1,0,0,1-.75-.27A.929.929,0,0,1,49.066,28.383Zm7.242,8.273q.133-.773-1-1.074a12.763,12.763,0,0,1-1.551-.48A2.138,2.138,0,0,1,52.2,33.008a2.378,2.378,0,0,1,1.035-1.887,3.794,3.794,0,0,1,2.387-.73,3.266,3.266,0,0,1,2.191.758,2.417,2.417,0,0,1,.832,1.945l-1.836-.008a1.185,1.185,0,0,0-.32-.918,1.307,1.307,0,0,0-.922-.348,1.817,1.817,0,0,0-1.059.3,1.135,1.135,0,0,0-.512.8q-.109.711,1,.988a10.976,10.976,0,0,1,1.641.512,2.14,2.14,0,0,1,1.492,2.125,2.336,2.336,0,0,1-.527,1.4,3.077,3.077,0,0,1-1.309.914,4.477,4.477,0,0,1-1.742.293,3.437,3.437,0,0,1-2.293-.8,2.512,2.512,0,0,1-.895-2.023l1.789.008a1.361,1.361,0,0,0,.406,1.031,1.57,1.57,0,0,0,1.07.359,2.126,2.126,0,0,0,1.145-.285A1.094,1.094,0,0,0,56.309,36.656Zm3.43,3.32H58.207l6.484-12.352H66.23Zm15.023-4.687a4.418,4.418,0,0,1-1.6,2.84,4.794,4.794,0,0,1-3.2,1.027,3.775,3.775,0,0,1-1.9-.516,3.335,3.335,0,0,1-1.277-1.434,5.35,5.35,0,0,1-.516-2.129,11.519,11.519,0,0,1,.219-2.426,7.662,7.662,0,0,1,1.02-2.754,5.158,5.158,0,0,1,1.852-1.836,4.721,4.721,0,0,1,2.441-.594,3.633,3.633,0,0,1,2.684,1.066,4.185,4.185,0,0,1,1.051,2.855H73.621a2.8,2.8,0,0,0-.512-1.762,1.824,1.824,0,0,0-1.4-.566,2.64,2.64,0,0,0-2.133.913,5.344,5.344,0,0,0-1.156,2.771l-.156,1.038-.07.8a4.711,4.711,0,0,0,.113,1.51,1.97,1.97,0,0,0,.621,1.077,1.812,1.812,0,0,0,1.133.394,2.605,2.605,0,0,0,2.8-2.258Zm1.453-.547a5.562,5.562,0,0,1,.73-2.258,4.335,4.335,0,0,1,1.535-1.57,3.794,3.794,0,0,1,2.078-.523,3.139,3.139,0,0,1,3.027,2.117,4.887,4.887,0,0,1,.254,2.172,5.665,5.665,0,0,1-.73,2.375,4.319,4.319,0,0,1-1.547,1.582,3.848,3.848,0,0,1-2.09.52,3.136,3.136,0,0,1-3.016-2.105,4.824,4.824,0,0,1-.266-2.145Zm1.82,1.07a2.232,2.232,0,0,0,.434,1.316,1.387,1.387,0,0,0,1.1.52,1.948,1.948,0,0,0,1.6-.734,3.863,3.863,0,0,0,.809-2.07l.047-.766a2.7,2.7,0,0,0-.4-1.57,1.4,1.4,0,0,0-1.156-.6A2.024,2.024,0,0,0,78.59,33.07a4.349,4.349,0,0,0-.523,1.672A6.541,6.541,0,0,0,78.035,35.813ZM89.91,38.164a3.066,3.066,0,0,1-2.406.992,2.355,2.355,0,0,1-1.363-.406,2.113,2.113,0,0,1-.773-1.09,3.99,3.99,0,0,1-.137-1.645l.914-5.469H88l-.922,5.492a2.911,2.911,0,0,0-.008.563.95.95,0,0,0,.977,1.008,2.236,2.236,0,0,0,1.984-.984l1.063-6.078h1.852L91.48,39H89.746Zm6.656-7.625-.187.992a3.226,3.226,0,0,1,2.508-1.141,2.044,2.044,0,0,1,1.758.848,3.383,3.383,0,0,1,.422,2.3L100.152,39H98.3l.922-5.484a2.806,2.806,0,0,0,.008-.625,1,1,0,0,0-1.109-.953,2.25,2.25,0,0,0-1.852,1.039L95.215,39H93.363l1.461-8.453Zm9.68-2.047-.359,2.055h1.445l-.242,1.406h-1.453l-.8,4.734a1.619,1.619,0,0,0-.008.352q.047.508.625.531a3.529,3.529,0,0,0,.656-.07l-.125,1.484a4.245,4.245,0,0,1-1.164.164,1.729,1.729,0,0,1-1.449-.66A2.389,2.389,0,0,1,103,36.781l.789-4.828h-1.352l.25-1.406h1.344l.359-2.055Zm4.922,10.664a3.541,3.541,0,0,1-1.91-.555,3.156,3.156,0,0,1-1.2-1.453,4.32,4.32,0,0,1-.293-2.055l.023-.32a5.657,5.657,0,0,1,.754-2.316,4.3,4.3,0,0,1,1.527-1.559,3.713,3.713,0,0,1,1.984-.508,2.769,2.769,0,0,1,2.379,1.182,4.337,4.337,0,0,1,.6,3l-.109.814h-5.32A2.3,2.3,0,0,0,110.012,37a1.61,1.61,0,0,0,1.313.631,2.847,2.847,0,0,0,2.2-1.039l.938.984a3.563,3.563,0,0,1-1.4,1.176A4.166,4.166,0,0,1,111.168,39.156Zm.789-7.25q-1.469-.047-2.2,2.078l3.508.008.031-.164a2.451,2.451,0,0,0,.008-.7,1.437,1.437,0,0,0-.437-.875A1.385,1.385,0,0,0,111.957,31.906Zm9.32.375a3.411,3.411,0,0,0-.727-.078,2.168,2.168,0,0,0-1.937,1.008L117.6,39h-1.852l1.461-8.453,1.758-.008-.187.961a2.419,2.419,0,0,1,2-1.125,3.039,3.039,0,0,1,.711.117Zm8.555-4.656,1.664,8.7,4.68-8.7h2.531L136.738,39h-1.922l.664-3.852,1.008-4.742L131.8,39H130.41l-1.742-8.852-.711,5.2L127.324,39H125.4l1.977-11.375Zm9.5,7.117a5.562,5.562,0,0,1,.73-2.258,4.335,4.335,0,0,1,1.535-1.57,3.794,3.794,0,0,1,2.078-.523,3.139,3.139,0,0,1,3.027,2.117,4.886,4.886,0,0,1,.254,2.172,5.665,5.665,0,0,1-.73,2.375,4.318,4.318,0,0,1-1.547,1.582,3.848,3.848,0,0,1-2.09.52,3.136,3.136,0,0,1-3.016-2.105,4.824,4.824,0,0,1-.266-2.145Zm1.82,1.07a2.232,2.232,0,0,0,.434,1.316,1.387,1.387,0,0,0,1.1.52,1.948,1.948,0,0,0,1.6-.734,3.863,3.863,0,0,0,.809-2.07l.047-.766a2.7,2.7,0,0,0-.4-1.57,1.4,1.4,0,0,0-1.156-.6,2.024,2.024,0,0,0-1.875,1.164,4.349,4.349,0,0,0-.523,1.672A6.541,6.541,0,0,0,141.152,35.813Zm7.055-1.047a6.7,6.7,0,0,1,.7-2.344,3.968,3.968,0,0,1,1.352-1.551,3.121,3.121,0,0,1,1.789-.488,2.5,2.5,0,0,1,2.016.961L154.879,27h1.859l-2.086,12H153l.125-.875a2.946,2.946,0,0,1-2.312,1.039,2.325,2.325,0,0,1-1.887-.91,3.975,3.975,0,0,1-.762-2.379,6.316,6.316,0,0,1,.023-.945Zm1.8.727a2.6,2.6,0,0,0,.3,1.539,1.2,1.2,0,0,0,1.059.586,2.175,2.175,0,0,0,1.852-1.039l.633-3.633a1.445,1.445,0,0,0-1.422-1.008,1.9,1.9,0,0,0-1.711.938A5,5,0,0,0,150,35.492Zm10.461,3.664a3.541,3.541,0,0,1-1.91-.555,3.156,3.156,0,0,1-1.2-1.453,4.32,4.32,0,0,1-.293-2.055l.023-.32a5.657,5.657,0,0,1,.754-2.316,4.3,4.3,0,0,1,1.527-1.559,3.713,3.713,0,0,1,1.984-.508,2.769,2.769,0,0,1,2.379,1.182,4.337,4.337,0,0,1,.6,3l-.109.814H158.9A2.3,2.3,0,0,0,159.309,37a1.61,1.61,0,0,0,1.313.631,2.847,2.847,0,0,0,2.2-1.039l.938.984a3.563,3.563,0,0,1-1.4,1.176A4.166,4.166,0,0,1,160.465,39.156Zm.789-7.25q-1.469-.047-2.2,2.078l3.508.008.031-.164a2.451,2.451,0,0,0,.008-.7,1.438,1.438,0,0,0-.437-.875A1.385,1.385,0,0,0,161.254,31.906Zm8.3,2.594a11.755,11.755,0,0,1-.477,3.348,9.485,9.485,0,0,1-1.445,2.938,5.66,5.66,0,0,1-2.023,1.832l-.375-1.055a6,6,0,0,0,1.855-2.77,12.3,12.3,0,0,0,.684-4.254v-.18a12.484,12.484,0,0,0-.594-3.957,6.98,6.98,0,0,0-1.7-2.863l-.242-.219.375-1.062a5.6,5.6,0,0,1,1.938,1.719,9.326,9.326,0,0,1,1.438,2.762,11.5,11.5,0,0,1,.563,3.152Z" transform="translate(1121 6577)" fill="#12263f"/>
    <g transform="matrix(1, 0, 0, 1, 276, 6338)" filter="url(#Trazado_232036)">
      <path id="Trazado_232036-2" data-name="Trazado 232036" d="M9,0H199a9,9,0,0,1,9,9V49a9,9,0,0,1-9,9H9a9,9,0,0,1-9-9V9A9,9,0,0,1,9,0Z" transform="translate(557 231)" fill="#59e5f5"/>
    </g>
    <path id="Trazado_232040" data-name="Trazado 232040" d="M85.223,11.211A4.025,4.025,0,0,1,83.867,14.1a4.76,4.76,0,0,1-3.223,1.055A4.28,4.28,0,0,1,77.2,13.684a6.038,6.038,0,0,1-1.254-4.043v-.7a6.819,6.819,0,0,1,.578-2.891A4.332,4.332,0,0,1,78.18,4.137a5.164,5.164,0,0,1,5.668.387,4.326,4.326,0,0,1,1.391,2.961H82.895a2.376,2.376,0,0,0-.613-1.6,2.271,2.271,0,0,0-1.605-.5,1.991,1.991,0,0,0-1.754.84,4.707,4.707,0,0,0-.6,2.605V9.7a5.038,5.038,0,0,0,.559,2.7,1.954,1.954,0,0,0,1.762.852,2.314,2.314,0,0,0,1.621-.5,2.241,2.241,0,0,0,.613-1.535Zm8.383-.859h-4.5V15H86.762V3.625h7.406v1.9H89.105V8.461h4.5ZM95.527,15V3.625h3.984a5.232,5.232,0,0,1,3.141.793,2.712,2.712,0,0,1,1.07,2.324,2.57,2.57,0,0,1-.43,1.473,2.482,2.482,0,0,1-1.2.934,2.4,2.4,0,0,1,1.379.883,2.61,2.61,0,0,1,.5,1.625,3,3,0,0,1-1.047,2.484A4.713,4.713,0,0,1,99.949,15Zm2.344-4.953v3.07h2.008a1.938,1.938,0,0,0,1.293-.395,1.353,1.353,0,0,0,.465-1.09,1.428,1.428,0,0,0-1.617-1.586Zm0-1.656h1.734q1.773-.031,1.773-1.414a1.307,1.307,0,0,0-.449-1.113,2.363,2.363,0,0,0-1.418-.34H97.871ZM28.121,34.375a11.9,11.9,0,0,1,.484-3.426,9.4,9.4,0,0,1,1.422-2.9,5.646,5.646,0,0,1,1.984-1.793l.375,1.109A5.8,5.8,0,0,0,30.6,29.918a11.424,11.424,0,0,0-.746,3.926l-.008.672a12.42,12.42,0,0,0,.668,4.223,6.224,6.224,0,0,0,1.871,2.824l-.375,1.055a5.655,5.655,0,0,1-1.988-1.8,9.4,9.4,0,0,1-1.422-2.9A12.374,12.374,0,0,1,28.121,34.375Zm13.906.914a4.418,4.418,0,0,1-1.6,2.84,4.794,4.794,0,0,1-3.2,1.027,3.775,3.775,0,0,1-1.9-.516,3.335,3.335,0,0,1-1.277-1.434,5.35,5.35,0,0,1-.516-2.129,11.519,11.519,0,0,1,.219-2.426,7.662,7.662,0,0,1,1.02-2.754,5.158,5.158,0,0,1,1.852-1.836,4.721,4.721,0,0,1,2.441-.594,3.633,3.633,0,0,1,2.684,1.066A4.185,4.185,0,0,1,42.8,31.391H40.887a2.8,2.8,0,0,0-.512-1.762,1.824,1.824,0,0,0-1.4-.566,2.64,2.64,0,0,0-2.133.913,5.344,5.344,0,0,0-1.156,2.771l-.156,1.038-.07.8a4.711,4.711,0,0,0,.113,1.51,1.97,1.97,0,0,0,.621,1.077,1.812,1.812,0,0,0,1.133.394,2.605,2.605,0,0,0,2.8-2.258ZM45,39H43.152l1.469-8.453h1.852Zm-.117-10.617a1.044,1.044,0,0,1,.281-.734,1.03,1.03,0,0,1,.758-.32.985.985,0,0,1,.754.277.96.96,0,0,1,.3.715.988.988,0,0,1-.293.734,1.074,1.074,0,0,1-.746.3,1,1,0,0,1-.75-.27A.929.929,0,0,1,44.887,28.383Zm10.1,6.422a6.959,6.959,0,0,1-.676,2.3,3.92,3.92,0,0,1-1.32,1.559,3.052,3.052,0,0,1-1.793.5,2.652,2.652,0,0,1-2.078-.937l-.758,4.023H46.5l2.031-11.7,1.7-.008-.141.875a2.927,2.927,0,0,1,2.3-1.023,2.477,2.477,0,0,1,1.4.41,2.532,2.532,0,0,1,.91,1.168,4.734,4.734,0,0,1,.34,1.7A10.386,10.386,0,0,1,54.988,34.8Zm-1.828-.164.039-.57a2.769,2.769,0,0,0-.332-1.562,1.217,1.217,0,0,0-1.066-.57,2.155,2.155,0,0,0-1.812.961l-.656,3.773a1.432,1.432,0,0,0,1.43.977,1.888,1.888,0,0,0,1.551-.719A4.5,4.5,0,0,0,53.16,34.641Zm5.781-3.164a3.124,3.124,0,0,1,2.4-1.078,2.062,2.062,0,0,1,1.785.852,3.381,3.381,0,0,1,.434,2.313L62.652,39H60.8l.922-5.461a3.191,3.191,0,0,0,.016-.625,1.012,1.012,0,0,0-1.125-.977,2.284,2.284,0,0,0-1.844,1.016L57.715,39H55.863l2.078-12H59.8Zm9.469,7.68A3.541,3.541,0,0,1,66.5,38.6a3.156,3.156,0,0,1-1.2-1.453,4.32,4.32,0,0,1-.293-2.055l.023-.32a5.657,5.657,0,0,1,.754-2.316A4.3,4.3,0,0,1,67.316,30.9a3.713,3.713,0,0,1,1.984-.508,2.769,2.769,0,0,1,2.379,1.182,4.337,4.337,0,0,1,.6,3l-.109.814h-5.32A2.3,2.3,0,0,0,67.254,37a1.61,1.61,0,0,0,1.313.631,2.847,2.847,0,0,0,2.2-1.039l.938.984a3.563,3.563,0,0,1-1.4,1.176A4.166,4.166,0,0,1,68.41,39.156Zm.789-7.25q-1.469-.047-2.2,2.078l3.508.008.031-.164a2.451,2.451,0,0,0,.008-.7,1.437,1.437,0,0,0-.437-.875A1.385,1.385,0,0,0,69.2,31.906Zm9.32.375a3.411,3.411,0,0,0-.727-.078,2.168,2.168,0,0,0-1.937,1.008L74.84,39H72.988l1.461-8.453,1.758-.008-.187.961a2.419,2.419,0,0,1,2-1.125,3.039,3.039,0,0,1,.711.117ZM83.113,39l1.227-7.047H83.082l.25-1.406h1.25l.125-.906a3.377,3.377,0,0,1,1.059-2.078,3.127,3.127,0,0,1,2.207-.75,5.994,5.994,0,0,1,1.1.156l-.2,1.484a3.128,3.128,0,0,0-.7-.078,1.565,1.565,0,0,0-1.086.359,1.7,1.7,0,0,0-.539,1.016l-.117.8h1.672l-.25,1.406H86.191L84.965,39Zm8.758.156a3.541,3.541,0,0,1-1.91-.555,3.156,3.156,0,0,1-1.2-1.453,4.32,4.32,0,0,1-.293-2.055l.023-.32a5.657,5.657,0,0,1,.754-2.316A4.3,4.3,0,0,1,90.777,30.9a3.713,3.713,0,0,1,1.984-.508,2.769,2.769,0,0,1,2.379,1.182,4.337,4.337,0,0,1,.6,3l-.109.814h-5.32A2.3,2.3,0,0,0,90.715,37a1.61,1.61,0,0,0,1.313.631,2.847,2.847,0,0,0,2.2-1.039l.938.984a3.563,3.563,0,0,1-1.4,1.176A4.166,4.166,0,0,1,91.871,39.156Zm.789-7.25q-1.469-.047-2.2,2.078l3.508.008L94,33.828a2.451,2.451,0,0,0,.008-.7,1.437,1.437,0,0,0-.437-.875A1.385,1.385,0,0,0,92.66,31.906Zm7.617,7.25a3.541,3.541,0,0,1-1.91-.555,3.156,3.156,0,0,1-1.2-1.453,4.32,4.32,0,0,1-.293-2.055l.023-.32a5.657,5.657,0,0,1,.754-2.316A4.3,4.3,0,0,1,99.184,30.9a3.713,3.713,0,0,1,1.984-.508,2.769,2.769,0,0,1,2.379,1.182,4.337,4.337,0,0,1,.6,3l-.109.814h-5.32A2.3,2.3,0,0,0,99.121,37a1.61,1.61,0,0,0,1.313.631,2.847,2.847,0,0,0,2.2-1.039l.938.984a3.563,3.563,0,0,1-1.4,1.176A4.166,4.166,0,0,1,100.277,39.156Zm.789-7.25q-1.469-.047-2.2,2.078l3.508.008.031-.164a2.451,2.451,0,0,0,.008-.7,1.437,1.437,0,0,0-.437-.875A1.385,1.385,0,0,0,101.066,31.906Zm4.2,2.859a6.7,6.7,0,0,1,.7-2.344,3.968,3.968,0,0,1,1.352-1.551,3.121,3.121,0,0,1,1.789-.488,2.5,2.5,0,0,1,2.016.961L111.934,27h1.859l-2.086,12h-1.656l.125-.875a2.946,2.946,0,0,1-2.312,1.039,2.325,2.325,0,0,1-1.887-.91,3.975,3.975,0,0,1-.762-2.379,6.316,6.316,0,0,1,.023-.945Zm1.8.727a2.6,2.6,0,0,0,.3,1.539,1.2,1.2,0,0,0,1.059.586,2.175,2.175,0,0,0,1.852-1.039l.633-3.633a1.445,1.445,0,0,0-1.422-1.008,1.9,1.9,0,0,0-1.711.938A5,5,0,0,0,107.059,35.492Zm14.563-.68a6.878,6.878,0,0,1-.691,2.332,3.826,3.826,0,0,1-1.328,1.543,3.133,3.133,0,0,1-1.785.477,2.485,2.485,0,0,1-2.133-1.086l-.3.922h-1.7l2.078-12h1.859l-.844,4.367a2.872,2.872,0,0,1,2.242-.977,2.4,2.4,0,0,1,1.918.9,3.878,3.878,0,0,1,.73,2.375A10.892,10.892,0,0,1,121.621,34.813Zm-1.781-1.047a2.218,2.218,0,0,0-.352-1.332,1.22,1.22,0,0,0-1.016-.5,2.178,2.178,0,0,0-1.891,1.078l-.609,3.5a1.475,1.475,0,0,0,1.477,1.1,1.841,1.841,0,0,0,1.543-.719,4.075,4.075,0,0,0,.777-2.094Q119.832,34.141,119.84,33.766ZM127.527,39a2.507,2.507,0,0,1-.078-.789,3.134,3.134,0,0,1-2.258.945,2.589,2.589,0,0,1-1.824-.707,2.18,2.18,0,0,1-.676-1.754,2.588,2.588,0,0,1,1.156-2.1,5.034,5.034,0,0,1,2.938-.766l1.2.016.109-.578a1.744,1.744,0,0,0,0-.57,1.017,1.017,0,0,0-1.117-.867,1.685,1.685,0,0,0-1.043.3,1.3,1.3,0,0,0-.551.848l-1.852.016a2.318,2.318,0,0,1,.555-1.371,3.289,3.289,0,0,1,1.328-.918,4.5,4.5,0,0,1,1.75-.312,2.956,2.956,0,0,1,2.156.832,2.466,2.466,0,0,1,.641,2.074l-.648,3.961-.062.7a2.5,2.5,0,0,0,.117.9l-.008.141Zm-1.906-1.359a2.041,2.041,0,0,0,1.086-.27,2.861,2.861,0,0,0,.852-.738l.289-1.6-.883-.008a3.1,3.1,0,0,0-1.672.395,1.447,1.447,0,0,0-.711,1.082.957.957,0,0,0,.23.824A1.127,1.127,0,0,0,125.621,37.641Zm9.047.008a1.81,1.81,0,0,0,1.828-1.437l1.75-.008a2.993,2.993,0,0,1-.605,1.523,3.52,3.52,0,0,1-1.332,1.07,3.7,3.7,0,0,1-1.7.359,3.184,3.184,0,0,1-1.852-.562,3.11,3.11,0,0,1-1.117-1.512,4.836,4.836,0,0,1-.234-2.152l.023-.273a5.532,5.532,0,0,1,.715-2.223,4.173,4.173,0,0,1,1.5-1.535,3.766,3.766,0,0,1,2.047-.508,2.957,2.957,0,0,1,2.2.91,3.215,3.215,0,0,1,.82,2.285H136.98a1.889,1.889,0,0,0-.355-1.187,1.3,1.3,0,0,0-1.027-.492,1.876,1.876,0,0,0-1.711.922,5.146,5.146,0,0,0-.672,2.688Q133.16,37.617,134.668,37.648Zm7.883-2.258-1.047.93L141.043,39h-1.852l2.078-12h1.852l-1.187,6.813.648-.672,2.688-2.594h2.367l-3.75,3.609L146.355,39h-2.008Zm9.32-.891a11.755,11.755,0,0,1-.477,3.348,9.485,9.485,0,0,1-1.445,2.938,5.66,5.66,0,0,1-2.023,1.832l-.375-1.055a6,6,0,0,0,1.855-2.77,12.3,12.3,0,0,0,.684-4.254v-.18A12.484,12.484,0,0,0,149.5,30.4a6.98,6.98,0,0,0-1.7-2.863l-.242-.219.375-1.062a5.6,5.6,0,0,1,1.938,1.719,9.326,9.326,0,0,1,1.438,2.762,11.5,11.5,0,0,1,.563,3.152Z" transform="translate(847 6577)" fill="#12263f"/>
    <path id="Trazado_231897" data-name="Trazado 231897" d="M-7781-5162v-112h411v112" transform="translate(8376 11702)" fill="none" stroke="#727997" stroke-linecap="round" stroke-width="2" stroke-dasharray="0 5"/>
    <path id="Trazado_231898" data-name="Trazado 231898" d="M-7781-5245.5V-5274h822v28.5" transform="translate(8170 11814)" fill="none" stroke="#727997" stroke-linecap="round" stroke-width="2" stroke-dasharray="0 5"/>
    <path id="Trazado_232026" data-name="Trazado 232026" d="M0,0V26" transform="translate(799.5 6402.5)" fill="none" stroke="#707070" stroke-linecap="round" stroke-width="2" stroke-dasharray="0 5"/>
    <path id="Trazado_232031" data-name="Trazado 232031" d="M0,0V26" transform="translate(662.5 6542.5)" fill="none" stroke="#707070" stroke-linecap="round" stroke-width="2" stroke-dasharray="0 5"/>
    <path id="Trazado_232032" data-name="Trazado 232032" d="M0,0V26" transform="translate(937.5 6542.5)" fill="none" stroke="#707070" stroke-linecap="round" stroke-width="2" stroke-dasharray="0 5"/>
    <g transform="matrix(1, 0, 0, 1, 276, 6338)" filter="url(#Trazado_232027)">
      <path id="Trazado_232027-2" data-name="Trazado 232027" d="M9,0H199a9,9,0,0,1,9,9V49a9,9,0,0,1-9,9H9a9,9,0,0,1-9-9V9A9,9,0,0,1,9,0Z" transform="translate(215 118)" fill="#8628a5"/>
    </g>
    <path id="Trazado_232029" data-name="Trazado 232029" d="M43.1,14.656H38.988L38.207,17H35.715L39.949,5.625h2.172L46.379,17H43.887Zm-3.477-1.9h2.844L41.035,8.5Zm14.664-.687h-4.5v3.047h5.281V17H47.441V5.625h7.609v1.9H49.785v2.711h4.5Zm8.055,1.945A1.2,1.2,0,0,0,61.871,13a6.148,6.148,0,0,0-1.687-.75,11.963,11.963,0,0,1-1.93-.777,3.153,3.153,0,0,1-1.937-2.82A2.747,2.747,0,0,1,56.836,7a3.389,3.389,0,0,1,1.492-1.129,5.616,5.616,0,0,1,2.184-.406,5.112,5.112,0,0,1,2.172.441,3.458,3.458,0,0,1,1.48,1.246,3.261,3.261,0,0,1,.527,1.828H62.348a1.534,1.534,0,0,0-.492-1.215,2.023,2.023,0,0,0-1.383-.434,2.162,2.162,0,0,0-1.336.363,1.146,1.146,0,0,0-.477.957,1.1,1.1,0,0,0,.559.93,6.311,6.311,0,0,0,1.645.7,7.106,7.106,0,0,1,2.914,1.492A2.972,2.972,0,0,1,64.691,14a2.737,2.737,0,0,1-1.117,2.316,4.891,4.891,0,0,1-3.008.84,5.808,5.808,0,0,1-2.391-.48,3.783,3.783,0,0,1-1.645-1.316,3.371,3.371,0,0,1-.566-1.937h2.352q0,1.883,2.25,1.883a2.189,2.189,0,0,0,1.3-.34A1.106,1.106,0,0,0,62.34,14.016Zm7.906-1.641a11.9,11.9,0,0,1,.484-3.426,9.4,9.4,0,0,1,1.422-2.9,5.646,5.646,0,0,1,1.984-1.793l.375,1.109a5.8,5.8,0,0,0-1.785,2.551,11.424,11.424,0,0,0-.746,3.926l-.008.672a12.42,12.42,0,0,0,.668,4.223,6.224,6.224,0,0,0,1.871,2.824l-.375,1.055a5.655,5.655,0,0,1-1.988-1.8,9.4,9.4,0,0,1-1.422-2.9A12.374,12.374,0,0,1,70.246,12.375ZM81.8,14.352H77.543L76.184,17H74.105L80.246,5.625H81.98L84.184,17H82.246Zm-3.445-1.594h3.188l-.773-4.7Zm7.406.008a6.7,6.7,0,0,1,.7-2.344,3.968,3.968,0,0,1,1.352-1.551,3.121,3.121,0,0,1,1.789-.488,2.5,2.5,0,0,1,2.016.961L92.434,5h1.859L92.207,17H90.551l.125-.875a2.946,2.946,0,0,1-2.312,1.039,2.325,2.325,0,0,1-1.887-.91,3.975,3.975,0,0,1-.762-2.379,6.316,6.316,0,0,1,.023-.945Zm1.8.727a2.6,2.6,0,0,0,.3,1.539,1.2,1.2,0,0,0,1.059.586,2.175,2.175,0,0,0,1.852-1.039l.633-3.633A1.445,1.445,0,0,0,89.98,9.938a1.9,1.9,0,0,0-1.711.938A5,5,0,0,0,87.559,13.492ZM97.52,14.57l2.672-6.023h1.977L98,17H96.395L94.848,8.547h1.859ZM106.855,17a2.507,2.507,0,0,1-.078-.789,3.134,3.134,0,0,1-2.258.945,2.589,2.589,0,0,1-1.824-.707,2.18,2.18,0,0,1-.676-1.754,2.588,2.588,0,0,1,1.156-2.1,5.034,5.034,0,0,1,2.938-.766l1.2.016.109-.578a1.744,1.744,0,0,0,0-.57,1.017,1.017,0,0,0-1.117-.867,1.685,1.685,0,0,0-1.043.3,1.3,1.3,0,0,0-.551.848l-1.852.016a2.318,2.318,0,0,1,.555-1.371,3.289,3.289,0,0,1,1.328-.918,4.5,4.5,0,0,1,1.75-.312,2.956,2.956,0,0,1,2.156.832,2.466,2.466,0,0,1,.641,2.074l-.648,3.961-.062.7a2.5,2.5,0,0,0,.117.9l-.008.141Zm-1.906-1.359a2.041,2.041,0,0,0,1.086-.27,2.861,2.861,0,0,0,.852-.738l.289-1.6-.883-.008a3.1,3.1,0,0,0-1.672.395,1.447,1.447,0,0,0-.711,1.082.957.957,0,0,0,.23.824A1.127,1.127,0,0,0,104.949,15.641Zm8.539-7.1-.187.992a3.226,3.226,0,0,1,2.508-1.141,2.044,2.044,0,0,1,1.758.848,3.383,3.383,0,0,1,.422,2.3L117.074,17h-1.852l.922-5.484a2.806,2.806,0,0,0,.008-.625,1,1,0,0,0-1.109-.953,2.25,2.25,0,0,0-1.852,1.039L112.137,17h-1.852l1.461-8.453Zm9.219,7.109a1.81,1.81,0,0,0,1.828-1.437l1.75-.008a2.993,2.993,0,0,1-.605,1.523,3.52,3.52,0,0,1-1.332,1.07,3.7,3.7,0,0,1-1.7.359,3.184,3.184,0,0,1-1.852-.562,3.11,3.11,0,0,1-1.117-1.512,4.836,4.836,0,0,1-.234-2.152l.023-.273a5.531,5.531,0,0,1,.715-2.223,4.173,4.173,0,0,1,1.5-1.535,3.766,3.766,0,0,1,2.047-.508,2.957,2.957,0,0,1,2.2.91,3.215,3.215,0,0,1,.82,2.285H125.02a1.889,1.889,0,0,0-.355-1.187,1.3,1.3,0,0,0-1.027-.492,1.876,1.876,0,0,0-1.711.922,5.146,5.146,0,0,0-.672,2.688Q121.2,15.617,122.707,15.648Zm8.344,1.508a3.541,3.541,0,0,1-1.91-.555,3.156,3.156,0,0,1-1.2-1.453,4.32,4.32,0,0,1-.293-2.055l.023-.32a5.657,5.657,0,0,1,.754-2.316A4.3,4.3,0,0,1,129.957,8.9a3.713,3.713,0,0,1,1.984-.508,2.769,2.769,0,0,1,2.379,1.182,4.337,4.337,0,0,1,.6,3l-.109.814h-5.32A2.3,2.3,0,0,0,129.895,15a1.61,1.61,0,0,0,1.313.631,2.847,2.847,0,0,0,2.2-1.039l.938.984a3.563,3.563,0,0,1-1.4,1.176A4.166,4.166,0,0,1,131.051,17.156Zm.789-7.25q-1.469-.047-2.2,2.078l3.508.008.031-.164a2.451,2.451,0,0,0,.008-.7,1.438,1.438,0,0,0-.437-.875A1.385,1.385,0,0,0,131.84,9.906Zm4.2,2.859a6.7,6.7,0,0,1,.7-2.344,3.968,3.968,0,0,1,1.352-1.551,3.121,3.121,0,0,1,1.789-.488,2.5,2.5,0,0,1,2.016.961L142.707,5h1.859L142.48,17h-1.656l.125-.875a2.946,2.946,0,0,1-2.312,1.039,2.325,2.325,0,0,1-1.887-.91,3.975,3.975,0,0,1-.762-2.379,6.316,6.316,0,0,1,.023-.945Zm1.8.727a2.6,2.6,0,0,0,.3,1.539,1.2,1.2,0,0,0,1.059.586,2.175,2.175,0,0,0,1.852-1.039l.633-3.633a1.445,1.445,0,0,0-1.422-1.008,1.9,1.9,0,0,0-1.711.938A5,5,0,0,0,137.832,13.492ZM23.754,35.922H19.223l-.609,3.5h5.3L23.637,41H16.41l1.969-11.375h7.18l-.281,1.594H20.035l-.547,3.141h4.539Zm4.508-3.383-.187.992a3.226,3.226,0,0,1,2.508-1.141,2.044,2.044,0,0,1,1.758.848,3.383,3.383,0,0,1,.422,2.3L31.848,41H30l.922-5.484a2.806,2.806,0,0,0,.008-.625,1,1,0,0,0-1.109-.953,2.25,2.25,0,0,0-1.852,1.039L26.91,41H25.059l1.461-8.453Zm9.219,7.109a1.81,1.81,0,0,0,1.828-1.437l1.75-.008a2.993,2.993,0,0,1-.605,1.523,3.52,3.52,0,0,1-1.332,1.07,3.7,3.7,0,0,1-1.7.359,3.184,3.184,0,0,1-1.852-.562,3.11,3.11,0,0,1-1.117-1.512,4.836,4.836,0,0,1-.234-2.152l.023-.273a5.531,5.531,0,0,1,.715-2.223,4.173,4.173,0,0,1,1.5-1.535,3.766,3.766,0,0,1,2.047-.508,2.957,2.957,0,0,1,2.2.91,3.215,3.215,0,0,1,.82,2.285H39.793a1.889,1.889,0,0,0-.355-1.187,1.3,1.3,0,0,0-1.027-.492,1.876,1.876,0,0,0-1.711.922,5.146,5.146,0,0,0-.672,2.688Q35.973,39.617,37.48,39.648Zm10.047-5.367A3.411,3.411,0,0,0,46.8,34.2a2.168,2.168,0,0,0-1.937,1.008L43.848,41H42l1.461-8.453,1.758-.008-.187.961a2.419,2.419,0,0,1,2-1.125,3.039,3.039,0,0,1,.711.117Zm3.313,3.984L53.5,32.547h2.047l-5.008,9.914a3.066,3.066,0,0,1-2.758,1.977,4.523,4.523,0,0,1-.961-.156l.156-1.469.336.031a1.909,1.909,0,0,0,1.109-.254,2.122,2.122,0,0,0,.734-.863l.445-.875-1.414-8.3h1.922ZM63.074,36.8a6.959,6.959,0,0,1-.676,2.3,3.92,3.92,0,0,1-1.32,1.559,3.052,3.052,0,0,1-1.793.5,2.652,2.652,0,0,1-2.078-.937l-.758,4.023H54.59l2.031-11.7,1.7-.008-.141.875a2.927,2.927,0,0,1,2.3-1.023,2.477,2.477,0,0,1,1.4.41,2.532,2.532,0,0,1,.91,1.168,4.734,4.734,0,0,1,.34,1.7A10.386,10.386,0,0,1,63.074,36.8Zm-1.828-.164.039-.57a2.769,2.769,0,0,0-.332-1.562,1.217,1.217,0,0,0-1.066-.57,2.155,2.155,0,0,0-1.812.961l-.656,3.773a1.432,1.432,0,0,0,1.43.977A1.888,1.888,0,0,0,60.4,38.93,4.5,4.5,0,0,0,61.246,36.641Zm6.875-6.148-.359,2.055h1.445l-.242,1.406H67.512l-.8,4.734a1.619,1.619,0,0,0-.008.352q.047.508.625.531a3.529,3.529,0,0,0,.656-.07l-.125,1.484a4.245,4.245,0,0,1-1.164.164,1.729,1.729,0,0,1-1.449-.66,2.389,2.389,0,0,1-.379-1.707l.789-4.828H64.309l.25-1.406H65.9l.359-2.055ZM71.184,41H69.332L70.8,32.547h1.852Zm-.117-10.617a1.044,1.044,0,0,1,.281-.734,1.03,1.03,0,0,1,.758-.32.985.985,0,0,1,.754.277.96.96,0,0,1,.3.715.988.988,0,0,1-.293.734,1.074,1.074,0,0,1-.746.3,1,1,0,0,1-.75-.27A.929.929,0,0,1,71.066,30.383ZM73.7,36.742a5.562,5.562,0,0,1,.73-2.258,4.335,4.335,0,0,1,1.535-1.57,3.794,3.794,0,0,1,2.078-.523,3.139,3.139,0,0,1,3.027,2.117,4.887,4.887,0,0,1,.254,2.172,5.665,5.665,0,0,1-.73,2.375,4.319,4.319,0,0,1-1.547,1.582,3.848,3.848,0,0,1-2.09.52,3.136,3.136,0,0,1-3.016-2.105,4.824,4.824,0,0,1-.266-2.145Zm1.82,1.07a2.232,2.232,0,0,0,.434,1.316,1.387,1.387,0,0,0,1.1.52,1.948,1.948,0,0,0,1.6-.734,3.863,3.863,0,0,0,.809-2.07l.047-.766a2.7,2.7,0,0,0-.4-1.57,1.4,1.4,0,0,0-1.156-.6,2.024,2.024,0,0,0-1.875,1.164,4.349,4.349,0,0,0-.523,1.672A6.541,6.541,0,0,0,75.52,37.813Zm9.828-5.273-.187.992a3.226,3.226,0,0,1,2.508-1.141,2.044,2.044,0,0,1,1.758.848,3.383,3.383,0,0,1,.422,2.3L88.934,41H87.082L88,35.516a2.806,2.806,0,0,0,.008-.625,1,1,0,0,0-1.109-.953,2.25,2.25,0,0,0-1.852,1.039L84,41H82.145l1.461-8.453Zm15.945,5.477q.172-1.125-1.227-1.672l-.633-.234a5.912,5.912,0,0,1-2.508-1.461,2.613,2.613,0,0,1-.672-1.961,2.949,2.949,0,0,1,.66-1.707,3.85,3.85,0,0,1,1.574-1.137,5.152,5.152,0,0,1,2.078-.375,4.157,4.157,0,0,1,1.891.465,3.059,3.059,0,0,1,1.266,1.227,3.4,3.4,0,0,1,.406,1.793l-1.922-.008a1.611,1.611,0,0,0-1.75-1.9,2.524,2.524,0,0,0-1.543.43,1.719,1.719,0,0,0-.738,1.2q-.156.992,1.328,1.563l.586.211a5.688,5.688,0,0,1,2.5,1.5A2.777,2.777,0,0,1,103.215,38a3.077,3.077,0,0,1-.633,1.676,3.554,3.554,0,0,1-1.535,1.105,5.583,5.583,0,0,1-2.16.375,4.494,4.494,0,0,1-2.027-.469,3.247,3.247,0,0,1-1.84-3.133l1.93.008a1.811,1.811,0,0,0,.477,1.492,2.182,2.182,0,0,0,1.547.539,2.7,2.7,0,0,0,1.566-.4A1.673,1.673,0,0,0,101.293,38.016Zm7.125-7.523-.359,2.055H109.5l-.242,1.406h-1.453l-.8,4.734a1.619,1.619,0,0,0-.008.352q.047.508.625.531a3.529,3.529,0,0,0,.656-.07l-.125,1.484a4.245,4.245,0,0,1-1.164.164,1.729,1.729,0,0,1-1.449-.66,2.389,2.389,0,0,1-.379-1.707l.789-4.828h-1.352l.25-1.406H106.2l.359-2.055ZM114.535,41a2.507,2.507,0,0,1-.078-.789,3.134,3.134,0,0,1-2.258.945,2.589,2.589,0,0,1-1.824-.707A2.18,2.18,0,0,1,109.7,38.7a2.588,2.588,0,0,1,1.156-2.1,5.034,5.034,0,0,1,2.938-.766l1.2.016.109-.578a1.744,1.744,0,0,0,0-.57,1.017,1.017,0,0,0-1.117-.867,1.685,1.685,0,0,0-1.043.3,1.3,1.3,0,0,0-.551.848l-1.852.016a2.318,2.318,0,0,1,.555-1.371,3.289,3.289,0,0,1,1.328-.918,4.5,4.5,0,0,1,1.75-.312,2.956,2.956,0,0,1,2.156.832,2.466,2.466,0,0,1,.641,2.074l-.648,3.961-.062.7a2.5,2.5,0,0,0,.117.9l-.008.141Zm-1.906-1.359a2.041,2.041,0,0,0,1.086-.27,2.861,2.861,0,0,0,.852-.738l.289-1.6-.883-.008a3.1,3.1,0,0,0-1.672.395,1.447,1.447,0,0,0-.711,1.082.957.957,0,0,0,.23.824A1.127,1.127,0,0,0,112.629,39.641Zm8.539-7.1-.187.992a3.226,3.226,0,0,1,2.508-1.141,2.044,2.044,0,0,1,1.758.848,3.383,3.383,0,0,1,.422,2.3L124.754,41H122.9l.922-5.484a2.806,2.806,0,0,0,.008-.625,1,1,0,0,0-1.109-.953,2.25,2.25,0,0,0-1.852,1.039L119.816,41h-1.852l1.461-8.453Zm5.938,4.227a6.7,6.7,0,0,1,.7-2.344,3.968,3.968,0,0,1,1.352-1.551,3.121,3.121,0,0,1,1.789-.488,2.5,2.5,0,0,1,2.016.961L133.777,29h1.859l-2.086,12h-1.656l.125-.875a2.946,2.946,0,0,1-2.312,1.039,2.325,2.325,0,0,1-1.887-.91,3.975,3.975,0,0,1-.762-2.379,6.316,6.316,0,0,1,.023-.945Zm1.8.727a2.6,2.6,0,0,0,.3,1.539,1.2,1.2,0,0,0,1.059.586,2.175,2.175,0,0,0,1.852-1.039l.633-3.633a1.445,1.445,0,0,0-1.422-1.008,1.9,1.9,0,0,0-1.711.938A5,5,0,0,0,128.9,37.492ZM140.559,41a2.507,2.507,0,0,1-.078-.789,3.134,3.134,0,0,1-2.258.945,2.589,2.589,0,0,1-1.824-.707,2.18,2.18,0,0,1-.676-1.754,2.588,2.588,0,0,1,1.156-2.1,5.034,5.034,0,0,1,2.938-.766l1.2.016.109-.578a1.744,1.744,0,0,0,0-.57,1.017,1.017,0,0,0-1.117-.867,1.685,1.685,0,0,0-1.043.3,1.3,1.3,0,0,0-.551.848l-1.852.016a2.318,2.318,0,0,1,.555-1.371,3.289,3.289,0,0,1,1.328-.918,4.5,4.5,0,0,1,1.75-.312,2.956,2.956,0,0,1,2.156.832A2.466,2.466,0,0,1,143,35.3l-.648,3.961-.062.7a2.5,2.5,0,0,0,.117.9l-.008.141Zm-1.906-1.359a2.041,2.041,0,0,0,1.086-.27,2.862,2.862,0,0,0,.852-.738l.289-1.6L140,37.023a3.1,3.1,0,0,0-1.672.395,1.447,1.447,0,0,0-.711,1.082.957.957,0,0,0,.23.824A1.127,1.127,0,0,0,138.652,39.641Zm10.891-5.359a3.411,3.411,0,0,0-.727-.078,2.168,2.168,0,0,0-1.937,1.008L145.863,41h-1.852l1.461-8.453,1.758-.008-.187.961a2.419,2.419,0,0,1,2-1.125,3.039,3.039,0,0,1,.711.117Zm.406,2.484a6.7,6.7,0,0,1,.7-2.344A3.968,3.968,0,0,1,152,32.871a3.121,3.121,0,0,1,1.789-.488,2.5,2.5,0,0,1,2.016.961L156.621,29h1.859l-2.086,12h-1.656l.125-.875a2.946,2.946,0,0,1-2.312,1.039,2.325,2.325,0,0,1-1.887-.91,3.975,3.975,0,0,1-.762-2.379,6.316,6.316,0,0,1,.023-.945Zm1.8.727a2.6,2.6,0,0,0,.3,1.539,1.2,1.2,0,0,0,1.059.586,2.175,2.175,0,0,0,1.852-1.039l.633-3.633a1.445,1.445,0,0,0-1.422-1.008,1.9,1.9,0,0,0-1.711.938A5,5,0,0,0,151.746,37.492Zm11.141-.992a11.755,11.755,0,0,1-.477,3.348,9.485,9.485,0,0,1-1.445,2.938,5.66,5.66,0,0,1-2.023,1.832l-.375-1.055a6,6,0,0,0,1.855-2.77,12.3,12.3,0,0,0,.684-4.254v-.18a12.484,12.484,0,0,0-.594-3.957,6.98,6.98,0,0,0-1.7-2.863l-.242-.219.375-1.062a5.6,5.6,0,0,1,1.938,1.719,9.326,9.326,0,0,1,1.438,2.762,11.5,11.5,0,0,1,.563,3.152Z" transform="translate(505 6464)" fill="#fff"/>
    <g transform="matrix(1, 0, 0, 1, 276, 6338)" filter="url(#Trazado_232028)">
      <path id="Trazado_232028-2" data-name="Trazado 232028" d="M9,0H199a9,9,0,0,1,9,9V49a9,9,0,0,1-9,9H9a9,9,0,0,1-9-9V9A9,9,0,0,1,9,0Z" transform="translate(626 118)" fill="#8628a5"/>
    </g>
    <path id="Trazado_232030" data-name="Trazado 232030" d="M62.766,11.211A4.025,4.025,0,0,1,61.41,14.1a4.76,4.76,0,0,1-3.223,1.055,4.281,4.281,0,0,1-3.441-1.473,6.038,6.038,0,0,1-1.254-4.043v-.7a6.819,6.819,0,0,1,.578-2.891,4.332,4.332,0,0,1,1.652-1.918,5.164,5.164,0,0,1,5.668.387,4.326,4.326,0,0,1,1.391,2.961H60.438a2.376,2.376,0,0,0-.613-1.6,2.271,2.271,0,0,0-1.605-.5,1.991,1.991,0,0,0-1.754.84,4.707,4.707,0,0,0-.6,2.605V9.7a5.038,5.038,0,0,0,.559,2.7,1.954,1.954,0,0,0,1.762.852,2.314,2.314,0,0,0,1.621-.5,2.241,2.241,0,0,0,.613-1.535Zm3.594-3.742a2.818,2.818,0,0,1,2.258-1.078q2.75,0,2.789,3.2V15H69.148V9.648a1.57,1.57,0,0,0-.312-1.074A1.34,1.34,0,0,0,67.8,8.227a1.537,1.537,0,0,0-1.437.766V15H64.1V3h2.258ZM78.008,15a2.507,2.507,0,0,1-.227-.758,2.732,2.732,0,0,1-2.133.914,3,3,0,0,1-2.059-.719,2.312,2.312,0,0,1-.816-1.812,2.389,2.389,0,0,1,1-2.062,4.915,4.915,0,0,1,2.879-.727h1.039V9.352a1.393,1.393,0,0,0-.3-.937,1.183,1.183,0,0,0-.949-.352,1.345,1.345,0,0,0-.895.273.929.929,0,0,0-.324.75H72.961a2.268,2.268,0,0,1,.453-1.359,3,3,0,0,1,1.281-.98,4.669,4.669,0,0,1,1.859-.355,3.689,3.689,0,0,1,2.48.785,2.747,2.747,0,0,1,.918,2.207v3.664a4.041,4.041,0,0,0,.336,1.82V15Zm-1.867-1.57a1.945,1.945,0,0,0,.922-.223,1.462,1.462,0,0,0,.625-.6V11.156h-.844q-1.7,0-1.8,1.172l-.008.133a.9.9,0,0,0,.3.7A1.153,1.153,0,0,0,76.141,13.43Zm14.625-2.219A4.025,4.025,0,0,1,89.41,14.1a4.76,4.76,0,0,1-3.223,1.055,4.28,4.28,0,0,1-3.441-1.473,6.038,6.038,0,0,1-1.254-4.043v-.7a6.819,6.819,0,0,1,.578-2.891,4.332,4.332,0,0,1,1.652-1.918,5.164,5.164,0,0,1,5.668.387,4.326,4.326,0,0,1,1.391,2.961H88.438a2.376,2.376,0,0,0-.613-1.6,2.271,2.271,0,0,0-1.605-.5,1.991,1.991,0,0,0-1.754.84,4.707,4.707,0,0,0-.6,2.605V9.7a5.038,5.038,0,0,0,.559,2.7,1.954,1.954,0,0,0,1.762.852,2.314,2.314,0,0,0,1.621-.5,2.241,2.241,0,0,0,.613-1.535Zm3.594-3.742a2.818,2.818,0,0,1,2.258-1.078q2.75,0,2.789,3.2V15H97.148V9.648a1.57,1.57,0,0,0-.312-1.074A1.34,1.34,0,0,0,95.8,8.227a1.537,1.537,0,0,0-1.437.766V15H92.1V3h2.258ZM106.008,15a2.507,2.507,0,0,1-.227-.758,2.732,2.732,0,0,1-2.133.914,3,3,0,0,1-2.059-.719,2.312,2.312,0,0,1-.816-1.812,2.389,2.389,0,0,1,1-2.062,4.915,4.915,0,0,1,2.879-.727h1.039V9.352a1.393,1.393,0,0,0-.3-.937,1.183,1.183,0,0,0-.949-.352,1.345,1.345,0,0,0-.895.273.929.929,0,0,0-.324.75h-2.258a2.268,2.268,0,0,1,.453-1.359,3,3,0,0,1,1.281-.98,4.669,4.669,0,0,1,1.859-.355,3.689,3.689,0,0,1,2.48.785,2.747,2.747,0,0,1,.918,2.207v3.664a4.041,4.041,0,0,0,.336,1.82V15Zm-1.867-1.57a1.945,1.945,0,0,0,.922-.223,1.462,1.462,0,0,0,.625-.6V11.156h-.844q-1.7,0-1.8,1.172l-.008.133a.9.9,0,0,0,.3.7A1.153,1.153,0,0,0,104.141,13.43ZM117.391,15h-7.8V13.453l3.68-3.922a9.078,9.078,0,0,0,1.121-1.445,2.322,2.322,0,0,0,.363-1.172,1.738,1.738,0,0,0-.383-1.191,1.382,1.382,0,0,0-1.094-.434,1.49,1.49,0,0,0-1.207.527,2.089,2.089,0,0,0-.441,1.387h-2.266a3.729,3.729,0,0,1,.5-1.9,3.5,3.5,0,0,1,1.4-1.348,4.262,4.262,0,0,1,2.055-.488,4.036,4.036,0,0,1,2.73.844,2.985,2.985,0,0,1,.973,2.383,3.825,3.825,0,0,1-.437,1.719,9.551,9.551,0,0,1-1.5,2.039L112.5,13.18h4.891Zm9.039-4.7a5.763,5.763,0,0,1-.977,3.609,3.9,3.9,0,0,1-5.7.023,5.594,5.594,0,0,1-1.008-3.516V8.32A5.687,5.687,0,0,1,119.73,4.7a3.91,3.91,0,0,1,5.691-.012A5.576,5.576,0,0,1,126.43,8.2Zm-2.258-2.3a4.165,4.165,0,0,0-.387-2.061,1.307,1.307,0,0,0-1.207-.645A1.284,1.284,0,0,0,121.4,5.9a3.9,3.9,0,0,0-.4,1.92v2.768a4.373,4.373,0,0,0,.379,2.068,1.29,1.29,0,0,0,1.215.676,1.268,1.268,0,0,0,1.2-.649,4.268,4.268,0,0,0,.383-1.986Z" transform="translate(916 6476)" fill="#fff"/>
  </g>
</svg>
