<svg xmlns="http://www.w3.org/2000/svg" xmlns:xlink="http://www.w3.org/1999/xlink" width="935" height="288" viewBox="0 0 935 288">
  <defs>
    <clipPath id="clip-path">
      <rect id="Rectángulo_313517" data-name="Rectángulo 313517" width="792.957" height="238.928" fill="none"/>
    </clipPath>
    <clipPath id="clip-path-2">
      <rect id="Rectángulo_313516" data-name="Rectángulo 313516" width="348.693" height="77.271" transform="translate(0)" fill="none"/>
    </clipPath>
  </defs>
  <g id="Grupo_238135" data-name="Grupo 238135" transform="translate(10779 2888)">
    <g id="Trazado_232868" data-name="Trazado 232868" transform="translate(-10779 -2888)" fill="#fff">
      <path d="M 934.5 287.5 L 0.5 287.5 L 0.5 0.5 L 934.5 0.5 L 934.5 287.5 Z" stroke="none"/>
      <path d="M 1 1 L 1 287 L 934 287 L 934 1 L 1 1 M 0 0 L 935 0 L 935 288 L 0 288 L 0 0 Z" stroke="none" fill="#707070"/>
    </g>
    <g id="Grupo_237614" data-name="Grupo 237614" transform="translate(-10708 -2863)">
      <g id="Grupo_237613" data-name="Grupo 237613" clip-path="url(#clip-path)">
        <g id="Grupo_237612" data-name="Grupo 237612" opacity="0.2">
          <g id="Grupo_237611" data-name="Grupo 237611">
            <g id="Grupo_237610" data-name="Grupo 237610" clip-path="url(#clip-path-2)">
              <rect id="Rectángulo_313515" data-name="Rectángulo 313515" width="348.693" height="77.271" transform="translate(0 0)" fill="#59e5f5"/>
            </g>
          </g>
        </g>
      </g>
    </g>
    <path id="Trazado_232869" data-name="Trazado 232869" d="M0,0H136.989V50.323H0Z" transform="translate(-10586.505 -2849.583)" fill="#59e5f5"/>
    <path id="Trazado_232870" data-name="Trazado 232870" d="M0,0H136.989V50.323H0Z" transform="translate(-10586.505 -2849.583)" fill="none" stroke="#000" stroke-linecap="square" stroke-width="1.36"/>
    <path id="Trazado_232076" data-name="Trazado 232076" d="M112.974,38.578l-2.8,2.8,9.785-2.8-9.785-2.8Z" transform="translate(-10708 -2863)" fill-rule="evenodd"/>
    <path id="Trazado_232077" data-name="Trazado 232077" d="M112.974,38.578l-2.8,2.8,9.785-2.8-9.785-2.8Z" transform="translate(-10708 -2863)" fill="none" stroke="#000" stroke-miterlimit="1.6" stroke-width="0.559"/>
    <path id="Trazado_232078" data-name="Trazado 232078" d="M189.989,149.156l-2.8-2.8,2.8,9.785,2.8-9.785Z" transform="translate(-10708 -2863)" fill-rule="evenodd"/>
    <path id="Trazado_232079" data-name="Trazado 232079" d="M189.989,149.156l-2.8-2.8,2.8,9.785,2.8-9.785Z" transform="translate(-10708 -2863)" fill="none" stroke="#000" stroke-miterlimit="1.6" stroke-width="0.559"/>
    <path id="Trazado_232080" data-name="Trazado 232080" d="M92.584,38.578h0Z" transform="translate(-10708 -2863)" fill="#59e5f5"/>
    <path id="Trazado_232871" data-name="Trazado 232871" d="M18.993,0H0" transform="translate(-10615.416 -2824.422)" fill="none" stroke="#000" stroke-linecap="square" stroke-width="1.36"/>
    <path id="Trazado_232081" data-name="Trazado 232081" d="M112.974,182.43l-2.8,2.8,9.785-2.8-9.785-2.8Z" transform="translate(-10708 -2863)" fill-rule="evenodd"/>
    <path id="Trazado_232082" data-name="Trazado 232082" d="M112.974,182.43l-2.8,2.8,9.785-2.8-9.785-2.8Z" transform="translate(-10708 -2863)" fill="none" stroke="#000" stroke-miterlimit="1.6" stroke-width="0.559"/>
    <path id="Trazado_232083" data-name="Trazado 232083" d="M414.407,88.658l-2.8,2.8,9.785-2.8-9.785-2.8Z" transform="translate(-10708 -2863)" fill-rule="evenodd"/>
    <path id="Trazado_232084" data-name="Trazado 232084" d="M414.407,88.658l-2.8,2.8,9.785-2.8-9.785-2.8Z" transform="translate(-10708 -2863)" fill="none" stroke="#000" stroke-miterlimit="1.6" stroke-width="0.559"/>
    <path id="Trazado_232085" data-name="Trazado 232085" d="M76.584,182.43h0Z" transform="translate(-10708 -2863)" fill="#59e5f5"/>
    <path id="Trazado_232872" data-name="Trazado 232872" d="M34.993,0H0" transform="translate(-10631.416 -2680.57)" fill="none" stroke="#000" stroke-linecap="square" stroke-width="1.36"/>
    <path id="Trazado_232086" data-name="Trazado 232086" d="M285.716,182.43l-2.8,2.8,9.785-2.8-9.785-2.8Z" transform="translate(-10708 -2863)" fill-rule="evenodd"/>
    <path id="Trazado_232087" data-name="Trazado 232087" d="M285.716,182.43l-2.8,2.8,9.785-2.8-9.785-2.8Z" transform="translate(-10708 -2863)" fill="none" stroke="#000" stroke-miterlimit="1.6" stroke-width="0.559"/>
    <path id="Trazado_232088" data-name="Trazado 232088" d="M250.326,182.43h0Z" transform="translate(-10708 -2863)" fill="#59e5f5"/>
    <path id="Trazado_232873" data-name="Trazado 232873" d="M33.993,0H0" transform="translate(-10457.675 -2680.57)" fill="none" stroke="#000" stroke-linecap="square" stroke-width="1.36"/>
    <path id="Trazado_232089" data-name="Trazado 232089" d="M425.575,182.43l-2.8,2.8,9.785-2.8-9.785-2.8Z" transform="translate(-10708 -2863)" fill-rule="evenodd"/>
    <path id="Trazado_232090" data-name="Trazado 232090" d="M425.575,182.43l-2.8,2.8,9.785-2.8-9.785-2.8Z" transform="translate(-10708 -2863)" fill="none" stroke="#000" stroke-miterlimit="1.6" stroke-width="0.559"/>
    <path id="Trazado_232091" data-name="Trazado 232091" d="M390.184,182.43h0Z" transform="translate(-10708 -2863)" fill="#59e5f5"/>
    <path id="Trazado_232874" data-name="Trazado 232874" d="M33.993,0H0" transform="translate(-10317.816 -2680.57)" fill="none" stroke="#000" stroke-linecap="square" stroke-width="1.36"/>
    <path id="Trazado_232092" data-name="Trazado 232092" d="M551.364,182.43l-2.8,2.8,9.785-2.8-9.785-2.8Z" transform="translate(-10708 -2863)" fill-rule="evenodd"/>
    <path id="Trazado_232093" data-name="Trazado 232093" d="M551.364,182.43l-2.8,2.8,9.785-2.8-9.785-2.8Z" transform="translate(-10708 -2863)" fill="none" stroke="#000" stroke-miterlimit="1.6" stroke-width="0.559"/>
    <path id="Trazado_232094" data-name="Trazado 232094" d="M515.974,182.43h0Z" transform="translate(-10708 -2863)" fill="#59e5f5"/>
    <path id="Trazado_232875" data-name="Trazado 232875" d="M33.993,0H0" transform="translate(-10192.027 -2680.57)" fill="none" stroke="#000" stroke-linecap="square" stroke-width="1.36"/>
    <path id="Trazado_232095" data-name="Trazado 232095" d="M675.41,182.43l-2.8,2.8,9.785-2.8-9.785-2.8Z" transform="translate(-10708 -2863)" fill-rule="evenodd"/>
    <path id="Trazado_232096" data-name="Trazado 232096" d="M675.41,182.43l-2.8,2.8,9.785-2.8-9.785-2.8Z" transform="translate(-10708 -2863)" fill="none" stroke="#000" stroke-miterlimit="1.6" stroke-width="0.559"/>
    <path id="Trazado_232097" data-name="Trazado 232097" d="M641.02,182.43h0Z" transform="translate(-10708 -2863)" fill="#59e5f5"/>
    <path id="Trazado_232876" data-name="Trazado 232876" d="M32.993,0H0" transform="translate(-10066.98 -2680.57)" fill="none" stroke="#000" stroke-linecap="square" stroke-width="1.36"/>
    <path id="Trazado_232098" data-name="Trazado 232098" d="M66.051,169.9l-2.8,2.8,9.785-2.8-9.785-2.8Z" transform="translate(-10708 -2863)" fill-rule="evenodd"/>
    <path id="Trazado_232099" data-name="Trazado 232099" d="M66.051,169.9l-2.8,2.8,9.785-2.8-9.785-2.8Z" transform="translate(-10708 -2863)" fill="none" stroke="#000" stroke-miterlimit="1.6" stroke-width="0.559"/>
    <path id="Trazado_232100" data-name="Trazado 232100" d="M66.051,196.934l-2.8,2.8,9.785-2.8-9.785-2.8Z" transform="translate(-10708 -2863)" fill-rule="evenodd"/>
    <path id="Trazado_232101" data-name="Trazado 232101" d="M66.051,196.934l-2.8,2.8,9.785-2.8-9.785-2.8Z" transform="translate(-10708 -2863)" fill="none" stroke="#000" stroke-miterlimit="1.6" stroke-width="0.559"/>
    <path id="Trazado_232102" data-name="Trazado 232102" d="M30.66,169.9h0Z" transform="translate(-10708 -2863)" fill="#59e5f5"/>
    <path id="Trazado_232877" data-name="Trazado 232877" d="M34.993,0H0" transform="translate(-10677.34 -2693.099)" fill="none" stroke="#000" stroke-linecap="square" stroke-width="1.36"/>
    <path id="Trazado_232878" data-name="Trazado 232878" d="M1.229,0V-12.007H2.818v5.955L8.78-12.007h2.154L5.9-7.142,11.155,0h-2.1L4.783-6.077,2.818-4.161V0Zm17.02-2.8,1.523.188A3.717,3.717,0,0,1,18.437-.541,4.014,4.014,0,0,1,15.947.2,3.979,3.979,0,0,1,12.921-.979a4.593,4.593,0,0,1-1.118-3.3,4.806,4.806,0,0,1,1.13-3.407,3.826,3.826,0,0,1,2.932-1.212,3.719,3.719,0,0,1,2.85,1.188,4.719,4.719,0,0,1,1.106,3.342q0,.131-.008.393H13.326a3.343,3.343,0,0,0,.811,2.2,2.413,2.413,0,0,0,1.818.762,2.256,2.256,0,0,0,1.384-.426A2.827,2.827,0,0,0,18.248-2.8ZM13.408-5.185h4.857a2.947,2.947,0,0,0-.557-1.646,2.26,2.26,0,0,0-1.826-.852A2.342,2.342,0,0,0,14.174-7,2.691,2.691,0,0,0,13.408-5.185Zm8.15,8.535-.164-1.384a3.285,3.285,0,0,0,.844.131,1.619,1.619,0,0,0,.786-.164,1.339,1.339,0,0,0,.483-.459,7.232,7.232,0,0,0,.45-1.1q.041-.123.131-.36L20.788-8.7h1.589l1.81,5.037q.352.958.631,2.015a19.836,19.836,0,0,1,.606-1.982L27.283-8.7h1.474L25.448.147a17.364,17.364,0,0,1-.827,1.974,2.912,2.912,0,0,1-.9,1.069,2.128,2.128,0,0,1-1.212.34A2.953,2.953,0,0,1,21.557,3.35ZM34.892,0V-12.007h8.682v1.417H36.481v3.678h6.643V-5.5H36.481v4.087h7.371V0Zm9.984,0,3.178-4.521L45.113-8.7h1.843l1.335,2.039q.377.582.606.975.36-.541.663-.958L51.027-8.7h1.761L49.782-4.6,53.017,0h-1.81L49.422-2.7l-.475-.729L46.661,0Zm9.37,3.334V-8.7h1.343v1.13a3.311,3.311,0,0,1,1.073-1,2.948,2.948,0,0,1,1.45-.332,3.437,3.437,0,0,1,1.966.573A3.519,3.519,0,0,1,61.363-6.7,5.906,5.906,0,0,1,61.8-4.415a5.815,5.815,0,0,1-.479,2.4A3.612,3.612,0,0,1,59.926-.373,3.575,3.575,0,0,1,58.005.2a2.774,2.774,0,0,1-1.323-.311A3.012,3.012,0,0,1,55.72-.9V3.334ZM55.581-4.3a3.784,3.784,0,0,0,.68,2.482,2.085,2.085,0,0,0,1.646.8,2.131,2.131,0,0,0,1.683-.831,3.944,3.944,0,0,0,.7-2.576,3.843,3.843,0,0,0-.684-2.49,2.059,2.059,0,0,0-1.634-.827,2.123,2.123,0,0,0-1.667.88A3.939,3.939,0,0,0,55.581-4.3Zm13.67,3.227a5.49,5.49,0,0,1-1.577.983A4.556,4.556,0,0,1,66.048.2a3.162,3.162,0,0,1-2.2-.7,2.311,2.311,0,0,1-.77-1.79,2.38,2.38,0,0,1,.291-1.167,2.407,2.407,0,0,1,.762-.848,3.582,3.582,0,0,1,1.061-.483,10.535,10.535,0,0,1,1.31-.221,13.475,13.475,0,0,0,2.629-.508q.008-.3.008-.385a1.628,1.628,0,0,0-.418-1.27,2.467,2.467,0,0,0-1.679-.5A2.6,2.6,0,0,0,65.5-7.31a2.227,2.227,0,0,0-.733,1.29l-1.442-.2a3.572,3.572,0,0,1,.647-1.495,2.836,2.836,0,0,1,1.3-.876,5.809,5.809,0,0,1,1.974-.307,5.225,5.225,0,0,1,1.81.262,2.385,2.385,0,0,1,1.024.659,2.319,2.319,0,0,1,.459,1,8.3,8.3,0,0,1,.074,1.36v1.966a20.864,20.864,0,0,0,.094,2.6A3.281,3.281,0,0,0,71.086,0h-1.54A3.126,3.126,0,0,1,69.251-1.073Zm-.123-3.293a10.817,10.817,0,0,1-2.408.557,5.57,5.57,0,0,0-1.286.295,1.282,1.282,0,0,0-.582.479,1.259,1.259,0,0,0-.2.7,1.256,1.256,0,0,0,.446.983A1.921,1.921,0,0,0,66.4-.958a3.04,3.04,0,0,0,1.515-.373,2.3,2.3,0,0,0,.975-1.02,3.561,3.561,0,0,0,.238-1.474ZM72.9,0V-8.7h1.327v1.237A3.127,3.127,0,0,1,77-8.895a3.632,3.632,0,0,1,1.446.283,2.274,2.274,0,0,1,.987.741,2.845,2.845,0,0,1,.459,1.089,8.442,8.442,0,0,1,.082,1.433V0H78.5V-5.291a3.972,3.972,0,0,0-.172-1.347,1.417,1.417,0,0,0-.61-.713,1.941,1.941,0,0,0-1.028-.266,2.389,2.389,0,0,0-1.626.6,2.95,2.95,0,0,0-.684,2.269V0ZM87.876,0V-1.1A2.705,2.705,0,0,1,85.444.2a3.411,3.411,0,0,1-1.912-.573,3.77,3.77,0,0,1-1.351-1.6A5.534,5.534,0,0,1,81.7-4.341,6.185,6.185,0,0,1,82.135-6.7a3.424,3.424,0,0,1,1.3-1.626,3.482,3.482,0,0,1,1.941-.565,2.9,2.9,0,0,1,1.4.332,2.928,2.928,0,0,1,1,.864v-4.308h1.466V0Zm-4.66-4.341a3.778,3.778,0,0,0,.7,2.5,2.124,2.124,0,0,0,1.663.827,2.085,2.085,0,0,0,1.642-.79A3.644,3.644,0,0,0,87.9-4.218a4.09,4.09,0,0,0-.688-2.621,2.116,2.116,0,0,0-1.7-.835,2.043,2.043,0,0,0-1.642.8A3.962,3.962,0,0,0,83.216-4.341Zm14.3,1.54,1.523.188A3.717,3.717,0,0,1,97.7-.541,4.014,4.014,0,0,1,95.215.2,3.979,3.979,0,0,1,92.188-.979a4.593,4.593,0,0,1-1.118-3.3A4.806,4.806,0,0,1,92.2-7.683a3.826,3.826,0,0,1,2.932-1.212,3.719,3.719,0,0,1,2.85,1.188,4.719,4.719,0,0,1,1.106,3.342q0,.131-.008.393H92.594a3.343,3.343,0,0,0,.811,2.2,2.413,2.413,0,0,0,1.818.762,2.256,2.256,0,0,0,1.384-.426A2.827,2.827,0,0,0,97.516-2.8ZM92.676-5.185h4.857a2.947,2.947,0,0,0-.557-1.646,2.26,2.26,0,0,0-1.826-.852A2.342,2.342,0,0,0,93.442-7,2.691,2.691,0,0,0,92.676-5.185ZM100.875,0V-8.7H102.2V-7.38a3.6,3.6,0,0,1,.938-1.22,1.637,1.637,0,0,1,.946-.295,2.876,2.876,0,0,1,1.515.475l-.508,1.368a2.109,2.109,0,0,0-1.081-.319,1.4,1.4,0,0,0-.868.291,1.575,1.575,0,0,0-.549.807,5.743,5.743,0,0,0-.246,1.72V0Z" transform="translate(-10570.696 -2818.915)"/>
    <path id="Trazado_232879" data-name="Trazado 232879" d="M1.253,0V-12.007H3.678v5.332l4.9-5.332h3.26L7.314-7.331,12.081,0H8.944l-3.3-5.635L3.678-3.628V0ZM13.334,0V-12.007h8.9v2.031H15.759v2.662h6.028v2.023H15.759v3.268h6.708V0ZM23.3,0l4.1-6.266-3.719-5.742h2.834L28.929-8.15l2.359-3.858H34.1L30.362-6.176,34.466,0H31.542L28.88-4.153,26.21,0ZM35.711,0V-12.007H39.6a14.108,14.108,0,0,1,2.883.18,3.148,3.148,0,0,1,1.728,1.175,3.727,3.727,0,0,1,.7,2.338,3.918,3.918,0,0,1-.4,1.859,3.292,3.292,0,0,1-1.02,1.184A3.514,3.514,0,0,1,42.23-4.7a13.839,13.839,0,0,1-2.514.172H38.135V0Zm2.424-9.976v3.407h1.327a6.269,6.269,0,0,0,1.917-.188,1.592,1.592,0,0,0,.758-.59,1.614,1.614,0,0,0,.274-.934,1.551,1.551,0,0,0-.385-1.081,1.676,1.676,0,0,0-.975-.532,11.653,11.653,0,0,0-1.745-.082Z" transform="translate(-10421.574 -2828.543)"/>
    <path id="Trazado_232880" data-name="Trazado 232880" d="M.465-3.63A3.742,3.742,0,0,1,1.586-6.617a3.378,3.378,0,0,1,2.283-.807,3.257,3.257,0,0,1,2.447.981,3.732,3.732,0,0,1,.95,2.71,4.8,4.8,0,0,1-.42,2.2A2.976,2.976,0,0,1,5.623-.28,3.562,3.562,0,0,1,3.869.164,3.263,3.263,0,0,1,1.4-.813,3.9,3.9,0,0,1,.465-3.63Zm1.265,0a3.092,3.092,0,0,0,.608,2.088,1.95,1.95,0,0,0,1.531.694,1.939,1.939,0,0,0,1.524-.7A3.165,3.165,0,0,0,6-3.671,3,3,0,0,0,5.39-5.711a1.946,1.946,0,0,0-1.521-.694,1.954,1.954,0,0,0-1.531.69A3.078,3.078,0,0,0,1.729-3.63ZM8.709,2.782V-7.26H9.83v.943a2.763,2.763,0,0,1,.9-.831,2.461,2.461,0,0,1,1.21-.277,2.869,2.869,0,0,1,1.641.479A2.937,2.937,0,0,1,14.649-5.6a4.929,4.929,0,0,1,.362,1.911,4.853,4.853,0,0,1-.4,2.006A3.015,3.015,0,0,1,13.45-.311a2.984,2.984,0,0,1-1.6.475,2.316,2.316,0,0,1-1.1-.26,2.514,2.514,0,0,1-.8-.656V2.782ZM9.823-3.589a3.158,3.158,0,0,0,.567,2.071,1.74,1.74,0,0,0,1.374.67,1.779,1.779,0,0,0,1.4-.694,3.292,3.292,0,0,0,.584-2.15,3.207,3.207,0,0,0-.571-2.078,1.718,1.718,0,0,0-1.364-.69,1.772,1.772,0,0,0-1.391.735A3.288,3.288,0,0,0,9.823-3.589ZM19.182-1.1l.178,1.087A4.564,4.564,0,0,1,18.43.1a2.1,2.1,0,0,1-1.039-.212,1.187,1.187,0,0,1-.52-.557,4.406,4.406,0,0,1-.15-1.453V-6.3h-.9V-7.26h.9v-1.8L17.944-9.8V-7.26h1.237V-6.3H17.944v4.245a2.144,2.144,0,0,0,.065.677.512.512,0,0,0,.212.239.819.819,0,0,0,.42.089A4,4,0,0,0,19.182-1.1Zm1.21-7.506v-1.415h1.23v1.415Zm0,8.606V-7.26h1.23V0Zm2.646-3.63a3.742,3.742,0,0,1,1.121-2.987,3.378,3.378,0,0,1,2.283-.807,3.257,3.257,0,0,1,2.447.981,3.732,3.732,0,0,1,.95,2.71,4.8,4.8,0,0,1-.42,2.2A2.976,2.976,0,0,1,28.195-.28a3.562,3.562,0,0,1-1.753.444,3.263,3.263,0,0,1-2.464-.978A3.9,3.9,0,0,1,23.037-3.63Zm1.265,0a3.092,3.092,0,0,0,.608,2.088,1.95,1.95,0,0,0,1.531.694,1.939,1.939,0,0,0,1.524-.7,3.165,3.165,0,0,0,.608-2.126,3,3,0,0,0-.612-2.041,1.946,1.946,0,0,0-1.521-.694,1.954,1.954,0,0,0-1.531.69A3.078,3.078,0,0,0,24.3-3.63ZM31.281,0V-7.26h1.107v1.032a2.61,2.61,0,0,1,2.311-1.2,3.031,3.031,0,0,1,1.207.236,1.9,1.9,0,0,1,.824.619,2.375,2.375,0,0,1,.383.909,7.046,7.046,0,0,1,.068,1.2V0H35.95V-4.416a3.315,3.315,0,0,0-.144-1.125,1.183,1.183,0,0,0-.509-.595,1.62,1.62,0,0,0-.858-.222,1.994,1.994,0,0,0-1.357.5,2.462,2.462,0,0,0-.571,1.894V0ZM43.8-.9a4.582,4.582,0,0,1-1.316.82,3.8,3.8,0,0,1-1.357.239A2.639,2.639,0,0,1,39.293-.42a1.929,1.929,0,0,1-.643-1.494,1.986,1.986,0,0,1,.243-.974,2.009,2.009,0,0,1,.636-.708,2.989,2.989,0,0,1,.885-.4,8.792,8.792,0,0,1,1.094-.185A11.247,11.247,0,0,0,43.7-4.607q.007-.253.007-.321a1.358,1.358,0,0,0-.349-1.06,2.059,2.059,0,0,0-1.4-.417,2.173,2.173,0,0,0-1.282.3,1.859,1.859,0,0,0-.612,1.077l-1.2-.164a2.981,2.981,0,0,1,.54-1.248,2.367,2.367,0,0,1,1.087-.731,4.848,4.848,0,0,1,1.647-.256,4.36,4.36,0,0,1,1.511.219,1.991,1.991,0,0,1,.854.55,1.935,1.935,0,0,1,.383.837,6.928,6.928,0,0,1,.062,1.135v1.641a17.413,17.413,0,0,0,.079,2.17A2.738,2.738,0,0,0,45.336,0H44.051A2.609,2.609,0,0,1,43.8-.9Zm-.1-2.748a9.028,9.028,0,0,1-2.01.465,4.649,4.649,0,0,0-1.073.246,1.07,1.07,0,0,0-.485.4,1.051,1.051,0,0,0-.171.584,1.048,1.048,0,0,0,.373.82,1.6,1.6,0,0,0,1.09.328,2.538,2.538,0,0,0,1.265-.311,1.915,1.915,0,0,0,.813-.851,2.972,2.972,0,0,0,.2-1.23ZM46.826,0V-10.021h1.23V0Z" transform="translate(-10423.406 -2811.746)"/>
    <path id="Trazado_232881" data-name="Trazado 232881" d="M5.681,0V-1.066a2.657,2.657,0,0,1-2.3,1.23,2.936,2.936,0,0,1-1.2-.246A1.976,1.976,0,0,1,1.35-.7a2.319,2.319,0,0,1-.379-.913A6.248,6.248,0,0,1,.9-2.762v-4.5h1.23v4.026a7.175,7.175,0,0,0,.075,1.3,1.283,1.283,0,0,0,.492.762,1.525,1.525,0,0,0,.93.277,2.025,2.025,0,0,0,1.039-.284,1.577,1.577,0,0,0,.687-.772,3.876,3.876,0,0,0,.2-1.418V-7.26h1.23V0ZM8.709,0V-7.26H9.816v1.032a2.61,2.61,0,0,1,2.311-1.2,3.031,3.031,0,0,1,1.207.236,1.9,1.9,0,0,1,.824.619,2.375,2.375,0,0,1,.383.909,7.046,7.046,0,0,1,.068,1.2V0h-1.23V-4.416a3.315,3.315,0,0,0-.144-1.125,1.183,1.183,0,0,0-.509-.595,1.62,1.62,0,0,0-.858-.222,1.994,1.994,0,0,0-1.357.5,2.462,2.462,0,0,0-.571,1.894V0ZM21.465-2.338l1.271.157A3.1,3.1,0,0,1,21.622-.451a3.35,3.35,0,0,1-2.078.615,3.321,3.321,0,0,1-2.526-.981,3.833,3.833,0,0,1-.933-2.751,4.011,4.011,0,0,1,.943-2.844,3.193,3.193,0,0,1,2.447-1.012,3.1,3.1,0,0,1,2.379.991,3.938,3.938,0,0,1,.923,2.789q0,.109-.007.328H17.356a2.79,2.79,0,0,0,.677,1.832,2.014,2.014,0,0,0,1.518.636A1.883,1.883,0,0,0,20.706-1.2,2.36,2.36,0,0,0,21.465-2.338Zm-4.04-1.989h4.054A2.459,2.459,0,0,0,21.014-5.7a1.886,1.886,0,0,0-1.524-.711,1.955,1.955,0,0,0-1.425.567A2.246,2.246,0,0,0,17.425-4.327ZM23.461,0l2.652-3.773L23.659-7.26H25.2l1.114,1.7q.314.485.506.813.3-.451.554-.8L28.595-7.26h1.47L27.556-3.842,30.256,0H28.745l-1.49-2.256-.4-.608L24.951,0Zm7.82,2.782V-7.26H32.4v.943a2.763,2.763,0,0,1,.9-.831,2.461,2.461,0,0,1,1.21-.277,2.869,2.869,0,0,1,1.641.479A2.937,2.937,0,0,1,37.222-5.6a4.929,4.929,0,0,1,.362,1.911,4.853,4.853,0,0,1-.4,2.006A3.015,3.015,0,0,1,36.022-.311a2.984,2.984,0,0,1-1.6.475,2.316,2.316,0,0,1-1.1-.26,2.514,2.514,0,0,1-.8-.656V2.782ZM32.4-3.589a3.158,3.158,0,0,0,.567,2.071,1.74,1.74,0,0,0,1.374.67,1.779,1.779,0,0,0,1.4-.694,3.292,3.292,0,0,0,.584-2.15,3.207,3.207,0,0,0-.571-2.078,1.718,1.718,0,0,0-1.364-.69A1.772,1.772,0,0,0,33-5.725,3.288,3.288,0,0,0,32.4-3.589ZM43.8-.9a4.582,4.582,0,0,1-1.316.82,3.8,3.8,0,0,1-1.357.239A2.639,2.639,0,0,1,39.293-.42a1.929,1.929,0,0,1-.643-1.494,1.986,1.986,0,0,1,.243-.974,2.009,2.009,0,0,1,.636-.708,2.989,2.989,0,0,1,.885-.4,8.792,8.792,0,0,1,1.094-.185A11.247,11.247,0,0,0,43.7-4.607q.007-.253.007-.321a1.358,1.358,0,0,0-.349-1.06,2.059,2.059,0,0,0-1.4-.417,2.173,2.173,0,0,0-1.282.3,1.859,1.859,0,0,0-.612,1.077l-1.2-.164a2.981,2.981,0,0,1,.54-1.248,2.367,2.367,0,0,1,1.087-.731,4.848,4.848,0,0,1,1.647-.256,4.36,4.36,0,0,1,1.511.219,1.991,1.991,0,0,1,.854.55,1.935,1.935,0,0,1,.383.837,6.928,6.928,0,0,1,.062,1.135v1.641a17.413,17.413,0,0,0,.079,2.17A2.738,2.738,0,0,0,45.336,0H44.051A2.609,2.609,0,0,1,43.8-.9Zm-.1-2.748a9.028,9.028,0,0,1-2.01.465,4.649,4.649,0,0,0-1.073.246,1.07,1.07,0,0,0-.485.4,1.051,1.051,0,0,0-.171.584,1.048,1.048,0,0,0,.373.82,1.6,1.6,0,0,0,1.09.328,2.538,2.538,0,0,0,1.265-.311,1.915,1.915,0,0,0,.813-.851,2.972,2.972,0,0,0,.2-1.23ZM46.854,0V-7.26h1.107v1.032a2.61,2.61,0,0,1,2.311-1.2,3.031,3.031,0,0,1,1.207.236,1.9,1.9,0,0,1,.824.619,2.375,2.375,0,0,1,.383.909,7.046,7.046,0,0,1,.068,1.2V0h-1.23V-4.416a3.315,3.315,0,0,0-.144-1.125,1.183,1.183,0,0,0-.509-.595,1.62,1.62,0,0,0-.858-.222,1.994,1.994,0,0,0-1.357.5,2.462,2.462,0,0,0-.571,1.894V0Zm12.5,0V-.916a2.258,2.258,0,0,1-2.03,1.08,2.847,2.847,0,0,1-1.6-.479A3.147,3.147,0,0,1,54.6-1.651a4.619,4.619,0,0,1-.4-1.972A5.162,5.162,0,0,1,54.558-5.6a2.857,2.857,0,0,1,1.087-1.357,2.906,2.906,0,0,1,1.62-.472,2.421,2.421,0,0,1,1.169.277,2.444,2.444,0,0,1,.834.721v-3.6h1.224V0ZM55.46-3.623a3.153,3.153,0,0,0,.588,2.085,1.773,1.773,0,0,0,1.388.69,1.74,1.74,0,0,0,1.371-.66,3.041,3.041,0,0,0,.564-2.013A3.414,3.414,0,0,0,58.8-5.708a1.766,1.766,0,0,0-1.415-.7,1.7,1.7,0,0,0-1.371.67A3.306,3.306,0,0,0,55.46-3.623ZM67.4-2.338l1.271.157A3.1,3.1,0,0,1,67.553-.451a3.35,3.35,0,0,1-2.078.615,3.321,3.321,0,0,1-2.526-.981,3.833,3.833,0,0,1-.933-2.751,4.011,4.011,0,0,1,.943-2.844,3.193,3.193,0,0,1,2.447-1.012,3.1,3.1,0,0,1,2.379.991,3.938,3.938,0,0,1,.923,2.789q0,.109-.007.328H63.287a2.79,2.79,0,0,0,.677,1.832,2.014,2.014,0,0,0,1.518.636A1.883,1.883,0,0,0,66.637-1.2,2.36,2.36,0,0,0,67.4-2.338Zm-4.04-1.989h4.054A2.459,2.459,0,0,0,66.944-5.7a1.886,1.886,0,0,0-1.524-.711,1.955,1.955,0,0,0-1.425.567A2.246,2.246,0,0,0,63.355-4.327ZM74.922,0V-.916a2.258,2.258,0,0,1-2.03,1.08,2.847,2.847,0,0,1-1.6-.479,3.147,3.147,0,0,1-1.128-1.336,4.619,4.619,0,0,1-.4-1.972A5.162,5.162,0,0,1,70.13-5.6a2.858,2.858,0,0,1,1.087-1.357,2.906,2.906,0,0,1,1.62-.472,2.421,2.421,0,0,1,1.169.277,2.444,2.444,0,0,1,.834.721v-3.6h1.224V0Zm-3.89-3.623a3.153,3.153,0,0,0,.588,2.085,1.773,1.773,0,0,0,1.388.69,1.74,1.74,0,0,0,1.371-.66,3.041,3.041,0,0,0,.564-2.013,3.414,3.414,0,0,0-.574-2.187,1.766,1.766,0,0,0-1.415-.7,1.7,1.7,0,0,0-1.371.67A3.306,3.306,0,0,0,71.032-3.623Z" transform="translate(-10690.961 -2829.54)"/>
    <path id="Trazado_232882" data-name="Trazado 232882" d="M1.025,0V-10.021H2.352v4.97l4.977-4.97h1.8l-4.2,4.061L9.311,0H7.561L3.992-5.072l-1.641,1.6V0Zm9.42,0V-10.021h7.246v1.183h-5.92V-5.77h5.544v1.176H11.771v3.411h6.152V0ZM22.579,0V-4.245l-3.862-5.776H20.33L22.306-7q.547.848,1.019,1.7.451-.786,1.094-1.771l1.941-2.946H27.9l-4,5.776V0Z" transform="translate(-10666.307 -2812.74)"/>
    <path id="Trazado_232883" data-name="Trazado 232883" d="M1.08,0V-10.021H4.532a8.374,8.374,0,0,1,1.784.144,3.394,3.394,0,0,1,1.47.718A4.077,4.077,0,0,1,8.972-7.448a6.722,6.722,0,0,1,.393,2.382A7,7,0,0,1,9.1-3.042a4.909,4.909,0,0,1-.684,1.459A3.632,3.632,0,0,1,7.5-.673a3.719,3.719,0,0,1-1.2.5A6.828,6.828,0,0,1,4.7,0ZM2.406-1.183h2.14A5.192,5.192,0,0,0,6.1-1.367a2.225,2.225,0,0,0,.9-.52,3.161,3.161,0,0,0,.735-1.268A6.2,6.2,0,0,0,8-5.086,4.663,4.663,0,0,0,7.482-7.5,2.6,2.6,0,0,0,6.228-8.634a5.185,5.185,0,0,0-1.716-.205H2.406Zm8.381-3.7a5.446,5.446,0,0,1,1.34-3.907A4.555,4.555,0,0,1,15.586-10.2a4.8,4.8,0,0,1,2.5.663,4.33,4.33,0,0,1,1.7,1.849A6.006,6.006,0,0,1,20.371-5a5.905,5.905,0,0,1-.615,2.728A4.2,4.2,0,0,1,18.013-.448a4.98,4.98,0,0,1-2.434.619A4.739,4.739,0,0,1,13.05-.513a4.4,4.4,0,0,1-1.688-1.866A5.656,5.656,0,0,1,10.787-4.881Zm1.367.021a4.015,4.015,0,0,0,.974,2.854A3.2,3.2,0,0,0,15.572-.964a3.2,3.2,0,0,0,2.464-1.053A4.257,4.257,0,0,0,19-5,5.134,5.134,0,0,0,18.59-7.14a3.178,3.178,0,0,0-1.21-1.415,3.28,3.28,0,0,0-1.788-.5,3.391,3.391,0,0,0-2.423.967A4.32,4.32,0,0,0,12.154-4.86Zm16.5-5.161h1.326v5.79a6.853,6.853,0,0,1-.342,2.4A2.927,2.927,0,0,1,28.407-.386a4.37,4.37,0,0,1-2.341.557,4.812,4.812,0,0,1-2.3-.485,2.771,2.771,0,0,1-1.278-1.4A6.694,6.694,0,0,1,22.1-4.231v-5.79h1.326v5.783a5.638,5.638,0,0,0,.243,1.924,1.843,1.843,0,0,0,.834.954,2.893,2.893,0,0,0,1.446.335,2.763,2.763,0,0,0,2.085-.663,3.82,3.82,0,0,0,.622-2.55ZM34.74,0V-8.839h-3.3v-1.183h7.943v1.183H36.066V0Z" transform="translate(-10282.469 -2770.6)"/>
    <g id="Grupo_237616" data-name="Grupo 237616" transform="translate(-10708 -2863)">
      <g id="Grupo_237615" data-name="Grupo 237615" clip-path="url(#clip-path)">
        <text id="DIN" transform="translate(0 174.708)" font-size="14" font-family="ArialMT, Arial"><tspan x="0" y="0">DIN</tspan></text>
      </g>
    </g>
    <path id="Trazado_232884" data-name="Trazado 232884" d="M5.893-2.338l1.271.157A3.1,3.1,0,0,1,6.05-.451,3.35,3.35,0,0,1,3.972.164,3.321,3.321,0,0,1,1.446-.817,3.833,3.833,0,0,1,.513-3.568a4.011,4.011,0,0,1,.943-2.844A3.193,3.193,0,0,1,3.9-7.424a3.1,3.1,0,0,1,2.379.991,3.938,3.938,0,0,1,.923,2.789q0,.109-.007.328H1.784a2.79,2.79,0,0,0,.677,1.832,2.014,2.014,0,0,0,1.518.636A1.883,1.883,0,0,0,5.134-1.2,2.36,2.36,0,0,0,5.893-2.338ZM1.853-4.327H5.906A2.459,2.459,0,0,0,5.441-5.7a1.886,1.886,0,0,0-1.524-.711,1.955,1.955,0,0,0-1.425.567A2.246,2.246,0,0,0,1.853-4.327ZM7.889,0l2.652-3.773L8.087-7.26H9.625l1.114,1.7q.314.485.506.813.3-.451.554-.8L13.022-7.26h1.47L11.983-3.842,14.684,0H13.173l-1.49-2.256-.4-.608L9.379,0Zm7.82,2.782V-7.26H16.83v.943a2.763,2.763,0,0,1,.9-.831,2.461,2.461,0,0,1,1.21-.277,2.869,2.869,0,0,1,1.641.479A2.937,2.937,0,0,1,21.649-5.6a4.929,4.929,0,0,1,.362,1.911,4.853,4.853,0,0,1-.4,2.006A3.015,3.015,0,0,1,20.45-.311a2.984,2.984,0,0,1-1.6.475,2.316,2.316,0,0,1-1.1-.26,2.514,2.514,0,0,1-.8-.656V2.782Zm1.114-6.371a3.158,3.158,0,0,0,.567,2.071,1.74,1.74,0,0,0,1.374.67,1.779,1.779,0,0,0,1.4-.694,3.292,3.292,0,0,0,.584-2.15,3.207,3.207,0,0,0-.571-2.078,1.718,1.718,0,0,0-1.364-.69,1.772,1.772,0,0,0-1.391.735A3.288,3.288,0,0,0,16.823-3.589ZM28.232-.9a4.582,4.582,0,0,1-1.316.82A3.8,3.8,0,0,1,25.56.164,2.639,2.639,0,0,1,23.721-.42a1.929,1.929,0,0,1-.643-1.494,1.987,1.987,0,0,1,.243-.974,2.009,2.009,0,0,1,.636-.708,2.989,2.989,0,0,1,.885-.4,8.792,8.792,0,0,1,1.094-.185,11.247,11.247,0,0,0,2.194-.424q.007-.253.007-.321a1.358,1.358,0,0,0-.349-1.06,2.059,2.059,0,0,0-1.4-.417,2.173,2.173,0,0,0-1.282.3,1.859,1.859,0,0,0-.612,1.077l-1.2-.164a2.981,2.981,0,0,1,.54-1.248,2.367,2.367,0,0,1,1.087-.731,4.848,4.848,0,0,1,1.647-.256,4.36,4.36,0,0,1,1.511.219,1.991,1.991,0,0,1,.854.55,1.935,1.935,0,0,1,.383.837,6.928,6.928,0,0,1,.062,1.135v1.641a17.414,17.414,0,0,0,.079,2.17A2.738,2.738,0,0,0,29.764,0H28.479A2.609,2.609,0,0,1,28.232-.9Zm-.1-2.748a9.028,9.028,0,0,1-2.01.465,4.649,4.649,0,0,0-1.073.246,1.07,1.07,0,0,0-.485.4,1.051,1.051,0,0,0-.171.584,1.048,1.048,0,0,0,.373.82,1.6,1.6,0,0,0,1.09.328,2.538,2.538,0,0,0,1.265-.311,1.915,1.915,0,0,0,.813-.851,2.972,2.972,0,0,0,.2-1.23ZM31.281,0V-7.26h1.107v1.032a2.61,2.61,0,0,1,2.311-1.2,3.031,3.031,0,0,1,1.207.236,1.9,1.9,0,0,1,.824.619,2.375,2.375,0,0,1,.383.909,7.046,7.046,0,0,1,.068,1.2V0H35.95V-4.416a3.315,3.315,0,0,0-.144-1.125,1.183,1.183,0,0,0-.509-.595,1.62,1.62,0,0,0-.858-.222,1.994,1.994,0,0,0-1.357.5,2.462,2.462,0,0,0-.571,1.894V0Zm12.5,0V-.916a2.258,2.258,0,0,1-2.03,1.08,2.847,2.847,0,0,1-1.6-.479,3.147,3.147,0,0,1-1.128-1.336,4.619,4.619,0,0,1-.4-1.972A5.162,5.162,0,0,1,38.985-5.6a2.857,2.857,0,0,1,1.087-1.357,2.906,2.906,0,0,1,1.62-.472,2.421,2.421,0,0,1,1.169.277,2.444,2.444,0,0,1,.834.721v-3.6h1.224V0Zm-3.89-3.623a3.153,3.153,0,0,0,.588,2.085,1.773,1.773,0,0,0,1.388.69,1.74,1.74,0,0,0,1.371-.66A3.041,3.041,0,0,0,43.8-3.521a3.414,3.414,0,0,0-.574-2.187,1.766,1.766,0,0,0-1.415-.7,1.7,1.7,0,0,0-1.371.67A3.306,3.306,0,0,0,39.888-3.623ZM51.823-2.338l1.271.157A3.1,3.1,0,0,1,51.98-.451,3.35,3.35,0,0,1,49.9.164a3.321,3.321,0,0,1-2.526-.981,3.833,3.833,0,0,1-.933-2.751,4.011,4.011,0,0,1,.943-2.844,3.193,3.193,0,0,1,2.447-1.012,3.1,3.1,0,0,1,2.379.991,3.938,3.938,0,0,1,.923,2.789q0,.109-.007.328H47.715a2.79,2.79,0,0,0,.677,1.832,2.014,2.014,0,0,0,1.518.636A1.883,1.883,0,0,0,51.064-1.2,2.36,2.36,0,0,0,51.823-2.338Zm-4.04-1.989h4.054A2.459,2.459,0,0,0,51.372-5.7a1.886,1.886,0,0,0-1.524-.711,1.955,1.955,0,0,0-1.425.567A2.246,2.246,0,0,0,47.783-4.327ZM59.35,0V-.916a2.258,2.258,0,0,1-2.03,1.08,2.847,2.847,0,0,1-1.6-.479A3.147,3.147,0,0,1,54.6-1.651a4.619,4.619,0,0,1-.4-1.972A5.162,5.162,0,0,1,54.558-5.6a2.857,2.857,0,0,1,1.087-1.357,2.906,2.906,0,0,1,1.62-.472,2.421,2.421,0,0,1,1.169.277,2.444,2.444,0,0,1,.834.721v-3.6h1.224V0ZM55.46-3.623a3.153,3.153,0,0,0,.588,2.085,1.773,1.773,0,0,0,1.388.69,1.74,1.74,0,0,0,1.371-.66,3.041,3.041,0,0,0,.564-2.013A3.414,3.414,0,0,0,58.8-5.708a1.766,1.766,0,0,0-1.415-.7,1.7,1.7,0,0,0-1.371.67A3.306,3.306,0,0,0,55.46-3.623Z" transform="translate(-10583.711 -2754.51)"/>
    <path id="Trazado_232885" data-name="Trazado 232885" d="M1.025,0V-10.021H2.352v4.97l4.977-4.97h1.8l-4.2,4.061L9.311,0H7.561L3.992-5.072l-1.641,1.6V0Zm9.42,0V-10.021h7.246v1.183h-5.92V-5.77h5.544v1.176H11.771v3.411h6.152V0ZM22.579,0V-4.245l-3.862-5.776H20.33L22.306-7q.547.848,1.019,1.7.451-.786,1.094-1.771l1.941-2.946H27.9l-4,5.776V0Z" transform="translate(-10566.841 -2737.711)"/>
    <path id="Trazado_232886" data-name="Trazado 232886" d="M0,0H136.989V50.323H0Z" transform="translate(-10586.505 -2705.731)" fill="#59e5f5"/>
    <path id="Trazado_232887" data-name="Trazado 232887" d="M0,0H136.989V50.323H0Z" transform="translate(-10586.505 -2705.731)" fill="none" stroke="#000" stroke-linecap="square" stroke-width="1.36"/>
    <path id="Trazado_232103" data-name="Trazado 232103" d="M73.5,153.1l26.679,9.992v38.68L73.5,211.762Z" transform="translate(-10708 -2863)" fill="#59e5f5"/>
    <path id="Trazado_232104" data-name="Trazado 232104" d="M73.5,153.1l26.679,9.992v38.68L73.5,211.762Z" transform="translate(-10708 -2863)" fill="none" stroke="#000" stroke-linecap="square" stroke-width="1.36"/>
    <path id="Trazado_232888" data-name="Trazado 232888" d="M-.025,0,4.587-12.007H6.3L11.213,0H9.4L8-3.637H2.981L1.663,0ZM3.44-4.931H7.511L6.258-8.256q-.573-1.515-.852-2.49a15.306,15.306,0,0,1-.647,2.293ZM17.937,0V-1.1A2.705,2.705,0,0,1,15.5.2a3.411,3.411,0,0,1-1.912-.573,3.77,3.77,0,0,1-1.351-1.6,5.534,5.534,0,0,1-.479-2.363A6.185,6.185,0,0,1,12.2-6.7,3.424,3.424,0,0,1,13.5-8.33a3.482,3.482,0,0,1,1.941-.565,2.9,2.9,0,0,1,1.4.332,2.928,2.928,0,0,1,1,.864v-4.308h1.466V0Zm-4.66-4.341a3.778,3.778,0,0,0,.7,2.5,2.124,2.124,0,0,0,1.663.827,2.085,2.085,0,0,0,1.642-.79,3.644,3.644,0,0,0,.676-2.412,4.09,4.09,0,0,0-.688-2.621,2.116,2.116,0,0,0-1.7-.835,2.043,2.043,0,0,0-1.642.8A3.962,3.962,0,0,0,13.277-4.341ZM27.266,0V-1.1A2.705,2.705,0,0,1,24.834.2a3.411,3.411,0,0,1-1.912-.573,3.77,3.77,0,0,1-1.351-1.6,5.534,5.534,0,0,1-.479-2.363A6.185,6.185,0,0,1,21.525-6.7a3.424,3.424,0,0,1,1.3-1.626,3.482,3.482,0,0,1,1.941-.565,2.9,2.9,0,0,1,1.4.332,2.928,2.928,0,0,1,1,.864v-4.308h1.466V0Zm-4.66-4.341a3.778,3.778,0,0,0,.7,2.5,2.124,2.124,0,0,0,1.663.827,2.085,2.085,0,0,0,1.642-.79,3.644,3.644,0,0,0,.676-2.412A4.09,4.09,0,0,0,26.6-6.839a2.116,2.116,0,0,0-1.7-.835,2.043,2.043,0,0,0-1.642.8A3.962,3.962,0,0,0,22.606-4.341ZM31.165,0V-12.007h5.324a7.086,7.086,0,0,1,2.441.324,2.669,2.669,0,0,1,1.335,1.143,3.409,3.409,0,0,1,.5,1.81,3.02,3.02,0,0,1-.827,2.154,4.186,4.186,0,0,1-2.555,1.114,4.121,4.121,0,0,1,.958.6,8.256,8.256,0,0,1,1.319,1.6L41.747,0h-2L38.16-2.5q-.7-1.081-1.147-1.654a3.605,3.605,0,0,0-.807-.8,2.385,2.385,0,0,0-.725-.319,4.774,4.774,0,0,0-.885-.057H32.754V0Zm1.589-6.708h3.415a5.122,5.122,0,0,0,1.7-.225,1.813,1.813,0,0,0,.934-.721,1.95,1.95,0,0,0,.319-1.077,1.789,1.789,0,0,0-.618-1.4,2.893,2.893,0,0,0-1.953-.549h-3.8Zm9.763,2.359A4.483,4.483,0,0,1,43.86-7.928,4.047,4.047,0,0,1,46.6-8.895,3.9,3.9,0,0,1,49.528-7.72a4.472,4.472,0,0,1,1.138,3.248,5.754,5.754,0,0,1-.5,2.641A3.566,3.566,0,0,1,48.7-.336,4.268,4.268,0,0,1,46.6.2,3.91,3.91,0,0,1,43.643-.975,4.678,4.678,0,0,1,42.517-4.349Zm1.515,0a3.7,3.7,0,0,0,.729,2.5,2.337,2.337,0,0,0,1.835.831,2.323,2.323,0,0,0,1.826-.835A3.793,3.793,0,0,0,49.151-4.4a3.594,3.594,0,0,0-.733-2.445A2.332,2.332,0,0,0,46.6-7.675a2.342,2.342,0,0,0-1.835.827A3.688,3.688,0,0,0,44.032-4.349ZM58.1,0V-1.278A3.184,3.184,0,0,1,55.335.2,3.517,3.517,0,0,1,53.9-.1a2.368,2.368,0,0,1-.991-.741,2.778,2.778,0,0,1-.455-1.093,7.486,7.486,0,0,1-.09-1.376V-8.7h1.474v4.824a8.6,8.6,0,0,0,.09,1.556,1.538,1.538,0,0,0,.59.913,1.827,1.827,0,0,0,1.114.332,2.426,2.426,0,0,0,1.245-.34,1.89,1.89,0,0,0,.823-.926,4.644,4.644,0,0,0,.242-1.7V-8.7h1.474V0Zm3.628,0V-8.7h1.327v1.237a3.127,3.127,0,0,1,2.768-1.433,3.632,3.632,0,0,1,1.446.283,2.274,2.274,0,0,1,.987.741,2.845,2.845,0,0,1,.459,1.089,8.442,8.442,0,0,1,.082,1.433V0H67.318V-5.291a3.972,3.972,0,0,0-.172-1.347,1.417,1.417,0,0,0-.61-.713,1.941,1.941,0,0,0-1.028-.266,2.389,2.389,0,0,0-1.626.6A2.95,2.95,0,0,0,63.2-4.751V0ZM76.7,0V-1.1A2.705,2.705,0,0,1,74.264.2a3.411,3.411,0,0,1-1.912-.573A3.77,3.77,0,0,1,71-1.978a5.534,5.534,0,0,1-.479-2.363A6.185,6.185,0,0,1,70.955-6.7a3.424,3.424,0,0,1,1.3-1.626A3.482,3.482,0,0,1,74.2-8.895a2.9,2.9,0,0,1,1.4.332,2.928,2.928,0,0,1,1,.864v-4.308h1.466V0Zm-4.66-4.341a3.778,3.778,0,0,0,.7,2.5,2.124,2.124,0,0,0,1.663.827,2.085,2.085,0,0,0,1.642-.79,3.644,3.644,0,0,0,.676-2.412,4.09,4.09,0,0,0-.688-2.621,2.116,2.116,0,0,0-1.7-.835,2.043,2.043,0,0,0-1.642.8A3.962,3.962,0,0,0,72.036-4.341ZM80.5,0V-12.007h1.589v5.955l5.963-5.955H90.21L85.173-7.142,90.432,0h-2.1L84.059-6.077,82.094-4.161V0Zm17.02-2.8,1.523.188A3.717,3.717,0,0,1,97.713-.541,4.014,4.014,0,0,1,95.223.2,3.979,3.979,0,0,1,92.2-.979a4.593,4.593,0,0,1-1.118-3.3,4.806,4.806,0,0,1,1.13-3.407,3.826,3.826,0,0,1,2.932-1.212,3.719,3.719,0,0,1,2.85,1.188A4.719,4.719,0,0,1,99.1-4.366q0,.131-.008.393H92.6a3.343,3.343,0,0,0,.811,2.2,2.413,2.413,0,0,0,1.818.762,2.256,2.256,0,0,0,1.384-.426A2.827,2.827,0,0,0,97.525-2.8ZM92.684-5.185h4.857a2.947,2.947,0,0,0-.557-1.646,2.26,2.26,0,0,0-1.826-.852A2.342,2.342,0,0,0,93.45-7,2.691,2.691,0,0,0,92.684-5.185Zm8.15,8.535-.164-1.384a3.285,3.285,0,0,0,.844.131,1.619,1.619,0,0,0,.786-.164,1.339,1.339,0,0,0,.483-.459,7.232,7.232,0,0,0,.45-1.1q.041-.123.131-.36l-3.3-8.715h1.589l1.81,5.037q.352.958.631,2.015a19.837,19.837,0,0,1,.606-1.982l1.859-5.07h1.474L104.724.147a17.363,17.363,0,0,1-.827,1.974A2.912,2.912,0,0,1,103,3.19a2.128,2.128,0,0,1-1.212.34A2.953,2.953,0,0,1,100.834,3.35Z" transform="translate(-10572.101 -2676.062)"/>
    <path id="Trazado_232889" data-name="Trazado 232889" d="M0,0H90.31V50.323H0Z" transform="translate(-10023.933 -2705.731)" fill="#59e5f5"/>
    <path id="Trazado_232890" data-name="Trazado 232890" d="M0,0H90.31V50.323H0Z" transform="translate(-10023.933 -2705.731)" fill="none" stroke="#000" stroke-linecap="square" stroke-width="1.232"/>
    <path id="Trazado_232891" data-name="Trazado 232891" d="M1.113,0V-10.737H3.252l2.542,7.6q.352,1.062.513,1.589.183-.586.571-1.721l2.571-7.471H11.36V0H9.99V-8.987L6.87,0H5.588L2.483-9.141V0ZM13.491-9.221v-1.516H14.81v1.516Zm0,9.221V-7.778H14.81V0Zm2.446,0,2.842-4.043L16.15-7.778H17.8l1.194,1.824q.337.52.542.872.322-.483.593-.857l1.311-1.838h1.575L20.325-4.116,23.218,0H21.6L20-2.417l-.425-.652L17.534,0ZM32.146-3.765l1.421.359a4.783,4.783,0,0,1-1.608,2.67,4.43,4.43,0,0,1-2.838.919A5.1,5.1,0,0,1,26.3-.524a4.413,4.413,0,0,1-1.655-2.047,7.3,7.3,0,0,1-.568-2.878,6.327,6.327,0,0,1,.641-2.926,4.391,4.391,0,0,1,1.824-1.9,5.329,5.329,0,0,1,2.6-.648,4.4,4.4,0,0,1,2.71.82,4.26,4.26,0,0,1,1.531,2.307l-1.4.33A3.318,3.318,0,0,0,30.9-9.17,2.889,2.889,0,0,0,29.114-9.7a3.471,3.471,0,0,0-2.069.593,3.133,3.133,0,0,0-1.168,1.593,6.413,6.413,0,0,0-.337,2.062,6.552,6.552,0,0,0,.4,2.391A2.974,2.974,0,0,0,27.18-1.538,3.482,3.482,0,0,0,29-1.033a3.056,3.056,0,0,0,2.021-.688A3.523,3.523,0,0,0,32.146-3.765Zm2.512-.125a4.009,4.009,0,0,1,1.2-3.2,3.619,3.619,0,0,1,2.446-.864A3.49,3.49,0,0,1,40.928-6.9,4,4,0,0,1,41.946-4a5.146,5.146,0,0,1-.45,2.362A3.189,3.189,0,0,1,40.184-.3a3.817,3.817,0,0,1-1.879.476,3.5,3.5,0,0,1-2.64-1.047A4.184,4.184,0,0,1,34.658-3.889Zm1.355,0a3.313,3.313,0,0,0,.652,2.238,2.089,2.089,0,0,0,1.641.743,2.077,2.077,0,0,0,1.633-.747,3.392,3.392,0,0,0,.652-2.278,3.214,3.214,0,0,0-.656-2.186,2.085,2.085,0,0,0-1.63-.743,2.094,2.094,0,0,0-1.641.74A3.3,3.3,0,0,0,36.013-3.889ZM43.462,0V-10.737H44.78V0Zm8.459,0V-1.143A2.847,2.847,0,0,1,49.453.176a3.145,3.145,0,0,1-1.285-.264,2.117,2.117,0,0,1-.886-.663,2.484,2.484,0,0,1-.406-.978,6.694,6.694,0,0,1-.081-1.23V-7.778h1.318v4.314a7.688,7.688,0,0,0,.081,1.392,1.375,1.375,0,0,0,.527.817,1.634,1.634,0,0,0,1,.3,2.17,2.17,0,0,0,1.113-.3,1.69,1.69,0,0,0,.736-.828,4.153,4.153,0,0,0,.216-1.52V-7.778H53.1V0Zm3.245,0V-7.778h1.179v1.091a2.772,2.772,0,0,1,.974-.919A2.737,2.737,0,0,1,58.7-7.954a2.559,2.559,0,0,1,1.417.359,1.921,1.921,0,0,1,.78,1,2.793,2.793,0,0,1,2.4-1.362,2.368,2.368,0,0,1,1.78.641,2.739,2.739,0,0,1,.623,1.974V0H64.395V-4.9a3.608,3.608,0,0,0-.128-1.139A1.1,1.1,0,0,0,63.8-6.6a1.452,1.452,0,0,0-.791-.212,1.841,1.841,0,0,0-1.362.546,2.4,2.4,0,0,0-.542,1.747V0H59.788V-5.054a2.224,2.224,0,0,0-.322-1.318,1.22,1.22,0,0,0-1.055-.439,1.916,1.916,0,0,0-1.029.293,1.662,1.662,0,0,0-.685.857,4.824,4.824,0,0,0-.212,1.626V0Zm12.5,0V-7.778h1.187v1.106a2.8,2.8,0,0,1,2.476-1.282,3.248,3.248,0,0,1,1.293.253,2.033,2.033,0,0,1,.883.663,2.544,2.544,0,0,1,.41.974,7.549,7.549,0,0,1,.073,1.282V0H72.664V-4.731a3.552,3.552,0,0,0-.154-1.2,1.267,1.267,0,0,0-.546-.637,1.736,1.736,0,0,0-.919-.238,2.136,2.136,0,0,0-1.454.535,2.638,2.638,0,0,0-.612,2.029V0Z" transform="translate(-10016.073 -2674.332)"/>
    <path id="Trazado_232892" data-name="Trazado 232892" d="M0,0H90.31V50.323H0Z" transform="translate(-10148.251 -2705.731)" fill="#59e5f5"/>
    <path id="Trazado_232893" data-name="Trazado 232893" d="M0,0H90.31V50.323H0Z" transform="translate(-10148.251 -2705.731)" fill="none" stroke="#000" stroke-linecap="square" stroke-width="1.232"/>
    <path id="Trazado_232894" data-name="Trazado 232894" d="M.674-3.45l1.34-.117a2.96,2.96,0,0,0,.443,1.322,2.419,2.419,0,0,0,1.08.835,4.091,4.091,0,0,0,1.648.319,3.949,3.949,0,0,0,1.436-.242A1.991,1.991,0,0,0,7.548-2a1.537,1.537,0,0,0,.3-.919A1.4,1.4,0,0,0,7.559-3.8a2.17,2.17,0,0,0-.967-.634A18.9,18.9,0,0,0,4.68-4.955a9.767,9.767,0,0,1-2.073-.67,2.906,2.906,0,0,1-1.146-1,2.45,2.45,0,0,1-.377-1.337,2.729,2.729,0,0,1,.461-1.52,2.857,2.857,0,0,1,1.348-1.073,5.113,5.113,0,0,1,1.97-.366,5.382,5.382,0,0,1,2.106.385A3.037,3.037,0,0,1,8.372-9.4,3.25,3.25,0,0,1,8.9-7.712l-1.362.1a2.2,2.2,0,0,0-.743-1.538,2.894,2.894,0,0,0-1.871-.52A3,3,0,0,0,3.043-9.2a1.417,1.417,0,0,0-.59,1.139,1.221,1.221,0,0,0,.417.952,5.657,5.657,0,0,0,2.142.765,14.17,14.17,0,0,1,2.377.685A3.255,3.255,0,0,1,8.774-4.559a2.668,2.668,0,0,1,.447,1.527A2.921,2.921,0,0,1,8.73-1.417,3.231,3.231,0,0,1,7.321-.238,4.912,4.912,0,0,1,5.251.183,6.178,6.178,0,0,1,2.809-.242,3.421,3.421,0,0,1,1.263-1.52,3.624,3.624,0,0,1,.674-3.45ZM10.994,0V-10.737h1.318v3.853a2.945,2.945,0,0,1,2.329-1.069,3.141,3.141,0,0,1,1.5.341,2,2,0,0,1,.912.941,4.339,4.339,0,0,1,.275,1.743V0H16.011V-4.929a2.037,2.037,0,0,0-.428-1.439,1.593,1.593,0,0,0-1.212-.45,2.137,2.137,0,0,0-1.1.3,1.717,1.717,0,0,0-.736.824,3.784,3.784,0,0,0-.22,1.436V0Zm8.35-9.221v-1.516h1.318v1.516Zm0,9.221V-7.778h1.318V0Zm3.64,0V-6.753H21.819V-7.778h1.165v-.828a3.624,3.624,0,0,1,.139-1.165,1.686,1.686,0,0,1,.67-.831,2.415,2.415,0,0,1,1.344-.319,6.453,6.453,0,0,1,1.23.132l-.2,1.15a4.424,4.424,0,0,0-.776-.073,1.155,1.155,0,0,0-.85.256,1.39,1.39,0,0,0-.249.959v.718h1.516v1.025H24.294V0Zm6.731-1.179L29.9-.015a4.89,4.89,0,0,1-1,.117A2.255,2.255,0,0,1,27.8-.125a1.271,1.271,0,0,1-.557-.6,4.72,4.72,0,0,1-.161-1.556V-6.753h-.967V-7.778h.967V-9.7l1.311-.791v2.717h1.326v1.025H28.389V-2.2a2.3,2.3,0,0,0,.07.725.549.549,0,0,0,.227.256.877.877,0,0,0,.45.1A4.289,4.289,0,0,0,29.714-1.179ZM31.194,0V-10.737h4.761a6.336,6.336,0,0,1,2.183.289,2.387,2.387,0,0,1,1.194,1.022,3.048,3.048,0,0,1,.447,1.619,2.7,2.7,0,0,1-.74,1.926,3.744,3.744,0,0,1-2.285,1,3.685,3.685,0,0,1,.857.535,7.383,7.383,0,0,1,1.179,1.428L40.657,0H38.87L37.449-2.234q-.623-.967-1.025-1.479a3.224,3.224,0,0,0-.721-.718,2.133,2.133,0,0,0-.648-.286,4.269,4.269,0,0,0-.791-.051H32.615V0Zm1.421-6h3.054a4.58,4.58,0,0,0,1.523-.2,1.621,1.621,0,0,0,.835-.645,1.743,1.743,0,0,0,.286-.963A1.6,1.6,0,0,0,37.76-9.06a2.587,2.587,0,0,0-1.747-.491h-3.4Zm8.73,2.109a4.009,4.009,0,0,1,1.2-3.2,3.619,3.619,0,0,1,2.446-.864A3.49,3.49,0,0,1,47.615-6.9,4,4,0,0,1,48.633-4a5.146,5.146,0,0,1-.45,2.362A3.189,3.189,0,0,1,46.871-.3a3.817,3.817,0,0,1-1.879.476,3.5,3.5,0,0,1-2.64-1.047A4.184,4.184,0,0,1,41.345-3.889Zm1.355,0a3.313,3.313,0,0,0,.652,2.238,2.089,2.089,0,0,0,1.641.743,2.077,2.077,0,0,0,1.633-.747,3.392,3.392,0,0,0,.652-2.278,3.214,3.214,0,0,0-.656-2.186,2.085,2.085,0,0,0-1.63-.743,2.094,2.094,0,0,0-1.641.74A3.3,3.3,0,0,0,42.7-3.889ZM51.614,0l-2.38-7.778H50.6l1.238,4.49.461,1.67q.029-.125.4-1.6l1.238-4.556h1.355l1.165,4.512.388,1.487.447-1.5,1.333-4.5H59.9L57.473,0H56.1L54.866-4.658l-.3-1.326L52.991,0Z" transform="translate(-10132.894 -2674.332)"/>
    <path id="Trazado_232895" data-name="Trazado 232895" d="M0,0H90.31V50.323H0Z" transform="translate(-10273.568 -2705.731)" fill="#59e5f5"/>
    <path id="Trazado_232896" data-name="Trazado 232896" d="M0,0H90.31V50.323H0Z" transform="translate(-10273.568 -2705.731)" fill="none" stroke="#000" stroke-linecap="square" stroke-width="1.232"/>
    <path id="Trazado_232897" data-name="Trazado 232897" d="M1.1,0V-10.737H5.127a4.986,4.986,0,0,1,1.974.326,2.538,2.538,0,0,1,1.165,1,2.645,2.645,0,0,1,.421,1.417,2.435,2.435,0,0,1-.374,1.3,2.667,2.667,0,0,1-1.128.981,2.8,2.8,0,0,1,1.5.974,2.609,2.609,0,0,1,.524,1.626,3.136,3.136,0,0,1-.319,1.4,2.716,2.716,0,0,1-.787,1,3.286,3.286,0,0,1-1.176.531A7.15,7.15,0,0,1,5.193,0ZM2.52-6.226H4.841A5.181,5.181,0,0,0,6.2-6.35a1.506,1.506,0,0,0,.817-.535,1.54,1.54,0,0,0,.275-.937,1.727,1.727,0,0,0-.256-.941A1.3,1.3,0,0,0,6.3-9.32a6.117,6.117,0,0,0-1.633-.15H2.52Zm0,4.958H5.193a6.153,6.153,0,0,0,.967-.051,2.317,2.317,0,0,0,.82-.293,1.555,1.555,0,0,0,.542-.6,1.868,1.868,0,0,0,.212-.9,1.784,1.784,0,0,0-.308-1.044,1.623,1.623,0,0,0-.853-.623A5.29,5.29,0,0,0,5-4.958H2.52ZM10.935,3l-.146-1.238a2.938,2.938,0,0,0,.754.117,1.448,1.448,0,0,0,.7-.146,1.2,1.2,0,0,0,.432-.41,6.467,6.467,0,0,0,.4-.981q.037-.11.117-.322L10.247-7.778h1.421l1.619,4.5q.315.857.564,1.8a17.738,17.738,0,0,1,.542-1.772l1.663-4.534h1.318L14.414.132a15.527,15.527,0,0,1-.74,1.765,2.6,2.6,0,0,1-.806.956,1.9,1.9,0,0,1-1.084.3A2.64,2.64,0,0,1,10.935,3ZM21.372-1.179l.19,1.165a4.89,4.89,0,0,1-1,.117,2.255,2.255,0,0,1-1.113-.227,1.271,1.271,0,0,1-.557-.6,4.72,4.72,0,0,1-.161-1.556V-6.753h-.967V-7.778h.967V-9.7l1.311-.791v2.717h1.326v1.025H20.046V-2.2a2.3,2.3,0,0,0,.07.725.549.549,0,0,0,.227.256.877.877,0,0,0,.45.1A4.289,4.289,0,0,0,21.372-1.179ZM27.986-2.5l1.362.168A3.324,3.324,0,0,1,28.154-.483a3.589,3.589,0,0,1-2.227.659A3.558,3.558,0,0,1,23.221-.875a4.107,4.107,0,0,1-1-2.948A4.3,4.3,0,0,1,23.232-6.87a3.421,3.421,0,0,1,2.622-1.084A3.325,3.325,0,0,1,28.4-6.892,4.22,4.22,0,0,1,29.392-3.9q0,.117-.007.352h-5.8a2.989,2.989,0,0,0,.725,1.963,2.158,2.158,0,0,0,1.626.681,2.017,2.017,0,0,0,1.238-.381A2.528,2.528,0,0,0,27.986-2.5ZM23.657-4.636H28a2.635,2.635,0,0,0-.5-1.472,2.021,2.021,0,0,0-1.633-.762,2.094,2.094,0,0,0-1.527.608A2.406,2.406,0,0,0,23.657-4.636ZM30.688-3.45l1.34-.117a2.96,2.96,0,0,0,.443,1.322,2.419,2.419,0,0,0,1.08.835,4.091,4.091,0,0,0,1.648.319,3.949,3.949,0,0,0,1.436-.242A1.991,1.991,0,0,0,37.562-2a1.537,1.537,0,0,0,.3-.919,1.4,1.4,0,0,0-.293-.883,2.17,2.17,0,0,0-.967-.634,18.9,18.9,0,0,0-1.912-.524,9.767,9.767,0,0,1-2.073-.67,2.906,2.906,0,0,1-1.146-1A2.45,2.45,0,0,1,31.1-7.961a2.729,2.729,0,0,1,.461-1.52,2.857,2.857,0,0,1,1.348-1.073,5.113,5.113,0,0,1,1.97-.366,5.382,5.382,0,0,1,2.106.385,3.037,3.037,0,0,1,1.4,1.132,3.25,3.25,0,0,1,.527,1.692l-1.362.1a2.2,2.2,0,0,0-.743-1.538,2.894,2.894,0,0,0-1.871-.52,3,3,0,0,0-1.879.472,1.417,1.417,0,0,0-.59,1.139,1.221,1.221,0,0,0,.417.952,5.657,5.657,0,0,0,2.142.765,14.17,14.17,0,0,1,2.377.685,3.255,3.255,0,0,1,1.384,1.095,2.668,2.668,0,0,1,.447,1.527,2.921,2.921,0,0,1-.491,1.615,3.231,3.231,0,0,1-1.41,1.179,4.912,4.912,0,0,1-2.069.421,6.178,6.178,0,0,1-2.443-.425A3.421,3.421,0,0,1,31.278-1.52,3.624,3.624,0,0,1,30.688-3.45ZM46.106,0V-1.143A2.847,2.847,0,0,1,43.638.176a3.145,3.145,0,0,1-1.285-.264,2.117,2.117,0,0,1-.886-.663,2.484,2.484,0,0,1-.406-.978,6.694,6.694,0,0,1-.081-1.23V-7.778H42.3v4.314a7.688,7.688,0,0,0,.081,1.392,1.375,1.375,0,0,0,.527.817,1.634,1.634,0,0,0,1,.3,2.17,2.17,0,0,0,1.113-.3,1.69,1.69,0,0,0,.736-.828,4.153,4.153,0,0,0,.216-1.52V-7.778h1.318V0Zm4.46,0H49.343V-10.737h1.318v3.831a2.609,2.609,0,0,1,2.131-1.047,3.264,3.264,0,0,1,1.359.289,2.775,2.775,0,0,1,1.055.813,3.93,3.93,0,0,1,.648,1.263,5.209,5.209,0,0,1,.234,1.582A4.443,4.443,0,0,1,55.1-.916,3.093,3.093,0,0,1,52.727.176a2.477,2.477,0,0,1-2.161-1.15Zm-.015-3.948a4.037,4.037,0,0,0,.381,2.021A1.9,1.9,0,0,0,52.617-.908a1.9,1.9,0,0,0,1.494-.751,3.411,3.411,0,0,0,.63-2.238,3.47,3.47,0,0,0-.6-2.249,1.84,1.84,0,0,0-1.461-.725,1.9,1.9,0,0,0-1.494.751A3.3,3.3,0,0,0,50.552-3.948Z" transform="translate(-10256.553 -2674.332)"/>
    <path id="Trazado_232898" data-name="Trazado 232898" d="M0,0H106V76.416H0Z" transform="translate(-10415.275 -2718.665)" fill="#59e5f5"/>
    <path id="Trazado_232899" data-name="Trazado 232899" d="M0,0H106V76.416H0Z" transform="translate(-10415.275 -2718.665)" fill="none" stroke="#000" stroke-linecap="square" stroke-width="1.36"/>
    <path id="Trazado_232900" data-name="Trazado 232900" d="M.674-3.45l1.34-.117a2.96,2.96,0,0,0,.443,1.322,2.419,2.419,0,0,0,1.08.835,4.091,4.091,0,0,0,1.648.319,3.949,3.949,0,0,0,1.436-.242A1.991,1.991,0,0,0,7.548-2a1.537,1.537,0,0,0,.3-.919A1.4,1.4,0,0,0,7.559-3.8a2.17,2.17,0,0,0-.967-.634A18.9,18.9,0,0,0,4.68-4.955a9.767,9.767,0,0,1-2.073-.67,2.906,2.906,0,0,1-1.146-1,2.45,2.45,0,0,1-.377-1.337,2.729,2.729,0,0,1,.461-1.52,2.857,2.857,0,0,1,1.348-1.073,5.113,5.113,0,0,1,1.97-.366,5.382,5.382,0,0,1,2.106.385A3.037,3.037,0,0,1,8.372-9.4,3.25,3.25,0,0,1,8.9-7.712l-1.362.1a2.2,2.2,0,0,0-.743-1.538,2.894,2.894,0,0,0-1.871-.52A3,3,0,0,0,3.043-9.2a1.417,1.417,0,0,0-.59,1.139,1.221,1.221,0,0,0,.417.952,5.657,5.657,0,0,0,2.142.765,14.17,14.17,0,0,1,2.377.685A3.255,3.255,0,0,1,8.774-4.559a2.668,2.668,0,0,1,.447,1.527A2.921,2.921,0,0,1,8.73-1.417,3.231,3.231,0,0,1,7.321-.238,4.912,4.912,0,0,1,5.251.183,6.178,6.178,0,0,1,2.809-.242,3.421,3.421,0,0,1,1.263-1.52,3.624,3.624,0,0,1,.674-3.45Zm13.2,2.271.19,1.165a4.89,4.89,0,0,1-1,.117,2.255,2.255,0,0,1-1.113-.227,1.271,1.271,0,0,1-.557-.6,4.72,4.72,0,0,1-.161-1.556V-6.753h-.967V-7.778h.967V-9.7l1.311-.791v2.717h1.326v1.025H12.546V-2.2a2.3,2.3,0,0,0,.07.725.549.549,0,0,0,.227.256.877.877,0,0,0,.45.1A4.289,4.289,0,0,0,13.872-1.179Zm6.365.22a4.909,4.909,0,0,1-1.41.879,4.074,4.074,0,0,1-1.454.256A2.828,2.828,0,0,1,15.4-.45a2.067,2.067,0,0,1-.688-1.6,2.128,2.128,0,0,1,.26-1.044,2.152,2.152,0,0,1,.681-.758,3.2,3.2,0,0,1,.948-.432,9.42,9.42,0,0,1,1.172-.2,12.05,12.05,0,0,0,2.351-.454q.007-.271.007-.344a1.456,1.456,0,0,0-.374-1.135,2.206,2.206,0,0,0-1.5-.447,2.328,2.328,0,0,0-1.373.326,1.991,1.991,0,0,0-.656,1.154l-1.289-.176A3.194,3.194,0,0,1,15.52-6.9a2.536,2.536,0,0,1,1.165-.784,5.194,5.194,0,0,1,1.765-.275,4.672,4.672,0,0,1,1.619.234,2.133,2.133,0,0,1,.916.59,2.074,2.074,0,0,1,.41.9,7.423,7.423,0,0,1,.066,1.216v1.758a18.658,18.658,0,0,0,.084,2.325A2.934,2.934,0,0,0,21.877,0H20.5A2.8,2.8,0,0,1,20.237-.959ZM20.127-3.9a9.672,9.672,0,0,1-2.153.5,4.981,4.981,0,0,0-1.15.264,1.146,1.146,0,0,0-.52.428,1.126,1.126,0,0,0-.183.626,1.123,1.123,0,0,0,.4.879,1.717,1.717,0,0,0,1.168.352,2.719,2.719,0,0,0,1.355-.333,2.052,2.052,0,0,0,.872-.912,3.185,3.185,0,0,0,.212-1.318ZM23.262.645l1.282.19a1.221,1.221,0,0,0,.447.864,2.195,2.195,0,0,0,1.34.366A2.354,2.354,0,0,0,27.744,1.7,1.8,1.8,0,0,0,28.418.674a8.42,8.42,0,0,0,.1-1.692A2.712,2.712,0,0,1,26.36,0a2.936,2.936,0,0,1-2.483-1.157A4.456,4.456,0,0,1,23-3.933a5.166,5.166,0,0,1,.4-2.054,3.223,3.223,0,0,1,1.168-1.454,3.154,3.154,0,0,1,1.8-.513,2.788,2.788,0,0,1,2.271,1.113v-.937h1.216v6.724a6.377,6.377,0,0,1-.37,2.574,2.705,2.705,0,0,1-1.172,1.2,4.061,4.061,0,0,1-1.974.439,3.722,3.722,0,0,1-2.249-.626A2.118,2.118,0,0,1,23.262.645Zm1.091-4.673a3.374,3.374,0,0,0,.608,2.234,1.93,1.93,0,0,0,1.523.7,1.949,1.949,0,0,0,1.523-.7,3.265,3.265,0,0,0,.615-2.194,3.19,3.19,0,0,0-.634-2.153,1.959,1.959,0,0,0-1.527-.725,1.9,1.9,0,0,0-1.494.714A3.171,3.171,0,0,0,24.353-4.028ZM37.17-2.5l1.362.168A3.324,3.324,0,0,1,37.339-.483a3.589,3.589,0,0,1-2.227.659A3.558,3.558,0,0,1,32.406-.875a4.107,4.107,0,0,1-1-2.948A4.3,4.3,0,0,1,32.417-6.87a3.421,3.421,0,0,1,2.622-1.084,3.325,3.325,0,0,1,2.549,1.062A4.22,4.22,0,0,1,38.577-3.9q0,.117-.007.352h-5.8a2.989,2.989,0,0,0,.725,1.963,2.158,2.158,0,0,0,1.626.681,2.017,2.017,0,0,0,1.238-.381A2.528,2.528,0,0,0,37.17-2.5ZM32.842-4.636h4.343a2.635,2.635,0,0,0-.5-1.472,2.021,2.021,0,0,0-1.633-.762,2.094,2.094,0,0,0-1.527.608A2.406,2.406,0,0,0,32.842-4.636Z" transform="translate(-10381.875 -2694.99)"/>
    <path id="Trazado_232901" data-name="Trazado 232901" d="M.674-3.45l1.34-.117a2.96,2.96,0,0,0,.443,1.322,2.419,2.419,0,0,0,1.08.835,4.091,4.091,0,0,0,1.648.319,3.949,3.949,0,0,0,1.436-.242A1.991,1.991,0,0,0,7.548-2a1.537,1.537,0,0,0,.3-.919A1.4,1.4,0,0,0,7.559-3.8a2.17,2.17,0,0,0-.967-.634A18.9,18.9,0,0,0,4.68-4.955a9.767,9.767,0,0,1-2.073-.67,2.906,2.906,0,0,1-1.146-1,2.45,2.45,0,0,1-.377-1.337,2.729,2.729,0,0,1,.461-1.52,2.857,2.857,0,0,1,1.348-1.073,5.113,5.113,0,0,1,1.97-.366,5.382,5.382,0,0,1,2.106.385A3.037,3.037,0,0,1,8.372-9.4,3.25,3.25,0,0,1,8.9-7.712l-1.362.1a2.2,2.2,0,0,0-.743-1.538,2.894,2.894,0,0,0-1.871-.52A3,3,0,0,0,3.043-9.2a1.417,1.417,0,0,0-.59,1.139,1.221,1.221,0,0,0,.417.952,5.657,5.657,0,0,0,2.142.765,14.17,14.17,0,0,1,2.377.685A3.255,3.255,0,0,1,8.774-4.559a2.668,2.668,0,0,1,.447,1.527A2.921,2.921,0,0,1,8.73-1.417,3.231,3.231,0,0,1,7.321-.238,4.912,4.912,0,0,1,5.251.183,6.178,6.178,0,0,1,2.809-.242,3.421,3.421,0,0,1,1.263-1.52,3.624,3.624,0,0,1,.674-3.45Zm13.2,2.271.19,1.165a4.89,4.89,0,0,1-1,.117,2.255,2.255,0,0,1-1.113-.227,1.271,1.271,0,0,1-.557-.6,4.72,4.72,0,0,1-.161-1.556V-6.753h-.967V-7.778h.967V-9.7l1.311-.791v2.717h1.326v1.025H12.546V-2.2a2.3,2.3,0,0,0,.07.725.549.549,0,0,0,.227.256.877.877,0,0,0,.45.1A4.289,4.289,0,0,0,13.872-1.179Zm.8-2.71a4.009,4.009,0,0,1,1.2-3.2,3.619,3.619,0,0,1,2.446-.864A3.49,3.49,0,0,1,20.94-6.9,4,4,0,0,1,21.958-4a5.146,5.146,0,0,1-.45,2.362A3.189,3.189,0,0,1,20.2-.3a3.817,3.817,0,0,1-1.879.476,3.5,3.5,0,0,1-2.64-1.047A4.184,4.184,0,0,1,14.67-3.889Zm1.355,0a3.313,3.313,0,0,0,.652,2.238,2.089,2.089,0,0,0,1.641.743,2.077,2.077,0,0,0,1.633-.747A3.392,3.392,0,0,0,20.6-3.933a3.214,3.214,0,0,0-.656-2.186,2.085,2.085,0,0,0-1.63-.743,2.094,2.094,0,0,0-1.641.74A3.3,3.3,0,0,0,16.025-3.889ZM23.489,0V-7.778h1.187V-6.6a3.218,3.218,0,0,1,.839-1.091,1.464,1.464,0,0,1,.846-.264,2.572,2.572,0,0,1,1.355.425l-.454,1.223a1.886,1.886,0,0,0-.967-.286,1.256,1.256,0,0,0-.776.26,1.408,1.408,0,0,0-.491.721,5.135,5.135,0,0,0-.22,1.538V0ZM33.574-.959a4.909,4.909,0,0,1-1.41.879A4.074,4.074,0,0,1,30.71.176,2.828,2.828,0,0,1,28.74-.45a2.067,2.067,0,0,1-.688-1.6,2.128,2.128,0,0,1,.26-1.044,2.152,2.152,0,0,1,.681-.758,3.2,3.2,0,0,1,.948-.432,9.42,9.42,0,0,1,1.172-.2,12.05,12.05,0,0,0,2.351-.454q.007-.271.007-.344A1.456,1.456,0,0,0,33.1-6.416a2.206,2.206,0,0,0-1.5-.447,2.328,2.328,0,0,0-1.373.326,1.991,1.991,0,0,0-.656,1.154l-1.289-.176A3.194,3.194,0,0,1,28.857-6.9a2.536,2.536,0,0,1,1.165-.784,5.194,5.194,0,0,1,1.765-.275,4.672,4.672,0,0,1,1.619.234,2.133,2.133,0,0,1,.916.59,2.074,2.074,0,0,1,.41.9A7.423,7.423,0,0,1,34.8-5.017v1.758a18.658,18.658,0,0,0,.084,2.325A2.934,2.934,0,0,0,35.215,0H33.838A2.8,2.8,0,0,1,33.574-.959ZM33.464-3.9a9.672,9.672,0,0,1-2.153.5,4.981,4.981,0,0,0-1.15.264,1.146,1.146,0,0,0-.52.428,1.126,1.126,0,0,0-.183.626,1.123,1.123,0,0,0,.4.879,1.717,1.717,0,0,0,1.168.352A2.719,2.719,0,0,0,32.38-1.19a2.052,2.052,0,0,0,.872-.912,3.185,3.185,0,0,0,.212-1.318ZM36.6.645l1.282.19a1.221,1.221,0,0,0,.447.864,2.195,2.195,0,0,0,1.34.366A2.354,2.354,0,0,0,41.082,1.7,1.8,1.8,0,0,0,41.755.674a8.42,8.42,0,0,0,.1-1.692A2.712,2.712,0,0,1,39.7,0a2.936,2.936,0,0,1-2.483-1.157,4.456,4.456,0,0,1-.879-2.776,5.166,5.166,0,0,1,.4-2.054,3.223,3.223,0,0,1,1.168-1.454,3.154,3.154,0,0,1,1.8-.513,2.788,2.788,0,0,1,2.271,1.113v-.937h1.216v6.724a6.377,6.377,0,0,1-.37,2.574,2.705,2.705,0,0,1-1.172,1.2,4.061,4.061,0,0,1-1.974.439,3.722,3.722,0,0,1-2.249-.626A2.118,2.118,0,0,1,36.6.645ZM37.69-4.028A3.374,3.374,0,0,0,38.3-1.794a1.93,1.93,0,0,0,1.523.7,1.949,1.949,0,0,0,1.523-.7,3.265,3.265,0,0,0,.615-2.194,3.19,3.19,0,0,0-.634-2.153A1.959,1.959,0,0,0,39.8-6.863a1.9,1.9,0,0,0-1.494.714A3.171,3.171,0,0,0,37.69-4.028ZM50.508-2.5l1.362.168A3.324,3.324,0,0,1,50.676-.483,3.589,3.589,0,0,1,48.45.176,3.558,3.558,0,0,1,45.743-.875a4.107,4.107,0,0,1-1-2.948A4.3,4.3,0,0,1,45.754-6.87a3.421,3.421,0,0,1,2.622-1.084,3.325,3.325,0,0,1,2.549,1.062A4.22,4.22,0,0,1,51.914-3.9q0,.117-.007.352h-5.8a2.989,2.989,0,0,0,.725,1.963,2.158,2.158,0,0,0,1.626.681,2.017,2.017,0,0,0,1.238-.381A2.528,2.528,0,0,0,50.508-2.5ZM46.179-4.636h4.343a2.635,2.635,0,0,0-.5-1.472,2.021,2.021,0,0,0-1.633-.762,2.094,2.094,0,0,0-1.527.608A2.406,2.406,0,0,0,46.179-4.636Z" transform="translate(-10388.55 -2676.99)"/>
    <path id="Trazado_232902" data-name="Trazado 232902" d="M-.022,0,4.1-10.737H5.632L10.027,0H8.408L7.156-3.252H2.666L1.487,0Zm3.1-4.409h3.64L5.6-7.383q-.513-1.355-.762-2.227a13.688,13.688,0,0,1-.579,2.051ZM10.979,0V-7.778h1.187V-6.6A3.218,3.218,0,0,1,13-7.69a1.464,1.464,0,0,1,.846-.264,2.572,2.572,0,0,1,1.355.425l-.454,1.223a1.886,1.886,0,0,0-.967-.286,1.256,1.256,0,0,0-.776.26,1.408,1.408,0,0,0-.491.721,5.135,5.135,0,0,0-.22,1.538V0ZM21.313-2.5l1.362.168A3.324,3.324,0,0,1,21.482-.483a3.589,3.589,0,0,1-2.227.659A3.558,3.558,0,0,1,16.549-.875a4.107,4.107,0,0,1-1-2.948A4.3,4.3,0,0,1,16.56-6.87a3.421,3.421,0,0,1,2.622-1.084,3.325,3.325,0,0,1,2.549,1.062A4.22,4.22,0,0,1,22.72-3.9q0,.117-.007.352h-5.8a2.989,2.989,0,0,0,.725,1.963,2.158,2.158,0,0,0,1.626.681A2.017,2.017,0,0,0,20.5-1.289,2.528,2.528,0,0,0,21.313-2.5ZM16.985-4.636h4.343a2.635,2.635,0,0,0-.5-1.472A2.021,2.021,0,0,0,19.2-6.87a2.094,2.094,0,0,0-1.527.608A2.406,2.406,0,0,0,16.985-4.636ZM29.407-.959A4.909,4.909,0,0,1,28-.081a4.074,4.074,0,0,1-1.454.256,2.828,2.828,0,0,1-1.97-.626,2.067,2.067,0,0,1-.688-1.6,2.128,2.128,0,0,1,.26-1.044,2.152,2.152,0,0,1,.681-.758,3.2,3.2,0,0,1,.948-.432,9.42,9.42,0,0,1,1.172-.2A12.05,12.05,0,0,0,29.3-4.937q.007-.271.007-.344a1.456,1.456,0,0,0-.374-1.135,2.206,2.206,0,0,0-1.5-.447,2.328,2.328,0,0,0-1.373.326A1.991,1.991,0,0,0,25.4-5.383l-1.289-.176A3.194,3.194,0,0,1,24.69-6.9a2.536,2.536,0,0,1,1.165-.784,5.194,5.194,0,0,1,1.765-.275,4.672,4.672,0,0,1,1.619.234,2.133,2.133,0,0,1,.916.59,2.074,2.074,0,0,1,.41.9,7.423,7.423,0,0,1,.066,1.216v1.758a18.658,18.658,0,0,0,.084,2.325A2.934,2.934,0,0,0,31.047,0H29.67A2.8,2.8,0,0,1,29.407-.959ZM29.3-3.9a9.672,9.672,0,0,1-2.153.5,4.981,4.981,0,0,0-1.15.264,1.146,1.146,0,0,0-.52.428,1.126,1.126,0,0,0-.183.626,1.123,1.123,0,0,0,.4.879,1.717,1.717,0,0,0,1.168.352,2.719,2.719,0,0,0,1.355-.333,2.052,2.052,0,0,0,.872-.912A3.185,3.185,0,0,0,29.3-3.42Z" transform="translate(-10378.125 -2658.99)"/>
    <path id="Trazado_232105" data-name="Trazado 232105" d="M189.989,149.156v0Z" transform="translate(-10708 -2863)" fill="#59e5f5"/>
    <path id="Trazado_232903" data-name="Trazado 232903" d="M0,83.081V0" transform="translate(-10518.011 -2796.925)" fill="none" stroke="#000" stroke-linecap="square" stroke-width="1.36"/>
    <g id="Grupo_237618" data-name="Grupo 237618" transform="translate(-10708 -2863)">
      <g id="Grupo_237617" data-name="Grupo 237617" clip-path="url(#clip-path)">
        <path id="Trazado_232106" data-name="Trazado 232106" d="M774.589,182.543h17.688v55.705H49.156V196.934H71.7" fill="none" stroke="#000" stroke-linecap="square" stroke-width="1.36"/>
      </g>
    </g>
    <path id="Trazado_232107" data-name="Trazado 232107" d="M272.016,182.43V88.658H414.6" transform="translate(-10708 -2863)" fill="none" stroke="#000" stroke-linecap="square" stroke-width="1.36"/>
    <path id="Trazado_232904" data-name="Trazado 232904" d="M18.675,0H14.587L12.962-4.228H5.522L3.986,0H0L7.249-18.611h3.974ZM11.756-7.363,9.191-14.27,6.678-7.363ZM20.668,0V-18.611h13.8v3.148H24.426v4.126H33.77V-8.2H24.426v5.065h10.4V0Zm16.39-6.056,3.656-.355a4.46,4.46,0,0,0,1.339,2.7,4.05,4.05,0,0,0,2.723.863,4.185,4.185,0,0,0,2.736-.768,2.285,2.285,0,0,0,.92-1.8,1.694,1.694,0,0,0-.387-1.124,3.1,3.1,0,0,0-1.352-.806q-.66-.229-3.009-.812a10.207,10.207,0,0,1-4.24-1.841,4.843,4.843,0,0,1-1.714-3.745,4.784,4.784,0,0,1,.806-2.66,5.047,5.047,0,0,1,2.323-1.885,9.311,9.311,0,0,1,3.663-.647A7.856,7.856,0,0,1,49.8-17.393a5.422,5.422,0,0,1,1.86,4.1l-3.758.165a3.191,3.191,0,0,0-1.035-2.063,3.788,3.788,0,0,0-2.38-.628,4.294,4.294,0,0,0-2.564.673,1.356,1.356,0,0,0-.6,1.155,1.43,1.43,0,0,0,.559,1.13,9.879,9.879,0,0,0,3.453,1.244,18.223,18.223,0,0,1,4.056,1.339,5.228,5.228,0,0,1,2.057,1.892,5.532,5.532,0,0,1,.743,2.964,5.481,5.481,0,0,1-.889,3A5.326,5.326,0,0,1,48.788-.349a10.541,10.541,0,0,1-4.05.679A8.062,8.062,0,0,1,39.317-1.3,7.1,7.1,0,0,1,37.058-6.056ZM54.92-4.964V-8.531h7.008v3.567ZM72.668-6.843V-9.979h8.1v7.414A10.2,10.2,0,0,1,77.346-.552a12.453,12.453,0,0,1-4.539.87A10.187,10.187,0,0,1,67.717-.908a7.79,7.79,0,0,1-3.263-3.5,11.323,11.323,0,0,1-1.092-4.958,10.712,10.712,0,0,1,1.219-5.167A8.208,8.208,0,0,1,68.148-18a9.626,9.626,0,0,1,4.456-.927,8.89,8.89,0,0,1,5.415,1.454,6.564,6.564,0,0,1,2.507,4.018l-3.732.7a3.941,3.941,0,0,0-1.479-2.165,4.471,4.471,0,0,0-2.71-.793,5.092,5.092,0,0,0-3.917,1.562,6.578,6.578,0,0,0-1.454,4.634,7.287,7.287,0,0,0,1.473,4.97,4.917,4.917,0,0,0,3.859,1.657,6.471,6.471,0,0,0,2.368-.463,8.114,8.114,0,0,0,2.038-1.124V-6.843Zm23.474,0,3.644,1.155A8.172,8.172,0,0,1,97-1.162,7.948,7.948,0,0,1,92.054.317,8.005,8.005,0,0,1,85.96-2.215a9.691,9.691,0,0,1-2.387-6.925q0-4.646,2.4-7.217a8.227,8.227,0,0,1,6.31-2.571A7.741,7.741,0,0,1,97.83-16.91a7.341,7.341,0,0,1,1.9,3.428l-3.72.889a3.945,3.945,0,0,0-1.377-2.285,3.946,3.946,0,0,0-2.545-.838,4.235,4.235,0,0,0-3.358,1.485q-1.289,1.485-1.289,4.812,0,3.529,1.27,5.027a4.122,4.122,0,0,0,3.3,1.5,3.764,3.764,0,0,0,2.577-.952A5.531,5.531,0,0,0,96.142-6.843ZM102.959,0V-18.611h5.624l3.377,12.7,3.339-12.7h5.637V0h-3.491V-14.65L113.75,0h-3.618L106.45-14.65V0Z" transform="translate(-10119.952 -2768.471)"/>
    <path id="Trazado_232905" data-name="Trazado 232905" d="M0,0H792.957V238.928H0Z" transform="translate(-10708 -2863)" fill="none"/>
  </g>
</svg>
