<svg xmlns="http://www.w3.org/2000/svg" xmlns:xlink="http://www.w3.org/1999/xlink" width="1030" height="369" viewBox="0 0 1030 369">
  <defs>
    <clipPath id="clip-path">
      <rect id="Rectángulo_313074" data-name="Rectángulo 313074" width="920" height="368.715" fill="none"/>
    </clipPath>
    <clipPath id="clip-path-3">
      <rect id="Rectángulo_313075" data-name="Rectángulo 313075" width="61.47" height="4.874" transform="translate(38.917 149.316)" fill="none"/>
    </clipPath>
    <clipPath id="clip-path-4">
      <rect id="Rectángulo_313076" data-name="Rectángulo 313076" width="61.47" height="4.875" transform="translate(38.917 167.723)" fill="none"/>
    </clipPath>
    <clipPath id="clip-path-5">
      <rect id="Rectángulo_313077" data-name="Rectángulo 313077" width="61.47" height="4.874" transform="translate(38.917 186.131)" fill="none"/>
    </clipPath>
    <clipPath id="clip-path-6">
      <rect id="Rectángulo_313078" data-name="Rectángulo 313078" width="61.47" height="4.874" transform="translate(38.917 204.538)" fill="none"/>
    </clipPath>
    <clipPath id="clip-path-7">
      <rect id="Rectángulo_313079" data-name="Rectángulo 313079" width="29.602" height="4.874" transform="translate(38.917 222.945)" fill="none"/>
    </clipPath>
    <clipPath id="clip-path-9">
      <rect id="Rectángulo_313081" data-name="Rectángulo 313081" width="61.47" height="4.874" transform="translate(821.828 149.316)" fill="none"/>
    </clipPath>
    <clipPath id="clip-path-10">
      <rect id="Rectángulo_313082" data-name="Rectángulo 313082" width="61.47" height="4.875" transform="translate(821.828 167.723)" fill="none"/>
    </clipPath>
    <clipPath id="clip-path-11">
      <rect id="Rectángulo_313083" data-name="Rectángulo 313083" width="61.47" height="4.874" transform="translate(821.828 186.131)" fill="none"/>
    </clipPath>
    <clipPath id="clip-path-12">
      <rect id="Rectángulo_313084" data-name="Rectángulo 313084" width="61.47" height="4.874" transform="translate(821.828 204.538)" fill="none"/>
    </clipPath>
    <clipPath id="clip-path-13">
      <rect id="Rectángulo_313085" data-name="Rectángulo 313085" width="29.602" height="4.874" transform="translate(821.828 222.945)" fill="none"/>
    </clipPath>
  </defs>
  <g id="Grupo_237307" data-name="Grupo 237307" transform="translate(-286 -5194)">
    <path id="Trazado_232009" data-name="Trazado 232009" d="M0,0H1030V369H0Z" transform="translate(286 5194)" fill="none"/>
    <g id="Grupo_237223" data-name="Grupo 237223" transform="translate(341 5194)" clip-path="url(#clip-path)">
      <path id="Trazado_231840" data-name="Trazado 231840" d="M259.833,236.9a41.554,41.554,0,1,0-41.554-41.554A41.554,41.554,0,0,0,259.833,236.9" fill="#c9c9c9"/>
      <path id="Trazado_231841" data-name="Trazado 231841" d="M114.285,130H32.8a8.1,8.1,0,0,0-8.1,8.1V244.823a8.1,8.1,0,0,0,8.1,8.1h81.482a8.1,8.1,0,0,0,8.095-8.1V138.1a8.1,8.1,0,0,0-8.095-8.1" fill="#c9c9c9"/>
      <path id="Trazado_231842" data-name="Trazado 231842" d="M897.2,130H815.715a8.1,8.1,0,0,0-8.1,8.1V244.823a8.1,8.1,0,0,0,8.1,8.1H897.2a8.1,8.1,0,0,0,8.095-8.1V138.1A8.1,8.1,0,0,0,897.2,130" fill="#c9c9c9"/>
      <path id="Trazado_231843" data-name="Trazado 231843" d="M664.375,236.9a41.554,41.554,0,1,0-41.554-41.554A41.554,41.554,0,0,0,664.375,236.9" fill="#c9c9c9"/>
      <path id="Trazado_231844" data-name="Trazado 231844" d="M306.782,301.5a21.373,21.373,0,0,0-5.17-11.786q-.488-.559-1.017-1.088a21.575,21.575,0,0,0-36.291,10.5H219.617a4.75,4.75,0,0,0-4.354,6.649,4.941,4.941,0,0,0,.241.476,4.751,4.751,0,0,0,4.113,2.374h1.8v4.017a4.75,4.75,0,1,0,9.5,0v-4.017h3.514v8.768a4.75,4.75,0,0,0,9.5,0v-8.768H264.3a21.177,21.177,0,0,0,.587,2.109,21.458,21.458,0,0,0,5.207,8.39q.533.534,1.1,1.023a21.568,21.568,0,0,0,35.588-13.9c.016-.148.031-.3.043-.442q.087-.96.087-1.933,0-.735-.05-1.462-.03-.459-.08-.913m-9.512,4.224c-.027.177-.058.352-.093.526a12.036,12.036,0,1,1,0-4.75c.056.279.1.561.139.846a12.162,12.162,0,0,1-.046,3.378" fill="#c9c9c9"/>
      <path id="Trazado_231845" data-name="Trazado 231845" d="M712.244,301.5a21.372,21.372,0,0,0-5.17-11.786q-.487-.559-1.017-1.088a21.575,21.575,0,0,0-36.291,10.5H625.079a4.75,4.75,0,0,0-4.354,6.649,4.948,4.948,0,0,0,.241.476,4.751,4.751,0,0,0,4.113,2.374h1.8v4.017a4.75,4.75,0,1,0,9.5,0v-4.017H639.9v8.768a4.75,4.75,0,0,0,9.5,0v-8.768h20.369a21.16,21.16,0,0,0,.587,2.109,21.457,21.457,0,0,0,5.207,8.39q.532.534,1.1,1.023a21.568,21.568,0,0,0,35.588-13.9c.016-.148.031-.3.043-.442q.087-.96.087-1.933,0-.735-.05-1.462-.03-.459-.08-.913m-9.512,4.224c-.027.177-.058.352-.093.526a12.036,12.036,0,1,1,0-4.75c.056.279.1.561.139.846a12.159,12.159,0,0,1-.046,3.378" fill="#c9c9c9"/>
      <path id="Trazado_231846" data-name="Trazado 231846" d="M465.114,132.348a65,65,0,1,0,65,65,65,65,0,0,0-65-65" fill="#c9c9c9"/>
    </g>
    <path id="Trazado_232010" data-name="Trazado 232010" d="M14.223-5.355a5.939,5.939,0,0,1-1.943,4.106A6.624,6.624,0,0,1,7.772.226,6.414,6.414,0,0,1,4.31-.706,6.117,6.117,0,0,1,2-3.355a9.56,9.56,0,0,1-.847-3.988V-8.879a9.629,9.629,0,0,1,.825-4.1,6.215,6.215,0,0,1,2.367-2.734,6.6,6.6,0,0,1,3.564-.96A6.358,6.358,0,0,1,12.291-15.2a6.16,6.16,0,0,1,1.932,4.174H11.376a4.063,4.063,0,0,0-1.034-2.559,3.416,3.416,0,0,0-2.434-.785,3.337,3.337,0,0,0-2.864,1.362,6.81,6.81,0,0,0-1.022,4v1.459a7.224,7.224,0,0,0,.955,4.07,3.168,3.168,0,0,0,2.8,1.4,3.7,3.7,0,0,0,2.53-.757,3.947,3.947,0,0,0,1.073-2.519ZM19.43,0H16.685V-12.223H19.43ZM16.516-15.4a1.457,1.457,0,0,1,.4-1.051,1.515,1.515,0,0,1,1.147-.418,1.534,1.534,0,0,1,1.152.418,1.446,1.446,0,0,1,.407,1.051,1.412,1.412,0,0,1-.407,1.034,1.546,1.546,0,0,1-1.152.412,1.527,1.527,0,0,1-1.147-.412A1.423,1.423,0,0,1,16.516-15.4ZM23.384,0V-10.19H21.52v-2.033h1.864v-1.118a4.2,4.2,0,0,1,1.13-3.14,4.327,4.327,0,0,1,3.163-1.107,6.345,6.345,0,0,1,1.536.2l-.068,2.146a5.407,5.407,0,0,0-1.051-.09,1.763,1.763,0,0,0-1.966,2.022v1.084h2.485v2.033H26.129V0ZM37.019-9.715a6.793,6.793,0,0,0-1.118-.09A2.518,2.518,0,0,0,33.359-8.36V0H30.614V-12.223h2.621l.068,1.367a3.093,3.093,0,0,1,2.756-1.593,2.57,2.57,0,0,1,.972.158ZM45.394,0a4.236,4.236,0,0,1-.316-1.141A4.273,4.273,0,0,1,41.869.226a4.312,4.312,0,0,1-3-1.051,3.361,3.361,0,0,1-1.164-2.6,3.471,3.471,0,0,1,1.452-3A7.035,7.035,0,0,1,43.3-7.467h1.683v-.8a2.141,2.141,0,0,0-.531-1.519,2.1,2.1,0,0,0-1.615-.57A2.418,2.418,0,0,0,41.3-9.89a1.451,1.451,0,0,0-.6,1.192H37.961a3.047,3.047,0,0,1,.667-1.881,4.44,4.44,0,0,1,1.813-1.373,6.369,6.369,0,0,1,2.559-.5,5.129,5.129,0,0,1,3.423,1.079,3.847,3.847,0,0,1,1.31,3.033v5.513A6.248,6.248,0,0,0,48.2-.192V0ZM42.378-1.977a3.123,3.123,0,0,0,1.531-.4,2.641,2.641,0,0,0,1.079-1.062v-2.3h-1.48a4.046,4.046,0,0,0-2.293.531,1.72,1.72,0,0,0-.768,1.5,1.6,1.6,0,0,0,.525,1.26A2.034,2.034,0,0,0,42.378-1.977ZM50.093-6.2a7.267,7.267,0,0,1,1.31-4.536,4.2,4.2,0,0,1,3.513-1.711,3.99,3.99,0,0,1,3.14,1.356v-6.258H60.8V0H58.317l-.136-1.265A4.047,4.047,0,0,1,54.894.226,4.175,4.175,0,0,1,51.421-1.5,7.533,7.533,0,0,1,50.093-6.2Zm2.745.237a5.088,5.088,0,0,0,.717,2.909,2.328,2.328,0,0,0,2.039,1.045,2.592,2.592,0,0,0,2.463-1.5V-8.732a2.553,2.553,0,0,0-2.44-1.469,2.345,2.345,0,0,0-2.056,1.056A5.666,5.666,0,0,0,52.838-5.965Zm10.314-.26a7.207,7.207,0,0,1,.712-3.236,5.2,5.2,0,0,1,2-2.214,5.634,5.634,0,0,1,2.96-.774,5.339,5.339,0,0,1,4.016,1.593,6.265,6.265,0,0,1,1.666,4.225l.011.644a7.272,7.272,0,0,1-.695,3.231,5.135,5.135,0,0,1-1.988,2.2,5.675,5.675,0,0,1-2.988.779A5.3,5.3,0,0,1,64.705-1.5a6.6,6.6,0,0,1-1.553-4.592Zm2.745.237a4.925,4.925,0,0,0,.779,2.954,2.534,2.534,0,0,0,2.169,1.068A2.506,2.506,0,0,0,71.009-3.05a5.44,5.44,0,0,0,.774-3.174,4.862,4.862,0,0,0-.8-2.937,2.543,2.543,0,0,0-2.163-1.084,2.52,2.52,0,0,0-2.135,1.068A5.337,5.337,0,0,0,65.9-5.987Z" transform="translate(559.955 5329.309)"/>
    <path id="Trazado_232011" data-name="Trazado 232011" d="M13.556-14.143H8.427V0H5.592V-14.143H.508v-2.3H13.556ZM18.831.226A5.679,5.679,0,0,1,14.6-1.418,5.963,5.963,0,0,1,12.979-5.8v-.339a7.334,7.334,0,0,1,.706-3.27,5.374,5.374,0,0,1,1.983-2.242,5.241,5.241,0,0,1,2.847-.8,4.8,4.8,0,0,1,3.858,1.593,6.735,6.735,0,0,1,1.361,4.507v1.107H15.747a3.671,3.671,0,0,0,1.011,2.395,3.035,3.035,0,0,0,2.231.881,3.717,3.717,0,0,0,3.073-1.525l1.48,1.412a4.942,4.942,0,0,1-1.96,1.7A6.136,6.136,0,0,1,18.831.226ZM18.5-10.246a2.312,2.312,0,0,0-1.824.791,4.1,4.1,0,0,0-.887,2.2h5.23v-.2a3.337,3.337,0,0,0-.734-2.084A2.294,2.294,0,0,0,18.5-10.246ZM30.252-8.2l2.327-4.022h3.05L31.89-6.2,35.753,0H32.726l-2.44-4.18L27.857,0h-3.05L28.67-6.2l-3.728-6.021H27.97Zm10.687-6.993v2.971H43.1v2.033H40.938v6.823a1.5,1.5,0,0,0,.277,1.011,1.283,1.283,0,0,0,.988.311,4.229,4.229,0,0,0,.96-.113V-.034a6.761,6.761,0,0,1-1.807.26q-3.163,0-3.163-3.491V-10.19H36.183v-2.033h2.011v-2.971Zm3.076,8.97a7.207,7.207,0,0,1,.712-3.236,5.2,5.2,0,0,1,2-2.214,5.634,5.634,0,0,1,2.96-.774A5.339,5.339,0,0,1,53.7-10.856a6.265,6.265,0,0,1,1.666,4.225l.011.644a7.272,7.272,0,0,1-.695,3.231A5.135,5.135,0,0,1,52.7-.554a5.675,5.675,0,0,1-2.988.779A5.3,5.3,0,0,1,45.568-1.5a6.6,6.6,0,0,1-1.553-4.592Zm2.745.237a4.925,4.925,0,0,0,.779,2.954,2.534,2.534,0,0,0,2.169,1.068A2.506,2.506,0,0,0,51.872-3.05a5.44,5.44,0,0,0,.774-3.174,4.862,4.862,0,0,0-.8-2.937,2.543,2.543,0,0,0-2.163-1.084,2.52,2.52,0,0,0-2.135,1.068A5.337,5.337,0,0,0,46.76-5.987ZM68.483-1.966a2.482,2.482,0,0,0,1.706-.6,2.045,2.045,0,0,0,.723-1.48H73.5a4.032,4.032,0,0,1-.712,2.129A4.668,4.668,0,0,1,70.98-.35a5.386,5.386,0,0,1-2.463.576,5.211,5.211,0,0,1-4.067-1.661,6.587,6.587,0,0,1-1.5-4.586V-6.3a6.477,6.477,0,0,1,1.491-4.468,5.164,5.164,0,0,1,4.067-1.678,5.022,5.022,0,0,1,3.553,1.271A4.552,4.552,0,0,1,73.5-7.84H70.912a2.514,2.514,0,0,0-.717-1.728,2.308,2.308,0,0,0-1.711-.678,2.416,2.416,0,0,0-2.056.966,4.928,4.928,0,0,0-.734,2.931v.441a5.01,5.01,0,0,0,.717,2.965A2.414,2.414,0,0,0,68.483-1.966ZM78.492,0H75.747V-17.352h2.745ZM88.784,0a4.236,4.236,0,0,1-.316-1.141A4.273,4.273,0,0,1,85.259.226a4.312,4.312,0,0,1-3-1.051,3.361,3.361,0,0,1-1.164-2.6,3.471,3.471,0,0,1,1.452-3,7.035,7.035,0,0,1,4.152-1.045h1.683v-.8a2.141,2.141,0,0,0-.531-1.519,2.1,2.1,0,0,0-1.615-.57,2.418,2.418,0,0,0-1.536.469A1.451,1.451,0,0,0,84.1-8.7H81.35a3.047,3.047,0,0,1,.667-1.881,4.44,4.44,0,0,1,1.813-1.373,6.369,6.369,0,0,1,2.559-.5,5.129,5.129,0,0,1,3.423,1.079,3.847,3.847,0,0,1,1.31,3.033v5.513a6.248,6.248,0,0,0,.463,2.632V0ZM85.767-1.977a3.123,3.123,0,0,0,1.531-.4,2.642,2.642,0,0,0,1.079-1.062v-2.3H86.9a4.046,4.046,0,0,0-2.293.531,1.72,1.72,0,0,0-.768,1.5,1.6,1.6,0,0,0,.525,1.26A2.034,2.034,0,0,0,85.767-1.977ZM100.4-9.715a6.793,6.793,0,0,0-1.118-.09A2.518,2.518,0,0,0,96.736-8.36V0H93.991V-12.223h2.621l.068,1.367a3.093,3.093,0,0,1,2.756-1.593,2.57,2.57,0,0,1,.972.158Zm.42,3.491a7.207,7.207,0,0,1,.712-3.236,5.2,5.2,0,0,1,2-2.214,5.634,5.634,0,0,1,2.96-.774,5.339,5.339,0,0,1,4.016,1.593,6.265,6.265,0,0,1,1.666,4.225l.011.644a7.272,7.272,0,0,1-.695,3.231,5.135,5.135,0,0,1-1.988,2.2,5.675,5.675,0,0,1-2.988.779A5.3,5.3,0,0,1,102.37-1.5a6.6,6.6,0,0,1-1.553-4.592Zm2.745.237a4.925,4.925,0,0,0,.779,2.954,2.534,2.534,0,0,0,2.169,1.068,2.506,2.506,0,0,0,2.163-1.084,5.44,5.44,0,0,0,.774-3.174,4.862,4.862,0,0,0-.8-2.937,2.543,2.543,0,0,0-2.163-1.084,2.52,2.52,0,0,0-2.135,1.068A5.337,5.337,0,0,0,103.562-5.987Z" transform="translate(352.151 5476.104)" fill="#636363"/>
    <path id="Trazado_232012" data-name="Trazado 232012" d="M14.223-5.355a5.939,5.939,0,0,1-1.943,4.106A6.624,6.624,0,0,1,7.772.226,6.414,6.414,0,0,1,4.31-.706,6.117,6.117,0,0,1,2-3.355a9.56,9.56,0,0,1-.847-3.988V-8.879a9.629,9.629,0,0,1,.825-4.1,6.215,6.215,0,0,1,2.367-2.734,6.6,6.6,0,0,1,3.564-.96A6.358,6.358,0,0,1,12.291-15.2a6.16,6.16,0,0,1,1.932,4.174H11.376a4.063,4.063,0,0,0-1.034-2.559,3.416,3.416,0,0,0-2.434-.785,3.337,3.337,0,0,0-2.864,1.362,6.81,6.81,0,0,0-1.022,4v1.459a7.224,7.224,0,0,0,.955,4.07,3.168,3.168,0,0,0,2.8,1.4,3.7,3.7,0,0,0,2.53-.757,3.947,3.947,0,0,0,1.073-2.519ZM23.813,0A4.236,4.236,0,0,1,23.5-1.141,4.273,4.273,0,0,1,20.289.226a4.312,4.312,0,0,1-3-1.051,3.361,3.361,0,0,1-1.164-2.6,3.471,3.471,0,0,1,1.452-3,7.035,7.035,0,0,1,4.152-1.045h1.683v-.8a2.141,2.141,0,0,0-.531-1.519,2.1,2.1,0,0,0-1.615-.57,2.418,2.418,0,0,0-1.536.469,1.451,1.451,0,0,0-.6,1.192H16.38a3.047,3.047,0,0,1,.667-1.881,4.44,4.44,0,0,1,1.813-1.373,6.369,6.369,0,0,1,2.559-.5,5.129,5.129,0,0,1,3.423,1.079,3.847,3.847,0,0,1,1.31,3.033v5.513a6.248,6.248,0,0,0,.463,2.632V0ZM20.8-1.977a3.123,3.123,0,0,0,1.531-.4,2.641,2.641,0,0,0,1.079-1.062v-2.3h-1.48a4.046,4.046,0,0,0-2.293.531,1.72,1.72,0,0,0-.768,1.5,1.6,1.6,0,0,0,.525,1.26A2.034,2.034,0,0,0,20.8-1.977ZM31.574-12.223l.079,1.412a4.395,4.395,0,0,1,3.558-1.638q3.818,0,3.886,4.372V0H36.353V-7.919a2.517,2.517,0,0,0-.5-1.723,2.115,2.115,0,0,0-1.644-.559,2.645,2.645,0,0,0-2.474,1.5V0H28.987V-12.223ZM49.2,0a4.236,4.236,0,0,1-.316-1.141A4.273,4.273,0,0,1,45.672.226a4.312,4.312,0,0,1-3-1.051,3.361,3.361,0,0,1-1.164-2.6,3.471,3.471,0,0,1,1.452-3,7.035,7.035,0,0,1,4.152-1.045H48.79v-.8a2.141,2.141,0,0,0-.531-1.519,2.1,2.1,0,0,0-1.615-.57,2.418,2.418,0,0,0-1.536.469,1.451,1.451,0,0,0-.6,1.192H41.764a3.047,3.047,0,0,1,.667-1.881,4.44,4.44,0,0,1,1.813-1.373,6.369,6.369,0,0,1,2.559-.5,5.129,5.129,0,0,1,3.423,1.079,3.847,3.847,0,0,1,1.31,3.033v5.513A6.248,6.248,0,0,0,52-.192V0ZM46.181-1.977a3.123,3.123,0,0,0,1.531-.4A2.641,2.641,0,0,0,48.79-3.434v-2.3H47.31a4.046,4.046,0,0,0-2.293.531,1.72,1.72,0,0,0-.768,1.5,1.6,1.6,0,0,0,.525,1.26A2.034,2.034,0,0,0,46.181-1.977ZM57.331,0H54.586V-17.352h2.745ZM69,0H66.255V-12.223H69ZM66.086-15.4a1.457,1.457,0,0,1,.4-1.051,1.515,1.515,0,0,1,1.147-.418,1.534,1.534,0,0,1,1.152.418,1.446,1.446,0,0,1,.407,1.051,1.412,1.412,0,0,1-.407,1.034,1.546,1.546,0,0,1-1.152.412,1.527,1.527,0,0,1-1.147-.412A1.423,1.423,0,0,1,66.086-15.4Zm8.45,3.174.079,1.412a4.395,4.395,0,0,1,3.558-1.638q3.818,0,3.886,4.372V0H79.314V-7.919a2.517,2.517,0,0,0-.5-1.723,2.115,2.115,0,0,0-1.644-.559,2.645,2.645,0,0,0-2.474,1.5V0H71.949V-12.223Zm17.171,8.9a1.244,1.244,0,0,0-.6-1.118A6.428,6.428,0,0,0,89.1-5.117a10.308,10.308,0,0,1-2.338-.746A3.121,3.121,0,0,1,84.7-8.744a3.254,3.254,0,0,1,1.333-2.643,5.27,5.27,0,0,1,3.389-1.062,5.483,5.483,0,0,1,3.542,1.084,3.441,3.441,0,0,1,1.35,2.813H91.571a1.692,1.692,0,0,0-.587-1.316,2.251,2.251,0,0,0-1.559-.525,2.433,2.433,0,0,0-1.474.418,1.318,1.318,0,0,0-.57,1.118,1.113,1.113,0,0,0,.531.983,7.3,7.3,0,0,0,2.146.706,10.16,10.16,0,0,1,2.536.847A3.591,3.591,0,0,1,93.96-5.14a3.01,3.01,0,0,1,.446,1.672A3.185,3.185,0,0,1,93.039-.8,5.829,5.829,0,0,1,89.458.226a6.32,6.32,0,0,1-2.677-.542,4.406,4.406,0,0,1-1.83-1.491A3.53,3.53,0,0,1,84.3-3.852h2.666a1.934,1.934,0,0,0,.734,1.5,2.853,2.853,0,0,0,1.8.525,2.776,2.776,0,0,0,1.649-.412A1.276,1.276,0,0,0,91.706-3.321ZM102.178.226a5.679,5.679,0,0,1-4.231-1.644A5.963,5.963,0,0,1,96.327-5.8v-.339a7.334,7.334,0,0,1,.706-3.27,5.374,5.374,0,0,1,1.983-2.242,5.241,5.241,0,0,1,2.847-.8,4.8,4.8,0,0,1,3.858,1.593,6.735,6.735,0,0,1,1.361,4.507v1.107H99.094a3.671,3.671,0,0,0,1.011,2.395,3.035,3.035,0,0,0,2.231.881,3.717,3.717,0,0,0,3.073-1.525l1.48,1.412a4.942,4.942,0,0,1-1.96,1.7A6.136,6.136,0,0,1,102.178.226Zm-.328-10.472a2.312,2.312,0,0,0-1.824.791,4.1,4.1,0,0,0-.887,2.2h5.23v-.2a3.337,3.337,0,0,0-.734-2.084A2.294,2.294,0,0,0,101.851-10.246Zm6.88,4.044a7.149,7.149,0,0,1,1.339-4.547,4.3,4.3,0,0,1,3.553-1.7,4.025,4.025,0,0,1,3.287,1.457l.124-1.231h2.474V-.373a4.925,4.925,0,0,1-1.5,3.8,5.7,5.7,0,0,1-4.039,1.389,6.509,6.509,0,0,1-2.626-.559A4.667,4.667,0,0,1,109.4,2.79l1.3-1.649a3.924,3.924,0,0,0,3.118,1.5,3.032,3.032,0,0,0,2.158-.74,2.836,2.836,0,0,0,.791-2.175V-1.1A4.042,4.042,0,0,1,113.6.226a4.286,4.286,0,0,1-3.508-1.706A7.38,7.38,0,0,1,108.731-6.2Zm2.734.237a4.921,4.921,0,0,0,.751,2.9A2.416,2.416,0,0,0,114.3-2.011a2.642,2.642,0,0,0,2.463-1.423V-8.811a2.6,2.6,0,0,0-2.44-1.389,2.425,2.425,0,0,0-2.107,1.073A5.51,5.51,0,0,0,111.464-5.965ZM129.731-1.2A4.257,4.257,0,0,1,126.3.226a3.794,3.794,0,0,1-3.011-1.164A4.95,4.95,0,0,1,122.264-4.3v-7.919h2.745v7.885q0,2.327,1.932,2.327a2.713,2.713,0,0,0,2.7-1.435v-8.778h2.745V0H129.8Zm11.85-8.518a6.793,6.793,0,0,0-1.118-.09,2.518,2.518,0,0,0-2.542,1.446V0h-2.745V-12.223H137.8l.068,1.367a3.093,3.093,0,0,1,2.756-1.593,2.57,2.57,0,0,1,.972.158ZM142-6.224a7.207,7.207,0,0,1,.712-3.236,5.2,5.2,0,0,1,2-2.214,5.634,5.634,0,0,1,2.96-.774,5.339,5.339,0,0,1,4.016,1.593,6.265,6.265,0,0,1,1.666,4.225l.011.644a7.272,7.272,0,0,1-.695,3.231,5.135,5.135,0,0,1-1.988,2.2,5.675,5.675,0,0,1-2.988.779,5.3,5.3,0,0,1-4.14-1.723A6.6,6.6,0,0,1,142-6.089Zm2.745.237a4.925,4.925,0,0,0,.779,2.954,2.534,2.534,0,0,0,2.169,1.068,2.506,2.506,0,0,0,2.163-1.084,5.44,5.44,0,0,0,.774-3.174,4.862,4.862,0,0,0-.8-2.937,2.543,2.543,0,0,0-2.163-1.084,2.52,2.52,0,0,0-2.135,1.068A5.337,5.337,0,0,0,144.746-5.987Z" transform="translate(723.778 5303.79)" fill="#636363"/>
    <path id="Trazado_232013" data-name="Trazado 232013" d="M11.285-7.343H4.53v5.061h7.9V0H1.672V-16.448H12.347v2.3H4.53V-9.6h6.755Zm5.784-4.88.079,1.277a4.4,4.4,0,0,1,3.525-1.5,3.379,3.379,0,0,1,3.355,1.875,4.335,4.335,0,0,1,3.75-1.875,3.811,3.811,0,0,1,3.011,1.118,4.924,4.924,0,0,1,1.011,3.3V0H29.055V-7.953a2.431,2.431,0,0,0-.508-1.706,2.225,2.225,0,0,0-1.683-.542,2.286,2.286,0,0,0-1.531.5,2.651,2.651,0,0,0-.83,1.316L24.514,0H21.769V-8.043a1.958,1.958,0,0,0-2.2-2.158,2.417,2.417,0,0,0-2.338,1.344V0H14.482V-12.223ZM37.539,0H34.794V-12.223h2.745ZM34.624-15.4a1.457,1.457,0,0,1,.4-1.051,1.515,1.515,0,0,1,1.147-.418,1.534,1.534,0,0,1,1.152.418,1.446,1.446,0,0,1,.407,1.051,1.412,1.412,0,0,1-.407,1.034,1.546,1.546,0,0,1-1.152.412,1.527,1.527,0,0,1-1.147-.412A1.423,1.423,0,0,1,34.624-15.4ZM47.378-3.321a1.244,1.244,0,0,0-.6-1.118,6.428,6.428,0,0,0-2.005-.678,10.308,10.308,0,0,1-2.338-.746,3.121,3.121,0,0,1-2.056-2.881,3.254,3.254,0,0,1,1.333-2.643A5.27,5.27,0,0,1,45.1-12.449a5.483,5.483,0,0,1,3.542,1.084,3.441,3.441,0,0,1,1.35,2.813H47.243a1.692,1.692,0,0,0-.587-1.316,2.251,2.251,0,0,0-1.559-.525,2.433,2.433,0,0,0-1.474.418,1.318,1.318,0,0,0-.57,1.118,1.113,1.113,0,0,0,.531.983,7.3,7.3,0,0,0,2.146.706,10.16,10.16,0,0,1,2.536.847A3.591,3.591,0,0,1,49.632-5.14a3.01,3.01,0,0,1,.446,1.672A3.185,3.185,0,0,1,48.711-.8,5.829,5.829,0,0,1,45.13.226a6.32,6.32,0,0,1-2.677-.542,4.406,4.406,0,0,1-1.83-1.491,3.53,3.53,0,0,1-.655-2.045h2.666a1.934,1.934,0,0,0,.734,1.5,2.853,2.853,0,0,0,1.8.525,2.776,2.776,0,0,0,1.649-.412A1.276,1.276,0,0,0,47.378-3.321Zm4.575-2.9a7.207,7.207,0,0,1,.712-3.236,5.2,5.2,0,0,1,2-2.214,5.634,5.634,0,0,1,2.96-.774,5.339,5.339,0,0,1,4.016,1.593,6.265,6.265,0,0,1,1.666,4.225l.011.644a7.272,7.272,0,0,1-.695,3.231,5.135,5.135,0,0,1-1.988,2.2,5.675,5.675,0,0,1-2.988.779A5.3,5.3,0,0,1,53.507-1.5a6.6,6.6,0,0,1-1.553-4.592Zm2.745.237a4.925,4.925,0,0,0,.779,2.954,2.534,2.534,0,0,0,2.169,1.068A2.506,2.506,0,0,0,59.81-3.05a5.44,5.44,0,0,0,.774-3.174,4.862,4.862,0,0,0-.8-2.937,2.543,2.543,0,0,0-2.163-1.084,2.52,2.52,0,0,0-2.135,1.068A5.337,5.337,0,0,0,54.7-5.987Zm17.34-3.728a6.793,6.793,0,0,0-1.118-.09A2.518,2.518,0,0,0,68.379-8.36V0H65.634V-12.223h2.621l.068,1.367a3.093,3.093,0,0,1,2.756-1.593,2.57,2.57,0,0,1,.972.158Z" transform="translate(373.367 5308.648)"/>
    <path id="Trazado_232014" data-name="Trazado 232014" d="M14.223-5.355a5.939,5.939,0,0,1-1.943,4.106A6.624,6.624,0,0,1,7.772.226,6.414,6.414,0,0,1,4.31-.706,6.117,6.117,0,0,1,2-3.355a9.56,9.56,0,0,1-.847-3.988V-8.879a9.629,9.629,0,0,1,.825-4.1,6.215,6.215,0,0,1,2.367-2.734,6.6,6.6,0,0,1,3.564-.96A6.358,6.358,0,0,1,12.291-15.2a6.16,6.16,0,0,1,1.932,4.174H11.376a4.063,4.063,0,0,0-1.034-2.559,3.416,3.416,0,0,0-2.434-.785,3.337,3.337,0,0,0-2.864,1.362,6.81,6.81,0,0,0-1.022,4v1.459a7.224,7.224,0,0,0,.955,4.07,3.168,3.168,0,0,0,2.8,1.4,3.7,3.7,0,0,0,2.53-.757,3.947,3.947,0,0,0,1.073-2.519ZM19.43,0H16.685V-17.352H19.43ZM29.722,0a4.237,4.237,0,0,1-.316-1.141A4.273,4.273,0,0,1,26.2.226a4.312,4.312,0,0,1-3-1.051,3.361,3.361,0,0,1-1.164-2.6,3.471,3.471,0,0,1,1.452-3,7.035,7.035,0,0,1,4.152-1.045h1.683v-.8a2.141,2.141,0,0,0-.531-1.519,2.1,2.1,0,0,0-1.615-.57,2.418,2.418,0,0,0-1.536.469,1.451,1.451,0,0,0-.6,1.192H22.288a3.047,3.047,0,0,1,.667-1.881,4.44,4.44,0,0,1,1.813-1.373,6.369,6.369,0,0,1,2.559-.5A5.129,5.129,0,0,1,30.75-11.37a3.847,3.847,0,0,1,1.31,3.033v5.513a6.248,6.248,0,0,0,.463,2.632V0ZM26.705-1.977a3.123,3.123,0,0,0,1.531-.4,2.642,2.642,0,0,0,1.079-1.062v-2.3h-1.48a4.046,4.046,0,0,0-2.293.531,1.72,1.72,0,0,0-.768,1.5,1.6,1.6,0,0,0,.525,1.26A2.034,2.034,0,0,0,26.705-1.977Zm12.208-1.5L41.5-12.223h2.835L40.1,0H37.716l-4.27-12.223h2.847ZM51.144.226a5.679,5.679,0,0,1-4.231-1.644A5.963,5.963,0,0,1,45.293-5.8v-.339A7.334,7.334,0,0,1,46-9.4a5.374,5.374,0,0,1,1.983-2.242,5.241,5.241,0,0,1,2.847-.8,4.8,4.8,0,0,1,3.858,1.593,6.735,6.735,0,0,1,1.361,4.507v1.107H48.06a3.671,3.671,0,0,0,1.011,2.395,3.035,3.035,0,0,0,2.231.881,3.717,3.717,0,0,0,3.073-1.525l1.48,1.412a4.942,4.942,0,0,1-1.96,1.7A6.136,6.136,0,0,1,51.144.226Zm-.328-10.472a2.312,2.312,0,0,0-1.824.791,4.1,4.1,0,0,0-.887,2.2h5.23v-.2A3.337,3.337,0,0,0,52.6-9.54,2.294,2.294,0,0,0,50.817-10.246ZM74.641-5.987a7.278,7.278,0,0,1-1.288,4.524A4.124,4.124,0,0,1,69.9.226,4.152,4.152,0,0,1,66.677-1.1V4.7H63.932V-12.223h2.53l.113,1.243a4.032,4.032,0,0,1,3.287-1.469,4.167,4.167,0,0,1,3.508,1.666,7.472,7.472,0,0,1,1.271,4.626Zm-2.734-.237a5.1,5.1,0,0,0-.729-2.9A2.369,2.369,0,0,0,69.095-10.2a2.526,2.526,0,0,0-2.417,1.389v5.422a2.549,2.549,0,0,0,2.44,1.423,2.366,2.366,0,0,0,2.05-1.056A5.612,5.612,0,0,0,71.908-6.224ZM84.368-1.2A4.257,4.257,0,0,1,80.934.226,3.794,3.794,0,0,1,77.923-.938,4.95,4.95,0,0,1,76.9-4.3v-7.919h2.745v7.885q0,2.327,1.932,2.327a2.713,2.713,0,0,0,2.7-1.435v-8.778h2.745V0H84.436ZM82.8-17.352h3.129L82.8-13.929l-2.2-.006ZM100.545-5.987a7.342,7.342,0,0,1-1.271,4.53,4.14,4.14,0,0,1-3.5,1.683,3.987,3.987,0,0,1-3.344-1.548L92.3,0H89.813V-17.352h2.745v6.3a3.973,3.973,0,0,1,3.2-1.4,4.187,4.187,0,0,1,3.513,1.661,7.464,7.464,0,0,1,1.277,4.643ZM97.8-6.224a5.189,5.189,0,0,0-.7-2.982,2.332,2.332,0,0,0-2.033-.994,2.549,2.549,0,0,0-2.508,1.559V-3.6a2.575,2.575,0,0,0,2.53,1.593,2.315,2.315,0,0,0,1.988-.96,5.028,5.028,0,0,0,.723-2.9ZM105.764,0h-2.745V-17.352h2.745Zm5.908,0h-2.745V-12.223h2.745Zm-2.915-15.4a1.457,1.457,0,0,1,.4-1.051,1.515,1.515,0,0,1,1.147-.418,1.534,1.534,0,0,1,1.152.418,1.446,1.446,0,0,1,.407,1.051,1.412,1.412,0,0,1-.407,1.034,1.546,1.546,0,0,1-1.152.412,1.527,1.527,0,0,1-1.147-.412A1.423,1.423,0,0,1,108.757-15.4ZM119.681-1.966a2.482,2.482,0,0,0,1.706-.6,2.045,2.045,0,0,0,.723-1.48H124.7a4.032,4.032,0,0,1-.712,2.129A4.668,4.668,0,0,1,122.178-.35a5.386,5.386,0,0,1-2.463.576,5.211,5.211,0,0,1-4.067-1.661,6.586,6.586,0,0,1-1.5-4.586V-6.3a6.477,6.477,0,0,1,1.491-4.468,5.164,5.164,0,0,1,4.067-1.678,5.022,5.022,0,0,1,3.553,1.271A4.552,4.552,0,0,1,124.7-7.84H122.11a2.514,2.514,0,0,0-.717-1.728,2.308,2.308,0,0,0-1.711-.678,2.416,2.416,0,0,0-2.056.966,4.929,4.929,0,0,0-.734,2.931v.441a5.01,5.01,0,0,0,.717,2.965A2.414,2.414,0,0,0,119.681-1.966ZM134.073,0a4.237,4.237,0,0,1-.316-1.141A4.273,4.273,0,0,1,130.549.226a4.312,4.312,0,0,1-3-1.051,3.361,3.361,0,0,1-1.164-2.6,3.471,3.471,0,0,1,1.452-3,7.035,7.035,0,0,1,4.152-1.045h1.683v-.8a2.141,2.141,0,0,0-.531-1.519,2.1,2.1,0,0,0-1.615-.57,2.418,2.418,0,0,0-1.536.469,1.451,1.451,0,0,0-.6,1.192H126.64a3.047,3.047,0,0,1,.667-1.881,4.44,4.44,0,0,1,1.813-1.373,6.369,6.369,0,0,1,2.559-.5A5.129,5.129,0,0,1,135.1-11.37a3.847,3.847,0,0,1,1.31,3.033v5.513a6.248,6.248,0,0,0,.463,2.632V0Zm-3.016-1.977a3.123,3.123,0,0,0,1.531-.4,2.642,2.642,0,0,0,1.079-1.062v-2.3h-1.48a4.047,4.047,0,0,0-2.293.531,1.72,1.72,0,0,0-.768,1.5,1.6,1.6,0,0,0,.525,1.26A2.034,2.034,0,0,0,131.057-1.977Z" transform="translate(528.583 5547.084)"/>
    <g id="Grupo_237240" data-name="Grupo 237240" transform="translate(341 5194)" clip-path="url(#clip-path)">
      <path id="Trazado_231847" data-name="Trazado 231847" d="M298.387,193.351A41.554,41.554,0,1,1,256.833,151.8a41.554,41.554,0,0,1,41.554,41.554" fill="#8628a5"/>
      <line id="Línea_150" data-name="Línea 150" x2="270.513" transform="translate(119.485 193.351)" fill="none" stroke="#8628a5" stroke-linejoin="round" stroke-width="3.856"/>
      <path id="Trazado_231848" data-name="Trazado 231848" d="M377.222,209.121l-2.63-2.824,13.927-12.942-13.927-12.946,2.63-2.824,16.958,15.77Z" fill="#8628a5"/>
      <path id="Trazado_231849" data-name="Trazado 231849" d="M117.38,240.823a8.1,8.1,0,0,1-8.095,8.1H27.8a8.105,8.105,0,0,1-8.095-8.1V134.1A8.105,8.105,0,0,1,27.8,126h81.482a8.1,8.1,0,0,1,8.095,8.1V240.823Z" fill="#fff"/>
      <path id="Trazado_231850" data-name="Trazado 231850" d="M117.38,240.823a8.1,8.1,0,0,1-8.095,8.1H27.8a8.105,8.105,0,0,1-8.095-8.1V134.1A8.105,8.105,0,0,1,27.8,126h81.482a8.1,8.1,0,0,1,8.095,8.1V240.823Z" fill="none" stroke="#333" stroke-miterlimit="10" stroke-width="3"/>
      <g id="Grupo_237227" data-name="Grupo 237227" style="mix-blend-mode: multiply;isolation: isolate">
        <g id="Grupo_237226" data-name="Grupo 237226">
          <g id="Grupo_237225" data-name="Grupo 237225" clip-path="url(#clip-path-3)">
            <path id="Trazado_231851" data-name="Trazado 231851" d="M38.917,151.753a2.437,2.437,0,0,1,2.437-2.437H97.949a2.437,2.437,0,1,1,0,4.874H41.354A2.437,2.437,0,0,1,38.917,151.753Z" fill="#ddd"/>
          </g>
        </g>
      </g>
      <g id="Grupo_237230" data-name="Grupo 237230" style="mix-blend-mode: multiply;isolation: isolate">
        <g id="Grupo_237229" data-name="Grupo 237229">
          <g id="Grupo_237228" data-name="Grupo 237228" clip-path="url(#clip-path-4)">
            <path id="Trazado_231852" data-name="Trazado 231852" d="M38.917,170.16a2.437,2.437,0,0,1,2.437-2.437H97.949a2.438,2.438,0,1,1,0,4.875H41.354a2.437,2.437,0,0,1-2.437-2.438" fill="#ddd"/>
          </g>
        </g>
      </g>
      <g id="Grupo_237233" data-name="Grupo 237233" style="mix-blend-mode: multiply;isolation: isolate">
        <g id="Grupo_237232" data-name="Grupo 237232">
          <g id="Grupo_237231" data-name="Grupo 237231" clip-path="url(#clip-path-5)">
            <path id="Trazado_231853" data-name="Trazado 231853" d="M41.354,186.13h56.6a2.438,2.438,0,0,1,0,4.875h-56.6a2.438,2.438,0,0,1,0-4.875" fill="#ddd"/>
          </g>
        </g>
      </g>
      <g id="Grupo_237236" data-name="Grupo 237236" style="mix-blend-mode: multiply;isolation: isolate">
        <g id="Grupo_237235" data-name="Grupo 237235">
          <g id="Grupo_237234" data-name="Grupo 237234" clip-path="url(#clip-path-6)">
            <path id="Trazado_231854" data-name="Trazado 231854" d="M41.354,204.538h56.6a2.437,2.437,0,0,1,0,4.874h-56.6a2.437,2.437,0,0,1,0-4.874" fill="#ddd"/>
          </g>
        </g>
      </g>
      <g id="Grupo_237239" data-name="Grupo 237239" style="mix-blend-mode: multiply;isolation: isolate">
        <g id="Grupo_237238" data-name="Grupo 237238">
          <g id="Grupo_237237" data-name="Grupo 237237" clip-path="url(#clip-path-7)">
            <path id="Trazado_231855" data-name="Trazado 231855" d="M68.519,225.382a2.437,2.437,0,0,1-2.437,2.437H41.354a2.437,2.437,0,1,1,0-4.874H66.082A2.437,2.437,0,0,1,68.519,225.382Z" fill="#ddd"/>
          </g>
        </g>
      </g>
      <path id="Trazado_231856" data-name="Trazado 231856" d="M37.81,150.646a2.437,2.437,0,0,1,2.437-2.437h56.6a2.437,2.437,0,1,1,0,4.874h-56.6a2.437,2.437,0,0,1-2.437-2.437" fill="#8628a5"/>
      <path id="Trazado_231857" data-name="Trazado 231857" d="M37.81,169.053a2.437,2.437,0,0,1,2.437-2.437h56.6a2.437,2.437,0,0,1,0,4.874h-56.6A2.437,2.437,0,0,1,37.81,169.053Z" fill="#b5b5b5"/>
      <path id="Trazado_231858" data-name="Trazado 231858" d="M40.247,185.023h56.6a2.437,2.437,0,0,1,0,4.874h-56.6a2.437,2.437,0,0,1,0-4.874" fill="#8628a5"/>
      <path id="Trazado_231859" data-name="Trazado 231859" d="M40.247,203.43h56.6a2.437,2.437,0,0,1,0,4.874h-56.6a2.437,2.437,0,0,1,0-4.874" fill="#b5b5b5"/>
      <path id="Trazado_231860" data-name="Trazado 231860" d="M67.412,224.275a2.437,2.437,0,0,1-2.437,2.437H40.247a2.437,2.437,0,0,1,0-4.874H64.975A2.437,2.437,0,0,1,67.412,224.275Z" fill="#8628a5"/>
    </g>
    <path id="Trazado_232015" data-name="Trazado 232015" d="M13.556-14.143H8.427V0H5.592V-14.143H.508v-2.3H13.556ZM18.831.226A5.679,5.679,0,0,1,14.6-1.418,5.963,5.963,0,0,1,12.979-5.8v-.339a7.334,7.334,0,0,1,.706-3.27,5.374,5.374,0,0,1,1.983-2.242,5.241,5.241,0,0,1,2.847-.8,4.8,4.8,0,0,1,3.858,1.593,6.735,6.735,0,0,1,1.361,4.507v1.107H15.747a3.671,3.671,0,0,0,1.011,2.395,3.035,3.035,0,0,0,2.231.881,3.717,3.717,0,0,0,3.073-1.525l1.48,1.412a4.942,4.942,0,0,1-1.96,1.7A6.136,6.136,0,0,1,18.831.226ZM18.5-10.246a2.312,2.312,0,0,0-1.824.791,4.1,4.1,0,0,0-.887,2.2h5.23v-.2a3.337,3.337,0,0,0-.734-2.084A2.294,2.294,0,0,0,18.5-10.246ZM30.252-8.2l2.327-4.022h3.05L31.89-6.2,35.753,0H32.726l-2.44-4.18L27.857,0h-3.05L28.67-6.2l-3.728-6.021H27.97Zm10.687-6.993v2.971H43.1v2.033H40.938v6.823a1.5,1.5,0,0,0,.277,1.011,1.283,1.283,0,0,0,.988.311,4.229,4.229,0,0,0,.96-.113V-.034a6.761,6.761,0,0,1-1.807.26q-3.163,0-3.163-3.491V-10.19H36.183v-2.033h2.011v-2.971Zm3.076,8.97a7.207,7.207,0,0,1,.712-3.236,5.2,5.2,0,0,1,2-2.214,5.634,5.634,0,0,1,2.96-.774A5.339,5.339,0,0,1,53.7-10.856a6.265,6.265,0,0,1,1.666,4.225l.011.644a7.272,7.272,0,0,1-.695,3.231A5.135,5.135,0,0,1,52.7-.554a5.675,5.675,0,0,1-2.988.779A5.3,5.3,0,0,1,45.568-1.5a6.6,6.6,0,0,1-1.553-4.592Zm2.745.237a4.925,4.925,0,0,0,.779,2.954,2.534,2.534,0,0,0,2.169,1.068A2.506,2.506,0,0,0,51.872-3.05a5.44,5.44,0,0,0,.774-3.174,4.862,4.862,0,0,0-.8-2.937,2.543,2.543,0,0,0-2.163-1.084,2.52,2.52,0,0,0-2.135,1.068A5.337,5.337,0,0,0,46.76-5.987ZM68.483-1.966a2.482,2.482,0,0,0,1.706-.6,2.045,2.045,0,0,0,.723-1.48H73.5a4.032,4.032,0,0,1-.712,2.129A4.668,4.668,0,0,1,70.98-.35a5.386,5.386,0,0,1-2.463.576,5.211,5.211,0,0,1-4.067-1.661,6.587,6.587,0,0,1-1.5-4.586V-6.3a6.477,6.477,0,0,1,1.491-4.468,5.164,5.164,0,0,1,4.067-1.678,5.022,5.022,0,0,1,3.553,1.271A4.552,4.552,0,0,1,73.5-7.84H70.912a2.514,2.514,0,0,0-.717-1.728,2.308,2.308,0,0,0-1.711-.678,2.416,2.416,0,0,0-2.056.966,4.928,4.928,0,0,0-.734,2.931v.441a5.01,5.01,0,0,0,.717,2.965A2.414,2.414,0,0,0,68.483-1.966ZM78.492,0H75.747V-17.352h2.745ZM88.784,0a4.236,4.236,0,0,1-.316-1.141A4.273,4.273,0,0,1,85.259.226a4.312,4.312,0,0,1-3-1.051,3.361,3.361,0,0,1-1.164-2.6,3.471,3.471,0,0,1,1.452-3,7.035,7.035,0,0,1,4.152-1.045h1.683v-.8a2.141,2.141,0,0,0-.531-1.519,2.1,2.1,0,0,0-1.615-.57,2.418,2.418,0,0,0-1.536.469A1.451,1.451,0,0,0,84.1-8.7H81.35a3.047,3.047,0,0,1,.667-1.881,4.44,4.44,0,0,1,1.813-1.373,6.369,6.369,0,0,1,2.559-.5,5.129,5.129,0,0,1,3.423,1.079,3.847,3.847,0,0,1,1.31,3.033v5.513a6.248,6.248,0,0,0,.463,2.632V0ZM85.767-1.977a3.123,3.123,0,0,0,1.531-.4,2.642,2.642,0,0,0,1.079-1.062v-2.3H86.9a4.046,4.046,0,0,0-2.293.531,1.72,1.72,0,0,0-.768,1.5,1.6,1.6,0,0,0,.525,1.26A2.034,2.034,0,0,0,85.767-1.977ZM100.4-9.715a6.793,6.793,0,0,0-1.118-.09A2.518,2.518,0,0,0,96.736-8.36V0H93.991V-12.223h2.621l.068,1.367a3.093,3.093,0,0,1,2.756-1.593,2.57,2.57,0,0,1,.972.158Zm.42,3.491a7.207,7.207,0,0,1,.712-3.236,5.2,5.2,0,0,1,2-2.214,5.634,5.634,0,0,1,2.96-.774,5.339,5.339,0,0,1,4.016,1.593,6.265,6.265,0,0,1,1.666,4.225l.011.644a7.272,7.272,0,0,1-.695,3.231,5.135,5.135,0,0,1-1.988,2.2,5.675,5.675,0,0,1-2.988.779A5.3,5.3,0,0,1,102.37-1.5a6.6,6.6,0,0,1-1.553-4.592Zm2.745.237a4.925,4.925,0,0,0,.779,2.954,2.534,2.534,0,0,0,2.169,1.068,2.506,2.506,0,0,0,2.163-1.084,5.44,5.44,0,0,0,.774-3.174,4.862,4.862,0,0,0-.8-2.937,2.543,2.543,0,0,0-2.163-1.084,2.52,2.52,0,0,0-2.135,1.068A5.337,5.337,0,0,0,103.562-5.987Z" transform="translate(1135.051 5476.107)" fill="#636363"/>
    <path id="Trazado_232016" data-name="Trazado 232016" d="M.892-6.224A7.207,7.207,0,0,1,1.6-9.461a5.2,5.2,0,0,1,2-2.214,5.634,5.634,0,0,1,2.96-.774,5.339,5.339,0,0,1,4.016,1.593,6.265,6.265,0,0,1,1.666,4.225l.011.644a7.272,7.272,0,0,1-.695,3.231,5.135,5.135,0,0,1-1.988,2.2A5.675,5.675,0,0,1,6.586.226,5.3,5.3,0,0,1,2.446-1.5,6.6,6.6,0,0,1,.892-6.089Zm2.745.237a4.925,4.925,0,0,0,.779,2.954A2.534,2.534,0,0,0,6.586-1.966,2.506,2.506,0,0,0,8.749-3.05a5.44,5.44,0,0,0,.774-3.174,4.862,4.862,0,0,0-.8-2.937,2.543,2.543,0,0,0-2.163-1.084A2.52,2.52,0,0,0,4.428-9.179,5.337,5.337,0,0,0,3.638-5.987Zm17.34-3.728a6.793,6.793,0,0,0-1.118-.09A2.518,2.518,0,0,0,17.318-8.36V0H14.573V-12.223h2.621l.068,1.367a3.093,3.093,0,0,1,2.756-1.593,2.57,2.57,0,0,1,.972.158ZM25.632,0H22.887V-12.223h2.745ZM22.718-15.4a1.457,1.457,0,0,1,.4-1.051,1.515,1.515,0,0,1,1.147-.418,1.534,1.534,0,0,1,1.152.418,1.446,1.446,0,0,1,.407,1.051,1.412,1.412,0,0,1-.407,1.034,1.546,1.546,0,0,1-1.152.412,1.527,1.527,0,0,1-1.147-.412A1.423,1.423,0,0,1,22.718-15.4ZM28.14-6.2a7.149,7.149,0,0,1,1.339-4.547,4.3,4.3,0,0,1,3.553-1.7,4.025,4.025,0,0,1,3.287,1.457l.124-1.231h2.474V-.373a4.925,4.925,0,0,1-1.5,3.8,5.7,5.7,0,0,1-4.039,1.389,6.509,6.509,0,0,1-2.626-.559A4.667,4.667,0,0,1,28.807,2.79l1.3-1.649a3.924,3.924,0,0,0,3.118,1.5,3.032,3.032,0,0,0,2.158-.74,2.836,2.836,0,0,0,.791-2.175V-1.1A4.042,4.042,0,0,1,33.009.226,4.286,4.286,0,0,1,29.5-1.48,7.38,7.38,0,0,1,28.14-6.2Zm2.734.237a4.921,4.921,0,0,0,.751,2.9,2.416,2.416,0,0,0,2.084,1.056,2.642,2.642,0,0,0,2.463-1.423V-8.811a2.6,2.6,0,0,0-2.44-1.389,2.425,2.425,0,0,0-2.107,1.073A5.51,5.51,0,0,0,30.874-5.965ZM44.656,0H41.911V-12.223h2.745ZM41.741-15.4a1.457,1.457,0,0,1,.4-1.051,1.515,1.515,0,0,1,1.147-.418,1.534,1.534,0,0,1,1.152.418,1.446,1.446,0,0,1,.407,1.051,1.412,1.412,0,0,1-.407,1.034,1.546,1.546,0,0,1-1.152.412,1.527,1.527,0,0,1-1.147-.412A1.423,1.423,0,0,1,41.741-15.4Zm8.45,3.174.079,1.412a4.395,4.395,0,0,1,3.558-1.638q3.818,0,3.886,4.372V0H54.97V-7.919a2.517,2.517,0,0,0-.5-1.723,2.115,2.115,0,0,0-1.644-.559,2.645,2.645,0,0,0-2.474,1.5V0H47.6V-12.223ZM67.814,0A4.237,4.237,0,0,1,67.5-1.141,4.273,4.273,0,0,1,64.289.226a4.312,4.312,0,0,1-3-1.051,3.361,3.361,0,0,1-1.164-2.6,3.471,3.471,0,0,1,1.452-3,7.035,7.035,0,0,1,4.152-1.045h1.683v-.8a2.141,2.141,0,0,0-.531-1.519,2.1,2.1,0,0,0-1.615-.57,2.418,2.418,0,0,0-1.536.469,1.451,1.451,0,0,0-.6,1.192H60.381a3.047,3.047,0,0,1,.667-1.881,4.44,4.44,0,0,1,1.813-1.373,6.369,6.369,0,0,1,2.559-.5,5.129,5.129,0,0,1,3.423,1.079,3.847,3.847,0,0,1,1.31,3.033v5.513a6.248,6.248,0,0,0,.463,2.632V0ZM64.8-1.977a3.123,3.123,0,0,0,1.531-.4,2.642,2.642,0,0,0,1.079-1.062v-2.3h-1.48a4.046,4.046,0,0,0-2.293.531,1.72,1.72,0,0,0-.768,1.5,1.6,1.6,0,0,0,.525,1.26A2.034,2.034,0,0,0,64.8-1.977ZM75.948,0H73.2V-17.352h2.745Z" transform="translate(1153.698 5500.793)" fill="#636363"/>
    <path id="Trazado_232017" data-name="Trazado 232017" d="M7.716-6.326H4.53V0H1.672V-16.448H7.456A6.728,6.728,0,0,1,11.85-15.17a4.52,4.52,0,0,1,1.548,3.7,4.63,4.63,0,0,1-.8,2.764A5.068,5.068,0,0,1,10.382-7L14.076-.147V0H11.014ZM4.53-8.631H7.467a3.267,3.267,0,0,0,2.259-.729,2.541,2.541,0,0,0,.813-1.994A2.705,2.705,0,0,0,9.789-13.4a3.191,3.191,0,0,0-2.242-.746H4.53ZM21.226.226A5.679,5.679,0,0,1,17-1.418,5.963,5.963,0,0,1,15.375-5.8v-.339a7.334,7.334,0,0,1,.706-3.27,5.374,5.374,0,0,1,1.983-2.242,5.241,5.241,0,0,1,2.847-.8,4.8,4.8,0,0,1,3.858,1.593,6.735,6.735,0,0,1,1.361,4.507v1.107H18.142a3.671,3.671,0,0,0,1.011,2.395,3.035,3.035,0,0,0,2.231.881,3.717,3.717,0,0,0,3.073-1.525l1.48,1.412a4.942,4.942,0,0,1-1.96,1.7A6.136,6.136,0,0,1,21.226.226ZM20.9-10.246a2.312,2.312,0,0,0-1.824.791,4.1,4.1,0,0,0-.887,2.2h5.23v-.2a3.337,3.337,0,0,0-.734-2.084A2.294,2.294,0,0,0,20.9-10.246ZM33.28-1.966a2.482,2.482,0,0,0,1.706-.6,2.045,2.045,0,0,0,.723-1.48H38.3a4.032,4.032,0,0,1-.712,2.129A4.668,4.668,0,0,1,35.777-.35a5.386,5.386,0,0,1-2.463.576,5.211,5.211,0,0,1-4.067-1.661,6.587,6.587,0,0,1-1.5-4.586V-6.3a6.477,6.477,0,0,1,1.491-4.468A5.164,5.164,0,0,1,33.3-12.449a5.022,5.022,0,0,1,3.553,1.271A4.552,4.552,0,0,1,38.3-7.84H35.709a2.514,2.514,0,0,0-.717-1.728,2.308,2.308,0,0,0-1.711-.678,2.416,2.416,0,0,0-2.056.966,4.928,4.928,0,0,0-.734,2.931v.441a5.01,5.01,0,0,0,.717,2.965A2.414,2.414,0,0,0,33.28-1.966ZM45.752.226a5.679,5.679,0,0,1-4.231-1.644A5.963,5.963,0,0,1,39.9-5.8v-.339a7.334,7.334,0,0,1,.706-3.27,5.374,5.374,0,0,1,1.983-2.242,5.241,5.241,0,0,1,2.847-.8,4.8,4.8,0,0,1,3.858,1.593,6.735,6.735,0,0,1,1.361,4.507v1.107H42.668a3.671,3.671,0,0,0,1.011,2.395,3.035,3.035,0,0,0,2.231.881,3.717,3.717,0,0,0,3.073-1.525l1.48,1.412a4.942,4.942,0,0,1-1.96,1.7A6.136,6.136,0,0,1,45.752.226Zm-.328-10.472a2.312,2.312,0,0,0-1.824.791,4.1,4.1,0,0,0-.887,2.2h5.23v-.2a3.337,3.337,0,0,0-.734-2.084A2.294,2.294,0,0,0,45.424-10.246ZM63.487-5.987A7.278,7.278,0,0,1,62.2-1.463,4.124,4.124,0,0,1,58.743.226,4.152,4.152,0,0,1,55.523-1.1V4.7H52.778V-12.223h2.53l.113,1.243a4.032,4.032,0,0,1,3.287-1.469,4.167,4.167,0,0,1,3.508,1.666,7.472,7.472,0,0,1,1.271,4.626Zm-2.734-.237a5.1,5.1,0,0,0-.729-2.9A2.369,2.369,0,0,0,57.941-10.2a2.526,2.526,0,0,0-2.417,1.389v5.422a2.549,2.549,0,0,0,2.44,1.423,2.366,2.366,0,0,0,2.05-1.056A5.612,5.612,0,0,0,60.754-6.224Zm8.5-8.97v2.971h2.158v2.033H69.249v6.823a1.5,1.5,0,0,0,.277,1.011,1.283,1.283,0,0,0,.988.311,4.229,4.229,0,0,0,.96-.113V-.034a6.761,6.761,0,0,1-1.807.26Q66.5.226,66.5-3.265V-10.19H64.493v-2.033H66.5v-2.971Zm3.076,8.97a7.207,7.207,0,0,1,.712-3.236,5.2,5.2,0,0,1,2-2.214A5.634,5.634,0,0,1,78-12.449a5.339,5.339,0,0,1,4.016,1.593,6.265,6.265,0,0,1,1.666,4.225l.011.644a7.272,7.272,0,0,1-.695,3.231,5.135,5.135,0,0,1-1.988,2.2,5.675,5.675,0,0,1-2.988.779A5.3,5.3,0,0,1,73.878-1.5a6.6,6.6,0,0,1-1.553-4.592Zm2.745.237a4.925,4.925,0,0,0,.779,2.954,2.534,2.534,0,0,0,2.169,1.068A2.506,2.506,0,0,0,80.182-3.05a5.44,5.44,0,0,0,.774-3.174,4.862,4.862,0,0,0-.8-2.937A2.543,2.543,0,0,0,78-10.246a2.52,2.52,0,0,0-2.135,1.068A5.337,5.337,0,0,0,75.07-5.987Zm17.34-3.728a6.793,6.793,0,0,0-1.118-.09A2.518,2.518,0,0,0,88.75-8.36V0H86.005V-12.223h2.621l.068,1.367a3.093,3.093,0,0,1,2.756-1.593,2.57,2.57,0,0,1,.972.158Z" transform="translate(1145.925 5308.675)"/>
    <g id="Grupo_237257" data-name="Grupo 237257" transform="translate(341 5194)" clip-path="url(#clip-path)">
      <path id="Trazado_231861" data-name="Trazado 231861" d="M900.291,240.823a8.1,8.1,0,0,1-8.1,8.1H810.714a8.105,8.105,0,0,1-8.095-8.1V134.1a8.105,8.105,0,0,1,8.095-8.1H892.2a8.1,8.1,0,0,1,8.1,8.1V240.823Z" fill="#fff"/>
      <path id="Trazado_231862" data-name="Trazado 231862" d="M900.291,240.823a8.1,8.1,0,0,1-8.1,8.1H810.714a8.105,8.105,0,0,1-8.095-8.1V134.1a8.105,8.105,0,0,1,8.095-8.1H892.2a8.1,8.1,0,0,1,8.1,8.1V240.823Z" fill="none" stroke="#333" stroke-miterlimit="10" stroke-width="3"/>
      <g id="Grupo_237244" data-name="Grupo 237244" style="mix-blend-mode: multiply;isolation: isolate">
        <g id="Grupo_237243" data-name="Grupo 237243">
          <g id="Grupo_237242" data-name="Grupo 237242" clip-path="url(#clip-path-9)">
            <path id="Trazado_231863" data-name="Trazado 231863" d="M821.828,151.753a2.437,2.437,0,0,1,2.437-2.437H880.86a2.437,2.437,0,1,1,0,4.874H824.265A2.437,2.437,0,0,1,821.828,151.753Z" fill="#ddd"/>
          </g>
        </g>
      </g>
      <g id="Grupo_237247" data-name="Grupo 237247" style="mix-blend-mode: multiply;isolation: isolate">
        <g id="Grupo_237246" data-name="Grupo 237246">
          <g id="Grupo_237245" data-name="Grupo 237245" clip-path="url(#clip-path-10)">
            <path id="Trazado_231864" data-name="Trazado 231864" d="M821.828,170.16a2.437,2.437,0,0,1,2.437-2.437H880.86a2.438,2.438,0,1,1,0,4.875H824.265a2.437,2.437,0,0,1-2.437-2.438" fill="#ddd"/>
          </g>
        </g>
      </g>
      <g id="Grupo_237250" data-name="Grupo 237250" style="mix-blend-mode: multiply;isolation: isolate">
        <g id="Grupo_237249" data-name="Grupo 237249">
          <g id="Grupo_237248" data-name="Grupo 237248" clip-path="url(#clip-path-11)">
            <path id="Trazado_231865" data-name="Trazado 231865" d="M824.266,186.13H880.86a2.438,2.438,0,1,1,0,4.875H824.266a2.438,2.438,0,1,1,0-4.875" fill="#ddd"/>
          </g>
        </g>
      </g>
      <g id="Grupo_237253" data-name="Grupo 237253" style="mix-blend-mode: multiply;isolation: isolate">
        <g id="Grupo_237252" data-name="Grupo 237252">
          <g id="Grupo_237251" data-name="Grupo 237251" clip-path="url(#clip-path-12)">
            <path id="Trazado_231866" data-name="Trazado 231866" d="M824.266,204.538H880.86a2.437,2.437,0,1,1,0,4.874H824.266a2.437,2.437,0,1,1,0-4.874" fill="#ddd"/>
          </g>
        </g>
      </g>
      <g id="Grupo_237256" data-name="Grupo 237256" style="mix-blend-mode: multiply;isolation: isolate">
        <g id="Grupo_237255" data-name="Grupo 237255">
          <g id="Grupo_237254" data-name="Grupo 237254" clip-path="url(#clip-path-13)">
            <path id="Trazado_231867" data-name="Trazado 231867" d="M851.43,225.382a2.437,2.437,0,0,1-2.437,2.437H824.265a2.437,2.437,0,1,1,0-4.874h24.728A2.437,2.437,0,0,1,851.43,225.382Z" fill="#ddd"/>
          </g>
        </g>
      </g>
      <path id="Trazado_231868" data-name="Trazado 231868" d="M820.721,150.646a2.437,2.437,0,0,1,2.437-2.437h56.595a2.437,2.437,0,1,1,0,4.874H823.158a2.437,2.437,0,0,1-2.437-2.437" fill="#8628a5"/>
      <path id="Trazado_231869" data-name="Trazado 231869" d="M820.721,169.053a2.437,2.437,0,0,1,2.437-2.437h56.595a2.437,2.437,0,1,1,0,4.874H823.158A2.437,2.437,0,0,1,820.721,169.053Z" fill="#8628a5"/>
      <path id="Trazado_231870" data-name="Trazado 231870" d="M823.158,185.023h56.595a2.437,2.437,0,1,1,0,4.874H823.158a2.437,2.437,0,1,1,0-4.874" fill="#8628a5"/>
      <path id="Trazado_231871" data-name="Trazado 231871" d="M823.158,203.43h56.595a2.437,2.437,0,1,1,0,4.874H823.158a2.437,2.437,0,1,1,0-4.874" fill="#b5b5b5"/>
      <path id="Trazado_231872" data-name="Trazado 231872" d="M850.323,224.275a2.437,2.437,0,0,1-2.437,2.437H823.158a2.437,2.437,0,1,1,0-4.874h24.728A2.437,2.437,0,0,1,850.323,224.275Z" fill="#8628a5"/>
      <path id="Trazado_231873" data-name="Trazado 231873" d="M290.912,192.268c-.015-.227-.035-.452-.06-.677a15.84,15.84,0,0,0-3.833-8.737q-.36-.414-.753-.806a15.993,15.993,0,0,0-26.9,7.783H226.239a3.522,3.522,0,0,0-3.228,4.928,3.765,3.765,0,0,0,.179.353,3.536,3.536,0,0,0,1.467,1.385,3.5,3.5,0,0,0,1.582.375h1.337v2.978a3.521,3.521,0,1,0,7.042,0v-2.978h2.605v6.5a3.521,3.521,0,0,0,7.042,0v-6.5h15.1a15.864,15.864,0,0,0,4.295,7.783q.395.4.812.758a15.987,15.987,0,0,0,26.381-10.3c.012-.109.023-.218.032-.328q.064-.711.064-1.432,0-.546-.036-1.084m-24.719,2.844a8.944,8.944,0,0,1,17.539-3.521q.063.311.1.627a8.931,8.931,0,0,1-.034,2.5q-.03.2-.069.39a8.946,8.946,0,0,1-17.539,0" fill="#fff"/>
    </g>
    <path id="Trazado_232018" data-name="Trazado 232018" d="M1.672,0V-16.448H6.529a7.619,7.619,0,0,1,3.869.972,6.624,6.624,0,0,1,2.615,2.756,8.75,8.75,0,0,1,.926,4.089v.825a8.713,8.713,0,0,1-.932,4.112A6.545,6.545,0,0,1,10.353-.96,7.972,7.972,0,0,1,6.405,0ZM4.53-14.143V-2.282H6.394A4.292,4.292,0,0,0,9.845-3.688a6.126,6.126,0,0,0,1.226-4.039v-.915a6.286,6.286,0,0,0-1.164-4.089,4.125,4.125,0,0,0-3.378-1.412ZM21.9.226a5.679,5.679,0,0,1-4.231-1.644A5.963,5.963,0,0,1,16.053-5.8v-.339a7.334,7.334,0,0,1,.706-3.27,5.374,5.374,0,0,1,1.983-2.242,5.241,5.241,0,0,1,2.847-.8,4.8,4.8,0,0,1,3.858,1.593,6.735,6.735,0,0,1,1.361,4.507v1.107H18.82a3.671,3.671,0,0,0,1.011,2.395,3.035,3.035,0,0,0,2.231.881,3.717,3.717,0,0,0,3.073-1.525l1.48,1.412a4.942,4.942,0,0,1-1.96,1.7A6.136,6.136,0,0,1,21.9.226Zm-.328-10.472a2.312,2.312,0,0,0-1.824.791,4.1,4.1,0,0,0-.887,2.2H24.1v-.2a3.337,3.337,0,0,0-.734-2.084A2.294,2.294,0,0,0,21.577-10.246ZM35.788-3.321a1.244,1.244,0,0,0-.6-1.118,6.428,6.428,0,0,0-2.005-.678,10.308,10.308,0,0,1-2.338-.746,3.121,3.121,0,0,1-2.056-2.881,3.254,3.254,0,0,1,1.333-2.643,5.27,5.27,0,0,1,3.389-1.062,5.483,5.483,0,0,1,3.542,1.084A3.441,3.441,0,0,1,38.4-8.552H35.652a1.692,1.692,0,0,0-.587-1.316,2.251,2.251,0,0,0-1.559-.525,2.433,2.433,0,0,0-1.474.418,1.318,1.318,0,0,0-.57,1.118,1.113,1.113,0,0,0,.531.983,7.3,7.3,0,0,0,2.146.706,10.16,10.16,0,0,1,2.536.847A3.591,3.591,0,0,1,38.042-5.14a3.01,3.01,0,0,1,.446,1.672A3.185,3.185,0,0,1,37.121-.8,5.829,5.829,0,0,1,33.54.226a6.32,6.32,0,0,1-2.677-.542,4.406,4.406,0,0,1-1.83-1.491,3.53,3.53,0,0,1-.655-2.045h2.666a1.934,1.934,0,0,0,.734,1.5,2.853,2.853,0,0,0,1.8.525,2.776,2.776,0,0,0,1.649-.412A1.276,1.276,0,0,0,35.788-3.321ZM45.9-1.966a2.482,2.482,0,0,0,1.706-.6,2.045,2.045,0,0,0,.723-1.48h2.587A4.032,4.032,0,0,1,50.2-1.915,4.668,4.668,0,0,1,48.395-.35a5.386,5.386,0,0,1-2.463.576,5.211,5.211,0,0,1-4.067-1.661,6.587,6.587,0,0,1-1.5-4.586V-6.3a6.477,6.477,0,0,1,1.491-4.468,5.164,5.164,0,0,1,4.067-1.678,5.022,5.022,0,0,1,3.553,1.271,4.552,4.552,0,0,1,1.44,3.338H48.327a2.514,2.514,0,0,0-.717-1.728,2.308,2.308,0,0,0-1.711-.678,2.416,2.416,0,0,0-2.056.966,4.928,4.928,0,0,0-.734,2.931v.441a5.01,5.01,0,0,0,.717,2.965A2.414,2.414,0,0,0,45.9-1.966ZM55.907,0H53.162V-12.223h2.745ZM52.993-15.4a1.457,1.457,0,0,1,.4-1.051,1.515,1.515,0,0,1,1.147-.418,1.534,1.534,0,0,1,1.152.418A1.446,1.446,0,0,1,56.1-15.4a1.412,1.412,0,0,1-.407,1.034,1.546,1.546,0,0,1-1.152.412,1.527,1.527,0,0,1-1.147-.412A1.423,1.423,0,0,1,52.993-15.4ZM59.861,0V-10.19H58v-2.033h1.864v-1.118a4.2,4.2,0,0,1,1.13-3.14,4.327,4.327,0,0,1,3.163-1.107,6.345,6.345,0,0,1,1.536.2l-.068,2.146a5.407,5.407,0,0,0-1.051-.09,1.763,1.763,0,0,0-1.966,2.022v1.084h2.485v2.033H62.606V0ZM73.5-9.715a6.793,6.793,0,0,0-1.118-.09A2.518,2.518,0,0,0,69.836-8.36V0H67.091V-12.223h2.621l.068,1.367a3.093,3.093,0,0,1,2.756-1.593,2.57,2.57,0,0,1,.972.158ZM81.871,0a4.236,4.236,0,0,1-.316-1.141A4.273,4.273,0,0,1,78.346.226a4.312,4.312,0,0,1-3-1.051,3.361,3.361,0,0,1-1.164-2.6,3.471,3.471,0,0,1,1.452-3,7.035,7.035,0,0,1,4.152-1.045h1.683v-.8a2.141,2.141,0,0,0-.531-1.519,2.1,2.1,0,0,0-1.615-.57,2.418,2.418,0,0,0-1.536.469,1.451,1.451,0,0,0-.6,1.192H74.438a3.047,3.047,0,0,1,.667-1.881,4.44,4.44,0,0,1,1.813-1.373,6.369,6.369,0,0,1,2.559-.5A5.129,5.129,0,0,1,82.9-11.37a3.847,3.847,0,0,1,1.31,3.033v5.513a6.248,6.248,0,0,0,.463,2.632V0ZM78.855-1.977a3.123,3.123,0,0,0,1.531-.4,2.642,2.642,0,0,0,1.079-1.062v-2.3h-1.48a4.046,4.046,0,0,0-2.293.531,1.72,1.72,0,0,0-.768,1.5,1.6,1.6,0,0,0,.525,1.26A2.034,2.034,0,0,0,78.855-1.977ZM86.57-6.2a7.267,7.267,0,0,1,1.31-4.536,4.2,4.2,0,0,1,3.513-1.711,3.99,3.99,0,0,1,3.14,1.356v-6.258h2.745V0H94.794l-.136-1.265A4.047,4.047,0,0,1,91.371.226,4.175,4.175,0,0,1,87.9-1.5,7.533,7.533,0,0,1,86.57-6.2Zm2.745.237a5.088,5.088,0,0,0,.717,2.909,2.328,2.328,0,0,0,2.039,1.045,2.592,2.592,0,0,0,2.463-1.5V-8.732a2.553,2.553,0,0,0-2.44-1.469,2.345,2.345,0,0,0-2.056,1.056A5.666,5.666,0,0,0,89.315-5.965Zm10.314-.26a7.207,7.207,0,0,1,.712-3.236,5.2,5.2,0,0,1,2-2.214,5.634,5.634,0,0,1,2.96-.774,5.339,5.339,0,0,1,4.016,1.593,6.265,6.265,0,0,1,1.666,4.225l.011.644a7.272,7.272,0,0,1-.695,3.231,5.135,5.135,0,0,1-1.988,2.2,5.675,5.675,0,0,1-2.988.779,5.3,5.3,0,0,1-4.14-1.723,6.6,6.6,0,0,1-1.553-4.592Zm2.745.237a4.925,4.925,0,0,0,.779,2.954,2.534,2.534,0,0,0,2.169,1.068,2.506,2.506,0,0,0,2.163-1.084,5.44,5.44,0,0,0,.774-3.174,4.862,4.862,0,0,0-.8-2.937,2.543,2.543,0,0,0-2.163-1.084,2.52,2.52,0,0,0-2.135,1.068A5.337,5.337,0,0,0,102.374-5.987Z" transform="translate(946.259 5329.309)"/>
    <g id="Grupo_237259" data-name="Grupo 237259" transform="translate(341 5194)" clip-path="url(#clip-path)">
      <path id="Trazado_231874" data-name="Trazado 231874" d="M702.929,193.351A41.554,41.554,0,1,1,661.375,151.8a41.554,41.554,0,0,1,41.554,41.554" fill="#8628a5"/>
      <line id="Línea_151" data-name="Línea 151" x2="270.513" transform="translate(524.027 193.351)" fill="none" stroke="#8628a5" stroke-linejoin="round" stroke-width="3.856"/>
      <path id="Trazado_231875" data-name="Trazado 231875" d="M781.764,209.121l-2.63-2.824,13.927-12.942-13.927-12.946,2.63-2.824,16.958,15.77Z" fill="#8628a5"/>
      <path id="Trazado_231876" data-name="Trazado 231876" d="M695.454,192.268c-.015-.227-.035-.452-.06-.677a15.84,15.84,0,0,0-3.833-8.737q-.36-.414-.753-.806a15.993,15.993,0,0,0-26.9,7.783H630.781a3.522,3.522,0,0,0-3.228,4.928,3.776,3.776,0,0,0,.179.353,3.519,3.519,0,0,0,3.049,1.76h1.337v2.978a3.521,3.521,0,1,0,7.042,0v-2.978h2.605v6.5a3.521,3.521,0,1,0,7.042,0v-6.5h15.1a15.864,15.864,0,0,0,4.295,7.783q.395.4.812.758a15.987,15.987,0,0,0,26.381-10.3c.012-.109.023-.218.032-.328q.064-.711.064-1.432,0-.546-.036-1.084m-24.719,2.844a8.944,8.944,0,0,1,17.539-3.521q.063.311.1.627a8.937,8.937,0,0,1-.034,2.5q-.03.2-.069.39a8.946,8.946,0,0,1-17.539,0" fill="#fff"/>
      <line id="Línea_152" data-name="Línea 152" y2="48.267" transform="translate(254.95 251.609)" fill="none" stroke="#8628a5" stroke-linejoin="round" stroke-width="3.856"/>
      <path id="Trazado_231877" data-name="Trazado 231877" d="M246.383,258.107l8.567-3.64,8.568,3.64L254.95,237.8Z" fill="#8628a5"/>
      <path id="Trazado_231878" data-name="Trazado 231878" d="M280.347,322.441a22.527,22.527,0,0,1-14.811-5.54c-.391-.341-.774-.7-1.145-1.07a22.3,22.3,0,0,1-5.448-8.781q-.235-.7-.425-1.425H239.936v7.768a5.75,5.75,0,1,1-11.5,0v-7.768h-1.515v3.017a5.757,5.757,0,0,1-5.75,5.751,5.748,5.748,0,0,1-5.749-5.751v-3.017h-.8a5.748,5.748,0,0,1-4.979-2.874,5.877,5.877,0,0,1-.29-.571,5.755,5.755,0,0,1-.2-4.094,5.758,5.758,0,0,1,5.466-3.96h43.9A22.574,22.574,0,0,1,296.3,283.919q.553.555,1.063,1.138a22.358,22.358,0,0,1,5.411,12.335c.034.317.062.635.084.956.034.505.051,1.016.051,1.527,0,.673-.03,1.354-.09,2.024l-.045.457a22.57,22.57,0,0,1-22.43,20.085m0-33.631a11.059,11.059,0,0,0-6.791,19.794,10.941,10.941,0,0,0,6.791,2.338,11.1,11.1,0,0,0,10.851-8.888c.031-.157.059-.318.085-.482a11.279,11.279,0,0,0,.042-3.1c-.034-.262-.077-.52-.127-.777a11.089,11.089,0,0,0-10.851-8.886" fill="#f8a800"/>
      <path id="Trazado_231879" data-name="Trazado 231879" d="M280.347,278.311a21.421,21.421,0,0,1,15.248,6.316q.531.529,1.017,1.088a21.366,21.366,0,0,1,5.17,11.786q.049.454.081.914.048.726.049,1.461,0,.973-.087,1.933c-.012.147-.027.3-.043.442a21.567,21.567,0,0,1-35.588,13.9q-.562-.49-1.1-1.023a21.407,21.407,0,0,1-5.8-10.5H238.935v8.767a4.749,4.749,0,1,1-9.5,0v-8.767h-3.515v4.017a4.75,4.75,0,1,1-9.5,0v-4.017h-1.8a4.746,4.746,0,0,1-4.113-2.375,4.624,4.624,0,0,1-.242-.476,4.749,4.749,0,0,1-.16-3.377,4.669,4.669,0,0,1,.4-.9,4.745,4.745,0,0,1,4.113-2.374H259.3a21.586,21.586,0,0,1,21.043-16.816m0,33.631a12.086,12.086,0,0,0,11.83-9.691c.035-.174.066-.349.093-.526a11.99,11.99,0,0,0,.143-1.849,12.244,12.244,0,0,0-.1-1.529c-.037-.285-.083-.567-.14-.846a12.059,12.059,0,1,0-11.83,14.441m0-35.631a23.6,23.6,0,0,0-22.588,16.816H214.618a6.749,6.749,0,0,0-.2,13.5v2.02a6.75,6.75,0,0,0,13.014,2.515v2.235a6.749,6.749,0,0,0,13.5,0v-6.767h16.824q.113.373.235.743a23.313,23.313,0,0,0,5.69,9.17c.382.383.786.76,1.2,1.118a23.567,23.567,0,0,0,32.129-1.118,23.274,23.274,0,0,0,6.76-14.071c.018-.163.035-.328.048-.493.062-.685.094-1.4.094-2.1,0-.524-.018-1.061-.054-1.6q-.033-.5-.088-1a23.34,23.34,0,0,0-5.652-12.882c-.349-.4-.723-.8-1.108-1.187a23.408,23.408,0,0,0-16.663-6.9m0,33.631a9.947,9.947,0,0,1-6.176-2.126,10.058,10.058,0,1,1,16.046-9.921c.047.233.085.469.116.707a10.119,10.119,0,0,1-.039,2.817c-.023.151-.049.295-.077.439a10.093,10.093,0,0,1-9.87,8.084"/>
    </g>
    <path id="Trazado_232019" data-name="Trazado 232019" d="M14.223-5.355a5.939,5.939,0,0,1-1.943,4.106A6.624,6.624,0,0,1,7.772.226,6.414,6.414,0,0,1,4.31-.706,6.117,6.117,0,0,1,2-3.355a9.56,9.56,0,0,1-.847-3.988V-8.879a9.629,9.629,0,0,1,.825-4.1,6.215,6.215,0,0,1,2.367-2.734,6.6,6.6,0,0,1,3.564-.96A6.358,6.358,0,0,1,12.291-15.2a6.16,6.16,0,0,1,1.932,4.174H11.376a4.063,4.063,0,0,0-1.034-2.559,3.416,3.416,0,0,0-2.434-.785,3.337,3.337,0,0,0-2.864,1.362,6.81,6.81,0,0,0-1.022,4v1.459a7.224,7.224,0,0,0,.955,4.07,3.168,3.168,0,0,0,2.8,1.4,3.7,3.7,0,0,0,2.53-.757,3.947,3.947,0,0,0,1.073-2.519ZM19.43,0H16.685V-17.352H19.43ZM29.722,0a4.237,4.237,0,0,1-.316-1.141A4.273,4.273,0,0,1,26.2.226a4.312,4.312,0,0,1-3-1.051,3.361,3.361,0,0,1-1.164-2.6,3.471,3.471,0,0,1,1.452-3,7.035,7.035,0,0,1,4.152-1.045h1.683v-.8a2.141,2.141,0,0,0-.531-1.519,2.1,2.1,0,0,0-1.615-.57,2.418,2.418,0,0,0-1.536.469,1.451,1.451,0,0,0-.6,1.192H22.288a3.047,3.047,0,0,1,.667-1.881,4.44,4.44,0,0,1,1.813-1.373,6.369,6.369,0,0,1,2.559-.5A5.129,5.129,0,0,1,30.75-11.37a3.847,3.847,0,0,1,1.31,3.033v5.513a6.248,6.248,0,0,0,.463,2.632V0ZM26.705-1.977a3.123,3.123,0,0,0,1.531-.4,2.642,2.642,0,0,0,1.079-1.062v-2.3h-1.48a4.046,4.046,0,0,0-2.293.531,1.72,1.72,0,0,0-.768,1.5,1.6,1.6,0,0,0,.525,1.26A2.034,2.034,0,0,0,26.705-1.977Zm12.208-1.5L41.5-12.223h2.835L40.1,0H37.716l-4.27-12.223h2.847ZM51.144.226a5.679,5.679,0,0,1-4.231-1.644A5.963,5.963,0,0,1,45.293-5.8v-.339A7.334,7.334,0,0,1,46-9.4a5.374,5.374,0,0,1,1.983-2.242,5.241,5.241,0,0,1,2.847-.8,4.8,4.8,0,0,1,3.858,1.593,6.735,6.735,0,0,1,1.361,4.507v1.107H48.06a3.671,3.671,0,0,0,1.011,2.395,3.035,3.035,0,0,0,2.231.881,3.717,3.717,0,0,0,3.073-1.525l1.48,1.412a4.942,4.942,0,0,1-1.96,1.7A6.136,6.136,0,0,1,51.144.226Zm-.328-10.472a2.312,2.312,0,0,0-1.824.791,4.1,4.1,0,0,0-.887,2.2h5.23v-.2A3.337,3.337,0,0,0,52.6-9.54,2.294,2.294,0,0,0,50.817-10.246ZM74.641-5.987a7.278,7.278,0,0,1-1.288,4.524A4.124,4.124,0,0,1,69.9.226,4.152,4.152,0,0,1,66.677-1.1V4.7H63.932V-12.223h2.53l.113,1.243a4.032,4.032,0,0,1,3.287-1.469,4.167,4.167,0,0,1,3.508,1.666,7.472,7.472,0,0,1,1.271,4.626Zm-2.734-.237a5.1,5.1,0,0,0-.729-2.9A2.369,2.369,0,0,0,69.095-10.2a2.526,2.526,0,0,0-2.417,1.389v5.422a2.549,2.549,0,0,0,2.44,1.423,2.366,2.366,0,0,0,2.05-1.056A5.612,5.612,0,0,0,71.908-6.224ZM83.362-9.715a6.793,6.793,0,0,0-1.118-.09A2.518,2.518,0,0,0,79.7-8.36V0H76.957V-12.223h2.621l.068,1.367A3.093,3.093,0,0,1,82.4-12.449a2.57,2.57,0,0,1,.972.158ZM88.017,0H85.272V-12.223h2.745ZM85.1-15.4a1.457,1.457,0,0,1,.4-1.051,1.515,1.515,0,0,1,1.147-.418,1.534,1.534,0,0,1,1.152.418,1.446,1.446,0,0,1,.407,1.051,1.412,1.412,0,0,1-.407,1.034,1.546,1.546,0,0,1-1.152.412,1.527,1.527,0,0,1-1.147-.412A1.423,1.423,0,0,1,85.1-15.4ZM95.314-3.479,97.9-12.223h2.835L96.5,0H94.117l-4.27-12.223h2.847ZM109.42,0a4.236,4.236,0,0,1-.316-1.141A4.273,4.273,0,0,1,105.9.226a4.312,4.312,0,0,1-3-1.051,3.361,3.361,0,0,1-1.164-2.6,3.471,3.471,0,0,1,1.452-3,7.035,7.035,0,0,1,4.152-1.045h1.683v-.8a2.141,2.141,0,0,0-.531-1.519,2.1,2.1,0,0,0-1.615-.57,2.418,2.418,0,0,0-1.536.469,1.451,1.451,0,0,0-.6,1.192h-2.745a3.047,3.047,0,0,1,.667-1.881,4.44,4.44,0,0,1,1.813-1.373,6.369,6.369,0,0,1,2.559-.5,5.129,5.129,0,0,1,3.423,1.079,3.847,3.847,0,0,1,1.31,3.033v5.513a6.248,6.248,0,0,0,.463,2.632V0ZM106.4-1.977a3.123,3.123,0,0,0,1.531-.4,2.642,2.642,0,0,0,1.079-1.062v-2.3h-1.48a4.046,4.046,0,0,0-2.293.531,1.72,1.72,0,0,0-.768,1.5A1.6,1.6,0,0,0,105-2.446,2.034,2.034,0,0,0,106.4-1.977ZM114.12-6.2a7.267,7.267,0,0,1,1.31-4.536,4.2,4.2,0,0,1,3.513-1.711,3.99,3.99,0,0,1,3.14,1.356v-6.258h2.745V0h-2.485l-.136-1.265A4.047,4.047,0,0,1,118.921.226,4.175,4.175,0,0,1,115.447-1.5,7.533,7.533,0,0,1,114.12-6.2Zm2.745.237a5.088,5.088,0,0,0,.717,2.909,2.328,2.328,0,0,0,2.039,1.045,2.592,2.592,0,0,0,2.463-1.5V-8.732a2.553,2.553,0,0,0-2.44-1.469,2.345,2.345,0,0,0-2.056,1.056A5.666,5.666,0,0,0,116.865-5.965ZM135,0a4.237,4.237,0,0,1-.316-1.141A4.273,4.273,0,0,1,131.471.226a4.312,4.312,0,0,1-3-1.051,3.361,3.361,0,0,1-1.164-2.6,3.471,3.471,0,0,1,1.452-3,7.035,7.035,0,0,1,4.152-1.045h1.683v-.8a2.141,2.141,0,0,0-.531-1.519,2.1,2.1,0,0,0-1.615-.57,2.418,2.418,0,0,0-1.536.469,1.451,1.451,0,0,0-.6,1.192h-2.745a3.047,3.047,0,0,1,.667-1.881,4.44,4.44,0,0,1,1.813-1.373,6.369,6.369,0,0,1,2.559-.5,5.129,5.129,0,0,1,3.423,1.079,3.847,3.847,0,0,1,1.31,3.033v5.513A6.248,6.248,0,0,0,137.8-.192V0ZM131.98-1.977a3.123,3.123,0,0,0,1.531-.4,2.642,2.642,0,0,0,1.079-1.062v-2.3h-1.48a4.046,4.046,0,0,0-2.293.531,1.72,1.72,0,0,0-.768,1.5,1.6,1.6,0,0,0,.525,1.26A2.034,2.034,0,0,0,131.98-1.977Z" transform="translate(933.489 5547.09)"/>
    <g id="Grupo_237261" data-name="Grupo 237261" transform="translate(341 5194)" clip-path="url(#clip-path)">
      <line id="Línea_153" data-name="Línea 153" y2="48.267" transform="translate(660.412 251.609)" fill="none" stroke="#8628a5" stroke-linejoin="round" stroke-width="3.856"/>
      <path id="Trazado_231880" data-name="Trazado 231880" d="M651.844,258.107l8.567-3.64,8.568,3.64L660.411,237.8Z" fill="#8628a5"/>
      <path id="Trazado_231881" data-name="Trazado 231881" d="M685.809,322.441A22.527,22.527,0,0,1,671,316.9c-.391-.341-.774-.7-1.145-1.07a22.3,22.3,0,0,1-5.448-8.781c-.157-.464-.3-.941-.425-1.425H645.4v7.768a5.749,5.749,0,1,1-11.5,0v-7.768h-1.515v3.017a5.757,5.757,0,0,1-5.75,5.751,5.748,5.748,0,0,1-5.749-5.751v-3.017h-.8a5.685,5.685,0,0,1-2.584-.613,5.75,5.75,0,0,1-2.395-2.261,6,6,0,0,1-.29-.571,5.75,5.75,0,0,1,5.269-8.054h43.9a22.574,22.574,0,0,1,37.785-10.207q.553.555,1.063,1.138a22.358,22.358,0,0,1,5.411,12.335c.034.317.062.635.084.956.033.507.051,1.016.051,1.527,0,.673-.03,1.354-.09,2.024l-.045.457a22.57,22.57,0,0,1-22.43,20.085m0-33.631a11.059,11.059,0,0,0-6.791,19.794,10.941,10.941,0,0,0,6.791,2.338,11.1,11.1,0,0,0,10.851-8.888c.03-.155.059-.315.083-.476a11.223,11.223,0,0,0,.044-3.105c-.034-.262-.077-.52-.127-.777a11.092,11.092,0,0,0-10.851-8.886" fill="#59e5f5"/>
      <path id="Trazado_231882" data-name="Trazado 231882" d="M685.809,278.311a21.421,21.421,0,0,1,15.248,6.316q.531.529,1.017,1.088a21.365,21.365,0,0,1,5.17,11.786q.049.454.081.914.048.726.049,1.461,0,.973-.087,1.933c-.012.147-.027.3-.043.442a21.567,21.567,0,0,1-35.588,13.9q-.562-.49-1.1-1.023a21.409,21.409,0,0,1-5.795-10.5H644.4v8.767a4.749,4.749,0,1,1-9.5,0v-8.767h-3.515v4.017a4.75,4.75,0,1,1-9.5,0v-4.017h-1.8a4.746,4.746,0,0,1-4.113-2.375,4.636,4.636,0,0,1-.242-.476,4.749,4.749,0,0,1-.16-3.377,4.671,4.671,0,0,1,.4-.9,4.745,4.745,0,0,1,4.113-2.374h44.686a21.586,21.586,0,0,1,21.043-16.816m0,33.631a12.086,12.086,0,0,0,11.83-9.691c.035-.174.066-.349.093-.526a11.994,11.994,0,0,0,.143-1.849,12.25,12.25,0,0,0-.1-1.529c-.037-.285-.083-.567-.14-.846a12.06,12.06,0,1,0-11.83,14.441m0-35.631a23.6,23.6,0,0,0-22.588,16.816H620.08a6.749,6.749,0,0,0-.2,13.5v2.02a6.75,6.75,0,0,0,13.014,2.515v2.235a6.749,6.749,0,0,0,13.5,0v-6.767h16.824q.113.373.235.743a23.313,23.313,0,0,0,5.69,9.17c.383.383.786.76,1.2,1.118a23.567,23.567,0,0,0,32.129-1.118,23.274,23.274,0,0,0,6.76-14.071c.018-.163.035-.328.048-.493.062-.685.094-1.4.094-2.1,0-.524-.018-1.061-.054-1.6q-.033-.5-.088-1A23.341,23.341,0,0,0,703.58,284.4c-.35-.4-.723-.8-1.108-1.187a23.408,23.408,0,0,0-16.663-6.9m0,33.631a9.946,9.946,0,0,1-6.176-2.126,10.058,10.058,0,1,1,16.046-9.921c.047.233.085.469.116.707a10.116,10.116,0,0,1-.039,2.817c-.023.151-.049.295-.077.439a10.093,10.093,0,0,1-9.87,8.084"/>
      <path id="Trazado_231883" data-name="Trazado 231883" d="M525.117,193.352a65,65,0,1,0-65,65,65,65,0,0,0,65-65" fill="#fff"/>
      <circle id="Elipse_5038" data-name="Elipse 5038" cx="65.003" cy="65.003" r="65.003" transform="translate(395.111 128.349)" fill="none" stroke="#000" stroke-miterlimit="10" stroke-width="3"/>
    </g>
    <path id="Trazado_232020" data-name="Trazado 232020" d="M12.652-13.2H7.865V0H5.219V-13.2H.474v-2.151H12.652ZM17.575.211a5.3,5.3,0,0,1-3.949-1.534,5.565,5.565,0,0,1-1.513-4.086v-.316a6.845,6.845,0,0,1,.659-3.052,5.016,5.016,0,0,1,1.85-2.093,4.892,4.892,0,0,1,2.657-.749,4.478,4.478,0,0,1,3.6,1.487,6.286,6.286,0,0,1,1.27,4.207v1.033H14.7a3.426,3.426,0,0,0,.944,2.235,2.833,2.833,0,0,0,2.082.822,3.469,3.469,0,0,0,2.868-1.423L21.972-1.94A4.612,4.612,0,0,1,20.143-.353,5.727,5.727,0,0,1,17.575.211ZM17.27-9.563a2.158,2.158,0,0,0-1.7.738,3.825,3.825,0,0,0-.828,2.056h4.882v-.19A3.114,3.114,0,0,0,18.936-8.9,2.141,2.141,0,0,0,17.27-9.563ZM28.235-7.655l2.172-3.754h2.847l-3.49,5.62L33.37,0H30.544L28.267-3.9,26,0H23.153l3.606-5.788-3.479-5.62h2.826Zm9.974-6.526v2.773h2.014v1.9H38.209v6.368a1.4,1.4,0,0,0,.258.944,1.2,1.2,0,0,0,.923.29,3.947,3.947,0,0,0,.9-.105V-.032A6.31,6.31,0,0,1,38.6.211q-2.952,0-2.952-3.258V-9.51H33.77v-1.9h1.877v-2.773ZM41.08-5.809a6.727,6.727,0,0,1,.664-3.021A4.851,4.851,0,0,1,43.611-10.9a5.258,5.258,0,0,1,2.762-.722,4.983,4.983,0,0,1,3.748,1.487,5.847,5.847,0,0,1,1.555,3.943l.011.6a6.787,6.787,0,0,1-.648,3.015A4.793,4.793,0,0,1,49.183-.517a5.3,5.3,0,0,1-2.789.728A4.949,4.949,0,0,1,42.53-1.4a6.158,6.158,0,0,1-1.45-4.286Zm2.562.221a4.6,4.6,0,0,0,.728,2.757,2.365,2.365,0,0,0,2.024,1,2.339,2.339,0,0,0,2.019-1.012,5.077,5.077,0,0,0,.722-2.963,4.538,4.538,0,0,0-.743-2.741,2.373,2.373,0,0,0-2.019-1.012,2.352,2.352,0,0,0-1.993,1A4.981,4.981,0,0,0,43.643-5.588Z" transform="translate(774.228 5413.059)"/>
    <path id="Trazado_232021" data-name="Trazado 232021" d="M6-1.835a2.317,2.317,0,0,0,1.592-.559,1.909,1.909,0,0,0,.675-1.381h2.414a3.763,3.763,0,0,1-.664,1.987A4.357,4.357,0,0,1,8.329-.327a5.027,5.027,0,0,1-2.3.538,4.864,4.864,0,0,1-3.8-1.55A6.147,6.147,0,0,1,.833-5.62v-.264a6.045,6.045,0,0,1,1.392-4.17,4.82,4.82,0,0,1,3.8-1.566,4.687,4.687,0,0,1,3.316,1.186,4.249,4.249,0,0,1,1.344,3.116H8.266A2.346,2.346,0,0,0,7.6-8.93,2.154,2.154,0,0,0,6-9.563a2.255,2.255,0,0,0-1.919.9A4.6,4.6,0,0,0,3.4-5.925v.411a4.676,4.676,0,0,0,.67,2.768A2.253,2.253,0,0,0,6-1.835ZM15.341,0H12.779V-11.408h2.562Zm-2.72-14.371a1.36,1.36,0,0,1,.374-.981,1.414,1.414,0,0,1,1.07-.39,1.432,1.432,0,0,1,1.075.39,1.349,1.349,0,0,1,.38.981,1.318,1.318,0,0,1-.38.965,1.443,1.443,0,0,1-1.075.385,1.425,1.425,0,0,1-1.07-.385A1.328,1.328,0,0,1,12.621-14.371ZM19.031,0V-9.51h-1.74v-1.9h1.74v-1.044a3.918,3.918,0,0,1,1.054-2.931,4.039,4.039,0,0,1,2.952-1.033,5.922,5.922,0,0,1,1.434.19l-.063,2a5.046,5.046,0,0,0-.981-.084,1.645,1.645,0,0,0-1.835,1.887v1.012h2.32v1.9h-2.32V0ZM31.757-9.067a6.34,6.34,0,0,0-1.044-.084A2.35,2.35,0,0,0,28.341-7.8V0H25.779V-11.408h2.446l.063,1.276a2.887,2.887,0,0,1,2.573-1.487,2.4,2.4,0,0,1,.907.148ZM39.573,0a3.954,3.954,0,0,1-.3-1.065A3.988,3.988,0,0,1,36.284.211a4.025,4.025,0,0,1-2.8-.981,3.137,3.137,0,0,1-1.086-2.425,3.239,3.239,0,0,1,1.355-2.8,6.566,6.566,0,0,1,3.875-.975h1.571v-.749a2,2,0,0,0-.5-1.418,1.964,1.964,0,0,0-1.508-.532,2.257,2.257,0,0,0-1.434.438A1.354,1.354,0,0,0,35.2-8.119H32.636a2.844,2.844,0,0,1,.622-1.756,4.144,4.144,0,0,1,1.692-1.281,5.944,5.944,0,0,1,2.388-.464,4.787,4.787,0,0,1,3.195,1.007,3.591,3.591,0,0,1,1.223,2.831v5.145a5.831,5.831,0,0,0,.432,2.457V0ZM36.758-1.845a2.914,2.914,0,0,0,1.429-.369,2.465,2.465,0,0,0,1.007-.991V-5.356H37.813a3.777,3.777,0,0,0-2.14.5,1.605,1.605,0,0,0-.717,1.4,1.5,1.5,0,0,0,.49,1.176A1.9,1.9,0,0,0,36.758-1.845Zm7.2-3.943a6.782,6.782,0,0,1,1.223-4.233,3.919,3.919,0,0,1,3.279-1.6,3.724,3.724,0,0,1,2.931,1.265v-5.841h2.562V0h-2.32l-.127-1.181A3.777,3.777,0,0,1,48.441.211,3.9,3.9,0,0,1,45.2-1.4,7.031,7.031,0,0,1,43.96-5.788Zm2.562.221a4.749,4.749,0,0,0,.67,2.715,2.172,2.172,0,0,0,1.9.975,2.42,2.42,0,0,0,2.3-1.4V-8.15a2.383,2.383,0,0,0-2.277-1.371,2.188,2.188,0,0,0-1.919.986A5.288,5.288,0,0,0,46.522-5.567Zm9.626-.243a6.727,6.727,0,0,1,.664-3.021A4.851,4.851,0,0,1,58.678-10.9a5.258,5.258,0,0,1,2.762-.722,4.983,4.983,0,0,1,3.748,1.487,5.847,5.847,0,0,1,1.555,3.943l.011.6a6.787,6.787,0,0,1-.648,3.015A4.793,4.793,0,0,1,64.251-.517a5.3,5.3,0,0,1-2.789.728A4.949,4.949,0,0,1,57.6-1.4a6.158,6.158,0,0,1-1.45-4.286Zm2.562.221a4.6,4.6,0,0,0,.728,2.757,2.365,2.365,0,0,0,2.024,1,2.339,2.339,0,0,0,2.019-1.012A5.077,5.077,0,0,0,64.2-5.809a4.538,4.538,0,0,0-.743-2.741,2.373,2.373,0,0,0-2.019-1.012,2.352,2.352,0,0,0-1.993,1A4.981,4.981,0,0,0,58.71-5.588Z" transform="translate(767.167 5431.564)"/>
    <g id="Grupo_237263" data-name="Grupo 237263" transform="translate(341 5194)" clip-path="url(#clip-path)">
      <path id="Trazado_231884" data-name="Trazado 231884" d="M473.779,156.954v7.166h-5.22v-7.166a8.444,8.444,0,1,0-16.888,0v7.166h-5.22v-7.166a13.513,13.513,0,0,1,1.08-5.313,13.779,13.779,0,0,1,7.272-7.271,13.606,13.606,0,0,1,10.625,0,13.782,13.782,0,0,1,7.271,7.271,13.51,13.51,0,0,1,1.08,5.313" fill="#b5b5b5"/>
      <path id="Trazado_231885" data-name="Trazado 231885" d="M473.779,156.954v7.166h-5.22v-7.166a8.444,8.444,0,1,0-16.888,0v7.166h-5.22v-7.166a13.513,13.513,0,0,1,1.08-5.313,13.779,13.779,0,0,1,7.272-7.271,13.606,13.606,0,0,1,10.625,0,13.782,13.782,0,0,1,7.271,7.271A13.51,13.51,0,0,1,473.779,156.954Z" fill="none" stroke="#000" stroke-miterlimit="10" stroke-width="1.542"/>
      <path id="Trazado_231886" data-name="Trazado 231886" d="M464.441,174.341a4.7,4.7,0,0,1-1.85,5.819v3.486a2.477,2.477,0,0,1-4.953,0V180.16a4.7,4.7,0,1,1,6.8-5.819" fill="#fff"/>
      <path id="Trazado_231887" data-name="Trazado 231887" d="M452.164,163.349h15.9v-.494h-15.9Zm26.52,3.388a4.533,4.533,0,0,0-3.744-3.82,4.459,4.459,0,0,0-.668-.061H445.956a4.541,4.541,0,0,0-4.458,4.535v8.733a18.6,18.6,0,0,0,.609,4.745,18.357,18.357,0,0,0,.854,2.5,18.714,18.714,0,0,0,7.146,8.456q.5.318,1.017.6a18.685,18.685,0,0,0,4.709,1.816q.172.041.348.078h0a18.6,18.6,0,0,0,11.178-1.049,18.43,18.43,0,0,0,1.743-.846q.519-.286,1.017-.6a18.592,18.592,0,0,0,8.61-15.7v-8.733a4.545,4.545,0,0,0-.047-.654m-.447,9.387a18.123,18.123,0,0,1-36.246,0v-8.733a4.043,4.043,0,0,1,3.965-4.041h28.316a4.041,4.041,0,0,1,3.965,4.041Z" fill="#fff"/>
      <path id="Trazado_231888" data-name="Trazado 231888" d="M460.114,195.788A18.891,18.891,0,0,1,441.22,176.9v-8.733a4.837,4.837,0,0,1,4.722-4.813H474.3a4.815,4.815,0,0,1,4.707,4.813V176.9a18.915,18.915,0,0,1-18.895,18.892m0-22.772a3.925,3.925,0,0,0-2.48,6.966,3.838,3.838,0,0,0,.412.295l.364.226v3.914a1.7,1.7,0,1,0,3.409,0V180.5l.364-.226a3.925,3.925,0,0,0,.974-5.817,3.937,3.937,0,0,0-1.515-1.135,3.892,3.892,0,0,0-1.528-.309" fill="#f8a800"/>
      <path id="Trazado_231889" data-name="Trazado 231889" d="M474.2,164.12h.077a4.042,4.042,0,0,1,3.965,4.041V176.9a18.123,18.123,0,0,1-36.246,0v-8.733a4.042,4.042,0,0,1,3.965-4.041H474.2Zm-14.081,22.773a2.479,2.479,0,0,0,2.476-2.476v-3.486a4.694,4.694,0,0,0,1.163-6.96c-.1-.121-.206-.239-.319-.351a4.7,4.7,0,1,0-6.289,6.959,4.579,4.579,0,0,0,.493.352v3.486a2.476,2.476,0,0,0,2.476,2.476M474.2,162.578H445.921a5.61,5.61,0,0,0-5.471,5.583V176.9a19.65,19.65,0,0,0,19.665,19.665A19.688,19.688,0,0,0,479.78,176.9v-8.733a5.582,5.582,0,0,0-5.479-5.583Zm-14.081,22.773a.936.936,0,0,1-.934-.934v-4.343l-.728-.453a3.154,3.154,0,1,1,3.892-4.911c.076.077.147.155.214.237a3.143,3.143,0,0,1,.71,1.994,3.179,3.179,0,0,1-1.491,2.68l-.729.452v4.344a.935.935,0,0,1-.934.934"/>
      <text id="Asimétrica_2_claves" data-name="Asimétrica / 2 claves" transform="translate(346.837 20.451)" fill="#8628a5" font-size="23.907" font-family="Roboto-Medium, Roboto" font-weight="500"><tspan x="0" y="0">Asimétrica / 2 cl</tspan><tspan y="0" letter-spacing="-0.007em">a</tspan><tspan y="0" letter-spacing="-0.006em">v</tspan><tspan y="0">es</tspan></text>
    </g>
    <path id="Trazado_232022" data-name="Trazado 232022" d="M1.494-6.911a17.788,17.788,0,0,1,.724-5.119A14.05,14.05,0,0,1,4.342-16.36a8.436,8.436,0,0,1,2.965-2.679l.56,1.658A8.665,8.665,0,0,0,5.2-13.57,17.07,17.07,0,0,0,4.086-7.7l-.012,1a18.557,18.557,0,0,0,1,6.309,9.3,9.3,0,0,0,2.8,4.22L7.307,5.4A8.45,8.45,0,0,1,4.337,2.714,14.048,14.048,0,0,1,2.212-1.617,18.489,18.489,0,0,1,1.494-6.911ZM13.016-6.3V0H10.062V-17h6.5a6.575,6.575,0,0,1,4.523,1.484,4.99,4.99,0,0,1,1.675,3.926,4.825,4.825,0,0,1-1.64,3.891A6.893,6.893,0,0,1,16.529-6.3Zm0-2.381h3.549a3.5,3.5,0,0,0,2.4-.741,2.724,2.724,0,0,0,.829-2.142,2.939,2.939,0,0,0-.84-2.2,3.24,3.24,0,0,0-2.311-.846h-3.63Zm19.7,7.447A4.4,4.4,0,0,1,29.171.233a3.921,3.921,0,0,1-3.111-1.2A5.115,5.115,0,0,1,25-4.447V-12.63h2.837v8.148q0,2.4,2,2.4a2.8,2.8,0,0,0,2.79-1.482v-9.07h2.837V0H32.79ZM49.436-6.187a7.587,7.587,0,0,1-1.313,4.681A4.278,4.278,0,0,1,44.51.233a4.12,4.12,0,0,1-3.455-1.6L40.915,0H38.346V-17.93h2.837v6.514a4.106,4.106,0,0,1,3.3-1.447,4.327,4.327,0,0,1,3.63,1.716,7.713,7.713,0,0,1,1.319,4.8ZM46.6-6.432a5.362,5.362,0,0,0-.724-3.082,2.41,2.41,0,0,0-2.1-1.027A2.634,2.634,0,0,0,41.183-8.93v5.206A2.661,2.661,0,0,0,43.8-2.078a2.392,2.392,0,0,0,2.054-.992,5.2,5.2,0,0,0,.747-3ZM54.829,0H51.992V-17.93h2.837Zm6.105,0H58.1V-12.63h2.837ZM57.922-15.911A1.505,1.505,0,0,1,58.337-17a1.565,1.565,0,0,1,1.185-.432A1.585,1.585,0,0,1,60.712-17a1.494,1.494,0,0,1,.42,1.086,1.459,1.459,0,0,1-.42,1.068,1.6,1.6,0,0,1-1.191.426,1.577,1.577,0,0,1-1.185-.426A1.47,1.47,0,0,1,57.922-15.911ZM69.21-2.031a2.565,2.565,0,0,0,1.763-.619,2.114,2.114,0,0,0,.747-1.529h2.673a4.167,4.167,0,0,1-.735,2.2A4.824,4.824,0,0,1,71.79-.362a5.566,5.566,0,0,1-2.545.6,5.385,5.385,0,0,1-4.2-1.716A6.806,6.806,0,0,1,63.49-6.222v-.292a6.693,6.693,0,0,1,1.541-4.617,5.336,5.336,0,0,1,4.2-1.733A5.189,5.189,0,0,1,72.9-11.551,4.7,4.7,0,0,1,74.393-8.1H71.72a2.6,2.6,0,0,0-.741-1.786,2.385,2.385,0,0,0-1.768-.7,2.5,2.5,0,0,0-2.125,1,5.093,5.093,0,0,0-.759,3.029v.455a5.177,5.177,0,0,0,.741,3.064A2.494,2.494,0,0,0,69.21-2.031ZM84.082,0a4.378,4.378,0,0,1-.327-1.179A4.415,4.415,0,0,1,80.44.233,4.456,4.456,0,0,1,77.335-.852a3.473,3.473,0,0,1-1.2-2.685,3.586,3.586,0,0,1,1.5-3.1,7.269,7.269,0,0,1,4.29-1.08h1.739v-.829a2.212,2.212,0,0,0-.549-1.57,2.175,2.175,0,0,0-1.669-.589,2.5,2.5,0,0,0-1.588.484,1.5,1.5,0,0,0-.619,1.232H76.4a3.148,3.148,0,0,1,.689-1.944,4.588,4.588,0,0,1,1.874-1.418,6.581,6.581,0,0,1,2.644-.514,5.3,5.3,0,0,1,3.537,1.115A3.975,3.975,0,0,1,86.5-8.615v5.7A6.456,6.456,0,0,0,86.977-.2V0ZM80.965-2.043a3.227,3.227,0,0,0,1.582-.409,2.73,2.73,0,0,0,1.115-1.1V-5.93H82.133a4.181,4.181,0,0,0-2.37.549,1.777,1.777,0,0,0-.794,1.553,1.658,1.658,0,0,0,.543,1.3A2.1,2.1,0,0,0,80.965-2.043Zm19.961-4.039H94.8V-8.37h6.128ZM112.448-6.3V0h-2.953V-17H116a6.575,6.575,0,0,1,4.523,1.484,4.99,4.99,0,0,1,1.675,3.926,4.825,4.825,0,0,1-1.64,3.891A6.893,6.893,0,0,1,115.962-6.3Zm0-2.381H116a3.5,3.5,0,0,0,2.4-.741,2.724,2.724,0,0,0,.829-2.142,2.939,2.939,0,0,0-.84-2.2,3.24,3.24,0,0,0-2.311-.846h-3.63Zm18.665-1.354a7.019,7.019,0,0,0-1.156-.093,2.6,2.6,0,0,0-2.626,1.494V0h-2.837V-12.63H127.2l.07,1.412a3.2,3.2,0,0,1,2.848-1.646,2.656,2.656,0,0,1,1,.163ZM135.923,0h-2.837V-12.63h2.837Zm-3.012-15.911A1.505,1.505,0,0,1,133.325-17a1.565,1.565,0,0,1,1.185-.432A1.585,1.585,0,0,1,135.7-17a1.494,1.494,0,0,1,.42,1.086,1.459,1.459,0,0,1-.42,1.068,1.6,1.6,0,0,1-1.191.426,1.577,1.577,0,0,1-1.185-.426A1.47,1.47,0,0,1,132.911-15.911ZM143.464-3.6l2.673-9.035h2.93L144.689,0h-2.463l-4.412-12.63h2.942ZM158.039,0a4.378,4.378,0,0,1-.327-1.179A4.415,4.415,0,0,1,154.4.233a4.456,4.456,0,0,1-3.105-1.086,3.473,3.473,0,0,1-1.2-2.685,3.586,3.586,0,0,1,1.5-3.1,7.269,7.269,0,0,1,4.29-1.08h1.739v-.829a2.212,2.212,0,0,0-.549-1.57A2.175,2.175,0,0,0,155.4-10.7a2.5,2.5,0,0,0-1.588.484,1.5,1.5,0,0,0-.619,1.232h-2.837a3.148,3.148,0,0,1,.689-1.944,4.588,4.588,0,0,1,1.874-1.418,6.581,6.581,0,0,1,2.644-.514,5.3,5.3,0,0,1,3.537,1.115,3.975,3.975,0,0,1,1.354,3.134v5.7a6.456,6.456,0,0,0,.479,2.72V0Zm-3.117-2.043a3.227,3.227,0,0,0,1.582-.409,2.73,2.73,0,0,0,1.115-1.1V-5.93H156.09a4.181,4.181,0,0,0-2.37.549,1.777,1.777,0,0,0-.794,1.553,1.658,1.658,0,0,0,.543,1.3A2.1,2.1,0,0,0,154.923-2.043ZM162.9-6.409A7.509,7.509,0,0,1,164.25-11.1a4.339,4.339,0,0,1,3.63-1.768,4.122,4.122,0,0,1,3.245,1.4V-17.93h2.837V0h-2.568l-.14-1.307a4.181,4.181,0,0,1-3.4,1.541,4.314,4.314,0,0,1-3.59-1.786A7.784,7.784,0,0,1,162.9-6.409Zm2.837.245a5.257,5.257,0,0,0,.741,3.006,2.4,2.4,0,0,0,2.107,1.08,2.679,2.679,0,0,0,2.545-1.553V-9.023a2.638,2.638,0,0,0-2.521-1.518,2.423,2.423,0,0,0-2.125,1.091A5.855,5.855,0,0,0,165.732-6.163ZM184.468,0a4.378,4.378,0,0,1-.327-1.179A4.415,4.415,0,0,1,180.826.233,4.456,4.456,0,0,1,177.72-.852a3.473,3.473,0,0,1-1.2-2.685,3.586,3.586,0,0,1,1.5-3.1,7.269,7.269,0,0,1,4.29-1.08h1.739v-.829a2.212,2.212,0,0,0-.549-1.57,2.175,2.175,0,0,0-1.669-.589,2.5,2.5,0,0,0-1.588.484,1.5,1.5,0,0,0-.619,1.232h-2.837a3.148,3.148,0,0,1,.689-1.944,4.588,4.588,0,0,1,1.874-1.418,6.581,6.581,0,0,1,2.644-.514,5.3,5.3,0,0,1,3.537,1.115,3.975,3.975,0,0,1,1.354,3.134v5.7a6.456,6.456,0,0,0,.479,2.72V0Zm-3.117-2.043a3.227,3.227,0,0,0,1.582-.409,2.73,2.73,0,0,0,1.115-1.1V-5.93h-1.529a4.181,4.181,0,0,0-2.37.549,1.777,1.777,0,0,0-.794,1.553,1.658,1.658,0,0,0,.543,1.3A2.1,2.1,0,0,0,181.351-2.043Zm13.973-4.681a17.563,17.563,0,0,1-.712,5,14.172,14.172,0,0,1-2.16,4.389A8.457,8.457,0,0,1,189.429,5.4l-.56-1.576a8.971,8.971,0,0,0,2.772-4.138,18.382,18.382,0,0,0,1.021-6.356v-.268a18.653,18.653,0,0,0-.887-5.912,10.429,10.429,0,0,0-2.545-4.278l-.362-.327.56-1.588a8.369,8.369,0,0,1,2.895,2.568,13.934,13.934,0,0,1,2.148,4.126,17.189,17.189,0,0,1,.84,4.71Z" transform="translate(701.845 5252.434)"/>
    <g id="Grupo_237265" data-name="Grupo 237265" transform="translate(341 5194)" clip-path="url(#clip-path)">
      <path id="Trazado_231890" data-name="Trazado 231890" d="M632.385,32.2a1.439,1.439,0,0,1-1.439,1.439h-343.2a1.439,1.439,0,1,1,0-2.878h343.2a1.439,1.439,0,0,1,1.439,1.439" fill="#333"/>
      <path id="Trazado_231891" data-name="Trazado 231891" d="M281.8,33.641H275.25a1.439,1.439,0,1,1,0-2.878H281.8a1.439,1.439,0,1,1,0,2.878" fill="#333"/>
      <path id="Trazado_231892" data-name="Trazado 231892" d="M314.081,26.588h-6.554a1.439,1.439,0,0,1,0-2.878h6.554a1.439,1.439,0,0,1,0,2.878" fill="#333"/>
      <path id="Trazado_231893" data-name="Trazado 231893" d="M301.588,26.588h-6.554a1.439,1.439,0,0,1,0-2.878h6.554a1.439,1.439,0,0,1,0,2.878" fill="#333"/>
      <path id="Trazado_231894" data-name="Trazado 231894" d="M611.16,26.588h-6.554a1.439,1.439,0,1,1,0-2.878h6.554a1.439,1.439,0,1,1,0,2.878" fill="#333"/>
      <path id="Trazado_231895" data-name="Trazado 231895" d="M623.652,26.588H617.1a1.439,1.439,0,1,1,0-2.878h6.554a1.439,1.439,0,1,1,0,2.878" fill="#333"/>
      <path id="Trazado_231896" data-name="Trazado 231896" d="M643.437,33.641h-6.554a1.439,1.439,0,1,1,0-2.878h6.554a1.439,1.439,0,0,1,0,2.878" fill="#333"/>
    </g>
    <path id="Trazado_232023" data-name="Trazado 232023" d="M0,0H920V368.715H0Z" transform="translate(341 5194)" fill="none"/>
  </g>
</svg>
