<svg id="Grupo_235901" data-name="Grupo 235901" xmlns="http://www.w3.org/2000/svg" xmlns:xlink="http://www.w3.org/1999/xlink" width="75" height="75" viewBox="0 0 75 75">
  <defs>
    <clipPath id="clip-path">
      <rect id="Rectángulo_313027" data-name="Rectángulo 313027" width="75" height="75" fill="none"/>
    </clipPath>
  </defs>
  <g id="Grupo_235900" data-name="Grupo 235900" clip-path="url(#clip-path)">
    <path id="Trazado_228215" data-name="Trazado 228215" d="M70.161,26.5V19.973l-1.872-.65a12.324,12.324,0,0,0-.567-1.37l.861-1.776-4.637-4.613-1.785.857a11.94,11.94,0,0,0-1.373-.564l-.654-1.863H53.576l-.654,1.864a12.23,12.23,0,0,0-1.375.564l-1.783-.856-4.637,4.613.861,1.776a11.909,11.909,0,0,0-.567,1.37l-1.872.648V26.5l1.872.65a12.322,12.322,0,0,0,.567,1.37l-.861,1.776,4.637,4.613,1.783-.857a12.18,12.18,0,0,0,1.374.564l.655,1.864h6.558l.654-1.865a11.6,11.6,0,0,0,1.373-.565l1.784.858,4.637-4.613-.86-1.777a11.964,11.964,0,0,0,.566-1.369ZM56.855,28.051a4.816,4.816,0,1,1,4.839-4.815,4.828,4.828,0,0,1-4.839,4.815" fill="#f8a800"/>
    <rect id="Rectángulo_313019" data-name="Rectángulo 313019" width="2.419" height="4.815" transform="translate(44.758 61.758)" fill="#f8a800"/>
    <rect id="Rectángulo_313020" data-name="Rectángulo 313020" width="2.419" height="9.631" transform="translate(61.694 54.535)" fill="#f8a800"/>
    <path id="Trazado_228216" data-name="Trazado 228216" d="M56.855,29.256a6.02,6.02,0,1,0-6.048-6.02,6.04,6.04,0,0,0,6.048,6.02m0-9.631a3.612,3.612,0,1,1-3.629,3.611,3.624,3.624,0,0,1,3.629-3.611"/>
    <path id="Trazado_228217" data-name="Trazado 228217" d="M25.9,30.065l12.867-8A27.134,27.134,0,0,0,55.259,45.533l1.6.681,1.6-.68A27.141,27.141,0,0,0,75,20.557V6.383H73.56A25,25,0,0,1,57.629.642L56.855,0l-.774.642A25,25,0,0,1,40.149,6.383H38.71v6.108A4.008,4.008,0,0,0,37.4,13L25.266,20.425A10.906,10.906,0,0,1,20.5,21.967,8.446,8.446,0,1,0,6.048,16.013,8.4,8.4,0,0,0,9.31,22.645,13.271,13.271,0,0,0,0,35.274V44.9a6.04,6.04,0,0,0,6.048,6.019V70.185a4.839,4.839,0,0,0,9.678,0V49.72h7.258V60.554a4.753,4.753,0,0,0,.673,2.408H20.565v9.63h-2.42V75H71.371V72.592H68.952V48.516H54.436V72.592h-2.42V55.739H37.5V72.592H35.081v-9.63H31.989a4.753,4.753,0,0,0,.672-2.408V46.108a6.04,6.04,0,0,0-6.048-6.019H24.192l0-6.961a3.587,3.587,0,0,1,1.7-3.063M56.855,3.11A27.442,27.442,0,0,0,72.581,8.772V20.557A24.736,24.736,0,0,1,57.5,43.321l-.643.274-.643-.274a24.736,24.736,0,0,1-15.081-22.73l.52-.322a3.994,3.994,0,0,0,1.9-3.409v-.44a4.017,4.017,0,0,0-2.419-3.675V8.772A27.442,27.442,0,0,0,56.855,3.11M13.307,24.44h4.381L14.516,28.5l-3.041-3.892a10.947,10.947,0,0,1,1.832-.166M8.468,16.013a6.049,6.049,0,1,1,6.048,6.019,6.04,6.04,0,0,1-6.048-6.019M56.855,50.924h9.677V72.593H56.855ZM39.919,58.147H49.6V72.593H39.919ZM32.661,72.592H22.984V65.369h9.677ZM26.613,42.5a3.624,3.624,0,0,1,3.629,3.611V60.554a2.42,2.42,0,0,1-4.839,0V49.72a2.416,2.416,0,0,0-2.419-2.408H15.726V42.5H13.307V70.185a2.42,2.42,0,0,1-4.839,0V30.459H6.048V48.516A3.624,3.624,0,0,1,2.419,44.9V35.274a10.846,10.846,0,0,1,6.562-9.938l5.535,7.084,6.3-8.067a13.308,13.308,0,0,0,5.712-1.878l12.129-7.427a1.62,1.62,0,0,1,2.467,1.372v.44a1.6,1.6,0,0,1-.761,1.367l-15.751,9.8a5.973,5.973,0,0,0-2.843,5.1V42.5Z"/>
    <rect id="Rectángulo_313021" data-name="Rectángulo 313021" width="2.419" height="2.408" transform="translate(61.694 53.331)"/>
    <rect id="Rectángulo_313022" data-name="Rectángulo 313022" width="2.419" height="2.408" transform="translate(61.694 58.147)"/>
    <rect id="Rectángulo_313023" data-name="Rectángulo 313023" width="2.419" height="2.408" transform="translate(61.694 62.962)"/>
    <rect id="Rectángulo_313024" data-name="Rectángulo 313024" width="2.419" height="2.408" transform="translate(44.758 60.554)"/>
    <rect id="Rectángulo_313025" data-name="Rectángulo 313025" width="2.419" height="2.408" transform="translate(44.758 65.369)"/>
    <rect id="Rectángulo_313026" data-name="Rectángulo 313026" width="2.419" height="2.408" transform="translate(27.823 67.777)"/>
  </g>
</svg>
