<svg id="Grupo_235908" data-name="Grupo 235908" xmlns="http://www.w3.org/2000/svg" xmlns:xlink="http://www.w3.org/1999/xlink" width="75" height="75" viewBox="0 0 75 75">
  <defs>
    <clipPath id="clip-path">
      <rect id="Rectángulo_313037" data-name="Rectángulo 313037" width="75" height="75" fill="none"/>
    </clipPath>
  </defs>
  <path id="Trazado_228218" data-name="Trazado 228218" d="M14.17,49.6l-.864,12.1,2.419,2.419,2.42-2.419-.864-12.1Z" fill="#f8a800"/>
  <g id="Grupo_235907" data-name="Grupo 235907">
    <g id="Grupo_235906" data-name="Grupo 235906" clip-path="url(#clip-path)">
      <path id="Trazado_228219" data-name="Trazado 228219" d="M71.371,44.758H44.758a3.633,3.633,0,0,0-3.629,3.629V65.322a3.633,3.633,0,0,0,3.629,3.629H71.371A3.633,3.633,0,0,0,75,65.322V48.387a3.633,3.633,0,0,0-3.629-3.629M49.6,58.064a2.419,2.419,0,1,1,2.419-2.419A2.419,2.419,0,0,1,49.6,58.064M58.064,62.9a2.42,2.42,0,1,1,2.42-2.419,2.419,2.419,0,0,1-2.42,2.419m8.468-7.258a2.42,2.42,0,1,1,2.419-2.419,2.419,2.419,0,0,1-2.419,2.419" fill="#f8a800"/>
      <rect id="Rectángulo_313031" data-name="Rectángulo 313031" width="9.677" height="10.887" transform="translate(30.242 14.516)" fill="#f8a800"/>
      <path id="Trazado_228220" data-name="Trazado 228220" d="M66.532,49.6a3.609,3.609,0,0,0-3.378,4.931L59.861,57.35a3.535,3.535,0,0,0-4.151.394l-2.548-1.456a3.765,3.765,0,0,0,.064-.642,3.67,3.67,0,1,0-1.275,2.739L54.5,59.84a3.787,3.787,0,0,0-.064.643,3.629,3.629,0,0,0,7.258,0,3.59,3.59,0,0,0-.251-1.3l3.294-2.821a3.588,3.588,0,0,0,1.8.493,3.629,3.629,0,1,0,0-7.257M49.6,56.854a1.209,1.209,0,1,1,1.209-1.208A1.209,1.209,0,0,1,49.6,56.854m8.467,4.839a1.21,1.21,0,1,1,1.21-1.21,1.21,1.21,0,0,1-1.21,1.21m8.468-7.258a1.209,1.209,0,1,1,1.21-1.209,1.21,1.21,0,0,1-1.21,1.209"/>
      <path id="Trazado_228221" data-name="Trazado 228221" d="M15.726,9.677A2.422,2.422,0,0,1,18.145,12.1h2.42a4.834,4.834,0,0,0-3.629-4.667V4.838h-2.42v2.42H10.887V12.1a4.844,4.844,0,0,0,4.839,4.839,2.422,2.422,0,0,1,2.419,2.419v2.42H15.726a2.422,2.422,0,0,1-2.419-2.42h-2.42a4.833,4.833,0,0,0,3.629,4.667v2.591h2.42V24.193h3.629V19.354a4.844,4.844,0,0,0-4.839-4.838,2.422,2.422,0,0,1-2.419-2.42V9.677Z"/>
      <path id="Trazado_228222" data-name="Trazado 228222" d="M47.177,21.774H42.339V36.29H64.113V14.516H56.855v2.419H52.016v2.42H47.177Zm-2.419,2.42h2.419v9.677H44.758Zm14.516-7.259h2.419V33.87H59.274ZM56.855,33.871H54.436V19.355h2.419Zm-4.839,0H49.6v-12.1h2.419Z"/>
      <path id="Trazado_228223" data-name="Trazado 228223" d="M65.323,41.129A3.633,3.633,0,0,0,68.952,37.5V13.307a3.633,3.633,0,0,0-3.629-3.629H30.217a15.748,15.748,0,1,0-4.814,18.4V37.5a3.633,3.633,0,0,0,3.629,3.629h1.21v4.839a2.422,2.422,0,0,1-2.419,2.419H21.641a8.469,8.469,0,1,0-11.417.375A13.322,13.322,0,0,0,0,61.694V75H25.4V60.59a1.815,1.815,0,0,1,1.49-1.787l3.869-.7a9.671,9.671,0,0,0,7.948-9.52v-7.45Zm-49.6-12.1A13.307,13.307,0,1,1,27.686,9.944,3.629,3.629,0,0,0,25.4,13.307V24.814a13.292,13.292,0,0,1-9.677,4.219M9.678,42.339a6.048,6.048,0,1,1,6.048,6.048,6.055,6.055,0,0,1-6.048-6.048m26.613,6.24A7.256,7.256,0,0,1,30.33,55.72l-3.87.7a4.235,4.235,0,0,0-3.476,4.168V72.581H8.468V56.855H6.049V72.581H2.42V61.694A10.9,10.9,0,0,1,13.307,50.807H27.823a4.844,4.844,0,0,0,4.838-4.839V35.686a1.815,1.815,0,1,1,3.63,0ZM34.476,31.452a4.24,4.24,0,0,0-4.234,4.234V38.71h-1.21a1.21,1.21,0,0,1-1.209-1.21V13.307a1.21,1.21,0,0,1,1.209-1.21H65.323a1.209,1.209,0,0,1,1.209,1.21V37.5a1.209,1.209,0,0,1-1.209,1.21H38.71V35.686a4.24,4.24,0,0,0-4.234-4.234"/>
      <rect id="Rectángulo_313032" data-name="Rectángulo 313032" width="2.419" height="2.419" transform="translate(30.242 14.516)"/>
      <rect id="Rectángulo_313033" data-name="Rectángulo 313033" width="2.419" height="2.419" transform="translate(35.081 14.516)"/>
      <rect id="Rectángulo_313034" data-name="Rectángulo 313034" width="2.419" height="2.419" transform="translate(39.919 14.516)"/>
      <rect id="Rectángulo_313035" data-name="Rectángulo 313035" width="9.677" height="2.419" transform="translate(30.242 19.355)"/>
      <rect id="Rectángulo_313036" data-name="Rectángulo 313036" width="9.677" height="2.419" transform="translate(30.242 24.194)"/>
    </g>
  </g>
</svg>
