<svg xmlns="http://www.w3.org/2000/svg" xmlns:xlink="http://www.w3.org/1999/xlink" width="75" height="75" viewBox="0 0 75 75">
  <defs>
    <clipPath id="clip-path">
      <rect id="Rectángulo_313007" data-name="Rectángulo 313007" width="75" height="75" fill="none"/>
    </clipPath>
  </defs>
  <g id="Grupo_235905" data-name="Grupo 235905" transform="translate(-743 -2117)">
    <g id="Grupo_235879" data-name="Grupo 235879" transform="translate(743 2117)">
      <g id="Grupo_235878" data-name="Grupo 235878" clip-path="url(#clip-path)">
        <path id="Trazado_228177" data-name="Trazado 228177" d="M56.855,30.242v1.331a6.049,6.049,0,1,1-6.125,2.4L45.6,30.767a12.1,12.1,0,1,0,19.721-.525Z" fill="#f8a800"/>
        <path id="Trazado_228178" data-name="Trazado 228178" d="M29.288,27.2l-.258-.128a5.434,5.434,0,0,0-5.426-5.3H15.726a8.478,8.478,0,0,0-8.452,7.951l-.236.237a7.454,7.454,0,0,0-2.2,5.308,7.548,7.548,0,0,0,.383,2.373l.8,2.385.218,0A3.615,3.615,0,0,1,9.677,37.5h1.211v-.925a4.375,4.375,0,0,1,2.419-3.914,22.914,22.914,0,0,0,10.248,2.42h4.268V37.5h1.209a3.622,3.622,0,0,1,3.3,2.145l.659-1.317A8.3,8.3,0,0,0,29.288,27.2" fill="#f8a800"/>
        <path id="Trazado_228179" data-name="Trazado 228179" d="M22.091,21.774H23.6a5.35,5.35,0,0,1,.969.1,7.3,7.3,0,0,1,6.878-4.936,7.189,7.189,0,0,1,5.849,2.98,9.608,9.608,0,0,0-1.01,4.278h-8.18a5.384,5.384,0,0,1,.863,2.42H70.162v-2.42a9.683,9.683,0,0,0-5.68-8.8,6.048,6.048,0,1,0-7.984.01,9.74,9.74,0,0,0-3.268,2.417,9.71,9.71,0,0,0-3.265-2.427,6.048,6.048,0,1,0-7.994,0,9.707,9.707,0,0,0-3.266,2.427A9.74,9.74,0,0,0,35.437,15.4,6.047,6.047,0,1,0,27.46,15.4a9.726,9.726,0,0,0-5.369,6.378M60.484,7.258a3.629,3.629,0,1,1-3.629,3.629,3.633,3.633,0,0,1,3.629-3.629m0,9.677a7.265,7.265,0,0,1,7.258,7.258h-12.1a9.609,9.609,0,0,0-1.011-4.278,7.189,7.189,0,0,1,5.849-2.98M45.968,7.258a3.629,3.629,0,1,1-3.629,3.629,3.633,3.633,0,0,1,3.629-3.629m0,9.677a7.265,7.265,0,0,1,7.258,7.258H38.71a7.265,7.265,0,0,1,7.258-7.258M31.452,7.258a3.629,3.629,0,1,1-3.629,3.629,3.633,3.633,0,0,1,3.629-3.629"/>
        <path id="Trazado_228180" data-name="Trazado 228180" d="M75,6.049A6.055,6.055,0,0,0,68.951,0H22.984a6.055,6.055,0,0,0-6.049,6.048V21.775h2.42V6.049A3.633,3.633,0,0,1,22.984,2.42H68.951A3.633,3.633,0,0,1,72.58,6.049V25.4a3.633,3.633,0,0,1-3.629,3.63H55.645V34.41a.691.691,0,0,1-1.026.569L45.1,29.033H31.69a8.146,8.146,0,0,1,1.547,2.418h4.026a19.3,19.3,0,0,0,8.454,22.632L41.449,67.741H38.71V63.412a10,10,0,0,0-7.572-9.7l-6.006-1.5-.576-1.728a9.708,9.708,0,0,0,3.763-4.519h.713a4.838,4.838,0,1,0,0-9.676V33.87H23.555a21.8,21.8,0,0,1-9.708-2.292l-.541-.268-.541.271A5.54,5.54,0,0,0,9.7,36.291h-.02a4.838,4.838,0,1,0,0,9.676h.713a9.725,9.725,0,0,0,3.763,4.519l-.576,1.728-6,1.5A9.993,9.993,0,0,0,0,63.412V75H38.71V70.161H75v-2.42H69.841l-4.27-13.658A19.339,19.339,0,0,0,75,37.5a19.136,19.136,0,0,0-1.713-7.9A6.019,6.019,0,0,0,75,25.4ZM9.677,43.549a2.42,2.42,0,0,1,0-4.84v3.63a9.666,9.666,0,0,0,.084,1.21ZM15.651,57.11l-.74,3.7-2.576-5.794,1.648-.413Zm2.277.955h2.855L22.1,64.64l-2.743,6.171L16.611,64.64ZM23.8,60.813l-.74-3.7,1.668-2.5,1.647.41ZM31.451,41.13a2.422,2.422,0,0,1-2.419,2.419h-.083a9.86,9.86,0,0,0,.083-1.21v-3.63a2.423,2.423,0,0,1,2.419,2.421M12.1,42.339V36.576a3.15,3.15,0,0,1,1.275-2.541,24.228,24.228,0,0,0,10.183,2.256h3.058v6.048a7.258,7.258,0,0,1-14.516,0m7.258,9.678a9.661,9.661,0,0,0,3-.482l.5,1.513-1.732,2.6H17.583l-1.733-2.6.5-1.512a9.638,9.638,0,0,0,3,.483M2.419,63.412a7.577,7.577,0,0,1,5.74-7.349l1.794-.449,7.54,16.966H9.677V66.117A6.009,6.009,0,0,0,7.906,61.84l-1-1-1.71,1.71,1,1a3.6,3.6,0,0,1,1.063,2.567V72.58H2.419ZM36.29,72.58H31.451V66.117a3.6,3.6,0,0,1,1.063-2.567l1-1-1.71-1.71-1,1a6.009,6.009,0,0,0-1.771,4.277V72.58H21.216l7.541-16.966,1.794.449a7.574,7.574,0,0,1,5.739,7.349ZM54.975,37.5a3.094,3.094,0,0,0,3.089-3.09V33.319a4.855,4.855,0,1,1-6.889,2.361l2.162,1.35a3.082,3.082,0,0,0,1.638.47M47.9,55.223a19.238,19.238,0,0,0,3.182,1.065L47.5,67.741H43.984Zm9.921,1.5,3.442,11.015H50.032l3.442-11.015a18.475,18.475,0,0,0,4.342,0m9.49,11.015H63.792L60.213,56.288A19.27,19.27,0,0,0,63.4,55.223ZM55.645,54.435a16.9,16.9,0,0,1-15.8-22.984h4.567L49.1,34.382a7.259,7.259,0,1,0,10.524-2.931h9.327a6.015,6.015,0,0,0,2.305-.46A16.74,16.74,0,0,1,72.58,37.5,16.954,16.954,0,0,1,55.645,54.435"/>
      </g>
    </g>
  </g>
</svg>
