<svg id="Grupo_235910" data-name="Grupo 235910" xmlns="http://www.w3.org/2000/svg" xmlns:xlink="http://www.w3.org/1999/xlink" width="75" height="75" viewBox="0 0 75 75">
  <defs>
    <clipPath id="clip-path">
      <rect id="Rectángulo_313044" data-name="Rectángulo 313044" width="75" height="75" fill="none"/>
    </clipPath>
  </defs>
  <g id="Grupo_235909" data-name="Grupo 235909" clip-path="url(#clip-path)">
    <path id="Trazado_228224" data-name="Trazado 228224" d="M39.206,31.741H36.8a2.409,2.409,0,0,1-2.41-2.4v-2.4H31.977a2.409,2.409,0,0,1-2.41-2.4v-2.4a2.41,2.41,0,0,1,2.41-2.4h2.409v-2.4a2.409,2.409,0,0,1,2.41-2.4h2.41a2.409,2.409,0,0,1,2.41,2.4v2.4h2.41a2.41,2.41,0,0,1,2.409,2.4v2.4a2.409,2.409,0,0,1-2.409,2.4h-2.41v2.4a2.409,2.409,0,0,1-2.41,2.4" fill="#f8a800"/>
    <path id="Trazado_228225" data-name="Trazado 228225" d="M58.484,36.547V25.732a3.587,3.587,0,0,0-4.869-3.368,15.645,15.645,0,0,0-31.228,0,3.587,3.587,0,0,0-4.869,3.368V36.547a4.819,4.819,0,0,0-4.82,4.807V52.608a15.546,15.546,0,0,0,2.632,8.667l2.188,3.274V75H36.8V64.468l.629-1.254c.218-.435.4-.887.576-1.338.178.451.358.9.576,1.338l.629,1.254V75H58.484V64.549l2.188-3.274A15.541,15.541,0,0,0,63.3,52.608V41.354a4.819,4.819,0,0,0-4.82-4.807M54.87,24.53a1.2,1.2,0,0,1,1.2,1.2V37.215a4.788,4.788,0,0,0-2.409,4.139V25.732a1.2,1.2,0,0,1,1.2-1.2M44.026,47.362a1.2,1.2,0,0,1-1.205,1.2h-9.64a1.2,1.2,0,1,1,0-2.4h9.64a1.2,1.2,0,0,1,1.205,1.2M38,53.37a2.409,2.409,0,0,1-2.41-2.4h4.82A2.409,2.409,0,0,1,38,53.37M27.157,41.354h-2.41V31.148a21.468,21.468,0,0,0,2.41,2.888Zm2.41,0V36.383a8.962,8.962,0,0,1,2.218,2.848,3.618,3.618,0,0,0-2,2.123Zm13.254,0a1.2,1.2,0,1,1,0,2.4h-9.64a1.2,1.2,0,1,1,0-2.4Zm1.4-2.123a8.962,8.962,0,0,1,2.218-2.848v4.971h-.222a3.615,3.615,0,0,0-2-2.123m4.628-5.195a21.394,21.394,0,0,0,2.41-2.888V41.354h-2.41ZM38,10.111A13.251,13.251,0,0,1,51.255,23.329c0,5.118-3.016,8-5.676,10.536-1.7,1.619-3.3,3.17-3.792,5.085H34.216c-.495-1.916-2.1-3.466-3.791-5.085-2.662-2.54-5.678-5.418-5.678-10.536A13.251,13.251,0,0,1,38,10.111M19.928,25.732a1.2,1.2,0,0,1,2.409,0V41.354a4.788,4.788,0,0,0-2.409-4.139Zm0,39.655H34.387V72.6H19.928ZM35.27,62.14l-.423.843H19.368l-2.035-3.042a13.162,13.162,0,0,1-2.225-7.333V41.354a2.41,2.41,0,0,1,4.82,0v7.209a2.409,2.409,0,0,0,2.409,2.4h1.911a2.9,2.9,0,0,1,2.909,2.9v1.9h2.41v-1.9a5.313,5.313,0,0,0-5.319-5.305H22.337V43.757h7.452a3.555,3.555,0,0,0,.718,1.2,3.57,3.57,0,0,0-.94,2.4,3.613,3.613,0,0,0,3.614,3.6A4.805,4.805,0,0,0,36.8,55.6v.087a14.478,14.478,0,0,1-1.526,6.45m6.346,3.247H56.075V72.6H41.616ZM60.894,52.608a13.148,13.148,0,0,1-2.227,7.333l-2.032,3.042H41.155l-.422-.843a14.465,14.465,0,0,1-1.527-6.45V55.6a4.805,4.805,0,0,0,3.615-4.636,3.613,3.613,0,0,0,3.614-3.6,3.575,3.575,0,0,0-.94-2.4,3.572,3.572,0,0,0,.718-1.2h7.452v4.806H51.754a5.313,5.313,0,0,0-5.319,5.305v1.9h2.41v-1.9a2.9,2.9,0,0,1,2.909-2.9h1.911a2.409,2.409,0,0,0,2.409-2.4V41.354a2.41,2.41,0,0,1,4.82,0Z"/>
    <path id="Trazado_228226" data-name="Trazado 228226" d="M17.518,4.6V17.321h2.41V4.6l1.558,1.554,1.7-1.7L18.723,0,14.256,4.455l1.7,1.7Z"/>
    <path id="Trazado_228227" data-name="Trazado 228227" d="M0,16.471l1.7,1.7,2.763-2.755V34.144H6.876V15.415L9.639,18.17l1.7-1.7L5.671,10.815Z"/>
    <rect id="Rectángulo_313038" data-name="Rectángulo 313038" width="2.41" height="4.807" transform="translate(4.467 36.547)"/>
    <rect id="Rectángulo_313039" data-name="Rectángulo 313039" width="2.41" height="4.807" transform="translate(4.467 48.564)"/>
    <rect id="Rectángulo_313040" data-name="Rectángulo 313040" width="2.41" height="2.403" transform="translate(4.467 43.757)"/>
    <path id="Trazado_228228" data-name="Trazado 228228" d="M75,16.471l-5.671-5.656-5.672,5.656,1.7,1.7,2.763-2.755V34.144h2.409V15.415L73.3,18.17Z"/>
    <rect id="Rectángulo_313041" data-name="Rectángulo 313041" width="2.41" height="4.807" transform="translate(68.124 36.547)"/>
    <rect id="Rectángulo_313042" data-name="Rectángulo 313042" width="2.41" height="4.807" transform="translate(68.124 48.564)"/>
    <rect id="Rectángulo_313043" data-name="Rectángulo 313043" width="2.41" height="2.403" transform="translate(68.124 43.757)"/>
    <path id="Trazado_228229" data-name="Trazado 228229" d="M56.075,4.6V17.321h2.41V4.6l1.558,1.554,1.7-1.7L57.28,0,52.813,4.455l1.7,1.7Z"/>
  </g>
</svg>
