<svg id="Grupo_235912" data-name="Grupo 235912" xmlns="http://www.w3.org/2000/svg" xmlns:xlink="http://www.w3.org/1999/xlink" width="75" height="75" viewBox="0 0 75 75">
  <defs>
    <clipPath id="clip-path">
      <rect id="Rectángulo_313045" data-name="Rectángulo 313045" width="75" height="75" fill="none"/>
    </clipPath>
  </defs>
  <g id="Grupo_235911" data-name="Grupo 235911" clip-path="url(#clip-path)">
    <path id="Trazado_228230" data-name="Trazado 228230" d="M45.967,47.178A13.306,13.306,0,1,0,59.274,60.484,13.32,13.32,0,0,0,45.967,47.178M54.424,60.71a3.616,3.616,0,0,0-2.408,3.4,3.534,3.534,0,0,0,.422,1.633c.03.028.054.062.086.087-.011.013-.023.024-.034.038l0,.009a8.46,8.46,0,0,1-5.516,3.01c-.013,0-.024,0-.034.006a8.764,8.764,0,0,1-.977.056,8.468,8.468,0,1,1,8.468-8.468c0,.076-.009.15-.011.226" fill="#f8a800"/>
    <path id="Trazado_228231" data-name="Trazado 228231" d="M43.548,31.452V47.207l7.258.146v-15.9Z" fill="#f8a800"/>
    <path id="Trazado_228232" data-name="Trazado 228232" d="M53.226,26.613v21.52l7.258,1.432V26.613Z" fill="#f8a800"/>
    <path id="Trazado_228233" data-name="Trazado 228233" d="M62.9,21.774V51.739l7.258,3.08V21.774Z" fill="#f8a800"/>
    <path id="Trazado_228234" data-name="Trazado 228234" d="M45.967,50.807a9.677,9.677,0,1,0,7.458,15.844l.53-.64-.409-.725a2.388,2.388,0,0,1-.321-1.173,2.418,2.418,0,0,1,1.607-2.264l.747-.365.056-.785c.006-.071.01-.143.01-.215a9.689,9.689,0,0,0-9.678-9.677m0,4.838a2.419,2.419,0,1,1-4.838,0,2.369,2.369,0,0,1,.106-.653A7.233,7.233,0,0,1,44.4,53.4a2.408,2.408,0,0,1,1.572,2.243m4.839,8.468a4.653,4.653,0,0,0,.26,1.536A7.253,7.253,0,0,1,39.233,57.79a4.825,4.825,0,0,0,9.154-2.145,4.764,4.764,0,0,0-.526-2.162A7.276,7.276,0,0,1,53.2,59.952a4.837,4.837,0,0,0-2.394,4.161"/>
    <path id="Trazado_228235" data-name="Trazado 228235" d="M73.979,57.575l-.225-.232a39.657,39.657,0,0,0-49.561-4.871v-6.5a6.055,6.055,0,0,0-6.048-6.048h-2.42V26.612h7.187a8.508,8.508,0,0,0,5.2-1.782l7.667-5.964a4.4,4.4,0,0,0,1.644-2.838l6.126.766v2.56h9.677a2.424,2.424,0,0,0,2.42,2.421h2.419a2.423,2.423,0,0,0,2.419-2.421V2.42A2.422,2.422,0,0,0,58.064,0H55.645a2.422,2.422,0,0,0-2.42,2.419H43.548V4.98L24.193,7.4v6.975l1.891.236-4.391,3.294a1.221,1.221,0,0,1-.726.241H18.011a8.471,8.471,0,1,0-11.553.25A8.476,8.476,0,0,0,0,26.612V70.161a4.839,4.839,0,1,0,9.677,0V49.6h4.839l0,7.256a4.866,4.866,0,0,0,2.469,4.2,4.683,4.683,0,0,0,.972,2.337l.225.232a39.632,39.632,0,0,0,55.574,0l.226-.233a4.659,4.659,0,0,0,0-5.82M55.645,2.42h2.419l0,16.934H55.645ZM45.967,4.839h7.258v12.1H45.967Zm-19.355,7.4v-2.7L43.548,7.419v6.938l-6.432-.8a4.461,4.461,0,0,0-4.076-2.665h-.506a4.5,4.5,0,0,0-2.676.89l-.989.743ZM6.048,12.1A6.049,6.049,0,1,1,12.1,18.146,6.055,6.055,0,0,1,6.048,12.1m1.21,58.064a2.42,2.42,0,0,1-4.839,0V48.356A5.985,5.985,0,0,0,6.048,49.6h1.21Zm7.258-22.984H6.048a3.632,3.632,0,0,1-3.629-3.628V26.612a6.054,6.054,0,0,1,6.048-6.047h12.5a3.638,3.638,0,0,0,2.177-.726l8.165-6.124a2.055,2.055,0,0,1,1.226-.409h.505a2.041,2.041,0,0,1,1.253,3.651l-7.667,5.964a6.08,6.08,0,0,1-3.714,1.273H13.306V42.339h4.839a3.633,3.633,0,0,1,3.629,3.629v8.251a40.186,40.186,0,0,0-3.593,3.121l-.226.235a4.7,4.7,0,0,0-.492.773,2.4,2.4,0,0,1-.53-1.494l0-7.257a2.422,2.422,0,0,0-2.419-2.42M72.129,61.832l-.072.07a37.212,37.212,0,0,1-52.181,0l-.07-.069a2.235,2.235,0,0,1,0-2.695l.071-.07a37.211,37.211,0,0,1,52.182,0l.07.069a2.239,2.239,0,0,1,0,2.695"/>
  </g>
</svg>
