<svg xmlns="http://www.w3.org/2000/svg" xmlns:xlink="http://www.w3.org/1999/xlink" width="75" height="75" viewBox="0 0 75 75">
  <defs>
    <clipPath id="clip-path">
      <rect id="Rectángulo_313012" data-name="Rectángulo 313012" width="75" height="75" fill="none"/>
    </clipPath>
  </defs>
  <g id="Grupo_235886" data-name="Grupo 235886" transform="translate(4355 9285)">
    <g id="Grupo_235882" data-name="Grupo 235882" transform="translate(-4355 -9285)">
      <rect id="Rectángulo_313008" data-name="Rectángulo 313008" width="6.048" height="2.419" transform="translate(1.21 32.661)"/>
      <path id="Trazado_228181" data-name="Trazado 228181" d="M66.117,47.3l4.464,4.463-1.568,2.612.61,1.476,2.958.74v5.367l-2.358.589-.646.248-.564,1.379,1.568,2.611-3.795,3.8-2.611-1.567-1.476.6-.741,2.966H56.59L56,70.223l-.247-.646-1.38-.563-2.611,1.567-3.8-3.8,1.567-2.611-.6-1.476-2.963-.74v-5.41H43.549v7.3l2.922.73-1.55,2.584,6.467,6.467,2.584-1.551L54.7,75h9.149l.729-2.922,2.582,1.551,6.468-6.467-1.55-2.584L75,63.848V54.7l-2.922-.729,1.55-2.584-5.8-5.8Z"/>
      <g id="Grupo_235881" data-name="Grupo 235881">
        <g id="Grupo_235880" data-name="Grupo 235880" clip-path="url(#clip-path)">
          <path id="Trazado_228182" data-name="Trazado 228182" d="M59.274,67.742a8.472,8.472,0,0,1-7.8-11.774l2.228.945a6.05,6.05,0,1,0,7.475-3.375l.762-2.3a8.465,8.465,0,0,1-2.667,16.5"/>
          <rect id="Rectángulo_313009" data-name="Rectángulo 313009" width="4.839" height="2.419" transform="translate(64.113 4.839)" fill="#f8a800"/>
          <path id="Trazado_228183" data-name="Trazado 228183" d="M68.952,12.1H58.065V6.048A6.055,6.055,0,0,1,64.113,0h4.839a6.048,6.048,0,0,1,0,12.1M60.484,9.677h8.468a3.629,3.629,0,0,0,0-7.258H64.113a3.633,3.633,0,0,0-3.629,3.629Z"/>
          <rect id="Rectángulo_313010" data-name="Rectángulo 313010" width="2.419" height="2.419" transform="translate(62.903 4.839)"/>
          <rect id="Rectángulo_313011" data-name="Rectángulo 313011" width="2.419" height="2.419" transform="translate(67.742 4.839)"/>
          <path id="Trazado_228184" data-name="Trazado 228184" d="M48.387,12.1A23.009,23.009,0,0,0,25.4,35.081c0,.643.045,1.277.1,1.907a2.973,2.973,0,0,1,.67,3.881A22.973,22.973,0,1,0,48.387,12.1m0,39.919A16.935,16.935,0,1,1,65.322,35.081,16.954,16.954,0,0,1,48.387,52.016" fill="#f8a800"/>
          <path id="Trazado_228185" data-name="Trazado 228185" d="M31.953,56.855l3.1-3.1a23,23,0,0,1-1.9-1.517l-2.907,2.908-1.918-1.919,2.91-2.911a23.411,23.411,0,0,1-1.513-1.908l-3.108,3.109-1.21-1.21-2.419,2.419V43.549h.605a4.234,4.234,0,1,0,0-8.468h-.605V27.218A1.817,1.817,0,0,1,24.8,25.4h2.769a23.01,23.01,0,0,1,1.312-2.419H24.8a4.239,4.239,0,0,0-4.234,4.234v7.863H9.678a1.211,1.211,0,0,1-1.21-1.21V25.4H6.049v8.468A3.633,3.633,0,0,0,9.678,37.5H23.589a1.815,1.815,0,0,1,0,3.629H8.468a6.056,6.056,0,0,1-6.049-6.048V27.823a8.479,8.479,0,0,1,8.468-8.468h.935l-.984,10.129,3.678,3.678,3.679-3.678L17.21,19.355H31.672a22.769,22.769,0,0,1,2.661-2.419H20.9a9.673,9.673,0,1,0-12.432.282A10.9,10.9,0,0,0,0,27.823v7.258a8.48,8.48,0,0,0,6.049,8.111v26.97a4.818,4.818,0,0,0,8.467,3.166,4.819,4.819,0,0,0,8.468-3.166V68.243L33.162,58.065ZM15.676,28.581l-1.16,1.16-1.16-1.16.9-9.226h.527ZM7.258,9.678a7.258,7.258,0,1,1,7.258,7.258A7.265,7.265,0,0,1,7.258,9.678m10.887,62.9a2.422,2.422,0,0,1-2.419-2.419V48.387H13.307V70.162a2.419,2.419,0,0,1-4.839,0V43.549h12.1V70.162a2.422,2.422,0,0,1-2.42,2.419m4.839-7.759V56.146L25.4,53.727l4.338,4.338Z"/>
          <path id="Trazado_228186" data-name="Trazado 228186" d="M48.387,16.936A18.145,18.145,0,1,0,66.532,35.081,18.166,18.166,0,0,0,48.387,16.936m0,2.419A15.7,15.7,0,0,1,61.693,43.422V29.032H54.435v4.839H52.016v-12.1H44.758V38.71h-2.42V31.452H35.08v11.97A15.7,15.7,0,0,1,48.387,19.355M52.016,36.29h2.419v13.3a15.712,15.712,0,0,1-2.419.774ZM59.274,46.4a15.8,15.8,0,0,1-2.42,1.909V31.452h2.42ZM39.919,48.311A15.74,15.74,0,0,1,37.5,46.4V33.871h2.419Zm2.419-7.182h2.42v9.238a15.371,15.371,0,0,1-2.42-.774Zm4.839,9.616V24.194H49.6V50.745c-.4.032-.8.061-1.209.061s-.81-.029-1.21-.061"/>
        </g>
      </g>
    </g>
  </g>
</svg>
