<svg xmlns="http://www.w3.org/2000/svg" xmlns:xlink="http://www.w3.org/1999/xlink" width="110.59" height="65.82" viewBox="0 0 110.59 65.82">
  <defs>
    <linearGradient id="linear-gradient" y1="0.5" x2="1" y2="0.5" gradientUnits="objectBoundingBox">
      <stop offset="0" stop-color="#fb944b"/>
      <stop offset="1" stop-color="#c85a2b"/>
    </linearGradient>
    <linearGradient id="linear-gradient-2" x1="0.001" y1="0.5" x2="1" y2="0.5" gradientUnits="objectBoundingBox">
      <stop offset="0" stop-color="#fb944b"/>
      <stop offset="1" stop-color="#e57139"/>
    </linearGradient>
    <linearGradient id="linear-gradient-3" x1="0" y1="0.5" y2="0.5" xlink:href="#linear-gradient-2"/>
    <linearGradient id="linear-gradient-4" y1="0.5" x2="1" y2="0.5" gradientUnits="objectBoundingBox">
      <stop offset="0.25" stop-opacity="0.2"/>
      <stop offset="1" stop-opacity="0"/>
    </linearGradient>
    <linearGradient id="linear-gradient-5" x1="0.017" y1="0.201" x2="0.79" y2="0.994" xlink:href="#linear-gradient"/>
    <linearGradient id="linear-gradient-6" x1="0.374" y1="0.226" x2="0.808" y2="1.188" gradientUnits="objectBoundingBox">
      <stop offset="0" stop-color="#e57139"/>
      <stop offset="1" stop-color="#fb944b"/>
    </linearGradient>
  </defs>
  <g id="Objects" transform="translate(0)">
    <g id="Front_coin" data-name="Front coin" transform="translate(0)">
      <g id="Grupo_80377" data-name="Grupo 80377">
        <g id="Grupo_80374" data-name="Grupo 80374">
          <g id="Grupo_80372" data-name="Grupo 80372" transform="translate(0)">
            <path id="Trazado_113608" data-name="Trazado 113608" d="M53.831,5.331c-12.309-7.109-32.28-7.109-44.6,0C3.1,8.878.015,13.518,0,18.165c-.015,4.676,3.059,9.352,9.235,12.913,12.316,7.109,32.28,7.109,44.6,0,6.154-3.554,9.235-8.216,9.235-12.877S59.986,8.886,53.831,5.324Zm-42.5,24.538C.182,23.431.182,12.986,11.333,6.548s29.25-6.446,40.4,0,11.158,16.883,0,23.329-29.243,6.438-40.4,0Z" transform="translate(0)" fill="#ffc16b"/>
            <path id="Trazado_113609" data-name="Trazado 113609" d="M12.441,7.187c11.158-6.446,29.25-6.446,40.4,0S64,24.07,52.841,30.515s-29.243,6.438-40.4,0S1.29,13.625,12.441,7.187Z" transform="translate(-1.108 -0.639)" fill="#ffaf6d"/>
            <g id="Grupo_80371" data-name="Grupo 80371" transform="translate(6.189 3.582)">
              <path id="Trazado_113610" data-name="Trazado 113610" d="M16,35.373c-4.567-2.637-7.189-6.14-7.393-9.862-.007-.16.2-.291.481-.291s.5.117.51.277c.189,3.576,2.717,6.941,7.1,9.476a34.6,34.6,0,0,0,16.409,4.1c.269,0,.488.138.481.291s-.233.284-.51.277A36.048,36.048,0,0,1,16,35.373Z" transform="translate(-8.528 -10.433)" fill="#fbcd6b"/>
              <path id="Trazado_113611" data-name="Trazado 113611" d="M67.817,19.314a.26.26,0,0,1-.146-.189c-.189-3.576-2.717-6.948-7.1-9.476a34.6,34.6,0,0,0-16.409-4.1c-.277,0-.488-.138-.481-.291s.233-.284.51-.277A36.048,36.048,0,0,1,61.269,9.248c4.567,2.637,7.189,6.14,7.393,9.862.007.16-.2.291-.481.291a.791.791,0,0,1-.364-.08Z" transform="translate(-18.055 -4.934)" fill="#fbcd6b"/>
              <path id="Trazado_113612" data-name="Trazado 113612" d="M65.779,38.387,56.995,33.31c-.2-.109-.2-.291,0-.4a.787.787,0,0,1,.7,0l8.784,5.069a.217.217,0,0,1,0,.408A.787.787,0,0,1,65.779,38.387Z" transform="translate(-21.632 -12.5)" fill="#fbcd6b"/>
              <path id="Trazado_113613" data-name="Trazado 113613" d="M59.516,31.3a.253.253,0,0,1-.146-.2c0-.16.219-.284.5-.284h4.443l5.7,3.292c.2.109.2.291,0,.4a.787.787,0,0,1-.7,0L63.9,31.378H59.865a.709.709,0,0,1-.35-.08Z" transform="translate(-22.318 -11.952)" fill="#fbcd6b"/>
              <path id="Trazado_113614" data-name="Trazado 113614" d="M63.416,28.278a.253.253,0,0,1-.146-.2c0-.16.218-.284.5-.284h7.109l3.044,1.755a.212.212,0,0,1,0,.4.787.787,0,0,1-.7,0l-2.753-1.588h-6.7a.709.709,0,0,1-.35-.08Z" transform="translate(-23.377 -11.131)" fill="#fbcd6b"/>
              <path id="Trazado_113615" data-name="Trazado 113615" d="M59.063,40.43l-5.7-3.292V34.574c0-.16.219-.284.5-.284s.5.124.5.284V36.9l5.412,3.125a.212.212,0,0,1,0,.4.787.787,0,0,1-.7,0Z" transform="translate(-20.685 -12.897)" fill="#fbcd6b"/>
              <path id="Trazado_113616" data-name="Trazado 113616" d="M51.184,42.677,48.14,40.922V36.814c0-.16.218-.284.5-.284s.5.131.5.284v3.867l2.753,1.588c.2.109.2.291,0,.4a.787.787,0,0,1-.7,0Z" transform="translate(-19.267 -13.505)" fill="#fbcd6b"/>
              <path id="Trazado_113617" data-name="Trazado 113617" d="M25.259,14.987,16.475,9.91c-.2-.109-.2-.291,0-.4a.787.787,0,0,1,.7,0l8.784,5.077a.212.212,0,0,1,0,.4A.787.787,0,0,1,25.259,14.987Z" transform="translate(-10.625 -6.143)" fill="#fbcd6b"/>
              <path id="Trazado_113618" data-name="Trazado 113618" d="M29.954,13.309a.253.253,0,0,1-.146-.2V10.775L24.4,7.65a.212.212,0,0,1,0-.4.787.787,0,0,1,.7,0l5.7,3.292v2.564c0,.16-.219.284-.5.284a.638.638,0,0,1-.35-.087Z" transform="translate(-12.778 -5.529)" fill="#fbcd6b"/>
              <path id="Trazado_113619" data-name="Trazado 113619" d="M36.166,11.059a.253.253,0,0,1-.146-.2V6.988L33.267,5.4a.212.212,0,0,1,0-.4.787.787,0,0,1,.7,0l3.044,1.755v4.108c0,.16-.218.284-.5.284a.709.709,0,0,1-.35-.08Z" transform="translate(-15.188 -4.918)" fill="#fbcd6b"/>
              <path id="Trazado_113620" data-name="Trazado 113620" d="M18.258,17.782l-5.7-3.292c-.2-.109-.2-.291,0-.4a.787.787,0,0,1,.7,0l5.412,3.125H22.7c.277,0,.5.131.5.284s-.219.284-.5.284H18.258Z" transform="translate(-9.56 -7.387)" fill="#fbcd6b"/>
              <path id="Trazado_113621" data-name="Trazado 113621" d="M11.689,21.365,8.645,19.61c-.2-.109-.2-.291,0-.4a.787.787,0,0,1,.7,0L12.1,20.8h6.7c.277,0,.5.131.5.284s-.219.284-.5.284H11.689Z" transform="translate(-8.498 -8.778)" fill="#fbcd6b"/>
            </g>
            <path id="Trazado_113622" data-name="Trazado 113622" d="M12.022,30.679l-.109-.066a24.364,24.364,0,0,1-2.542-1.675l.787-.35a24.009,24.009,0,0,0,2.462,1.624l.109.066-.7.4Zm3.044,1.515.6-.459c1.027.444,2.127.852,3.263,1.216l-.481.5a34.891,34.891,0,0,1-3.379-1.26ZM7.149,27a15.847,15.847,0,0,1-1.733-2.1l.918-.211a14.692,14.692,0,0,0,1.675,2.025L7.149,27ZM22.095,34.43l.35-.532c1.209.262,2.454.481,3.715.648l-.219.554c-1.3-.175-2.6-.4-3.846-.67ZM4.207,22.689a10.618,10.618,0,0,1-.67-2.287l.983-.058a9.953,9.953,0,0,0,.648,2.214Zm25.7,12.775L30,34.9c1.289.066,2.6.08,3.882.044l.051.568c-1.333.036-2.688.029-4.02-.044ZM3.427,18.079a9.785,9.785,0,0,1,.437-2.309l.969.1A9.941,9.941,0,0,0,4.411,18.1l-.991-.022Zm34.5,17.152-.182-.561c1.275-.138,2.535-.335,3.758-.568l.32.539c-1.267.248-2.578.444-3.889.59ZM4.84,13.52a13.737,13.737,0,0,1,1.515-2.149l.889.248a13.1,13.1,0,0,0-1.457,2.076l-.94-.175ZM45.532,33.738l-.444-.51c1.151-.335,2.28-.721,3.336-1.143l.561.473c-1.1.437-2.265.838-3.46,1.187ZM8.365,9.361a22.248,22.248,0,0,1,2.476-1.828l.736.379A22.3,22.3,0,0,0,9.188,9.674l-.816-.32ZM52.124,31.109l-.67-.422c.291-.153.583-.313.859-.481.634-.364,1.245-.75,1.814-1.151l.765.364c-.59.408-1.216.808-1.879,1.187-.291.168-.59.335-.889.5ZM12.612,7.285l-.7-.4a30.957,30.957,0,0,1,3.03-1.522l.6.459a28.911,28.911,0,0,0-2.928,1.471Zm43.78,19.949a15.684,15.684,0,0,0,1.8-1.988l.9.226a16.8,16.8,0,0,1-1.865,2.054l-.838-.3ZM18.8,4.583l-.481-.5c1.165-.379,2.4-.706,3.642-.991l.357.532c-1.2.269-2.389.59-3.518.954ZM59.5,23.134a10.55,10.55,0,0,0,.787-2.192l.976.08a10.9,10.9,0,0,1-.816,2.272l-.954-.153ZM26.02,2.966l-.226-.554c1.3-.175,2.637-.3,3.969-.371l.095.568c-1.282.066-2.578.189-3.838.364ZM60.543,18.705a9.306,9.306,0,0,0-.277-2.236l.976-.08a9.646,9.646,0,0,1,.284,2.316h-.991ZM33.741,2.558l.044-.568c1.34.036,2.68.124,3.991.262l-.182.561c-1.267-.138-2.564-.219-3.86-.255ZM59.458,14.277a13.2,13.2,0,0,0-1.326-2.112l.9-.233a13.314,13.314,0,0,1,1.377,2.185ZM41.352,3.367l.313-.539c1.267.24,2.513.539,3.715.881l-.437.51C43.777,3.884,42.575,3.6,41.352,3.367ZM56.3,10.184a19.478,19.478,0,0,0-2.28-1.814l.757-.364a22.457,22.457,0,0,1,2.36,1.879ZM48.293,5.355l.561-.473a32.107,32.107,0,0,1,3.154,1.442l-.663.422A32.421,32.421,0,0,0,48.3,5.355Z" transform="translate(-0.929 -0.541)" fill="#ffc16b"/>
          </g>
          <path id="Trazado_113623" data-name="Trazado 113623" d="M53.831,37.853c-12.316,7.109-32.28,7.109-44.6,0C3.059,34.292-.015,29.616,0,24.94v7.1c-.015,4.676,3.059,9.352,9.235,12.913,12.316,7.109,32.28,7.109,44.6,0,6.154-3.554,9.235-8.216,9.235-12.877v-.044h0V24.976c0,4.661-3.081,9.323-9.235,12.877Z" transform="translate(0 -6.775)" fill="url(#linear-gradient)"/>
          <g id="Grupo_80373" data-name="Grupo 80373" transform="translate(13.001 5.739)">
            <path id="Trazado_113624" data-name="Trazado 113624" d="M56.611,12.649l.066-.044v-1.6l-1.457.838Z" transform="translate(-28.002 -8.73)" fill="#c85a2b"/>
            <path id="Trazado_113625" data-name="Trazado 113625" d="M20.938,26.937,17.85,25.16v1.6l1.7.983Z" transform="translate(-17.85 -12.574)" fill="#e57139"/>
            <path id="Trazado_113626" data-name="Trazado 113626" d="M45.271,10.754,44.04,10.04v1.42Z" transform="translate(-24.965 -8.467)" fill="#e57139"/>
            <path id="Trazado_113627" data-name="Trazado 113627" d="M61.4,15.536a3.944,3.944,0,0,1,.91,1.071l.626-.364v-1.6l-1.537.889Z" transform="translate(-29.681 -9.716)" fill="#c85a2b"/>
            <path id="Trazado_113628" data-name="Trazado 113628" d="M60.533,19.1l-.794,1.428.335.066A4.667,4.667,0,0,1,58.4,22.12a10.426,10.426,0,0,1-4.909,1.231,3.394,3.394,0,0,1,.218,1.58,10.361,10.361,0,0,0,4.69-1.216,3.574,3.574,0,0,0,2.119-3.044h.015V19.09Z" transform="translate(-27.532 -10.925)" fill="url(#linear-gradient-2)"/>
            <path id="Trazado_113629" data-name="Trazado 113629" d="M42.82,15.994l1.384.8,3.474-2.01v-1.6Z" transform="translate(-24.633 -9.323)" fill="#c85a2b"/>
            <path id="Trazado_113630" data-name="Trazado 113630" d="M54.581,16.122,49.49,13.18v1.6l5.091,2.942a2.234,2.234,0,0,1,.7.6c.554-.728.328-1.61-.7-2.2Z" transform="translate(-26.445 -9.32)" fill="#e57139"/>
            <path id="Trazado_113631" data-name="Trazado 113631" d="M47.026,28.162l.422.087a6.09,6.09,0,0,1-2.571,2.556c-3.6,2.076-9.264,2.243-13.2.5v1.6c3.933,1.741,9.6,1.573,13.2-.5,1.952-1.129,2.913-2.607,2.921-4.086h.007l.015-1.6-.794,1.442Z" transform="translate(-21.607 -12.998)" fill="url(#linear-gradient-3)"/>
            <path id="Trazado_113632" data-name="Trazado 113632" d="M26.35,32.36v1.6l2.36,1.362v-1.6Z" transform="translate(-20.159 -14.53)" fill="#e57139"/>
            <path id="Trazado_113633" data-name="Trazado 113633" d="M29.59,33.9v1.6l1.522-.874v-1.6Z" transform="translate(-21.039 -14.712)" fill="#c85a2b"/>
            <path id="Trazado_113634" data-name="Trazado 113634" d="M25.28,29.45v1.6l.845.488,1.384-.8Z" transform="translate(-19.868 -13.74)" fill="#e57139"/>
            <path id="Trazado_113635" data-name="Trazado 113635" d="M20.1,28.75v1.6l2.323,1.34v-1.6Z" transform="translate(-18.461 -13.55)" fill="#e57139"/>
            <path id="Trazado_113636" data-name="Trazado 113636" d="M23.29,30.28v1.6l1.449-.838v-1.6Z" transform="translate(-19.328 -13.74)" fill="#c85a2b"/>
            <path id="Trazado_113637" data-name="Trazado 113637" d="M27.07,24.25l1.384.8L35.8,20.812v-1.6Z" transform="translate(-20.355 -10.958)" fill="#c85a2b"/>
            <path id="Trazado_113638" data-name="Trazado 113638" d="M44.141,22.152,39.05,19.21v1.6l5.091,2.942a3.6,3.6,0,0,1,1.639,1.719c.459-1.158-.087-2.418-1.639-3.314Z" transform="translate(-23.609 -10.958)" fill="#e57139"/>
            <path id="Trazado_113639" data-name="Trazado 113639" d="M41.123,25.7c2.527-1.457,3.43-3.511,2.695-5.39a10.426,10.426,0,0,0,4.909-1.231c2.527-1.464,2.811-3.729.852-5.375l1.537-.889-2.36-1.362-1.449.838L45.078,11l1.449-.838L44.2,8.82l-1.449.838L39.666,7.88,36.928,9.46l1.231.714L21.829,19.6,20.6,18.885l-2.739,1.58,3.081,1.777-1.449.838,2.331,1.347,1.449-.838L25.5,24.879l-1.449.838,2.36,1.362,1.522-.874c3.933,1.741,9.6,1.573,13.2-.5ZM45.988,14.69c1.34.772,1.34,2.032,0,2.8a5.384,5.384,0,0,1-4.858,0l-5.091-2.935,4.858-2.8L45.988,14.7ZM29.659,24.115l-5.091-2.935,8.733-5.04,5.091,2.942c2.4,1.391,2.4,3.649,0,5.04a9.643,9.643,0,0,1-8.725,0Z" transform="translate(-17.853 -7.88)" fill="#fbcd6b"/>
          </g>
        </g>
        <path id="Trazado_113640" data-name="Trazado 113640" d="M124.244,40.645c-6.22-4.224-14.494-6.169-22.622-5.885H97.98v2.454a31.406,31.406,0,0,0-6.744,3.43c-11.581,7.924-11.515,20.758.138,28.682a31.607,31.607,0,0,0,6.6,3.365v2.564h6.184c7.349-.146,14.632-2.1,20.219-5.929,11.588-7.924,11.53-20.765-.138-28.682Z" transform="translate(-22.437 -9.436)" fill="url(#linear-gradient-4)"/>
        <g id="Grupo_80375" data-name="Grupo 80375" transform="translate(43.824 10.819)">
          <path id="Trazado_113641" data-name="Trazado 113641" d="M109.48,27.444l.291-.219c.554.612,1.1,1.26,1.6,1.908.226.291.444.583.663.874l-.335.168a29.767,29.767,0,0,1,1.865,2.921l.364-.117a26.9,26.9,0,0,1,1.493,3.1l-.386.066a25.042,25.042,0,0,1,1.042,3.132h.408a22.064,22.064,0,0,1,.6,3.183l-.415-.044a21.108,21.108,0,0,1,.138,3.1l.422.095a19.088,19.088,0,0,1-.328,3.037l-.415-.153a17.506,17.506,0,0,1-.772,2.819l.4.2a17.122,17.122,0,0,1-1.231,2.644l-.379-.248a16.075,16.075,0,0,1-1.624,2.331l.35.284a17.034,17.034,0,0,1-2.047,2.054l-.313-.32a17.935,17.935,0,0,1-2.353,1.668l.269.35-.1.058a19.893,19.893,0,0,1-2.6,1.253l-.226-.371a19.872,19.872,0,0,1-2.9.881l.175.386a22.224,22.224,0,0,1-3.154.466l-.124-.393a23.926,23.926,0,0,1-3.234.022l.066.393a26.717,26.717,0,0,1-3.365-.422v-.386a28.415,28.415,0,0,1-3.321-.838l-.051.371a32.762,32.762,0,0,1-3.321-1.267l.109-.35A32.226,32.226,0,0,1,83.6,58.442l-.16.32a30.791,30.791,0,0,1-3.023-2.025l.211-.284a32.8,32.8,0,0,1-2.739-2.309l-.262.248a33.843,33.843,0,0,1-2.484-2.622l.306-.2c-.291-.342-.583-.7-.859-1.056l-.32.182a31.672,31.672,0,0,1-2.017-2.921l.357-.138a28.027,28.027,0,0,1-1.6-3.023l-.379.08a24.942,24.942,0,0,1-1.194-3.168l.4-.029a23.52,23.52,0,0,1-.728-3.139l-.415-.029a22.555,22.555,0,0,1-.284-3.176l.422.08a19.765,19.765,0,0,1,.182-3.023l-.415-.131a19.184,19.184,0,0,1,.641-2.928l.408.182a17.347,17.347,0,0,1,1.071-2.673l-.386-.226a16.7,16.7,0,0,1,1.522-2.462l.357.269a16.224,16.224,0,0,1,1.894-2.119l-.328-.313A18.025,18.025,0,0,1,76.079,20l.284.342c.277-.182.561-.364.859-.532a18,18,0,0,1,1.712-.874l-.248-.364a19.654,19.654,0,0,1,2.884-1.027l.2.386a21.118,21.118,0,0,1,3.052-.59l-.138-.393a24.079,24.079,0,0,1,3.256-.153l.087.393a25.432,25.432,0,0,1,3.292.284l-.029-.393a26.671,26.671,0,0,1,3.379.728l-.029.379a31.21,31.21,0,0,1,3.285,1.122l.087-.364a33.045,33.045,0,0,1,3.248,1.544l-.146.335a32.573,32.573,0,0,1,3.023,1.879l.2-.306a33.041,33.041,0,0,1,2.862,2.258l-.248.262a31.6,31.6,0,0,1,2.542,2.5h0Zm3.474.779C103.435,15.98,86.713,11.3,75.591,17.757S63.166,39.382,72.685,51.625s26.242,16.927,37.364,10.459,12.418-21.624,2.906-33.86h0Z" transform="translate(-61.84 -14.854)" fill="#ffc16b"/>
          <path id="Trazado_113642" data-name="Trazado 113642" d="M108.379,64.636C97.257,71.1,80.527,66.413,71.015,54.177,63.1,43.988,62.676,31.788,69.158,24.25L65.516,28.2c-7.349,7.436-7.225,20.226,1.02,30.838C76.048,71.279,92.479,75.969,103.6,69.5a27.433,27.433,0,0,0,5.528-4.61l2.607-2.753a19.125,19.125,0,0,1-3.358,2.491Z" transform="translate(-60.17 -17.407)" fill="url(#linear-gradient-5)"/>
          <path id="Trazado_113643" data-name="Trazado 113643" d="M92.408,32.83a3.339,3.339,0,0,0-4.079-1.165l-4.589,2.658,3.795,4.88,4.581-2.666c1.2-.7,1.34-2.36.291-3.707Zm9.184,8.558c-1.879-2.418-5.171-3.365-7.334-2.1l-4.581,2.666,6.81,8.769,4.581-2.666c2.17-1.26,2.4-4.246.524-6.664Zm-25.441,9.65a.345.345,0,0,1,.044-.532l7.932-4.61a.481.481,0,0,1,.59.168.351.351,0,0,1-.051.532l-7.932,4.61a.484.484,0,0,1-.583-.16h0Zm-2.017-5.047a.345.345,0,0,1,.044-.532l5.149-2.993,3.729,1.042a.56.56,0,0,1,.284.2.438.438,0,0,1,.1.3.289.289,0,0,1-.146.233.374.374,0,0,1-.3.029l-3.387-.947-4.887,2.841a.484.484,0,0,1-.583-.16h0Zm6.657,8.565a.345.345,0,0,1,.044-.532l4.887-2.841.269-3.066a.324.324,0,0,1,.444-.262.56.56,0,0,1,.284.2.464.464,0,0,1,.1.3L86.53,51.73l-5.149,2.993a.484.484,0,0,1-.583-.16h0ZM72.167,40.412a.345.345,0,0,1,.044-.532l2.746-1.6,5.965,1.668a.529.529,0,0,1,.277.189.427.427,0,0,1,.1.3.32.32,0,0,1-.146.233.411.411,0,0,1-.3.029L75.234,39.13,72.75,40.572a.477.477,0,0,1-.583-.16h0ZM86.02,58.234a.338.338,0,0,1,.044-.524l2.484-1.442.444-5.091a.324.324,0,0,1,.444-.262.529.529,0,0,1,.277.189.464.464,0,0,1,.1.3l-.466,5.4L86.6,58.4a.478.478,0,0,1-.583-.168h0ZM96.37,35.656a11.1,11.1,0,0,1,7.684,4.3c2.811,3.613,2.709,8-.066,10.284l1.187,1.522L103.056,53l-1.129-1.457-2,1.165,1.129,1.457-2.1,1.216L97.827,53.93l-2.768,1.61-2.141-2.746,1.114-.648L81.293,35.75l-1.114.648-2.134-2.753,2.768-1.61-1.129-1.457,2.1-1.216,1.129,1.457,2-1.165L83.784,28.2l2.127-1.238,1.2,1.544c2.513-.808,5.8.35,7.771,2.891a6.568,6.568,0,0,1,1.493,4.261h0Zm-3.9,24.326a.445.445,0,0,1-.1-.291.319.319,0,0,1,.43-.269,18.961,18.961,0,0,0,14.217-1.544,14.124,14.124,0,0,0,7.014-10.8.339.339,0,0,1,.459-.248.553.553,0,0,1,.269.189.463.463,0,0,1,.1.313,14.735,14.735,0,0,1-7.305,11.238c-4.122,2.4-9.374,2.964-14.8,1.6a.538.538,0,0,1-.291-.2h0ZM72.743,34.592a.422.422,0,0,1-.095-.313,14.735,14.735,0,0,1,7.305-11.238c4.122-2.4,9.374-2.964,14.793-1.6a.556.556,0,0,1,.3.2.489.489,0,0,1,.1.291.3.3,0,0,1-.146.248.392.392,0,0,1-.291.029A18.943,18.943,0,0,0,80.5,23.74a14.137,14.137,0,0,0-7.014,10.8.335.335,0,0,1-.459.248.61.61,0,0,1-.277-.189h0ZM97.79,30.514a.389.389,0,0,1-.095-.3l.459-5.4,2.746-1.6a.481.481,0,0,1,.59.168.346.346,0,0,1-.051.532l-2.484,1.442-.43,5.091a.32.32,0,0,1-.146.233.411.411,0,0,1-.3.029.5.5,0,0,1-.284-.2h0ZM106.3,41.475a.42.42,0,0,1-.095-.3.324.324,0,0,1,.444-.262l5.615,1.573,2.484-1.442a.486.486,0,0,1,.59.16.345.345,0,0,1-.044.532l-2.746,1.6L106.6,41.657a.548.548,0,0,1-.284-.189h0Zm-5.521-7.91a.42.42,0,0,1-.095-.3l.291-3.372L106.13,26.9a.481.481,0,0,1,.59.168.351.351,0,0,1-.051.532l-4.887,2.841-.262,3.066a.289.289,0,0,1-.146.233.374.374,0,0,1-.3.029.52.52,0,0,1-.284-.189h0Zm3.387,4.355a.42.42,0,0,1-.095-.3.321.321,0,0,1,.444-.262l3.379.947,4.887-2.841a.481.481,0,0,1,.59.168.351.351,0,0,1-.051.532l-5.149,2.993-3.722-1.042a.52.52,0,0,1-.284-.189h0Zm-1.377-2.36a.345.345,0,0,1,.044-.532l7.932-4.61a.481.481,0,0,1,.59.168.351.351,0,0,1-.051.532l-7.932,4.61a.486.486,0,0,1-.59-.16h0Zm9.847-4.487-.32.168c-.211-.284-.422-.568-.634-.845-.5-.634-1.012-1.253-1.551-1.85l.284-.211a31.606,31.606,0,0,0-2.542-2.5l-.24.255a30.835,30.835,0,0,0-2.768-2.178l.2-.291a33.565,33.565,0,0,0-3.023-1.879l-.146.328a30.869,30.869,0,0,0-3.139-1.493l.087-.35a29.122,29.122,0,0,0-3.285-1.122l-.029.371a27.884,27.884,0,0,0-3.27-.7l-.029-.386a25.213,25.213,0,0,0-3.292-.284l.087.393a21.432,21.432,0,0,0-3.146.153l-.138-.393a21.508,21.508,0,0,0-3.052.59l.189.379a18.015,18.015,0,0,0-2.782.991l-.24-.364c-.583.262-1.151.554-1.712.874-.291.168-.583.35-.859.532l.277.335a17.315,17.315,0,0,0-2.214,1.748l-.32-.306a16.224,16.224,0,0,0-1.894,2.119l.357.269a16.663,16.663,0,0,0-1.479,2.382l-.379-.226a17.058,17.058,0,0,0-1.071,2.673l.4.182a17.975,17.975,0,0,0-.626,2.833l-.408-.131a19.709,19.709,0,0,0-.182,3.023l.415.08a22,22,0,0,0,.277,3.059l-.408-.029a24.705,24.705,0,0,0,.728,3.139l.393-.029a24.8,24.8,0,0,0,1.158,3.059l-.379.08a28.728,28.728,0,0,0,1.6,3.023l.35-.131a29.567,29.567,0,0,0,1.945,2.826l-.313.182c.277.357.568.714.859,1.056l.3-.2a31.59,31.59,0,0,0,2.4,2.535l-.262.248a32.8,32.8,0,0,0,2.739,2.309l.211-.284a32.238,32.238,0,0,0,2.913,1.952l-.16.32a32.223,32.223,0,0,0,3.146,1.631l.109-.35a31.137,31.137,0,0,0,3.2,1.224l-.051.371a28.671,28.671,0,0,0,3.314.838v-.386a25.932,25.932,0,0,0,3.241.408l.066.386a23.926,23.926,0,0,0,3.234-.022l-.124-.386a21.838,21.838,0,0,0,3.052-.444l.175.379a19.873,19.873,0,0,0,2.9-.881l-.226-.364a18.572,18.572,0,0,0,2.513-1.209l.1-.058.269.342a16.835,16.835,0,0,0,2.353-1.668l-.313-.32a15.849,15.849,0,0,0,1.974-1.981l.342.284a16.3,16.3,0,0,0,1.624-2.331l-.371-.24a16.986,16.986,0,0,0,1.187-2.556l.393.2A17.506,17.506,0,0,0,117.4,49.4l-.408-.146a19.563,19.563,0,0,0,.313-2.928l.415.095a21.2,21.2,0,0,0-.138-3.1l-.408-.044a24.476,24.476,0,0,0-.583-3.088h.4a24.752,24.752,0,0,0-1.042-3.139l-.379.066a26.381,26.381,0,0,0-1.449-3l.357-.117a31.191,31.191,0,0,0-1.865-2.921h0Z" transform="translate(-62.772 -15.739)" fill="#ffaf6d"/>
          <path id="Trazado_113644" data-name="Trazado 113644" d="M123.2,57.722a.553.553,0,0,0-.269-.189.335.335,0,0,0-.459.248,14.174,14.174,0,0,1-7.014,10.8,19,19,0,0,1-14.217,1.544.32.32,0,0,0-.43.269.489.489,0,0,0,.1.291.58.58,0,0,0,.291.2,19.784,19.784,0,0,0,14.8-1.6,14.735,14.735,0,0,0,7.305-11.238.429.429,0,0,0-.1-.313h0Z" transform="translate(-71.211 -26.443)" fill="#fbcd6b"/>
          <path id="Trazado_113645" data-name="Trazado 113645" d="M96.115,22.6a.53.53,0,0,0-.3-.2c-5.419-1.362-10.67-.794-14.793,1.6A14.735,14.735,0,0,0,73.719,35.24a.422.422,0,0,0,.095.313.542.542,0,0,0,.277.189.335.335,0,0,0,.459-.248,14.155,14.155,0,0,1,7.014-10.8,18.947,18.947,0,0,1,14.21-1.537.392.392,0,0,0,.291-.029.335.335,0,0,0,.146-.248.489.489,0,0,0-.1-.291h0Z" transform="translate(-63.85 -16.707)" fill="#fbcd6b"/>
          <path id="Trazado_113646" data-name="Trazado 113646" d="M123.647,35.151a.49.49,0,0,0-.59-.168l-7.932,4.61a.345.345,0,0,0-.044.532.482.482,0,0,0,.59.16l7.932-4.61a.351.351,0,0,0,.051-.532h0Z" transform="translate(-75.06 -20.31)" fill="#fbcd6b"/>
          <path id="Trazado_113647" data-name="Trazado 113647" d="M118.25,30.311a.49.49,0,0,0-.59-.168l-5.149,2.993-.291,3.372a.457.457,0,0,0,.095.3A.52.52,0,0,0,112.6,37a.347.347,0,0,0,.3-.029.289.289,0,0,0,.146-.233l.262-3.066,4.887-2.841a.351.351,0,0,0,.051-.532h0Z" transform="translate(-74.31 -18.996)" fill="#fbcd6b"/>
          <path id="Trazado_113648" data-name="Trazado 113648" d="M111.9,25.261a.49.49,0,0,0-.59-.168l-2.746,1.6-.459,5.4a.42.42,0,0,0,.095.3.608.608,0,0,0,.284.2.378.378,0,0,0,.3-.029.32.32,0,0,0,.146-.233l.43-5.091,2.484-1.442a.35.35,0,0,0,.051-.532h0Z" transform="translate(-73.193 -17.624)" fill="#fbcd6b"/>
          <path id="Trazado_113649" data-name="Trazado 113649" d="M126.181,42.081a.49.49,0,0,0-.59-.168L120.7,44.754l-3.379-.947a.319.319,0,0,0-.444.262.457.457,0,0,0,.095.3.52.52,0,0,0,.284.189L120.98,45.6l5.149-2.993a.351.351,0,0,0,.051-.532h0Z" transform="translate(-75.576 -22.193)" fill="#fbcd6b"/>
          <path id="Trazado_113650" data-name="Trazado 113650" d="M128.932,49.695a.484.484,0,0,0-.59-.16l-2.484,1.442L120.243,49.4c-.233-.066-.437.051-.444.262a.42.42,0,0,0,.095.3.52.52,0,0,0,.284.189l5.958,1.675,2.746-1.6a.345.345,0,0,0,.044-.532h0Z" transform="translate(-76.369 -24.235)" fill="#fbcd6b"/>
          <path id="Trazado_113651" data-name="Trazado 113651" d="M87.058,56.411a.49.49,0,0,0-.59-.168l-7.932,4.61a.35.35,0,0,0-.044.532.475.475,0,0,0,.583.16l7.932-4.61a.351.351,0,0,0,.051-.532h0Z" transform="translate(-65.121 -26.086)" fill="#fbcd6b"/>
          <path id="Trazado_113652" data-name="Trazado 113652" d="M84.929,52.778a.574.574,0,0,0-.284-.2L80.916,51.54l-5.149,2.993a.35.35,0,0,0-.044.532.475.475,0,0,0,.583.16l4.887-2.841,3.387.947a.347.347,0,0,0,.3-.029.289.289,0,0,0,.146-.233.464.464,0,0,0-.1-.3h0Z" transform="translate(-64.369 -24.82)" fill="#fbcd6b"/>
          <path id="Trazado_113653" data-name="Trazado 113653" d="M82.064,47.667a.559.559,0,0,0-.277-.189L75.822,45.81l-2.746,1.6a.35.35,0,0,0-.044.532.477.477,0,0,0,.583.16L76.1,46.655l5.623,1.573a.378.378,0,0,0,.3-.029.32.32,0,0,0,.146-.233.51.51,0,0,0-.1-.3h0Z" transform="translate(-63.638 -23.264)" fill="#fbcd6b"/>
          <path id="Trazado_113654" data-name="Trazado 113654" d="M90.8,59.14a.574.574,0,0,0-.284-.2c-.233-.066-.437.051-.444.262L89.8,62.272l-4.887,2.841a.35.35,0,0,0-.044.532.475.475,0,0,0,.583.16L90.6,62.811l.291-3.379a.464.464,0,0,0-.1-.3h0Z" transform="translate(-66.854 -26.827)" fill="#fbcd6b"/>
          <path id="Trazado_113655" data-name="Trazado 113655" d="M95.755,63.333a.529.529,0,0,0-.277-.189c-.233-.066-.437.051-.444.262L94.589,68.5l-2.484,1.442a.338.338,0,0,0-.044.524.48.48,0,0,0,.583.168l2.746-1.6.466-5.4a.438.438,0,0,0-.1-.3h0Z" transform="translate(-68.806 -27.968)" fill="#fbcd6b"/>
          <path id="Trazado_113656" data-name="Trazado 113656" d="M73.722,48.248l-.35.131-.357.138a31.675,31.675,0,0,0,2.017,2.921l.32-.182.313-.182a29.564,29.564,0,0,1-1.945-2.826Zm5.2,6.395a30.409,30.409,0,0,1-2.4-2.535l-.3.2-.306.2A33.84,33.84,0,0,0,78.4,55.138l.262-.248.262-.248ZM71,42.217l-.393.029-.4.029A25.8,25.8,0,0,0,71.4,45.443l.379-.08.379-.08A25.244,25.244,0,0,1,71,42.224h0ZM84.531,58.859a32.237,32.237,0,0,1-2.913-1.952l-.211.284-.211.284A31.687,31.687,0,0,0,84.217,59.5l.16-.32.16-.32h0ZM70.008,36.07l-.415-.08-.422-.08a22.653,22.653,0,0,0,.284,3.176l.415.029.408.029A22,22,0,0,1,70,36.084h0Zm20.83,25.616a29.908,29.908,0,0,1-3.2-1.224l-.109.35-.109.35a32.761,32.761,0,0,0,3.321,1.267l.051-.371.051-.371ZM70.809,30.265l-.4-.182L70,29.9a19.376,19.376,0,0,0-.641,2.928l.415.131.408.131a18.157,18.157,0,0,1,.626-2.833h0ZM97.342,62.916a27.683,27.683,0,0,1-3.248-.408v.386l.015.386a26.888,26.888,0,0,0,3.365.422l-.066-.393-.066-.386h0ZM73.336,25.254l-.357-.269-.357-.269A16.472,16.472,0,0,0,71.1,27.177l.386.226.379.226a16.035,16.035,0,0,1,1.479-2.382h0Zm30.241,37.2a22,22,0,0,1-3.052.444l.124.386.124.393a22.224,22.224,0,0,0,3.154-.466l-.175-.386-.175-.379h0ZM77.415,21.43l-.277-.335-.284-.342a17.527,17.527,0,0,0-2.294,1.806l.328.313.32.306a17.315,17.315,0,0,1,2.214-1.748h0Zm32.163,39.585-.269-.35-.269-.342-.1.058a17.743,17.743,0,0,1-2.513,1.209l.226.364.226.371a19.893,19.893,0,0,0,2.6-1.253l.1-.058h0ZM82.338,18.3a19.654,19.654,0,0,0-2.884,1.027l.248.364.24.364a18.014,18.014,0,0,1,2.782-.991l-.189-.379-.2-.386Zm31.683,38.973-.35-.284-.342-.284a15.849,15.849,0,0,1-1.974,1.981l.313.32.313.32a16.52,16.52,0,0,0,2.047-2.054h0ZM88.7,17.548a24.079,24.079,0,0,0-3.256.153l.138.393.138.393a22.542,22.542,0,0,1,3.146-.153l-.087-.393-.087-.393h0Zm28.208,34.7-.4-.2-.393-.2a16.986,16.986,0,0,1-1.187,2.556l.371.24.379.248a17.123,17.123,0,0,0,1.231-2.644h0ZM95.427,18.561a28,28,0,0,0-3.379-.728l.029.393.029.386a29.448,29.448,0,0,1,3.27.7l.029-.371.029-.379h0Zm22.586,27.779-.422-.095-.415-.095a19.361,19.361,0,0,1-.313,2.928l.408.146.415.153a20.724,20.724,0,0,0,.328-3.037Zm-15.994-25.1A33.044,33.044,0,0,0,98.77,19.7l-.087.364-.087.35a30.87,30.87,0,0,1,3.139,1.493l.146-.328.146-.335h0ZM117.262,40h-.408l-.4.015a24.476,24.476,0,0,1,.583,3.088l.408.044.415.044a23.411,23.411,0,0,0-.6-3.19h0Zm-9.3-14.6a34.189,34.189,0,0,0-2.862-2.258l-.2.306-.2.291a30.837,30.837,0,0,1,2.768,2.178l.24-.255.248-.262h0Zm6.752,8.3-.364.117-.357.117a26.384,26.384,0,0,1,1.449,3l.379-.066.386-.066a29.532,29.532,0,0,0-1.493-3.1Zm-2.556-3.853c-.51-.656-1.049-1.3-1.6-1.908l-.291.219-.284.211c.539.6,1.056,1.216,1.551,1.85.219.277.43.561.634.845l.32-.168.335-.168c-.219-.291-.437-.59-.663-.874h0Z" transform="translate(-62.615 -15.585)" fill="#fdbf6c"/>
        </g>
        <g id="Grupo_80376" data-name="Grupo 80376" transform="translate(59.083 20.903)">
          <path id="Trazado_113657" data-name="Trazado 113657" d="M90.674,38.065l3.263-1.894a3.337,3.337,0,0,1,4.079,1.165,2.841,2.841,0,0,1,.561,2.688l.189-.109c1.2-.7,1.34-2.36.291-3.707a3.339,3.339,0,0,0-4.079-1.165L90.39,37.7Z" transform="translate(-83.638 -30.338)" fill="url(#linear-gradient-6)"/>
          <path id="Trazado_113658" data-name="Trazado 113658" d="M91.18,31.867l-.852-1.093-.277-.364L89.01,31.539l.845,1.093Z" transform="translate(-83.263 -29.165)" fill="#e57139"/>
          <path id="Trazado_113659" data-name="Trazado 113659" d="M98.817,48.452l3.263-1.894c2.17-1.26,5.463-.313,7.334,2.1a4.885,4.885,0,0,1,.772,5.361c1.923-1.34,2.068-4.181.269-6.5-1.879-2.418-5.171-3.365-7.334-2.1L98.54,48.088l.284.364Z" transform="translate(-85.852 -33.091)" fill="#c85a2b"/>
          <path id="Trazado_113660" data-name="Trazado 113660" d="M85.548,35.137,84.412,33.68,83.37,34.816l.852,1.093Z" transform="translate(-81.731 -30.053)" fill="#e57139"/>
          <path id="Trazado_113661" data-name="Trazado 113661" d="M85.092,41.431,84.05,42.567h0l1.114-.648h0l1.042-1.129Z" transform="translate(-81.916 -31.984)" fill="#c85a2b"/>
          <path id="Trazado_113662" data-name="Trazado 113662" d="M84.3,40.646l-1.85-2.389-.007.007.007-.007-.277-.357L81.12,39.029l2.134,2.753L84.3,40.646Z" transform="translate(-81.12 -31.199)" fill="#e57139"/>
          <path id="Trazado_113663" data-name="Trazado 113663" d="M110.882,67.286l-1.042,1.136,2.1-1.224,1.042-1.129-1.318.765Z" transform="translate(-88.922 -38.852)" fill="#c85a2b"/>
          <path id="Trazado_113664" data-name="Trazado 113664" d="M110.46,67.2l-1.129-1.449-1.042,1.129,1.129,1.457h0L110.46,67.2Z" transform="translate(-88.501 -38.765)" fill="#e57139"/>
          <path id="Trazado_113665" data-name="Trazado 113665" d="M102.582,64.18,101.555,65.3l-.015.007,2.141,2.753,1.042-1.136Z" transform="translate(-86.667 -38.339)" fill="#e57139"/>
          <path id="Trazado_113666" data-name="Trazado 113666" d="M108.3,65.74l-2.775,1.61-1.042,1.136,2.775-1.61h0l1.042-1.129Z" transform="translate(-87.466 -38.762)" fill="#c85a2b"/>
          <path id="Trazado_113667" data-name="Trazado 113667" d="M112.6,63.641l.284.364.656-.386,1.034-1.129Z" transform="translate(-89.672 -37.88)" fill="#c85a2b"/>
          <path id="Trazado_113668" data-name="Trazado 113668" d="M116.522,64.008h0l-1.042,1.129h0L117.6,63.9l1.042-1.129Z" transform="translate(-90.454 -37.956)" fill="#c85a2b"/>
          <path id="Trazado_113669" data-name="Trazado 113669" d="M114.953,62.47l-.029.015-1.034,1.129.022-.015,1.136,1.457,1.042-1.129Z" transform="translate(-90.022 -37.874)" fill="#e57139"/>
          <path id="Trazado_113670" data-name="Trazado 113670" d="M86.622,40.79h0L85.58,41.919l12.5,16.089h0l.168-.182,1.114-.648Z" transform="translate(-82.332 -31.984)" fill="#e57139"/>
          <path id="Trazado_113671" data-name="Trazado 113671" d="M88.263,36.063l4.589-2.658A3.337,3.337,0,0,1,96.93,34.57c1.049,1.347.91,3.008-.291,3.707l-4.581,2.666-3.795-4.88h0ZM94.192,43.7l4.581-2.666c2.17-1.26,5.463-.313,7.334,2.1s1.646,5.4-.524,6.664L101,52.466,94.192,43.7h0Zm14.385-2a11.158,11.158,0,0,0-7.684-4.3A6.622,6.622,0,0,0,99.4,33.136c-1.974-2.535-5.266-3.7-7.771-2.891l-1.2-1.544L88.3,29.938l1.129,1.457-2,1.165L86.3,31.1,84.2,32.32l1.129,1.457-2.768,1.61,2.134,2.753,1.114-.648L98.547,53.886l-1.114.648,2.141,2.746,2.768-1.61,1.129,1.457,2.1-1.216-1.129-1.457,2-1.165,1.129,1.457,2.119-1.238L108.5,51.985c2.775-2.28,2.87-6.672.066-10.284h0Z" transform="translate(-81.511 -28.7)" fill="#fbcd6b"/>
        </g>
      </g>
    </g>
  </g>
</svg>
