<svg id="Objects" xmlns="http://www.w3.org/2000/svg" width="54.66" height="62.409" viewBox="0 0 54.66 62.409">
  <g id="Linear_blocks" data-name="Linear blocks" transform="translate(0)">
    <g id="Grupo_80380" data-name="Grupo 80380">
      <g id="Grupo_80378" data-name="Grupo 80378" transform="translate(2.27 2.27)">
        <path id="Trazado_113672" data-name="Trazado 113672" d="M27.94,31.81,2.88,17.345,27.932,2.88l25.06,14.465Z" transform="translate(-2.88 -2.88)" fill="none" stroke="#ffc16b" stroke-linecap="round" stroke-linejoin="round" stroke-width="1"/>
        <path id="Trazado_113673" data-name="Trazado 113673" d="M2.88,21.23V50.16L27.94,64.633,52.992,50.16V21.23" transform="translate(-2.88 -6.765)" fill="none" stroke="#ffc16b" stroke-linecap="round" stroke-linejoin="round" stroke-width="1"/>
        <line id="Línea_141" data-name="Línea 141" y2="28.938" transform="translate(25.06 28.93)" fill="none" stroke="#ffc16b" stroke-linecap="round" stroke-linejoin="round" stroke-width="1"/>
      </g>
      <g id="Grupo_80379" data-name="Grupo 80379">
        <path id="Trazado_113674" data-name="Trazado 113674" d="M31.79,2.27a2.27,2.27,0,1,1,2.27,2.27A2.271,2.271,0,0,1,31.79,2.27Z" transform="translate(-6.73)" fill="#ffc16b"/>
        <path id="Trazado_113675" data-name="Trazado 113675" d="M0,20.62a2.27,2.27,0,1,1,2.27,2.27A2.271,2.271,0,0,1,0,20.62Z" transform="translate(0 -3.885)" fill="#ffc16b"/>
        <circle id="Elipse_4711" data-name="Elipse 4711" cx="2.27" cy="2.27" r="2.27" transform="translate(0 43.395)" fill="#ffc16b"/>
        <path id="Trazado_113676" data-name="Trazado 113676" d="M31.79,75.68a2.27,2.27,0,1,1,2.27,2.27A2.271,2.271,0,0,1,31.79,75.68Z" transform="translate(-6.73 -15.541)" fill="#ffc16b"/>
        <path id="Trazado_113677" data-name="Trazado 113677" d="M31.79,38.97a2.27,2.27,0,1,1,2.27,2.27A2.271,2.271,0,0,1,31.79,38.97Z" transform="translate(-6.73 -7.77)" fill="#ffc16b"/>
        <path id="Trazado_113678" data-name="Trazado 113678" d="M63.58,20.62a2.27,2.27,0,1,1,2.27,2.27,2.271,2.271,0,0,1-2.27-2.27Z" transform="translate(-13.46 -3.885)" fill="#ffc16b"/>
        <path id="Trazado_113679" data-name="Trazado 113679" d="M63.58,57.32a2.27,2.27,0,1,1,2.27,2.27,2.271,2.271,0,0,1-2.27-2.27Z" transform="translate(-13.46 -11.655)" fill="#ffc16b"/>
      </g>
    </g>
  </g>
</svg>
