<svg xmlns="http://www.w3.org/2000/svg" width="240" height="240" viewBox="0 0 240 240">
  <g id="Grupo_238138" data-name="Grupo 238138" transform="translate(1421 8654)">
    <g id="Trazado_232942" data-name="Trazado 232942" transform="translate(-1383 -8616)" fill="#fff">
      <path d="M 82 162.75 C 76.52039337158203 162.75 71.04460906982422 162.1980285644531 65.72473907470703 161.1094360351562 C 60.54069519042969 160.0486297607422 55.44152069091797 158.4657440185547 50.56884765625 156.40478515625 C 45.78434753417969 154.381103515625 41.16958618164062 151.8762817382812 36.852783203125 148.9599151611328 C 32.57665252685547 146.0710144042969 28.55554389953613 142.7532806396484 24.90113067626953 139.098876953125 C 21.24671745300293 135.4444580078125 17.92897796630859 131.4233551025391 15.04008674621582 127.147216796875 C 12.12371730804443 122.8304138183594 9.618891716003418 118.2156524658203 7.595217227935791 113.43115234375 C 5.534260749816895 108.558479309082 3.951369524002075 103.4593048095703 2.890565156936646 98.27526092529297 C 1.801978230476379 92.95539093017578 1.25 87.47960662841797 1.25 82 C 1.25 76.52039337158203 1.801978230476379 71.04460906982422 2.890565156936646 65.72473907470703 C 3.951369524002075 60.54069519042969 5.534260749816895 55.44152069091797 7.595217227935791 50.56884765625 C 9.618891716003418 45.78434753417969 12.12371730804443 41.16958618164062 15.04008674621582 36.852783203125 C 17.92897796630859 32.57665252685547 21.24671745300293 28.55554389953613 24.90113067626953 24.90113067626953 C 28.55554389953613 21.24671745300293 32.57665252685547 17.92897796630859 36.852783203125 15.04008674621582 C 41.16958618164062 12.12371730804443 45.78434753417969 9.618891716003418 50.56884765625 7.595217227935791 C 55.44152069091797 5.534260749816895 60.54069519042969 3.951369524002075 65.72473907470703 2.890565156936646 C 71.04460906982422 1.801978230476379 76.52039337158203 1.25 82 1.25 C 87.47960662841797 1.25 92.95539093017578 1.801978230476379 98.27526092529297 2.890565156936646 C 103.4593048095703 3.951369524002075 108.558479309082 5.534260749816895 113.43115234375 7.595217227935791 C 118.2156524658203 9.618891716003418 122.8304138183594 12.12371730804443 127.147216796875 15.04008674621582 C 131.4233551025391 17.92897796630859 135.4444580078125 21.24671745300293 139.098876953125 24.90113067626953 C 142.7532806396484 28.55554389953613 146.0710144042969 32.57665252685547 148.9599151611328 36.852783203125 C 151.8762817382812 41.16958618164062 154.381103515625 45.78434753417969 156.40478515625 50.56884765625 C 158.4657440185547 55.44152069091797 160.0486297607422 60.54069519042969 161.1094360351562 65.72473907470703 C 162.1980285644531 71.04460906982422 162.75 76.52039337158203 162.75 82 C 162.75 87.47960662841797 162.1980285644531 92.95539093017578 161.1094360351562 98.27526092529297 C 160.0486297607422 103.4593048095703 158.4657440185547 108.558479309082 156.40478515625 113.43115234375 C 154.381103515625 118.2156524658203 151.8762817382812 122.8304138183594 148.9599151611328 127.147216796875 C 146.0710144042969 131.4233551025391 142.7532806396484 135.4444580078125 139.098876953125 139.098876953125 C 135.4444580078125 142.7532806396484 131.4233551025391 146.0710144042969 127.147216796875 148.9599151611328 C 122.8304138183594 151.8762817382812 118.2156524658203 154.381103515625 113.43115234375 156.40478515625 C 108.558479309082 158.4657440185547 103.4593048095703 160.0486297607422 98.27526092529297 161.1094360351562 C 92.95539093017578 162.1980285644531 87.47960662841797 162.75 82 162.75 Z" stroke="none"/>
      <path d="M 82 2.5 C 76.60438537597656 2.5 71.21290588378906 3.043426513671875 65.97531890869141 4.115203857421875 C 60.87211608886719 5.159454345703125 55.85245513916016 6.717666625976562 51.05577087402344 8.746475219726562 C 46.34561157226562 10.73870849609375 41.80245208740234 13.20466613769531 37.55252075195312 16.07586669921875 C 33.34234619140625 18.92022705078125 29.38316345214844 22.18684387207031 25.78500366210938 25.78500366210938 C 22.18684387207031 29.38316345214844 18.92022705078125 33.34234619140625 16.07586669921875 37.55252075195312 C 13.20466613769531 41.80245208740234 10.73870849609375 46.34561157226562 8.746475219726562 51.05577087402344 C 6.717666625976562 55.85245513916016 5.159454345703125 60.87211608886719 4.115203857421875 65.97531890869141 C 3.043426513671875 71.21290588378906 2.5 76.60438537597656 2.5 82 C 2.5 87.39561462402344 3.043426513671875 92.78709411621094 4.115203857421875 98.024658203125 C 5.159454345703125 103.1278686523438 6.717666625976562 108.1475219726562 8.746475219726562 112.9442291259766 C 10.73870849609375 117.6543884277344 13.20466613769531 122.1975250244141 16.07586669921875 126.4474563598633 C 18.92022705078125 130.6576538085938 22.18684387207031 134.6168212890625 25.78500366210938 138.2149810791016 C 29.38316345214844 141.8131408691406 33.34234619140625 145.0797729492188 37.55252075195312 147.9241333007812 C 41.80245208740234 150.7953186035156 46.34561157226562 153.2612915039062 51.05577087402344 155.2535247802734 C 55.85245513916016 157.2823486328125 60.87211608886719 158.8405456542969 65.97531890869141 159.8847961425781 C 71.21290588378906 160.9565734863281 76.60438537597656 161.5 82 161.5 C 87.39561462402344 161.5 92.78709411621094 160.9565734863281 98.024658203125 159.8847961425781 C 103.1278686523438 158.8405456542969 108.1475219726562 157.2823486328125 112.9442291259766 155.2535247802734 C 117.6543884277344 153.2612915039062 122.1975250244141 150.7953186035156 126.4474563598633 147.9241333007812 C 130.6576538085938 145.0797729492188 134.6168212890625 141.8131408691406 138.2149810791016 138.2149810791016 C 141.8131408691406 134.6168212890625 145.0797729492188 130.6576538085938 147.9241333007812 126.4474563598633 C 150.7953186035156 122.1975250244141 153.2612915039062 117.6543884277344 155.2535247802734 112.9442291259766 C 157.2823486328125 108.1475219726562 158.8405456542969 103.1278686523438 159.8847961425781 98.024658203125 C 160.9565734863281 92.78709411621094 161.5 87.39561462402344 161.5 82 C 161.5 76.60438537597656 160.9565734863281 71.21290588378906 159.8847961425781 65.97531890869141 C 158.8405456542969 60.87211608886719 157.2823486328125 55.85245513916016 155.2535247802734 51.05577087402344 C 153.2612915039062 46.34561157226562 150.7953186035156 41.80245208740234 147.9241333007812 37.55252075195312 C 145.0797729492188 33.34234619140625 141.8131408691406 29.38316345214844 138.2149810791016 25.78500366210938 C 134.6168212890625 22.18684387207031 130.6576538085938 18.92022705078125 126.4474563598633 16.07586669921875 C 122.1975250244141 13.20466613769531 117.6543884277344 10.73870849609375 112.9442291259766 8.746475219726562 C 108.1475219726562 6.717666625976562 103.1278686523438 5.159454345703125 98.024658203125 4.115203857421875 C 92.78709411621094 3.043426513671875 87.39561462402344 2.5 82 2.5 M 82 0 C 127.2873382568359 0 164 36.71263885498047 164 82 C 164 127.2873382568359 127.2873382568359 164 82 164 C 36.71263885498047 164 0 127.2873382568359 0 82 C 0 36.71263885498047 36.71263885498047 0 82 0 Z" stroke="none" fill="#f8a800"/>
    </g>
    <g id="Trazado_232943" data-name="Trazado 232943" transform="translate(-1350 -8654)" fill="#fff">
      <path d="M 49.5 96.75 C 42.98417282104492 96.75 36.66402816772461 95.48708343505859 30.71512031555176 92.99632263183594 C 24.96934700012207 90.59061431884766 19.80906677246094 87.14657592773438 15.37759971618652 82.75986480712891 C 10.94701290130615 78.37403869628906 7.468746662139893 73.26741027832031 5.039426803588867 67.58186340332031 C 2.524946689605713 61.69702529907227 1.25 55.44517517089844 1.25 49 C 1.25 42.55482482910156 2.524946689605713 36.30297470092773 5.039426803588867 30.41813278198242 C 7.468746662139893 24.73258590698242 10.94701290130615 19.6259593963623 15.37759971618652 15.24013328552246 C 19.80906677246094 10.85342693328857 24.96934700012207 7.40938663482666 30.71512031555176 5.003680229187012 C 36.66402816772461 2.512919902801514 42.98417282104492 1.25 49.5 1.25 C 56.01582717895508 1.25 62.33597183227539 2.512919902801514 68.28488159179688 5.003680229187012 C 74.03065490722656 7.40938663482666 79.19093322753906 10.85342693328857 83.62239837646484 15.24013328552246 C 88.05298614501953 19.6259593963623 91.53125 24.73258590698242 93.9605712890625 30.41813278198242 C 96.47505187988281 36.30297470092773 97.75 42.55482482910156 97.75 49 C 97.75 55.44517517089844 96.47505187988281 61.69702529907227 93.9605712890625 67.58186340332031 C 91.53125 73.26741027832031 88.05298614501953 78.37403869628906 83.62239837646484 82.75986480712891 C 79.19093322753906 87.14657592773438 74.03065490722656 90.59061431884766 68.28488159179688 92.99632263183594 C 62.33597183227539 95.48708343505859 56.01582717895508 96.75 49.5 96.75 Z" stroke="none"/>
      <path d="M 49.5 2.5 C 43.15079879760742 2.5 36.99309158325195 3.730293273925781 31.1978759765625 6.156692504882812 C 25.60076904296875 8.500167846679688 20.57392120361328 11.85515594482422 16.25698089599609 16.12849426269531 C 11.94181823730469 20.40007781982422 8.554412841796875 25.373046875 6.188888549804688 30.90927886962891 C 3.741119384765625 36.63800048828125 2.5 42.72460174560547 2.5 49 C 2.5 55.27539825439453 3.741119384765625 61.36199951171875 6.188888549804688 67.09072113037109 C 8.554412841796875 72.626953125 11.94181823730469 77.59992218017578 16.25698089599609 81.87150573730469 C 20.57392120361328 86.14484405517578 25.60076904296875 89.49983215332031 31.1978759765625 91.84330749511719 C 36.99309158325195 94.26970672607422 43.15079879760742 95.5 49.5 95.5 C 55.84920120239258 95.5 62.00690841674805 94.26970672607422 67.8021240234375 91.84330749511719 C 73.39923095703125 89.49983215332031 78.42607879638672 86.14484405517578 82.74301147460938 81.87150573730469 C 87.05818176269531 77.59992218017578 90.44558715820312 72.626953125 92.81111145019531 67.09072113037109 C 95.25888061523438 61.36199951171875 96.5 55.27539825439453 96.5 49 C 96.5 42.72460174560547 95.25888061523438 36.63800048828125 92.81111145019531 30.90927886962891 C 90.44558715820312 25.373046875 87.05818176269531 20.40007781982422 82.74301147460938 16.12849426269531 C 78.42607879638672 11.85515594482422 73.39923095703125 8.500167846679688 67.8021240234375 6.156692504882812 C 62.00690841674805 3.730293273925781 55.84920120239258 2.5 49.5 2.5 M 49.5 0 C 76.83808898925781 0 99 21.93804931640625 99 49 C 99 76.06195068359375 76.83808898925781 98 49.5 98 C 22.16191101074219 98 0 76.06195068359375 0 49 C 0 21.93804931640625 22.16191101074219 0 49.5 0 Z" stroke="none" fill="#8628a5"/>
    </g>
    <g id="Trazado_232944" data-name="Trazado 232944" transform="translate(-1350 -8512)" fill="#fff">
      <path d="M 49.5 96.75 C 42.98417282104492 96.75 36.66402816772461 95.48708343505859 30.71512031555176 92.99632263183594 C 24.96934700012207 90.59061431884766 19.80906677246094 87.14657592773438 15.37759971618652 82.75986480712891 C 10.94701290130615 78.37403869628906 7.468746662139893 73.26741027832031 5.039426803588867 67.58186340332031 C 2.524946689605713 61.69702529907227 1.25 55.44517517089844 1.25 49 C 1.25 42.55482482910156 2.524946689605713 36.30297470092773 5.039426803588867 30.41813278198242 C 7.468746662139893 24.73258590698242 10.94701290130615 19.6259593963623 15.37759971618652 15.24013328552246 C 19.80906677246094 10.85342693328857 24.96934700012207 7.40938663482666 30.71512031555176 5.003680229187012 C 36.66402816772461 2.512919902801514 42.98417282104492 1.25 49.5 1.25 C 56.01582717895508 1.25 62.33597183227539 2.512919902801514 68.28488159179688 5.003680229187012 C 74.03065490722656 7.40938663482666 79.19093322753906 10.85342693328857 83.62239837646484 15.24013328552246 C 88.05298614501953 19.6259593963623 91.53125 24.73258590698242 93.9605712890625 30.41813278198242 C 96.47505187988281 36.30297470092773 97.75 42.55482482910156 97.75 49 C 97.75 55.44517517089844 96.47505187988281 61.69702529907227 93.9605712890625 67.58186340332031 C 91.53125 73.26741027832031 88.05298614501953 78.37403869628906 83.62239837646484 82.75986480712891 C 79.19093322753906 87.14657592773438 74.03065490722656 90.59061431884766 68.28488159179688 92.99632263183594 C 62.33597183227539 95.48708343505859 56.01582717895508 96.75 49.5 96.75 Z" stroke="none"/>
      <path d="M 49.5 2.5 C 43.15079879760742 2.5 36.99309158325195 3.730293273925781 31.1978759765625 6.156692504882812 C 25.60076904296875 8.500167846679688 20.57392120361328 11.85515594482422 16.25698089599609 16.12849426269531 C 11.94181823730469 20.40007781982422 8.554412841796875 25.373046875 6.188888549804688 30.90927886962891 C 3.741119384765625 36.63800048828125 2.5 42.72460174560547 2.5 49 C 2.5 55.27539825439453 3.741119384765625 61.36199951171875 6.188888549804688 67.09072113037109 C 8.554412841796875 72.626953125 11.94181823730469 77.59992218017578 16.25698089599609 81.87150573730469 C 20.57392120361328 86.14484405517578 25.60076904296875 89.49983215332031 31.1978759765625 91.84330749511719 C 36.99309158325195 94.26970672607422 43.15079879760742 95.5 49.5 95.5 C 55.84920120239258 95.5 62.00690841674805 94.26970672607422 67.8021240234375 91.84330749511719 C 73.39923095703125 89.49983215332031 78.42607879638672 86.14484405517578 82.74301147460938 81.87150573730469 C 87.05818176269531 77.59992218017578 90.44558715820312 72.626953125 92.81111145019531 67.09072113037109 C 95.25888061523438 61.36199951171875 96.5 55.27539825439453 96.5 49 C 96.5 42.72460174560547 95.25888061523438 36.63800048828125 92.81111145019531 30.90927886962891 C 90.44558715820312 25.373046875 87.05818176269531 20.40007781982422 82.74301147460938 16.12849426269531 C 78.42607879638672 11.85515594482422 73.39923095703125 8.500167846679688 67.8021240234375 6.156692504882812 C 62.00690841674805 3.730293273925781 55.84920120239258 2.5 49.5 2.5 M 49.5 0 C 76.83808898925781 0 99 21.93804931640625 99 49 C 99 76.06195068359375 76.83808898925781 98 49.5 98 C 22.16191101074219 98 0 76.06195068359375 0 49 C 0 21.93804931640625 22.16191101074219 0 49.5 0 Z" stroke="none" fill="#8628a5"/>
    </g>
    <g id="Trazado_232945" data-name="Trazado 232945" transform="translate(-1421 -8583)" fill="#fff">
      <path d="M 49 97.75 C 42.55482482910156 97.75 36.30297470092773 96.47505187988281 30.41813278198242 93.9605712890625 C 24.73258590698242 91.53125 19.6259593963623 88.05298614501953 15.24013328552246 83.62239837646484 C 10.85342693328857 79.19093322753906 7.40938663482666 74.03065490722656 5.003680229187012 68.28488159179688 C 2.512919902801514 62.33597183227539 1.25 56.01582717895508 1.25 49.5 C 1.25 42.98417282104492 2.512919902801514 36.66402816772461 5.003680229187012 30.71512031555176 C 7.40938663482666 24.96934700012207 10.85342693328857 19.80906677246094 15.24013328552246 15.37759971618652 C 19.6259593963623 10.94701290130615 24.73258590698242 7.468746662139893 30.41813278198242 5.039426803588867 C 36.30297470092773 2.524946689605713 42.55482482910156 1.25 49 1.25 C 55.44517517089844 1.25 61.69702529907227 2.524946689605713 67.58186340332031 5.039426803588867 C 73.26741027832031 7.468746662139893 78.37403869628906 10.94701290130615 82.75986480712891 15.37759971618652 C 87.14657592773438 19.80906677246094 90.59061431884766 24.96934700012207 92.99632263183594 30.71512031555176 C 95.48708343505859 36.66402816772461 96.75 42.98417282104492 96.75 49.5 C 96.75 56.01582717895508 95.48708343505859 62.33597183227539 92.99632263183594 68.28488159179688 C 90.59061431884766 74.03065490722656 87.14657592773438 79.19093322753906 82.75986480712891 83.62239837646484 C 78.37403869628906 88.05298614501953 73.26741027832031 91.53125 67.58186340332031 93.9605712890625 C 61.69702529907227 96.47505187988281 55.44517517089844 97.75 49 97.75 Z" stroke="none"/>
      <path d="M 49 2.5 C 42.72460174560547 2.5 36.63800048828125 3.741119384765625 30.90927886962891 6.188888549804688 C 25.373046875 8.554412841796875 20.40007781982422 11.94181823730469 16.12849426269531 16.25698089599609 C 11.85515594482422 20.57392120361328 8.500167846679688 25.60076904296875 6.156692504882812 31.1978759765625 C 3.730293273925781 36.99309158325195 2.5 43.15079879760742 2.5 49.5 C 2.5 55.84920120239258 3.730293273925781 62.00690841674805 6.156692504882812 67.8021240234375 C 8.500167846679688 73.39923095703125 11.85515594482422 78.42607879638672 16.12849426269531 82.74301147460938 C 20.40007781982422 87.05818176269531 25.373046875 90.44558715820312 30.90927886962891 92.81111145019531 C 36.63800048828125 95.25888061523438 42.72460174560547 96.5 49 96.5 C 55.27539825439453 96.5 61.36199951171875 95.25888061523438 67.09072113037109 92.81111145019531 C 72.626953125 90.44558715820312 77.59992218017578 87.05818176269531 81.87150573730469 82.74301147460938 C 86.14484405517578 78.42607879638672 89.49983215332031 73.39923095703125 91.84330749511719 67.8021240234375 C 94.26970672607422 62.00690841674805 95.5 55.84920120239258 95.5 49.5 C 95.5 43.15079879760742 94.26970672607422 36.99309158325195 91.84330749511719 31.1978759765625 C 89.49983215332031 25.60076904296875 86.14484405517578 20.57392120361328 81.87150573730469 16.25698089599609 C 77.59992218017578 11.94181823730469 72.626953125 8.554412841796875 67.09072113037109 6.188888549804688 C 61.36199951171875 3.741119384765625 55.27539825439453 2.5 49 2.5 M 49 0 C 76.06195068359375 0 98 22.16191101074219 98 49.5 C 98 76.83808898925781 76.06195068359375 99 49 99 C 21.93804931640625 99 0 76.83808898925781 0 49.5 C 0 22.16191101074219 21.93804931640625 0 49 0 Z" stroke="none" fill="#2f077f"/>
    </g>
    <g id="Trazado_232946" data-name="Trazado 232946" transform="translate(-1279 -8583)" fill="#fff">
      <path d="M 49 97.75 C 42.55482482910156 97.75 36.30297470092773 96.47505187988281 30.41813278198242 93.9605712890625 C 24.73258590698242 91.53125 19.6259593963623 88.05298614501953 15.24013328552246 83.62239837646484 C 10.85342693328857 79.19093322753906 7.40938663482666 74.03065490722656 5.003680229187012 68.28488159179688 C 2.512919902801514 62.33597183227539 1.25 56.01582717895508 1.25 49.5 C 1.25 42.98417282104492 2.512919902801514 36.66402816772461 5.003680229187012 30.71512031555176 C 7.40938663482666 24.96934700012207 10.85342693328857 19.80906677246094 15.24013328552246 15.37759971618652 C 19.6259593963623 10.94701290130615 24.73258590698242 7.468746662139893 30.41813278198242 5.039426803588867 C 36.30297470092773 2.524946689605713 42.55482482910156 1.25 49 1.25 C 55.44517517089844 1.25 61.69702529907227 2.524946689605713 67.58186340332031 5.039426803588867 C 73.26741027832031 7.468746662139893 78.37403869628906 10.94701290130615 82.75986480712891 15.37759971618652 C 87.14657592773438 19.80906677246094 90.59061431884766 24.96934700012207 92.99632263183594 30.71512031555176 C 95.48708343505859 36.66402816772461 96.75 42.98417282104492 96.75 49.5 C 96.75 56.01582717895508 95.48708343505859 62.33597183227539 92.99632263183594 68.28488159179688 C 90.59061431884766 74.03065490722656 87.14657592773438 79.19093322753906 82.75986480712891 83.62239837646484 C 78.37403869628906 88.05298614501953 73.26741027832031 91.53125 67.58186340332031 93.9605712890625 C 61.69702529907227 96.47505187988281 55.44517517089844 97.75 49 97.75 Z" stroke="none"/>
      <path d="M 49 2.5 C 42.72460174560547 2.5 36.63800048828125 3.741119384765625 30.90927886962891 6.188888549804688 C 25.373046875 8.554412841796875 20.40007781982422 11.94181823730469 16.12849426269531 16.25698089599609 C 11.85515594482422 20.57392120361328 8.500167846679688 25.60076904296875 6.156692504882812 31.1978759765625 C 3.730293273925781 36.99309158325195 2.5 43.15079879760742 2.5 49.5 C 2.5 55.84920120239258 3.730293273925781 62.00690841674805 6.156692504882812 67.8021240234375 C 8.500167846679688 73.39923095703125 11.85515594482422 78.42607879638672 16.12849426269531 82.74301147460938 C 20.40007781982422 87.05818176269531 25.373046875 90.44558715820312 30.90927886962891 92.81111145019531 C 36.63800048828125 95.25888061523438 42.72460174560547 96.5 49 96.5 C 55.27539825439453 96.5 61.36199951171875 95.25888061523438 67.09072113037109 92.81111145019531 C 72.626953125 90.44558715820312 77.59992218017578 87.05818176269531 81.87150573730469 82.74301147460938 C 86.14484405517578 78.42607879638672 89.49983215332031 73.39923095703125 91.84330749511719 67.8021240234375 C 94.26970672607422 62.00690841674805 95.5 55.84920120239258 95.5 49.5 C 95.5 43.15079879760742 94.26970672607422 36.99309158325195 91.84330749511719 31.1978759765625 C 89.49983215332031 25.60076904296875 86.14484405517578 20.57392120361328 81.87150573730469 16.25698089599609 C 77.59992218017578 11.94181823730469 72.626953125 8.554412841796875 67.09072113037109 6.188888549804688 C 61.36199951171875 3.741119384765625 55.27539825439453 2.5 49 2.5 M 49 0 C 76.06195068359375 0 98 22.16191101074219 98 49.5 C 98 76.83808898925781 76.06195068359375 99 49 99 C 21.93804931640625 99 0 76.83808898925781 0 49.5 C 0 22.16191101074219 21.93804931640625 0 49 0 Z" stroke="none" fill="#2f077f"/>
    </g>
    <path id="Trazado_232947" data-name="Trazado 232947" d="M35.038,21.258l2.68-14.164h4.088L37.39,27H33.261l-3.24-13.316L26.78,27H22.651L18.235,7.094h4.088L25.017,21.23,28.3,7.094h3.473Z" transform="translate(-1330 -8631)" fill="#8628a5"/>
    <path id="Trazado_232948" data-name="Trazado 232948" d="M24.873,7.094l5.113,14.438L35.072,7.094h5.387V27H36.344V21.559l.41-9.393L31.381,27H28.564L23.205,12.18l.41,9.379V27h-4.1V7.094Z" transform="translate(-1260 -8557)" fill="#2f077f"/>
    <path id="Trazado_232949" data-name="Trazado 232949" d="M22.843,27V7.094h6.973a9.155,9.155,0,0,1,5.5,1.388,4.745,4.745,0,0,1,1.873,4.067,4.5,4.5,0,0,1-.752,2.577,4.343,4.343,0,0,1-2.092,1.634A4.2,4.2,0,0,1,36.754,18.3a4.567,4.567,0,0,1,.882,2.844A5.253,5.253,0,0,1,35.8,25.5,8.247,8.247,0,0,1,30.581,27Zm4.1-8.668v5.373h3.514a3.391,3.391,0,0,0,2.263-.69,2.368,2.368,0,0,0,.813-1.907q0-2.734-2.83-2.775Zm0-2.9h3.035q3.1-.055,3.1-2.475a2.287,2.287,0,0,0-.786-1.948,4.135,4.135,0,0,0-2.481-.595H26.944Z" transform="translate(-1402 -8565)" fill="#2f077f"/>
    <path id="Trazado_232950" data-name="Trazado 232950" d="M38.08,27h-4.1L25.994,13.9V27h-4.1V7.094h4.1l8,13.125V7.094H38.08Z" transform="translate(-1330 -8495)" fill="#8628a5"/>
    <path id="Trazado_232951" data-name="Trazado 232951" d="M16.289,8.311l.164,1.125.24-1.014,1.688-5.953h.949l1.646,5.953.234,1.031L21.393,8.3l1.324-5.836h1.131L21.779,11H20.754L19,4.783l-.135-.65-.135.65L16.9,11H15.879L13.816,2.469h1.125ZM28.646,11a2.277,2.277,0,0,1-.152-.668,2.419,2.419,0,0,1-1.8.785,2.238,2.238,0,0,1-1.538-.53,1.716,1.716,0,0,1-.6-1.345A1.792,1.792,0,0,1,25.3,7.7a3.55,3.55,0,0,1,2.118-.548h1.055v-.5a1.217,1.217,0,0,0-.34-.905,1.366,1.366,0,0,0-1-.337,1.581,1.581,0,0,0-.973.293.863.863,0,0,0-.393.709H24.68a1.5,1.5,0,0,1,.337-.917,2.3,2.3,0,0,1,.914-.7A3.075,3.075,0,0,1,27.2,4.543a2.506,2.506,0,0,1,1.717.548A1.976,1.976,0,0,1,29.561,6.6V9.518a3.567,3.567,0,0,0,.223,1.389V11Zm-1.8-.826a1.905,1.905,0,0,0,.967-.264,1.6,1.6,0,0,0,.662-.686v-1.3h-.85q-1.992,0-1.992,1.166a.987.987,0,0,0,.34.8A1.306,1.306,0,0,0,26.848,10.174Zm5.59.826H31.354V2h1.084Zm2.912,0H34.266V2H35.35Zm4.365.117a2.77,2.77,0,0,1-2.1-.847,3.142,3.142,0,0,1-.809-2.265v-.2a3.8,3.8,0,0,1,.36-1.685,2.811,2.811,0,0,1,1.008-1.16,2.534,2.534,0,0,1,1.4-.419,2.374,2.374,0,0,1,1.922.814,3.526,3.526,0,0,1,.686,2.332v.451H37.893a2.254,2.254,0,0,0,.548,1.515,1.722,1.722,0,0,0,1.333.577A1.888,1.888,0,0,0,40.746,10a2.444,2.444,0,0,0,.7-.621l.662.516A2.662,2.662,0,0,1,39.715,11.117ZM39.58,5.434a1.446,1.446,0,0,0-1.1.478,2.321,2.321,0,0,0-.551,1.339H41.1V7.168a2.065,2.065,0,0,0-.445-1.28A1.361,1.361,0,0,0,39.58,5.434Zm5.332-2.309V4.66H46.1V5.5H44.912V9.435a.88.88,0,0,0,.158.572.666.666,0,0,0,.539.191,2.624,2.624,0,0,0,.516-.07V11a3.161,3.161,0,0,1-.832.116,1.35,1.35,0,0,1-1.1-.439,1.888,1.888,0,0,1-.369-1.248V5.5H42.674V4.66h1.154V3.125Z" transform="translate(-1330 -8599)" fill="#686868"/>
    <path id="Trazado_232952" data-name="Trazado 232952" d="M17.229,2.469,20.019,9.43l2.789-6.961h1.459V11H23.142V7.678l.105-3.586L20.446,11h-.861L16.79,4.109,16.9,7.678V11H15.776V2.469ZM27.261,11H26.177V4.66h1.084ZM26.089,2.979a.647.647,0,0,1,.161-.445.6.6,0,0,1,.478-.182.614.614,0,0,1,.48.182.64.64,0,0,1,.164.445.619.619,0,0,1-.164.439.626.626,0,0,1-.48.176.616.616,0,0,1-.478-.176A.626.626,0,0,1,26.089,2.979ZM30.021,4.66l.035.8a2.31,2.31,0,0,1,1.9-.914q2.01,0,2.027,2.268V11H32.9V6.8a1.459,1.459,0,0,0-.313-1.014,1.256,1.256,0,0,0-.958-.328,1.564,1.564,0,0,0-.926.281,1.91,1.91,0,0,0-.621.738V11H29V4.66Zm8.227,6.457a2.77,2.77,0,0,1-2.1-.847,3.142,3.142,0,0,1-.809-2.265v-.2a3.8,3.8,0,0,1,.36-1.685,2.811,2.811,0,0,1,1.008-1.16,2.534,2.534,0,0,1,1.4-.419,2.374,2.374,0,0,1,1.922.814,3.526,3.526,0,0,1,.686,2.332v.451H36.425a2.254,2.254,0,0,0,.548,1.515,1.722,1.722,0,0,0,1.333.577A1.888,1.888,0,0,0,39.278,10a2.444,2.444,0,0,0,.7-.621l.662.516A2.662,2.662,0,0,1,38.247,11.117Zm-.135-5.684a1.446,1.446,0,0,0-1.1.478A2.321,2.321,0,0,0,36.46,7.25h3.176V7.168a2.065,2.065,0,0,0-.445-1.28A1.361,1.361,0,0,0,38.112,5.434Zm6.926.2a3.248,3.248,0,0,0-.533-.041,1.428,1.428,0,0,0-1.447.908V11H41.974V4.66h1.055l.018.732a1.688,1.688,0,0,1,1.512-.85,1.107,1.107,0,0,1,.48.082Z" transform="translate(-1260 -8525)" fill="#686868"/>
    <path id="Trazado_232953" data-name="Trazado 232953" d="M26.224,7.232h-3.58V11H21.519V2.469H26.8v.92h-4.16V6.313h3.58Zm5.543,3.141a2.3,2.3,0,0,1-1.857.744,1.971,1.971,0,0,1-1.544-.589,2.549,2.549,0,0,1-.536-1.743V4.66h1.084v4.1q0,1.441,1.172,1.441a1.623,1.623,0,0,0,1.652-.926V4.66h1.084V11H31.79ZM35.646,11H34.562V2h1.084Zm2.912,0H37.474V2h1.084ZM1.778,23V14.469H4.567a3.238,3.238,0,0,1,2.089.574,2.07,2.07,0,0,1,.7,1.7,1.733,1.733,0,0,1-.34,1.058,2.2,2.2,0,0,1-.926.712,1.979,1.979,0,0,1,1.093.735,2.11,2.11,0,0,1,.4,1.292,2.282,2.282,0,0,1-.744,1.8,3.077,3.077,0,0,1-2.1.656ZM2.9,19.01v3.07H4.761A1.788,1.788,0,0,0,6,21.673a1.43,1.43,0,0,0,.454-1.122q0-1.541-1.676-1.541Zm0-.9H4.6a1.781,1.781,0,0,0,1.181-.37,1.24,1.24,0,0,0,.442-1,1.22,1.22,0,0,0-.41-1.025,2.014,2.014,0,0,0-1.248-.32H2.9ZM10.257,23H9.173V14h1.084ZM11.7,19.771A3.745,3.745,0,0,1,12.07,18.1a2.732,2.732,0,0,1,1.02-1.148,2.775,2.775,0,0,1,1.491-.4,2.674,2.674,0,0,1,2.095.9,3.449,3.449,0,0,1,.8,2.385V19.9a3.777,3.777,0,0,1-.354,1.661,2.692,2.692,0,0,1-1.014,1.146,2.807,2.807,0,0,1-1.515.41,2.667,2.667,0,0,1-2.089-.9,3.432,3.432,0,0,1-.8-2.373Zm1.09.129a2.712,2.712,0,0,0,.489,1.693,1.658,1.658,0,0,0,2.622-.009,2.966,2.966,0,0,0,.486-1.813,2.708,2.708,0,0,0-.5-1.69,1.574,1.574,0,0,0-1.315-.647,1.557,1.557,0,0,0-1.295.639A2.944,2.944,0,0,0,12.794,19.9Zm8.584,2.332a1.561,1.561,0,0,0,1.014-.352,1.237,1.237,0,0,0,.48-.879H23.9a1.966,1.966,0,0,1-.375,1.037,2.47,2.47,0,0,1-.923.785,2.663,2.663,0,0,1-1.222.293,2.612,2.612,0,0,1-2.06-.864,3.442,3.442,0,0,1-.765-2.364v-.182a3.817,3.817,0,0,1,.34-1.646,2.588,2.588,0,0,1,.976-1.119,2.771,2.771,0,0,1,1.5-.4,2.543,2.543,0,0,1,1.772.639A2.283,2.283,0,0,1,23.9,18.84H22.872a1.494,1.494,0,0,0-.466-1.011,1.449,1.449,0,0,0-1.034-.4,1.517,1.517,0,0,0-1.28.595,2.793,2.793,0,0,0-.454,1.72v.205a2.737,2.737,0,0,0,.451,1.688A1.524,1.524,0,0,0,21.378,22.232Zm5.508-2.168-.68.709V23H25.122V14h1.084v5.443l.58-.7,1.975-2.086h1.318l-2.467,2.648L30.366,23H29.095Zm6.738,2.168a1.561,1.561,0,0,0,1.014-.352,1.237,1.237,0,0,0,.48-.879h1.025a1.966,1.966,0,0,1-.375,1.037,2.47,2.47,0,0,1-.923.785,2.663,2.663,0,0,1-1.222.293,2.612,2.612,0,0,1-2.06-.864,3.442,3.442,0,0,1-.765-2.364v-.182a3.817,3.817,0,0,1,.34-1.646,2.588,2.588,0,0,1,.976-1.119,2.771,2.771,0,0,1,1.5-.4,2.543,2.543,0,0,1,1.772.639,2.283,2.283,0,0,1,.753,1.658H35.118a1.494,1.494,0,0,0-.466-1.011,1.449,1.449,0,0,0-1.034-.4,1.517,1.517,0,0,0-1.28.595,2.793,2.793,0,0,0-.454,1.72v.205a2.737,2.737,0,0,0,.451,1.688A1.524,1.524,0,0,0,33.624,22.232Zm4.822-4.8a2.3,2.3,0,0,1,1.875-.885q2.01,0,2.027,2.268V23H41.265V18.8a1.459,1.459,0,0,0-.313-1.014,1.256,1.256,0,0,0-.958-.328,1.564,1.564,0,0,0-.926.281,1.91,1.91,0,0,0-.621.738V23H37.362V14h1.084ZM47.886,23a2.277,2.277,0,0,1-.152-.668,2.419,2.419,0,0,1-1.8.785,2.238,2.238,0,0,1-1.538-.53,1.716,1.716,0,0,1-.6-1.345,1.792,1.792,0,0,1,.753-1.538,3.55,3.55,0,0,1,2.118-.548h1.055v-.5a1.217,1.217,0,0,0-.34-.905,1.366,1.366,0,0,0-1-.337,1.581,1.581,0,0,0-.973.293.863.863,0,0,0-.393.709h-1.09a1.5,1.5,0,0,1,.337-.917,2.3,2.3,0,0,1,.914-.7,3.075,3.075,0,0,1,1.269-.258,2.506,2.506,0,0,1,1.717.548A1.976,1.976,0,0,1,48.8,18.6v2.918a3.567,3.567,0,0,0,.223,1.389V23Zm-1.8-.826a1.905,1.905,0,0,0,.967-.264,1.6,1.6,0,0,0,.662-.686v-1.3h-.85q-1.992,0-1.992,1.166a.987.987,0,0,0,.34.8A1.306,1.306,0,0,0,46.087,22.174Zm5.59.826H50.593V16.66h1.084ZM50.5,14.979a.647.647,0,0,1,.161-.445.6.6,0,0,1,.478-.182.614.614,0,0,1,.48.182.64.64,0,0,1,.164.445.619.619,0,0,1-.164.439.626.626,0,0,1-.48.176.616.616,0,0,1-.478-.176A.626.626,0,0,1,50.5,14.979Zm3.932,1.682.035.8a2.31,2.31,0,0,1,1.9-.914q2.01,0,2.027,2.268V23H57.313V18.8A1.459,1.459,0,0,0,57,17.791a1.256,1.256,0,0,0-.958-.328,1.564,1.564,0,0,0-.926.281,1.91,1.91,0,0,0-.621.738V23H53.411V16.66Z" transform="translate(-1402 -8533)" fill="#686868"/>
    <path id="Trazado_232954" data-name="Trazado 232954" d="M15.129,11H14L9.7,4.426V11H8.572V2.469H9.7l4.307,6.6v-6.6h1.119Zm4.459.117a2.77,2.77,0,0,1-2.1-.847,3.142,3.142,0,0,1-.809-2.265v-.2a3.8,3.8,0,0,1,.36-1.685,2.811,2.811,0,0,1,1.008-1.16,2.534,2.534,0,0,1,1.4-.419,2.374,2.374,0,0,1,1.922.814,3.526,3.526,0,0,1,.686,2.332v.451H17.766a2.254,2.254,0,0,0,.548,1.515,1.722,1.722,0,0,0,1.333.577A1.888,1.888,0,0,0,20.619,10a2.444,2.444,0,0,0,.7-.621l.662.516A2.662,2.662,0,0,1,19.588,11.117Zm-.135-5.684a1.446,1.446,0,0,0-1.1.478A2.321,2.321,0,0,0,17.8,7.25h3.176V7.168a2.065,2.065,0,0,0-.445-1.28A1.361,1.361,0,0,0,19.453,5.434Zm5.332-2.309V4.66h1.184V5.5H24.785V9.435a.88.88,0,0,0,.158.572.666.666,0,0,0,.539.191,2.624,2.624,0,0,0,.516-.07V11a3.161,3.161,0,0,1-.832.116,1.35,1.35,0,0,1-1.1-.439A1.888,1.888,0,0,1,23.7,9.43V5.5H22.547V4.66H23.7V3.125Zm8.063,6.381L34.066,4.66H35.15L33.3,11h-.879L30.885,6.2l-1.5,4.8h-.879l-1.84-6.34h1.078l1.248,4.746L30.469,4.66h.873Zm3.117-1.734A3.745,3.745,0,0,1,36.331,6.1a2.732,2.732,0,0,1,1.02-1.148,2.775,2.775,0,0,1,1.491-.4,2.674,2.674,0,0,1,2.095.9,3.449,3.449,0,0,1,.8,2.385V7.9a3.777,3.777,0,0,1-.354,1.661,2.692,2.692,0,0,1-1.014,1.146,2.807,2.807,0,0,1-1.515.41,2.667,2.667,0,0,1-2.089-.9,3.432,3.432,0,0,1-.8-2.373Zm1.09.129a2.712,2.712,0,0,0,.489,1.693,1.658,1.658,0,0,0,2.622-.009,2.966,2.966,0,0,0,.486-1.813,2.708,2.708,0,0,0-.5-1.69,1.574,1.574,0,0,0-1.315-.647,1.557,1.557,0,0,0-1.295.639A2.944,2.944,0,0,0,37.055,7.9ZM46.16,5.633a3.248,3.248,0,0,0-.533-.041A1.428,1.428,0,0,0,44.18,6.5V11H43.1V4.66H44.15l.018.732a1.688,1.688,0,0,1,1.512-.85,1.107,1.107,0,0,1,.48.082Zm2.766,2.432-.68.709V11H47.162V2h1.084V7.443l.58-.7L50.8,4.66h1.318L49.652,7.309,52.406,11H51.135ZM13.6,19.549h-2V23H10.468V14.469h2.824a3.343,3.343,0,0,1,2.218.656,2.361,2.361,0,0,1,.776,1.91,2.3,2.3,0,0,1-.431,1.389,2.571,2.571,0,0,1-1.2.885l2,3.621V23H15.454Zm-2-.92h1.729a1.95,1.95,0,0,0,1.333-.434,1.469,1.469,0,0,0,.5-1.162,1.547,1.547,0,0,0-.472-1.215,2,2,0,0,0-1.362-.429H11.6Zm5.807,1.143a3.745,3.745,0,0,1,.366-1.676,2.732,2.732,0,0,1,1.02-1.148,2.775,2.775,0,0,1,1.491-.4,2.674,2.674,0,0,1,2.095.9,3.449,3.449,0,0,1,.8,2.385V19.9a3.777,3.777,0,0,1-.354,1.661,2.692,2.692,0,0,1-1.014,1.146,2.807,2.807,0,0,1-1.515.41,2.667,2.667,0,0,1-2.089-.9,3.432,3.432,0,0,1-.8-2.373Zm1.09.129a2.712,2.712,0,0,0,.489,1.693,1.658,1.658,0,0,0,2.622-.009,2.966,2.966,0,0,0,.486-1.813,2.708,2.708,0,0,0-.5-1.69,1.574,1.574,0,0,0-1.315-.647,1.557,1.557,0,0,0-1.295.639A2.944,2.944,0,0,0,18.5,19.9Zm9.955,2.473a2.3,2.3,0,0,1-1.857.744,1.971,1.971,0,0,1-1.544-.589,2.549,2.549,0,0,1-.536-1.743V16.66H25.6v4.1q0,1.441,1.172,1.441a1.623,1.623,0,0,0,1.652-.926V16.66H29.5V23H28.474Zm4.172-7.248V16.66h1.184V17.5H32.622v3.937a.88.88,0,0,0,.158.572.666.666,0,0,0,.539.191,2.624,2.624,0,0,0,.516-.07V23a3.161,3.161,0,0,1-.832.116,1.35,1.35,0,0,1-1.1-.439,1.888,1.888,0,0,1-.369-1.248V17.5H30.384V16.66h1.154V15.125ZM36.249,23H35.165V16.66h1.084Zm-1.172-8.021a.647.647,0,0,1,.161-.445.6.6,0,0,1,.478-.182.614.614,0,0,1,.48.182.64.64,0,0,1,.164.445.619.619,0,0,1-.164.439.626.626,0,0,1-.48.176.616.616,0,0,1-.478-.176A.626.626,0,0,1,35.077,14.979Zm3.932,1.682.035.8a2.31,2.31,0,0,1,1.9-.914q2.01,0,2.027,2.268V23H41.886V18.8a1.459,1.459,0,0,0-.313-1.014,1.256,1.256,0,0,0-.958-.328,1.564,1.564,0,0,0-.926.281,1.91,1.91,0,0,0-.621.738V23H37.983V16.66Zm5.338,3.117a3.726,3.726,0,0,1,.686-2.358,2.363,2.363,0,0,1,3.627-.056l.053-.7h.99v6.188a2.579,2.579,0,0,1-.729,1.939,2.692,2.692,0,0,1-1.96.709,3.261,3.261,0,0,1-1.342-.293,2.31,2.31,0,0,1-1-.8l.563-.65a2.12,2.12,0,0,0,1.705.861,1.661,1.661,0,0,0,1.233-.445,1.7,1.7,0,0,0,.442-1.254v-.545a2.228,2.228,0,0,1-1.775.75,2.166,2.166,0,0,1-1.8-.9A3.918,3.918,0,0,1,44.347,19.777Zm1.09.123a2.843,2.843,0,0,0,.439,1.685,1.428,1.428,0,0,0,1.23.612,1.588,1.588,0,0,0,1.506-.932V18.371a1.606,1.606,0,0,0-1.494-.908,1.441,1.441,0,0,0-1.236.615A3.1,3.1,0,0,0,45.437,19.9ZM18.551,28.66l.035.8a2.31,2.31,0,0,1,1.9-.914q2.01,0,2.027,2.268V35H21.428V30.8a1.459,1.459,0,0,0-.313-1.014,1.256,1.256,0,0,0-.958-.328,1.564,1.564,0,0,0-.926.281,1.91,1.91,0,0,0-.621.738V35H17.525V28.66Zm5.309,3.111a3.745,3.745,0,0,1,.366-1.676,2.732,2.732,0,0,1,1.02-1.148,2.775,2.775,0,0,1,1.491-.4,2.674,2.674,0,0,1,2.095.9,3.449,3.449,0,0,1,.8,2.385V31.9a3.777,3.777,0,0,1-.354,1.661,2.692,2.692,0,0,1-1.014,1.146,2.807,2.807,0,0,1-1.515.41,2.667,2.667,0,0,1-2.089-.9,3.432,3.432,0,0,1-.8-2.373Zm1.09.129a2.712,2.712,0,0,0,.489,1.693,1.658,1.658,0,0,0,2.622-.009,2.966,2.966,0,0,0,.486-1.813,2.708,2.708,0,0,0-.5-1.69,1.574,1.574,0,0,0-1.315-.647,1.557,1.557,0,0,0-1.295.639A2.944,2.944,0,0,0,24.949,31.9Zm5.777-.123a3.714,3.714,0,0,1,.691-2.347,2.352,2.352,0,0,1,3.574-.126V26h1.084v9h-1l-.053-.68a2.208,2.208,0,0,1-1.811.8,2.165,2.165,0,0,1-1.8-.9,3.756,3.756,0,0,1-.694-2.355Zm1.084.123a2.812,2.812,0,0,0,.445,1.688,1.44,1.44,0,0,0,1.23.609,1.581,1.581,0,0,0,1.506-.926V30.359a1.593,1.593,0,0,0-1.494-.9,1.446,1.446,0,0,0-1.242.615A3.1,3.1,0,0,0,31.811,31.9Zm8.578,3.217a2.77,2.77,0,0,1-2.1-.847,3.142,3.142,0,0,1-.809-2.265v-.2a3.8,3.8,0,0,1,.36-1.685,2.811,2.811,0,0,1,1.008-1.16,2.534,2.534,0,0,1,1.4-.419,2.374,2.374,0,0,1,1.922.814,3.526,3.526,0,0,1,.686,2.332v.451H38.566a2.254,2.254,0,0,0,.548,1.515,1.722,1.722,0,0,0,1.333.577A1.888,1.888,0,0,0,41.42,34a2.444,2.444,0,0,0,.7-.621l.662.516A2.662,2.662,0,0,1,40.389,35.117Zm-.135-5.684a1.446,1.446,0,0,0-1.1.478A2.321,2.321,0,0,0,38.6,31.25h3.176v-.082a2.065,2.065,0,0,0-.445-1.28A1.361,1.361,0,0,0,40.254,29.434Z" transform="translate(-1330 -8463)" fill="#686868"/>
  </g>
</svg>
