<svg xmlns="http://www.w3.org/2000/svg" xmlns:xlink="http://www.w3.org/1999/xlink" width="75" height="75" viewBox="0 0 75 75">
  <defs>
    <clipPath id="clip-path">
      <rect id="Rectángulo_313017" data-name="Rectángulo 313017" width="75" height="75" fill="none"/>
    </clipPath>
  </defs>
  <g id="Grupo_235903" data-name="Grupo 235903" transform="translate(-974 -2117)">
    <g id="Grupo_235898" data-name="Grupo 235898" transform="translate(974 2117)">
      <g id="Grupo_235895" data-name="Grupo 235895">
        <g id="Grupo_235894" data-name="Grupo 235894" clip-path="url(#clip-path)">
          <path id="Trazado_228208" data-name="Trazado 228208" d="M11.427,32.5" fill="#fff"/>
          <path id="Trazado_228209" data-name="Trazado 228209" d="M1.454,48.75v5L6.44,57.5h9.972a8.738,8.738,0,0,0-8.725-8.75Z" fill="#f8a800"/>
          <path id="Trazado_228210" data-name="Trazado 228210" d="M68.767,48.75v5L63.781,57.5H53.809a8.738,8.738,0,0,1,8.725-8.75Z" fill="#f8a800"/>
          <path id="Trazado_228211" data-name="Trazado 228211" d="M57.542,1.25l-16.2,10c0,20,16.179,25,16.179,25s16.231-5,16.231-25c0-.026-16.212-10-16.212-10M62.547,27.3a20.363,20.363,0,0,1-5.021,3.531,20.286,20.286,0,0,1-5-3.528,20.517,20.517,0,0,1-6.078-13.338l11.1-6.849c3.935,2.422,8.416,5.181,11.1,6.84a20.484,20.484,0,0,1-6.1,13.344" fill="#f8a800"/>
          <path id="Trazado_228212" data-name="Trazado 228212" d="M51.665,28.207a21.5,21.5,0,0,0,5.308,3.747,1.236,1.236,0,0,0,1.1,0A21.269,21.269,0,0,0,69.888,14.074,1.252,1.252,0,0,0,69.3,12.9c-2.686-1.658-7.167-4.419-11.1-6.841a1.244,1.244,0,0,0-1.305,0L45.8,12.9a1.248,1.248,0,0,0-.588,1.178,21.747,21.747,0,0,0,6.455,14.124m5.882-19.62c3.453,2.125,7.218,4.444,9.777,6.024A19.07,19.07,0,0,1,61.684,26.4a19.094,19.094,0,0,1-4.157,3.028,19.1,19.1,0,0,1-4.133-3.022,19.107,19.107,0,0,1-5.62-11.786Z"/>
        </g>
      </g>
      <g id="Grupo_235897" data-name="Grupo 235897">
        <g id="Grupo_235896" data-name="Grupo 235896" clip-path="url(#clip-path)">
          <path id="Trazado_228213" data-name="Trazado 228213" d="M56.3,23.75a1.237,1.237,0,0,0,.881-.366l6.233-6.25a1.248,1.248,0,1,0-1.763-1.768L56.3,20.732,54.69,19.116a1.248,1.248,0,1,0-1.762,1.768l2.493,2.5a1.237,1.237,0,0,0,.881.366"/>
          <path id="Trazado_228214" data-name="Trazado 228214" d="M3.948,75H8.934a3.748,3.748,0,0,0,3.739-3.75V70H57.549v1.25A3.748,3.748,0,0,0,61.288,75h4.986a3.749,3.749,0,0,0,3.74-3.75V48.75c0-2.111-1.285-7.538-3.676-10A3.751,3.751,0,0,0,67.3,31.4c3.682-3.727,7.694-10.094,7.694-20.146a1.249,1.249,0,0,0-.594-1.064L58.2.186a1.274,1.274,0,0,0-1.313,0l-16.2,10A1.251,1.251,0,0,0,40.1,11.25a33.769,33.769,0,0,0,.565,6.25H18.906c-2.722,0-5.246,2.284-6.132,4.506L8.489,31.25H3.948a3.75,3.75,0,0,0-.065,7.5c-2.39,2.462-3.675,7.889-3.675,10v22.5A3.749,3.749,0,0,0,3.948,75m22.437-7.5H10.18a7.459,7.459,0,0,1-5.887-2.882A6.176,6.176,0,0,0,6.441,65H26.385Zm14.959,0H28.879V63.75H41.344Zm2.493,0V65H63.781a6.176,6.176,0,0,0,2.148-.382A7.459,7.459,0,0,1,60.042,67.5Zm23.684,3.75a1.25,1.25,0,0,1-1.247,1.25H61.288a1.25,1.25,0,0,1-1.246-1.25V70a9.938,9.938,0,0,0,7.479-3.4Zm0-18.125L63.366,56.25H55.161A7.5,7.5,0,0,1,62.535,50h4.986ZM66.8,45a18.966,18.966,0,0,1,.594,2.5H62.535a9.994,9.994,0,0,0-9.892,8.75H50.132A12.5,12.5,0,0,1,62.535,45ZM35.111,51.25c-2.8,0-4.986,1.647-4.986,3.75a3,3,0,0,0,.275,1.25H22.593A14.994,14.994,0,0,0,7.687,42.5H4.377C5.3,40.569,6.1,40.012,6.428,40H63.793c.325.012,1.132.568,2.052,2.5h-3.31A14.994,14.994,0,0,0,47.629,56.25H39.822A3,3,0,0,0,40.1,55c0-2.1-2.19-3.75-4.986-3.75M37.6,55c0,.509-.971,1.25-2.493,1.25s-2.493-.741-2.493-1.25.971-1.25,2.493-1.25S37.6,54.491,37.6,55M57.567,37.5a1.239,1.239,0,0,0,.368-.056,19.388,19.388,0,0,0,3.249-1.45l.7,1.506ZM67.521,35a1.25,1.25,0,0,1-1.247,1.25H64.6l-.92-1.805q.468-.327.95-.7h1.645A1.252,1.252,0,0,1,67.521,35M57.545,2.716l14.949,9.228c-.147,7.569-2.7,13.727-7.6,18.312a23.237,23.237,0,0,1-7.348,4.677,23.015,23.015,0,0,1-7.264-4.6c-4.953-4.591-7.536-10.776-7.683-18.388ZM18.906,20H41.244q.367,1.313.828,2.5H15.3A4.731,4.731,0,0,1,18.906,20m-4.77,5H43.183a25.573,25.573,0,0,0,5.4,7.167,24.582,24.582,0,0,0,8.569,5.277,1.228,1.228,0,0,0,.367.056H8.341ZM2.7,35a1.25,1.25,0,0,1,1.247-1.25H6.9l-1.274,2.5H3.948A1.252,1.252,0,0,1,2.7,35m.717,10H7.687a12.5,12.5,0,0,1,12.4,11.25H17.579A9.994,9.994,0,0,0,7.687,47.5H2.823a19.129,19.129,0,0,1,.6-2.5M2.7,50H7.687a7.5,7.5,0,0,1,7.374,6.25h-8.2L2.7,53.125Zm0,6.25L5.692,58.5a1.249,1.249,0,0,0,.749.25h57.34a1.249,1.249,0,0,0,.749-.25l2.991-2.25v2.5a3.749,3.749,0,0,1-3.74,3.75H43.837a1.249,1.249,0,0,0-1.247-1.25H27.632a1.249,1.249,0,0,0-1.247,1.25H6.441A3.749,3.749,0,0,1,2.7,58.75ZM2.7,66.6A9.936,9.936,0,0,0,10.18,70v1.25A1.25,1.25,0,0,1,8.934,72.5H3.948A1.25,1.25,0,0,1,2.7,71.25Z"/>
        </g>
      </g>
    </g>
  </g>
</svg>
