<svg xmlns="http://www.w3.org/2000/svg" xmlns:xlink="http://www.w3.org/1999/xlink" width="75" height="75" viewBox="0 0 75 75">
  <defs>
    <clipPath id="clip-path">
      <rect id="Rectángulo_313013" data-name="Rectángulo 313013" width="75" height="75" fill="none"/>
    </clipPath>
  </defs>
  <g id="Grupo_235885" data-name="Grupo 235885" transform="translate(4816 8987)">
    <g id="Grupo_235884" data-name="Grupo 235884" transform="translate(-4816 -8987)">
      <g id="Grupo_235883" data-name="Grupo 235883" clip-path="url(#clip-path)">
        <path id="Trazado_228187" data-name="Trazado 228187" d="M53.844,18.468a10.887,10.887,0,0,1-1.829-6.039V12.1a11.1,11.1,0,0,1,.068-1.188,20.554,20.554,0,0,0-29.167,0,10.844,10.844,0,0,1,.068,1.188v.332a10.879,10.879,0,0,1-1.829,6.039l-4.187,6.281c-.006.219-.032.433-.032.654a20.454,20.454,0,0,0,3.628,11.654V35.081a2.419,2.419,0,0,1,2.42-2.42h9.677a2.419,2.419,0,0,1,2.419,2.42v7.258a2.419,2.419,0,0,1-2.419,2.419h7.258a2.4,2.4,0,0,1,1.769.78A20.569,20.569,0,0,0,58.064,25.4c0-.221-.027-.435-.033-.654Z" fill="#f8a800"/>
        <path id="Trazado_228188" data-name="Trazado 228188" d="M62.9,19.355A7.258,7.258,0,1,1,70.16,12.1,7.265,7.265,0,0,1,62.9,19.355" fill="#f8a800"/>
        <path id="Trazado_228189" data-name="Trazado 228189" d="M12.1,19.355A7.258,7.258,0,1,1,19.354,12.1,7.265,7.265,0,0,1,12.1,19.355" fill="#f8a800"/>
        <path id="Trazado_228190" data-name="Trazado 228190" d="M62.9,31.452a3.468,3.468,0,0,0,2.887-1.544l7.178-10.767A12.057,12.057,0,0,0,75,12.431V12.1A12.09,12.09,0,0,0,52.926,5.271a25.21,25.21,0,0,0-30.853,0A12.09,12.09,0,0,0,0,12.1v.332A12.065,12.065,0,0,0,2.031,19.14L9.21,29.906A3.462,3.462,0,0,0,12.1,31.452a3.421,3.421,0,0,0,.739-.092A25.233,25.233,0,0,0,19.5,43.29c.023.087.05.174.081.259H15.725A3.633,3.633,0,0,0,12.1,47.178v7.258a3.592,3.592,0,0,0,.223,1.209H9.677V70.162h7.682a7.246,7.246,0,0,0,13.668,0h20.2a7.246,7.246,0,0,0,13.668,0h5.262A4.844,4.844,0,0,0,75,65.323V49.6A10.9,10.9,0,0,0,64.111,38.71H59.1a25.516,25.516,0,0,0,3.065-7.349,3.453,3.453,0,0,0,.734.091m0-29.032A9.688,9.688,0,0,1,72.579,12.1v.332A9.658,9.658,0,0,1,70.953,17.8L63.775,28.565a1.09,1.09,0,0,1-1.748,0L54.849,17.8a9.662,9.662,0,0,1-1.625-5.369V12.1A9.689,9.689,0,0,1,62.9,2.42M47.165,24.194a64.773,64.773,0,0,0-.887-9.678h4.728a12.068,12.068,0,0,0,1.832,4.624l3.368,5.054Zm-1.2,31.451H43.324a3.567,3.567,0,0,0,.223-1.209V50.074a25.178,25.178,0,0,0,2.419-.725ZM29.031,54.436V47.178a1.21,1.21,0,0,1,1.21-1.21h1.21v4.839h7.258V45.968h1.209a1.21,1.21,0,0,1,1.21,1.21v7.258a1.209,1.209,0,0,1-1.21,1.209H30.241a1.209,1.209,0,0,1-1.21-1.209m-9.677-8.468h2.419v2.419H19.354Zm4.64-31.452h4.728a64.508,64.508,0,0,0-.888,9.678H18.793l3.369-5.054a12.068,12.068,0,0,0,1.832-4.624m-6.815,12.1H27.854q.042,2.461.254,4.839H22.983a3.633,3.633,0,0,0-3.629,3.629v4.387a22.78,22.78,0,0,1-4.36-9.576Zm9.433,7.258h2.419V36.29H26.612Zm-3.629,9.678a1.21,1.21,0,0,1-1.21-1.21V35.081a1.21,1.21,0,0,1,1.21-1.21h1.21V38.71h7.258V33.871H32.66a1.21,1.21,0,0,1,1.21,1.21v7.258a1.21,1.21,0,0,1-1.21,1.21ZM33.87,45.968h2.419v2.419H33.87ZM41.6,43.982a3.573,3.573,0,0,0-1.683-.433H36.066a3.578,3.578,0,0,0,.223-1.21V38.71h7.044A29.716,29.716,0,0,1,41.6,43.982m2.237-7.691H36.289v-1.21a3.633,3.633,0,0,0-3.629-3.629H30.534q-.219-2.373-.262-4.839H44.743a61.157,61.157,0,0,1-.9,9.678m-13.575-12.1a61.032,61.032,0,0,1,.9-9.678H43.841a60.915,60.915,0,0,1,.9,9.678ZM37.5,2.42c2.135,0,4.421,3.656,5.845,9.677H31.653C33.078,6.076,35.364,2.42,37.5,2.42M50.805,12.1h-5a25.88,25.88,0,0,0-3.607-9.168,23,23,0,0,1,9.553,4.492,12,12,0,0,0-.943,4.676m-18-9.168A25.862,25.862,0,0,0,29.2,12.1h-5a12.021,12.021,0,0,0-.943-4.676A22.979,22.979,0,0,1,32.8,2.929M11.221,28.565,4.044,17.8a9.654,9.654,0,0,1-1.625-5.369V12.1a9.677,9.677,0,0,1,19.354,0v.332A9.657,9.657,0,0,1,20.148,17.8L12.97,28.565a1.089,1.089,0,0,1-1.749,0m3.294,25.871V47.178a1.21,1.21,0,0,1,1.21-1.21h1.21v4.839h7.258V45.968H25.4a1.21,1.21,0,0,1,1.21,1.21v7.258a1.209,1.209,0,0,1-1.21,1.209H15.725a1.209,1.209,0,0,1-1.21-1.209m9.678,18.145a4.839,4.839,0,1,1,4.838-4.839,4.845,4.845,0,0,1-4.838,4.839m0-12.1a7.265,7.265,0,0,0-7.258,7.258H12.1V58.065h33.87v9.677H31.451a7.265,7.265,0,0,0-7.258-7.258m33.87,12.1A4.839,4.839,0,1,1,62.9,67.742a4.845,4.845,0,0,1-4.839,4.839M72.579,53.226H53.224V47.178a1.21,1.21,0,0,1,1.21-1.21H71.75a8.414,8.414,0,0,1,.829,3.629Zm-2.553-9.677H54.434a3.633,3.633,0,0,0-3.629,3.629v8.467H72.579v9.678a2.422,2.422,0,0,1-2.42,2.419H65.321a7.258,7.258,0,0,0-14.516,0H48.386V47.178a6.055,6.055,0,0,1,6.048-6.049h9.677a8.438,8.438,0,0,1,5.915,2.42M54.434,38.71a8.474,8.474,0,0,0-8.446,8.026,23.215,23.215,0,0,1-2.441.816v-.374a3.6,3.6,0,0,0-.221-1.206c2.295-4.454,3.7-11.581,3.837-19.359H57.819L60.008,29.9a23.06,23.06,0,0,1-3.8,8.814Z"/>
      </g>
    </g>
  </g>
</svg>
