<svg id="Grupo_237297" data-name="Grupo 237297" xmlns="http://www.w3.org/2000/svg" xmlns:xlink="http://www.w3.org/1999/xlink" width="505" height="325.629" viewBox="0 0 505 325.629">
  <defs>
    <clipPath id="clip-path">
      <path id="Trazado_231899" data-name="Trazado 231899" d="M281.442,320.793l-62.2-62.2a11.737,11.737,0,0,1,0-16.58l62.2-62.2a11.723,11.723,0,0,1,16.58,0l62.2,62.2a11.723,11.723,0,0,1,0,16.58l-62.2,62.2a11.737,11.737,0,0,1-16.58,0M279.68,178.052l-62.2,62.2a14.232,14.232,0,0,0,0,20.1l62.2,62.2a14.231,14.231,0,0,0,20.1,0l62.2-62.2a14.216,14.216,0,0,0,0-20.1l-62.2-62.2a14.217,14.217,0,0,0-20.1,0" transform="translate(-213.323 -173.889)" fill="none"/>
    </clipPath>
    <linearGradient id="linear-gradient" x1="-1.133" y1="1.192" x2="-1.128" y2="1.192" gradientUnits="objectBoundingBox">
      <stop offset="0" stop-color="#dee4f0"/>
      <stop offset="1" stop-color="#dee4f0"/>
    </linearGradient>
    <clipPath id="clip-path-2">
      <path id="Trazado_231900" data-name="Trazado 231900" d="M68.119,320.793l-62.2-62.2a11.736,11.736,0,0,1,0-16.58l62.2-62.2a11.723,11.723,0,0,1,16.58,0l62.2,62.2a11.736,11.736,0,0,1,0,16.58l-62.2,62.2a11.737,11.737,0,0,1-16.58,0M66.356,178.052l-62.2,62.2a14.233,14.233,0,0,0,0,20.1l62.2,62.2a14.232,14.232,0,0,0,20.1,0l62.2-62.2a14.232,14.232,0,0,0,0-20.1l-62.2-62.2a14.218,14.218,0,0,0-20.1,0" transform="translate(0 -173.889)" fill="none"/>
    </clipPath>
    <linearGradient id="linear-gradient-2" x1="0.009" y1="1.192" x2="0.014" y2="1.192" xlink:href="#linear-gradient"/>
    <clipPath id="clip-path-3">
      <path id="Trazado_231901" data-name="Trazado 231901" d="M494.764,320.794l-62.2-62.2a11.736,11.736,0,0,1,0-16.58l62.2-62.2a11.737,11.737,0,0,1,16.58,0l62.2,62.2a11.736,11.736,0,0,1,0,16.58l-62.2,62.2a11.737,11.737,0,0,1-16.58,0M493,178.053l-62.2,62.2a14.233,14.233,0,0,0,0,20.1l62.2,62.2a14.232,14.232,0,0,0,20.1,0l62.2-62.2a14.232,14.232,0,0,0,0-20.1l-62.2-62.2a14.234,14.234,0,0,0-20.1,0" transform="translate(-426.646 -173.897)" fill="none"/>
    </clipPath>
    <linearGradient id="linear-gradient-3" x1="-2.255" y1="1.192" x2="-2.249" y2="1.192" xlink:href="#linear-gradient"/>
    <clipPath id="clip-path-4">
      <path id="Trazado_231902" data-name="Trazado 231902" d="M174.779,214.132l-62.2-62.2a11.725,11.725,0,0,1,0-16.58l62.2-62.2a11.738,11.738,0,0,1,16.579,0l62.2,62.2a11.724,11.724,0,0,1,0,16.58l-62.2,62.2a11.734,11.734,0,0,1-16.579,0M173.017,71.393l-62.2,62.2a14.217,14.217,0,0,0,0,20.1l62.2,62.2a14.232,14.232,0,0,0,20.1,0l62.2-62.2a14.215,14.215,0,0,0,0-20.1l-62.2-62.2a14.232,14.232,0,0,0-20.1,0" transform="translate(-106.654 -67.236)" fill="none"/>
    </clipPath>
    <linearGradient id="linear-gradient-4" x1="-0.576" y1="1.768" x2="-0.571" y2="1.768" xlink:href="#linear-gradient"/>
    <clipPath id="clip-path-5">
      <path id="Trazado_231903" data-name="Trazado 231903" d="M297.564,132.289,275.377,110.1a3.383,3.383,0,0,1,0-4.78l22.187-22.188a3.385,3.385,0,0,1,4.78,0l22.187,22.188a3.379,3.379,0,0,1,0,4.78l-22.187,22.188a3.383,3.383,0,0,1-4.78,0M295.8,81.371l-22.187,22.188a5.872,5.872,0,0,0,0,8.305L295.8,134.051a5.872,5.872,0,0,0,8.305,0l22.187-22.187a5.87,5.87,0,0,0,0-8.305L304.106,81.371a5.88,5.88,0,0,0-8.305,0" transform="translate(-271.894 -79.654)" fill="none"/>
    </clipPath>
    <linearGradient id="linear-gradient-5" x1="-3.999" y1="4.631" x2="-3.985" y2="4.631" xlink:href="#linear-gradient"/>
    <clipPath id="clip-path-6">
      <path id="Trazado_231904" data-name="Trazado 231904" d="M451.651,76.889,429.464,54.7a3.384,3.384,0,0,1,0-4.781l22.187-22.187a3.385,3.385,0,0,1,4.78,0l22.188,22.187a3.382,3.382,0,0,1,0,4.781L456.431,76.889a3.381,3.381,0,0,1-4.78,0m-1.762-50.917L427.7,48.159a5.874,5.874,0,0,0,0,8.305l22.188,22.188a5.874,5.874,0,0,0,8.305,0l22.187-22.188a5.872,5.872,0,0,0,0-8.305L458.194,25.972a5.878,5.878,0,0,0-8.305,0" transform="translate(-425.982 -24.254)" fill="none"/>
    </clipPath>
    <linearGradient id="linear-gradient-6" x1="-6.266" y1="5.446" x2="-6.251" y2="5.446" xlink:href="#linear-gradient"/>
    <clipPath id="clip-path-7">
      <path id="Trazado_231905" data-name="Trazado 231905" d="M190.9,328.3l-22.188-22.188a3.378,3.378,0,0,1,0-4.779L190.9,279.143a3.379,3.379,0,0,1,4.78,0l22.187,22.188a3.38,3.38,0,0,1,0,4.779L195.683,328.3a3.381,3.381,0,0,1-4.78,0m-1.762-50.917-22.188,22.188a5.873,5.873,0,0,0,0,8.3l22.188,22.188a5.88,5.88,0,0,0,8.305,0l22.187-22.188a5.871,5.871,0,0,0,0-8.3l-22.187-22.188a5.88,5.88,0,0,0-8.305,0" transform="translate(-165.233 -275.664)" fill="none"/>
    </clipPath>
    <linearGradient id="linear-gradient-7" x1="-2.43" y1="1.748" x2="-2.416" y2="1.748" xlink:href="#linear-gradient"/>
    <clipPath id="clip-path-8">
      <path id="Trazado_231906" data-name="Trazado 231906" d="M404.225,328.3,382.038,306.11a3.378,3.378,0,0,1,0-4.779l22.186-22.188a3.38,3.38,0,0,1,4.781,0l22.187,22.188a3.382,3.382,0,0,1,0,4.779L409.006,328.3a3.382,3.382,0,0,1-4.781,0m-1.762-50.917-22.187,22.188a5.871,5.871,0,0,0,0,8.3l22.187,22.188a5.872,5.872,0,0,0,8.305,0l22.188-22.188a5.878,5.878,0,0,0,0-8.3L410.767,277.38a5.872,5.872,0,0,0-8.305,0" transform="translate(-378.555 -275.66)" fill="none"/>
    </clipPath>
    <linearGradient id="linear-gradient-8" x1="-5.512" y1="1.748" x2="-5.498" y2="1.748" xlink:href="#linear-gradient"/>
    <clipPath id="clip-path-9">
      <path id="Trazado_231907" data-name="Trazado 231907" d="M49.81,177.3,35.832,163.326a1.67,1.67,0,0,1,0-2.36L49.81,146.988a1.671,1.671,0,0,1,2.36,0l13.978,13.978a1.671,1.671,0,0,1,0,2.36L52.17,177.3a1.671,1.671,0,0,1-2.36,0m-1.762-32.078L34.07,159.2a4.164,4.164,0,0,0,0,5.884l13.978,13.978a4.165,4.165,0,0,0,5.884,0L67.91,165.088a4.164,4.164,0,0,0,0-5.884L53.931,145.225a4.166,4.166,0,0,0-5.884,0" transform="translate(-32.853 -144.009)" fill="none"/>
    </clipPath>
    <linearGradient id="linear-gradient-9" x1="-0.72" y1="5.7" x2="-0.698" y2="5.7" xlink:href="#linear-gradient"/>
    <clipPath id="clip-path-10">
      <path id="Trazado_231908" data-name="Trazado 231908" d="M194.211,383.826l-13.979-13.978a1.673,1.673,0,0,1,0-2.36l13.979-13.978a1.67,1.67,0,0,1,2.359,0l13.978,13.978a1.671,1.671,0,0,1,0,2.36L196.57,383.826a1.668,1.668,0,0,1-2.359,0m-1.762-32.078L178.47,365.727a4.166,4.166,0,0,0,0,5.884l13.978,13.979a4.161,4.161,0,0,0,5.884,0l13.978-13.979a4.164,4.164,0,0,0,0-5.884l-13.978-13.978a4.165,4.165,0,0,0-5.884,0" transform="translate(-177.253 -350.532)" fill="none"/>
    </clipPath>
    <linearGradient id="linear-gradient-10" x1="-3.935" y1="1" x2="-3.912" y2="1" xlink:href="#linear-gradient"/>
    <clipPath id="clip-path-11">
      <path id="Trazado_231909" data-name="Trazado 231909" d="M422.892,33.294,408.913,19.317a1.671,1.671,0,0,1,0-2.36L422.892,2.979a1.67,1.67,0,0,1,2.359,0l13.979,13.978a1.673,1.673,0,0,1,0,2.36L425.251,33.294a1.666,1.666,0,0,1-2.359,0M421.129,1.217,407.151,15.2a4.167,4.167,0,0,0,0,5.885l13.979,13.978a4.161,4.161,0,0,0,5.884,0L440.991,21.08a4.165,4.165,0,0,0,0-5.885L427.013,1.217a4.165,4.165,0,0,0-5.884,0" transform="translate(-405.934 0)" fill="none"/>
    </clipPath>
    <linearGradient id="linear-gradient-11" x1="-9.025" y1="8.976" x2="-9.002" y2="8.976" xlink:href="#linear-gradient"/>
    <clipPath id="clip-path-12">
      <path id="Trazado_231910" data-name="Trazado 231910" d="M388.1,214.132l-62.2-62.2a11.738,11.738,0,0,1,0-16.58l62.2-62.2a11.736,11.736,0,0,1,16.579,0l62.2,62.2a11.737,11.737,0,0,1,0,16.58l-62.2,62.2a11.722,11.722,0,0,1-16.579,0M386.34,71.393l-62.2,62.2a14.231,14.231,0,0,0,0,20.1l62.2,62.2a14.216,14.216,0,0,0,20.1,0l62.2-62.2a14.232,14.232,0,0,0,0-20.1l-62.2-62.2a14.232,14.232,0,0,0-20.1,0" transform="translate(-319.985 -67.236)" fill="none"/>
    </clipPath>
    <linearGradient id="linear-gradient-12" x1="-1.689" y1="1.768" x2="-1.683" y2="1.768" xlink:href="#linear-gradient"/>
    <clipPath id="clip-path-13">
      <rect id="Rectángulo_313104" data-name="Rectángulo 313104" width="505" height="325.629" fill="none"/>
    </clipPath>
  </defs>
  <g id="Grupo_237272" data-name="Grupo 237272" transform="translate(176.091 143.54)">
    <g id="Grupo_237271" data-name="Grupo 237271" clip-path="url(#clip-path)">
      <rect id="Rectángulo_313092" data-name="Rectángulo 313092" width="154.209" height="152.823" transform="translate(-1.386 0)" fill="url(#linear-gradient)"/>
    </g>
  </g>
  <g id="Grupo_237274" data-name="Grupo 237274" transform="translate(0 143.54)">
    <g id="Grupo_237273" data-name="Grupo 237273" clip-path="url(#clip-path-2)">
      <rect id="Rectángulo_313093" data-name="Rectángulo 313093" width="155.588" height="152.823" transform="translate(-1.386)" fill="url(#linear-gradient-2)"/>
    </g>
  </g>
  <g id="Grupo_237276" data-name="Grupo 237276" transform="translate(352.183 143.547)">
    <g id="Grupo_237275" data-name="Grupo 237275" clip-path="url(#clip-path-3)">
      <rect id="Rectángulo_313094" data-name="Rectángulo 313094" width="155.589" height="152.817" transform="translate(-1.386 0)" fill="url(#linear-gradient-3)"/>
    </g>
  </g>
  <g id="Grupo_237278" data-name="Grupo 237278" transform="translate(88.04 55.501)">
    <g id="Grupo_237277" data-name="Grupo 237277" clip-path="url(#clip-path-4)">
      <rect id="Rectángulo_313095" data-name="Rectángulo 313095" width="152.83" height="152.817" transform="translate(0 0)" fill="url(#linear-gradient-4)"/>
    </g>
  </g>
  <g id="Grupo_237280" data-name="Grupo 237280" transform="translate(224.44 65.752)">
    <g id="Grupo_237279" data-name="Grupo 237279" clip-path="url(#clip-path-5)">
      <rect id="Rectángulo_313096" data-name="Rectángulo 313096" width="56.12" height="56.117" transform="translate(0 0)" fill="url(#linear-gradient-5)"/>
    </g>
  </g>
  <g id="Grupo_237282" data-name="Grupo 237282" transform="translate(351.635 20.021)">
    <g id="Grupo_237281" data-name="Grupo 237281" clip-path="url(#clip-path-6)">
      <rect id="Rectángulo_313097" data-name="Rectángulo 313097" width="56.12" height="56.117" transform="translate(0 0)" fill="url(#linear-gradient-6)"/>
    </g>
  </g>
  <g id="Grupo_237284" data-name="Grupo 237284" transform="translate(136.395 227.552)">
    <g id="Grupo_237283" data-name="Grupo 237283" clip-path="url(#clip-path-7)">
      <rect id="Rectángulo_313098" data-name="Rectángulo 313098" width="56.12" height="56.114" fill="url(#linear-gradient-7)"/>
    </g>
  </g>
  <g id="Grupo_237286" data-name="Grupo 237286" transform="translate(312.486 227.549)">
    <g id="Grupo_237285" data-name="Grupo 237285" clip-path="url(#clip-path-8)">
      <rect id="Rectángulo_313099" data-name="Rectángulo 313099" width="56.69" height="56.12" fill="url(#linear-gradient-8)"/>
    </g>
  </g>
  <g id="Grupo_237288" data-name="Grupo 237288" transform="translate(27.119 118.875)">
    <g id="Grupo_237287" data-name="Grupo 237287" clip-path="url(#clip-path-9)">
      <rect id="Rectángulo_313100" data-name="Rectángulo 313100" width="37.086" height="36.274" transform="translate(-0.406 0)" fill="url(#linear-gradient-9)"/>
    </g>
  </g>
  <g id="Grupo_237290" data-name="Grupo 237290" transform="translate(146.317 289.353)">
    <g id="Grupo_237289" data-name="Grupo 237289" clip-path="url(#clip-path-10)">
      <rect id="Rectángulo_313101" data-name="Rectángulo 313101" width="37.085" height="36.276" transform="translate(-0.406 0)" fill="url(#linear-gradient-10)"/>
    </g>
  </g>
  <g id="Grupo_237292" data-name="Grupo 237292" transform="translate(335.086)">
    <g id="Grupo_237291" data-name="Grupo 237291" clip-path="url(#clip-path-11)">
      <rect id="Rectángulo_313102" data-name="Rectángulo 313102" width="37.085" height="36.276" transform="translate(-0.406)" fill="url(#linear-gradient-11)"/>
    </g>
  </g>
  <g id="Grupo_237294" data-name="Grupo 237294" transform="translate(264.138 55.501)">
    <g id="Grupo_237293" data-name="Grupo 237293" clip-path="url(#clip-path-12)">
      <rect id="Rectángulo_313103" data-name="Rectángulo 313103" width="155.588" height="152.823" transform="translate(-1.386 0)" fill="url(#linear-gradient-12)"/>
    </g>
  </g>
  <g id="Grupo_237296" data-name="Grupo 237296">
    <g id="Grupo_237295" data-name="Grupo 237295" clip-path="url(#clip-path-13)">
      <path id="Trazado_231911" data-name="Trazado 231911" d="M213.956,173.613A23.094,23.094,0,0,0,226.311,131l-2.347,4.642a13.051,13.051,0,1,0-23.115-10.556l2.683-5.671a24.723,24.723,0,0,0-48.126,7.973v.008a23.109,23.109,0,0,0,.063,46.214Z" transform="translate(-23.146 -17.918)" fill="#fff"/>
      <path id="Trazado_231912" data-name="Trazado 231912" d="M213.78,174.268a.831.831,0,0,1,0-1.662,22.26,22.26,0,0,0,12.783-40.5,13.819,13.819,0,0,1-2.119,3.866.831.831,0,0,1-1.4-.884l2.214-4.381a12.221,12.221,0,0,0-21.189-11.041l-2.648,5.6a.831.831,0,0,1-1.566-.518,13.777,13.777,0,0,1,2.561-5.669,23.893,23.893,0,0,0-46.358,8.121v.021a.831.831,0,0,1-.819.83,22.278,22.278,0,0,0,.06,44.552.831.831,0,0,1-.019,1.662,23.939,23.939,0,0,1-.872-47.85,25.554,25.554,0,0,1,49.246-8.751,13.889,13.889,0,0,1,23.384,12.759,24.274,24.274,0,0,1,7.617,8.219,23.957,23.957,0,0,1-20.878,35.629" transform="translate(-22.971 -17.742)" fill="#5f1f82"/>
      <path id="Trazado_231913" data-name="Trazado 231913" d="M189.609,197.11a.932.932,0,0,0,.726,0,46.28,46.28,0,0,0,24.9-27.374,49.153,49.153,0,0,0,1.537-5.593,55.474,55.474,0,0,0,1.171-10.1,2.813,2.813,0,0,0-1.313-2.476L190.47,135.415a.948.948,0,0,0-1,0L163.31,151.565A2.814,2.814,0,0,0,162,154.04a55.475,55.475,0,0,0,1.171,10.1,48.99,48.99,0,0,0,1.536,5.593,46.3,46.3,0,0,0,24.905,27.374" transform="translate(-28.273 -23.609)" fill="#f8a800"/>
      <path id="Trazado_231914" data-name="Trazado 231914" d="M189.8,197.838a1.766,1.766,0,0,1-.684-.139,47.117,47.117,0,0,1-25.371-27.873,50.077,50.077,0,0,1-1.563-5.687,56.576,56.576,0,0,1-1.189-10.254,3.652,3.652,0,0,1,1.708-3.2l26.164-16.149a1.768,1.768,0,0,1,1.868,0l26.164,16.149a3.652,3.652,0,0,1,1.708,3.2,56.585,56.585,0,0,1-1.189,10.254,50.422,50.422,0,0,1-1.563,5.687A47.134,47.134,0,0,1,190.48,197.7a1.766,1.766,0,0,1-.684.139m-.042-1.672a.1.1,0,0,0,.085,0,45.474,45.474,0,0,0,24.439-26.875,48.611,48.611,0,0,0,1.511-5.5,54.973,54.973,0,0,0,1.153-9.952,1.986,1.986,0,0,0-.92-1.747l-26.164-16.149a.116.116,0,0,0-.123,0L163.57,152.1a1.986,1.986,0,0,0-.92,1.747,54.964,54.964,0,0,0,1.153,9.952,48.482,48.482,0,0,0,1.511,5.5,45.456,45.456,0,0,0,24.439,26.875" transform="translate(-28.097 -23.433)" fill="#5f1f82"/>
      <path id="Trazado_231915" data-name="Trazado 231915" d="M190.792,192.268a.894.894,0,0,0,.7,0,37.145,37.145,0,0,0,19.92-21.934,39.321,39.321,0,0,0,1.232-4.486,44.5,44.5,0,0,0,.939-8.1,2.256,2.256,0,0,0-1.053-1.986l-20.911-12.907a.909.909,0,0,0-.955,0l-20.91,12.907a2.255,2.255,0,0,0-1.054,1.986,44.5,44.5,0,0,0,.939,8.1,39.492,39.492,0,0,0,1.232,4.486,37.145,37.145,0,0,0,19.92,21.934" transform="translate(-29.443 -24.908)" fill="#fff"/>
      <path id="Trazado_231916" data-name="Trazado 231916" d="M190.966,192.995a1.735,1.735,0,0,1-.674-.138,37.985,37.985,0,0,1-20.382-22.432,40.551,40.551,0,0,1-1.258-4.581,45.5,45.5,0,0,1-.958-8.256,3.1,3.1,0,0,1,1.448-2.715l20.911-12.907a1.732,1.732,0,0,1,1.828,0l20.912,12.907a3.094,3.094,0,0,1,1.447,2.715,45.421,45.421,0,0,1-.958,8.256,40.6,40.6,0,0,1-1.258,4.581,37.967,37.967,0,0,1-20.383,22.432,1.73,1.73,0,0,1-.673.138m0-49.626a.08.08,0,0,0-.041.012l-20.911,12.907a1.426,1.426,0,0,0-.66,1.257,43.811,43.811,0,0,0,.921,7.953,38.9,38.9,0,0,0,1.206,4.391,36.308,36.308,0,0,0,19.458,21.437.062.062,0,0,0,.051,0,36.324,36.324,0,0,0,19.459-21.437,39.072,39.072,0,0,0,1.206-4.391,43.882,43.882,0,0,0,.922-7.953,1.432,1.432,0,0,0-.66-1.257L191.007,143.38a.079.079,0,0,0-.04-.012" transform="translate(-29.267 -24.732)" fill="#5f1f82"/>
      <path id="Trazado_231917" data-name="Trazado 231917" d="M201.4,182.765H186.777a2.544,2.544,0,0,1-2.537-2.537v-14.62a2.544,2.544,0,0,1,2.537-2.537H201.4a2.544,2.544,0,0,1,2.537,2.537v14.62a2.544,2.544,0,0,1-2.537,2.537" transform="translate(-32.156 -28.461)" fill="#59e5f5"/>
      <path id="Trazado_231918" data-name="Trazado 231918" d="M201.22,183.42H186.6a3.371,3.371,0,0,1-3.368-3.368V165.433a3.371,3.371,0,0,1,3.368-3.368H201.22a3.371,3.371,0,0,1,3.368,3.368v14.619a3.371,3.371,0,0,1-3.368,3.368M186.6,163.727a1.708,1.708,0,0,0-1.706,1.706v14.619a1.708,1.708,0,0,0,1.706,1.706H201.22a1.708,1.708,0,0,0,1.706-1.706V165.433a1.708,1.708,0,0,0-1.706-1.706Z" transform="translate(-31.98 -28.285)" fill="#5f1f82"/>
      <path id="Trazado_231919" data-name="Trazado 231919" d="M199.66,161.656a.831.831,0,0,1-.83-.83v-5.142a3.819,3.819,0,0,0-7.639,0v5.142a.831.831,0,0,1-1.662,0v-5.142a5.481,5.481,0,1,1,10.961,0v5.142a.831.831,0,0,1-.83.83" transform="translate(-33.079 -26.215)" fill="#5f1f82"/>
      <path id="Trazado_231920" data-name="Trazado 231920" d="M195.624,175.727a2.574,2.574,0,1,1,2.575-2.574,2.576,2.576,0,0,1-2.575,2.574m0-3.487a.913.913,0,1,0,.913.913.914.914,0,0,0-.913-.913" transform="translate(-33.693 -29.771)" fill="#5f1f82"/>
      <path id="Trazado_231921" data-name="Trazado 231921" d="M195.992,180.417a.831.831,0,0,1-.83-.83v-3.953a.83.83,0,1,1,1.661,0v3.953a.831.831,0,0,1-.83.83" transform="translate(-34.062 -30.509)" fill="#5f1f82"/>
      <path id="Trazado_231922" data-name="Trazado 231922" d="M167.112,135.516a.827.827,0,0,1-.532-.192,9.173,9.173,0,0,0-6.481-2.053.831.831,0,1,1-.1-1.658,10.825,10.825,0,0,1,7.647,2.434.831.831,0,0,1-.531,1.469" transform="translate(-27.788 -22.966)" fill="#5f1f82"/>
      <path id="Trazado_231923" data-name="Trazado 231923" d="M72.638,241.333H53a3.991,3.991,0,0,1-3.99-3.991V223.422a3.99,3.99,0,0,1,3.99-3.99H72.638a3.991,3.991,0,0,1,3.991,3.99v13.919a3.991,3.991,0,0,1-3.991,3.991" transform="translate(-8.553 -38.298)" fill="#59e5f5"/>
      <path id="Trazado_231924" data-name="Trazado 231924" d="M72.461,241.987H52.821A4.827,4.827,0,0,1,48,237.166V223.247a4.827,4.827,0,0,1,4.822-4.822h19.64a4.827,4.827,0,0,1,4.822,4.822v13.919a4.827,4.827,0,0,1-4.822,4.822m-19.64-21.9a3.163,3.163,0,0,0-3.16,3.16v13.919a3.164,3.164,0,0,0,3.16,3.161h19.64a3.165,3.165,0,0,0,3.161-3.161V223.247a3.164,3.164,0,0,0-3.161-3.16Z" transform="translate(-8.377 -38.122)" fill="#5f1f82"/>
      <path id="Trazado_231925" data-name="Trazado 231925" d="M132.33,241.333h-19.64a3.991,3.991,0,0,1-3.991-3.991V223.422a3.99,3.99,0,0,1,3.991-3.99h19.64a3.991,3.991,0,0,1,3.991,3.99v13.919a3.991,3.991,0,0,1-3.991,3.991" transform="translate(-18.971 -38.298)" fill="#fff"/>
      <path id="Trazado_231926" data-name="Trazado 231926" d="M132.154,241.987h-19.64a4.827,4.827,0,0,1-4.822-4.822V223.247a4.827,4.827,0,0,1,4.822-4.822h19.64a4.827,4.827,0,0,1,4.822,4.822v13.919a4.827,4.827,0,0,1-4.822,4.822m-19.64-21.9a3.164,3.164,0,0,0-3.161,3.16v13.919a3.165,3.165,0,0,0,3.161,3.161h19.64a3.164,3.164,0,0,0,3.16-3.161V223.247a3.164,3.164,0,0,0-3.16-3.16Z" transform="translate(-18.795 -38.122)" fill="#5f1f82"/>
      <path id="Trazado_231927" data-name="Trazado 231927" d="M72.638,284.118H53a3.991,3.991,0,0,1-3.99-3.991V266.207a3.99,3.99,0,0,1,3.99-3.99H72.638a3.991,3.991,0,0,1,3.991,3.99v13.919a3.991,3.991,0,0,1-3.991,3.991" transform="translate(-8.553 -45.765)" fill="#fff"/>
      <path id="Trazado_231928" data-name="Trazado 231928" d="M72.461,284.772H52.821A4.827,4.827,0,0,1,48,279.951V266.032a4.827,4.827,0,0,1,4.822-4.822h19.64a4.827,4.827,0,0,1,4.822,4.822v13.919a4.827,4.827,0,0,1-4.822,4.822m-19.64-21.9a3.163,3.163,0,0,0-3.16,3.16v13.919a3.163,3.163,0,0,0,3.16,3.16h19.64a3.164,3.164,0,0,0,3.161-3.16V266.032a3.164,3.164,0,0,0-3.161-3.16Z" transform="translate(-8.377 -45.589)" fill="#5f1f82"/>
      <path id="Trazado_231929" data-name="Trazado 231929" d="M132.33,284.118h-19.64a3.991,3.991,0,0,1-3.991-3.991V265.571a3.354,3.354,0,0,1,3.354-3.354H132.33a3.991,3.991,0,0,1,3.991,3.99v13.919a3.991,3.991,0,0,1-3.991,3.991" transform="translate(-18.971 -45.765)" fill="#8628a5"/>
      <path id="Trazado_231930" data-name="Trazado 231930" d="M132.154,284.772h-19.64a4.827,4.827,0,0,1-4.822-4.822V265.4a4.189,4.189,0,0,1,4.184-4.185h20.278a4.827,4.827,0,0,1,4.822,4.822v13.919a4.827,4.827,0,0,1-4.822,4.822m-20.278-21.9a2.526,2.526,0,0,0-2.523,2.523v14.555a3.164,3.164,0,0,0,3.161,3.16h19.64a3.164,3.164,0,0,0,3.161-3.16V266.032a3.164,3.164,0,0,0-3.161-3.16Z" transform="translate(-18.796 -45.589)" fill="#5f1f82"/>
      <path id="Trazado_231931" data-name="Trazado 231931" d="M135.12,241.159a.828.828,0,0,1-.515-.179l-12.508-9.9-12.515-9.9a.831.831,0,0,1,1.031-1.3l12.515,9.9,12.508,9.9a.831.831,0,0,1-.516,1.483" transform="translate(-19.07 -38.344)" fill="#5f1f82"/>
      <path id="Trazado_231932" data-name="Trazado 231932" d="M110.1,241.159a.831.831,0,0,1-.516-1.483l12.515-9.9,12.508-9.9a.831.831,0,0,1,1.031,1.3l-12.508,9.9-12.515,9.9a.829.829,0,0,1-.515.179" transform="translate(-19.07 -38.344)" fill="#5f1f82"/>
      <path id="Trazado_231933" data-name="Trazado 231933" d="M75.427,283.944a.829.829,0,0,1-.515-.179l-25.022-19.8a.831.831,0,1,1,1.031-1.3l12.515,9.9,12.508,9.9a.831.831,0,0,1-.516,1.483" transform="translate(-8.652 -45.811)" fill="#5f1f82"/>
      <path id="Trazado_231934" data-name="Trazado 231934" d="M50.405,283.944a.831.831,0,0,1-.516-1.483l12.515-9.9,12.508-9.9a.831.831,0,0,1,1.031,1.3l-12.508,9.9-12.515,9.9a.828.828,0,0,1-.515.179" transform="translate(-8.652 -45.811)" fill="#5f1f82"/>
      <path id="Trazado_231935" data-name="Trazado 231935" d="M77.549,313.72A15.291,15.291,0,1,1,92.84,329.011,15.291,15.291,0,0,1,77.549,313.72" transform="translate(-13.535 -52.085)" fill="#f8a800"/>
      <path id="Trazado_231936" data-name="Trazado 231936" d="M92.665,329.667a16.122,16.122,0,1,1,16.122-16.122,16.141,16.141,0,0,1-16.122,16.122m0-30.583a14.46,14.46,0,1,0,14.461,14.461,14.477,14.477,0,0,0-14.461-14.461" transform="translate(-13.359 -51.909)" fill="#5f1f82"/>
      <path id="Trazado_231937" data-name="Trazado 231937" d="M93.83,322.458a.832.832,0,0,1-.588-.244l-6.183-6.184a.831.831,0,0,1,1.175-1.175l5.436,5.436,7.042-11.587a.831.831,0,1,1,1.42.863l-7.592,12.49a.831.831,0,0,1-.611.394.8.8,0,0,1-.1.006" transform="translate(-15.152 -53.809)" fill="#5f1f82"/>
      <path id="Trazado_231938" data-name="Trazado 231938" d="M82.468,232.7h0Z" transform="translate(-14.393 -40.613)" fill="#8628a5"/>
      <path id="Trazado_231939" data-name="Trazado 231939" d="M103.944,233.353H82.293a.831.831,0,1,1,0-1.662h21.651a.831.831,0,0,1,0,1.662" transform="translate(-14.218 -40.437)" fill="#5f1f82"/>
      <path id="Trazado_231940" data-name="Trazado 231940" d="M125.429,245.963v0Z" transform="translate(-21.891 -42.928)" fill="#8628a5"/>
      <path id="Trazado_231941" data-name="Trazado 231941" d="M125.253,260.035a.831.831,0,0,1-.83-.83V245.787a.83.83,0,1,1,1.661,0V259.2a.831.831,0,0,1-.83.83" transform="translate(-21.716 -42.753)" fill="#5f1f82"/>
      <path id="Trazado_231942" data-name="Trazado 231942" d="M82.468,275.482h0Z" transform="translate(-14.393 -48.08)" fill="#8628a5"/>
      <path id="Trazado_231943" data-name="Trazado 231943" d="M103.944,276.138H82.293a.831.831,0,1,1,0-1.662h21.651a.831.831,0,0,1,0,1.662" transform="translate(-14.218 -47.905)" fill="#5f1f82"/>
      <path id="Trazado_231944" data-name="Trazado 231944" d="M75.312,312.685H67.929a3.2,3.2,0,0,1-3.2-3.2V288.572a.831.831,0,1,1,1.662,0v20.914a1.538,1.538,0,0,0,1.537,1.537h7.383a.831.831,0,0,1,0,1.662" transform="translate(-11.297 -50.22)" fill="#5f1f82"/>
      <path id="Trazado_231945" data-name="Trazado 231945" d="M541.287,278h6.869a1.5,1.5,0,0,0,1.483-1.521v-61.27a1.5,1.5,0,0,0-1.483-1.521H503.588a1.5,1.5,0,0,0-1.482,1.521v7.448Z" transform="translate(-87.633 -37.295)" fill="#fff"/>
      <path id="Trazado_231946" data-name="Trazado 231946" d="M547.98,278.653h-6.869a.831.831,0,1,1,0-1.662h6.869a.673.673,0,0,0,.651-.691V215.032a.673.673,0,0,0-.651-.691H503.412a.673.673,0,0,0-.651.691v7.448a.831.831,0,0,1-1.662,0v-7.448a2.336,2.336,0,0,1,2.313-2.353H547.98a2.336,2.336,0,0,1,2.313,2.353V276.3a2.335,2.335,0,0,1-2.313,2.353" transform="translate(-87.457 -37.119)" fill="#5f1f82"/>
      <path id="Trazado_231947" data-name="Trazado 231947" d="M491.535,253.7V225.608a1.046,1.046,0,0,1,1.029-1.056h33.731l13.366,13.718-.22,8.738v40.645a1.045,1.045,0,0,1-1.029,1.056h-16.07Z" transform="translate(-85.788 -39.191)" fill="#fff"/>
      <path id="Trazado_231948" data-name="Trazado 231948" d="M538.237,289.364h-16.07a.831.831,0,1,1,0-1.662h16.07a.216.216,0,0,0,.2-.225V246.811l.21-8.388-12.877-13.216h-33.38a.215.215,0,0,0-.2.225v28.092a.831.831,0,1,1-1.662,0V225.432a1.875,1.875,0,0,1,1.859-1.886h33.731a.831.831,0,0,1,.6.251l13.366,13.718a.83.83,0,0,1,.235.6l-.219,8.727v40.635a1.875,1.875,0,0,1-1.86,1.886" transform="translate(-85.612 -39.016)" fill="#5f1f82"/>
      <path id="Trazado_231949" data-name="Trazado 231949" d="M533.644,224.572l.1,11.449a3.426,3.426,0,0,0,3.174,3.61l9.868-.095Z" transform="translate(-93.137 -39.195)" fill="#f8a800"/>
      <path id="Trazado_231950" data-name="Trazado 231950" d="M536.72,240.286a3.737,3.737,0,0,1-2.825-1.331,4.749,4.749,0,0,1-1.153-3.1l-.1-11.449a.831.831,0,0,1,.823-.839h.007a.831.831,0,0,1,.831.824l.1,11.448a3.088,3.088,0,0,0,.739,2.021,2.106,2.106,0,0,0,1.578.766h.018l9.868-.095h.008a.831.831,0,0,1,.007,1.662l-9.868.095h-.035" transform="translate(-92.962 -39.019)" fill="#5f1f82"/>
      <path id="Trazado_231951" data-name="Trazado 231951" d="M520.6,241.489a2.642,2.642,0,1,0,2.641-2.71,2.676,2.676,0,0,0-2.641,2.71" transform="translate(-90.862 -41.674)" fill="#8628a5"/>
      <path id="Trazado_231952" data-name="Trazado 231952" d="M523.07,244.854a3.542,3.542,0,1,1,3.472-3.54,3.511,3.511,0,0,1-3.472,3.54m0-5.42a1.881,1.881,0,1,0,1.81,1.88,1.847,1.847,0,0,0-1.81-1.88" transform="translate(-90.686 -41.499)" fill="#5f1f82"/>
      <path id="Trazado_231953" data-name="Trazado 231953" d="M509.957,241.489a2.642,2.642,0,1,0,2.641-2.71,2.676,2.676,0,0,0-2.641,2.71" transform="translate(-89.003 -41.674)" fill="#8628a5"/>
      <path id="Trazado_231954" data-name="Trazado 231954" d="M512.422,244.854a3.542,3.542,0,1,1,3.472-3.54,3.51,3.51,0,0,1-3.472,3.54m0-5.42a1.881,1.881,0,1,0,1.81,1.88,1.847,1.847,0,0,0-1.81-1.88" transform="translate(-88.828 -41.499)" fill="#5f1f82"/>
      <path id="Trazado_231955" data-name="Trazado 231955" d="M498.906,241.489a2.642,2.642,0,1,0,2.641-2.71,2.676,2.676,0,0,0-2.641,2.71" transform="translate(-87.074 -41.674)" fill="#8628a5"/>
      <path id="Trazado_231956" data-name="Trazado 231956" d="M501.371,244.854a3.542,3.542,0,1,1,3.472-3.54,3.511,3.511,0,0,1-3.472,3.54m0-5.42a1.881,1.881,0,1,0,1.81,1.88,1.848,1.848,0,0,0-1.81-1.88" transform="translate(-86.899 -41.499)" fill="#5f1f82"/>
      <path id="Trazado_231957" data-name="Trazado 231957" d="M521.11,313.212l2.351,1.925,8.307,6.7c2.217,1.789,5.175,1.757,6.573-.069s.729-4.783-1.488-6.572l-8.307-6.7-2.5-1.9Z" transform="translate(-90.95 -53.51)" fill="#fff"/>
      <path id="Trazado_231958" data-name="Trazado 231958" d="M535.132,323.814a6.551,6.551,0,0,1-4.062-1.506l-8.307-6.7-2.356-1.929a.831.831,0,0,1,1.053-1.286l2.351,1.926,8.3,6.7a4.731,4.731,0,0,0,3.466,1.111,2.787,2.787,0,0,0,1.927-1.038c1.111-1.451.493-3.932-1.35-5.42l-8.3-6.693-2.492-1.9a.831.831,0,1,1,1.006-1.322l2.5,1.9.019.015,8.306,6.7c2.571,2.073,3.3,5.538,1.627,7.723a4.45,4.45,0,0,1-3.048,1.678,5.409,5.409,0,0,1-.645.038" transform="translate(-90.774 -53.334)" fill="#5f1f82"/>
      <path id="Trazado_231959" data-name="Trazado 231959" d="M520.237,296.559,525,300.311a2.132,2.132,0,0,1,.374,2.93l-7.378,9.858a2.008,2.008,0,0,1-2.856.385l-4.758-3.752Z" transform="translate(-89.077 -51.759)" fill="#fff"/>
      <path id="Trazado_231960" data-name="Trazado 231960" d="M516.193,314.569a2.809,2.809,0,0,1-1.747-.609l-4.758-3.752a.83.83,0,1,1,1.029-1.3l4.759,3.751a1.159,1.159,0,0,0,.876.242,1.183,1.183,0,0,0,.8-.471l7.378-9.858a1.31,1.31,0,0,0-.223-1.781l-4.759-3.752a.831.831,0,0,1,1.029-1.305l4.759,3.752a2.965,2.965,0,0,1,.525,4.081l-7.378,9.858a2.858,2.858,0,0,1-2.289,1.148" transform="translate(-88.901 -51.583)" fill="#5f1f82"/>
      <path id="Trazado_231961" data-name="Trazado 231961" d="M504.69,264.474a23.982,23.982,0,0,1,4.221,33.045,22.572,22.572,0,0,1-32.2,4.332,23.981,23.981,0,0,1-4.221-33.044,22.572,22.572,0,0,1,32.2-4.333" transform="translate(-81.635 -45.307)" fill="#fff"/>
      <path id="Trazado_231962" data-name="Trazado 231962" d="M490.479,307.388a23.241,23.241,0,0,1-14.456-5.06,24.375,24.375,0,0,1-9.089-16.172,24.692,24.692,0,0,1,4.717-18.023,23.508,23.508,0,0,1,15.858-9.346,23.217,23.217,0,0,1,17.519,4.859,24.379,24.379,0,0,1,9.089,16.173A24.691,24.691,0,0,1,509.4,297.84a23.528,23.528,0,0,1-18.921,9.547m.089-47.14a21.869,21.869,0,0,0-17.587,8.88,23.174,23.174,0,0,0,4.07,31.9,21.57,21.57,0,0,0,16.274,4.516,21.859,21.859,0,0,0,14.744-8.695A23.173,23.173,0,0,0,504,264.95a21.6,21.6,0,0,0-13.431-4.7" transform="translate(-81.459 -45.131)" fill="#5f1f82"/>
      <path id="Trazado_231963" data-name="Trazado 231963" d="M502.431,270.151a18.189,18.189,0,0,1,3.2,25.062,17.12,17.12,0,0,1-24.42,3.286,18.188,18.188,0,0,1-3.2-25.062,17.119,17.119,0,0,1,24.419-3.286" transform="translate(-82.798 -46.504)" fill="#59e5f5"/>
      <path id="Trazado_231964" data-name="Trazado 231964" d="M491.612,302.855a17.83,17.83,0,0,1-11.087-3.881,19.045,19.045,0,0,1-3.353-26.212,18.029,18.029,0,0,1,12.162-7.168,17.808,17.808,0,0,1,13.437,3.727,19.045,19.045,0,0,1,3.352,26.212,18.054,18.054,0,0,1-14.512,7.321m.068-35.752a16.38,16.38,0,0,0-13.177,6.655,17.373,17.373,0,0,0,3.051,23.911,16.162,16.162,0,0,0,12.192,3.384,16.382,16.382,0,0,0,11.047-6.515,17.373,17.373,0,0,0-3.051-23.912,16.181,16.181,0,0,0-10.062-3.523" transform="translate(-82.625 -46.328)" fill="#5f1f82"/>
      <path id="Trazado_231965" data-name="Trazado 231965" d="M507.828,296.854H491.36a.831.831,0,0,1-.831-.831V267.291a.831.831,0,1,1,1.662,0v27.9h15.637a.831.831,0,1,1,0,1.662" transform="translate(-85.612 -46.505)" fill="#5f1f82"/>
      <path id="Trazado_231966" data-name="Trazado 231966" d="M397.409,203.137v5.357a6.7,6.7,0,1,1-13.393,0v-7.149Z" transform="translate(-67.023 -35.141)" fill="#8628a5"/>
      <path id="Trazado_231967" data-name="Trazado 231967" d="M390.537,215.846a7.536,7.536,0,0,1-7.527-7.527v-7.149a.831.831,0,1,1,1.662,0v7.149a5.866,5.866,0,1,0,11.732,0v-5.357a.831.831,0,0,1,1.662,0v5.357a7.536,7.536,0,0,1-7.527,7.527" transform="translate(-66.847 -34.965)" fill="#5f1f82"/>
      <path id="Trazado_231968" data-name="Trazado 231968" d="M426.2,203.137v5.357a6.7,6.7,0,1,0,13.393,0v-7.151Z" transform="translate(-74.385 -35.141)" fill="#8628a5"/>
      <path id="Trazado_231969" data-name="Trazado 231969" d="M432.722,215.846a7.536,7.536,0,0,1-7.527-7.527v-5.357a.831.831,0,0,1,1.662,0v5.357a5.866,5.866,0,1,0,11.732,0v-7.151a.831.831,0,1,1,1.662,0v7.151a7.536,7.536,0,0,1-7.527,7.527" transform="translate(-74.21 -34.965)" fill="#5f1f82"/>
      <path id="Trazado_231970" data-name="Trazado 231970" d="M424.12,190.49H389.3A13.393,13.393,0,0,1,375.9,177.1V142.274A13.393,13.393,0,0,1,389.3,128.881H424.12a13.393,13.393,0,0,1,13.393,13.393V177.1A13.393,13.393,0,0,1,424.12,190.49" transform="translate(-65.607 -22.494)" fill="#fff"/>
      <path id="Trazado_231971" data-name="Trazado 231971" d="M423.944,191.145H389.121A14.241,14.241,0,0,1,374.9,176.921V142.1a14.24,14.24,0,0,1,14.224-14.224h34.822A14.24,14.24,0,0,1,438.168,142.1v34.822a14.241,14.241,0,0,1-14.224,14.224m-34.822-61.609A12.577,12.577,0,0,0,376.56,142.1v34.822a12.576,12.576,0,0,0,12.562,12.562h34.822a12.576,12.576,0,0,0,12.562-12.562V142.1a12.577,12.577,0,0,0-12.562-12.563Z" transform="translate(-65.431 -22.318)" fill="#5f1f82"/>
      <path id="Trazado_231972" data-name="Trazado 231972" d="M428.2,146.55a4.866,4.866,0,0,0-6.921,0l-16.324,16.8-4.631-4.766a4.866,4.866,0,0,0-6.921,0,4.422,4.422,0,0,0,0,6.212l8.09,8.326h0a5.5,5.5,0,0,0,3.753,1.445A6.339,6.339,0,0,0,409,173.126h0l19.491-20.362a4.434,4.434,0,0,0-.291-6.212" transform="translate(-68.439 -25.325)" fill="#f8a800"/>
      <path id="Trazado_231973" data-name="Trazado 231973" d="M405.072,175.227a6.37,6.37,0,0,1-4.345-1.693l0,0-8.09-8.327a5.263,5.263,0,0,1,0-7.371,5.7,5.7,0,0,1,8.113,0l4.035,4.153L420.509,145.8a5.7,5.7,0,0,1,8.113,0,5.275,5.275,0,0,1,.292,7.371L409.451,173.5a.815.815,0,0,1-.142.129,7.134,7.134,0,0,1-4.236,1.6m-3.157-2.854a4.679,4.679,0,0,0,3.157,1.193,5.457,5.457,0,0,0,3.2-1.243l19.441-20.309a3.586,3.586,0,0,0-.287-5.058,4.037,4.037,0,0,0-5.73,0l-16.324,16.8a.831.831,0,0,1-1.192,0l-4.63-4.766a4.037,4.037,0,0,0-5.73,0,3.609,3.609,0,0,0,0,5.054l8.089,8.326,0,0m6.91.579h0Z" transform="translate(-68.264 -25.15)" fill="#5f1f82"/>
      <path id="Trazado_231974" data-name="Trazado 231974" d="M460.436,136.363a.831.831,0,0,1-.831-.83,20.622,20.622,0,0,0-20.6-20.6.831.831,0,0,1,0-1.662,22.286,22.286,0,0,1,22.26,22.26.831.831,0,0,1-.831.83" transform="translate(-76.475 -19.769)" fill="#5f1f82"/>
      <path id="Trazado_231975" data-name="Trazado 231975" d="M361.126,136.363a.831.831,0,0,1-.832-.83,22.286,22.286,0,0,1,22.261-22.26.831.831,0,0,1,0,1.662,20.622,20.622,0,0,0-20.6,20.6.831.831,0,0,1-.831.83" transform="translate(-62.882 -19.769)" fill="#5f1f82"/>
      <path id="Trazado_231976" data-name="Trazado 231976" d="M311.3,249.914l2.713,10.752a1.857,1.857,0,0,1-1.861,1.922l-2.9-.007.349,4.438L306.94,270.9l3.877,5.111-3.877,10.937,3.5,4.5-3.5,5.148,2.519,2.933a1.693,1.693,0,0,1-.027,2.238l-8.476,9.394a2.161,2.161,0,0,1-3.5-.415l-5.349-9.831a4.7,4.7,0,0,1-.573-2.251V250.092a.6.6,0,0,0-.356-.546,25.653,25.653,0,0,1-10.212-8.291,25.321,25.321,0,0,1,.744-31.072,25.6,25.6,0,1,1,29.6,39.731" transform="translate(-48.171 -35.011)" fill="#fff"/>
      <path id="Trazado_231977" data-name="Trazado 231977" d="M299.175,312.526a2.936,2.936,0,0,1-.35-.021,3,3,0,0,1-2.276-1.541l-5.349-9.831a5.55,5.55,0,0,1-.674-2.648V250.068a26.333,26.333,0,0,1-10.407-8.5,26.155,26.155,0,0,1,.768-32.088,26.428,26.428,0,1,1,31.222,40.744l2.539,10.06a.83.83,0,0,1,.025.174,2.689,2.689,0,0,1-2.686,2.781h-.007l-2,0,.278,3.54a.829.829,0,0,1-.144.536l-2.327,3.383,3.514,4.633a.831.831,0,0,1,.121.78L307.7,286.617l3.223,4.141a.832.832,0,0,1,.031.978l-3.145,4.623,2.1,2.45a2.53,2.53,0,0,1-.04,3.336l-8.476,9.394a3,3,0,0,1-2.223.987m2.316-111.267q-.646,0-1.293.034a24.763,24.763,0,0,0-8.856,47.319,1.433,1.433,0,0,1,.846,1.3v48.569a3.89,3.89,0,0,0,.472,1.854l5.349,9.831a1.329,1.329,0,0,0,2.155.255l8.477-9.393a.865.865,0,0,0,.013-1.14l-2.518-2.933a.83.83,0,0,1-.057-1.009l3.162-4.649-3.131-4.023a.832.832,0,0,1-.128-.787l3.728-10.516-3.606-4.754a.832.832,0,0,1-.022-.973l2.5-3.635-.326-4.145a.83.83,0,0,1,.828-.9h0l2.9.007h0a1.025,1.025,0,0,0,1.026-.986l-2.689-10.654a.83.83,0,0,1,.494-.973,24.766,24.766,0,0,0-9.325-47.71" transform="translate(-47.995 -34.836)" fill="#5f1f82"/>
      <path id="Trazado_231978" data-name="Trazado 231978" d="M306.359,200.615v0Z" transform="translate(-53.469 -35.013)" fill="#fff"/>
      <path id="Trazado_231979" data-name="Trazado 231979" d="M306.183,217.764a.831.831,0,0,1-.83-.83V200.439a.831.831,0,0,1,1.662,0v16.495a.831.831,0,0,1-.831.83" transform="translate(-53.293 -34.838)" fill="#5f1f82"/>
      <path id="Trazado_231980" data-name="Trazado 231980" d="M302.624,321.408v0Z" transform="translate(-52.817 -45.476)" fill="#fff"/>
      <path id="Trazado_231981" data-name="Trazado 231981" d="M302.448,322.062a.831.831,0,0,1-.83-.831V260.382a.83.83,0,1,1,1.661,0v60.849a.831.831,0,0,1-.83.831" transform="translate(-52.642 -45.3)" fill="#5f1f82"/>
      <path id="Trazado_231982" data-name="Trazado 231982" d="M319.723,203.449l.1,14.662,2.823.1a.987.987,0,0,1,.952,1l-.124,8.2Z" transform="translate(-55.802 -35.508)" fill="#fff"/>
      <path id="Trazado_231983" data-name="Trazado 231983" d="M323.3,228.069h-.013a.832.832,0,0,1-.818-.844l.125-8.2a.158.158,0,0,0-.152-.159l-2.823-.1a.83.83,0,0,1-.8-.824l-.1-14.663a.831.831,0,0,1,.825-.836h.006a.831.831,0,0,1,.831.825l.1,13.867,2.028.074a1.828,1.828,0,0,1,1.752,1.845l-.124,8.2a.831.831,0,0,1-.83.818" transform="translate(-55.626 -35.333)" fill="#5f1f82"/>
      <path id="Trazado_231984" data-name="Trazado 231984" d="M327.146,236.324a3.431,3.431,0,1,0-3.818,2.995,3.432,3.432,0,0,0,3.818-2.995" transform="translate(-55.904 -40.575)" fill="#f8a800"/>
      <path id="Trazado_231985" data-name="Trazado 231985" d="M323.573,240a4.262,4.262,0,1,1,2.622-.909,4.244,4.244,0,0,1-2.622.909m-.011-6.862a2.6,2.6,0,1,0,.314.019,2.7,2.7,0,0,0-.314-.019" transform="translate(-55.728 -40.399)" fill="#5f1f82"/>
      <path id="Trazado_231986" data-name="Trazado 231986" d="M292.555,204.254l-.1,14.662-2.823.1a.987.987,0,0,0-.952,1l.124,8.222Z" transform="translate(-50.383 -35.649)" fill="#fff"/>
      <path id="Trazado_231987" data-name="Trazado 231987" d="M288.623,228.9a.831.831,0,0,1-.83-.818l-.125-8.222a1.829,1.829,0,0,1,1.752-1.845l2.028-.074.1-13.867a.831.831,0,0,1,.831-.825h.006a.831.831,0,0,1,.825.837l-.1,14.662a.831.831,0,0,1-.8.825l-2.823.1a.159.159,0,0,0-.151.159l.125,8.222a.832.832,0,0,1-.819.844h-.012" transform="translate(-50.207 -35.473)" fill="#5f1f82"/>
      <path id="Trazado_231988" data-name="Trazado 231988" d="M284.5,237.128a3.431,3.431,0,1,1,3.818,2.995,3.432,3.432,0,0,1-3.818-2.995" transform="translate(-49.65 -40.715)" fill="#59e5f5"/>
      <path id="Trazado_231989" data-name="Trazado 231989" d="M287.729,240.8a4.258,4.258,0,1,1,.514-.031,4.327,4.327,0,0,1-.514.031m-2.578-3.95a2.6,2.6,0,1,0,.536-1.917,2.6,2.6,0,0,0-.536,1.917" transform="translate(-49.474 -40.54)" fill="#5f1f82"/>
      <path id="Trazado_231990" data-name="Trazado 231990" d="M309.325,225.742a4.3,4.3,0,1,0-5.062,3.377,4.3,4.3,0,0,0,5.062-3.377" transform="translate(-52.499 -38.501)" fill="#8628a5"/>
      <path id="Trazado_231991" data-name="Trazado 231991" d="M304.932,229.858a5.134,5.134,0,1,1,5.032-4.129,5.118,5.118,0,0,1-5.032,4.129m-.009-8.606a3.474,3.474,0,1,0,.687.068,3.527,3.527,0,0,0-.687-.068m4.226,4.315h0Z" transform="translate(-52.323 -38.325)" fill="#5f1f82"/>
      <path id="Trazado_231992" data-name="Trazado 231992" d="M307.1,200.615v0Z" transform="translate(-53.599 -35.013)" fill="#fff"/>
      <path id="Trazado_231993" data-name="Trazado 231993" d="M306.928,217.764a.831.831,0,0,1-.831-.83V200.439a.831.831,0,0,1,1.663,0v16.495a.831.831,0,0,1-.831.83" transform="translate(-53.423 -34.838)" fill="#5f1f82"/>
    </g>
  </g>
</svg>
