<svg id="Grupo_235914" data-name="Grupo 235914" xmlns="http://www.w3.org/2000/svg" xmlns:xlink="http://www.w3.org/1999/xlink" width="75" height="75" viewBox="0 0 75 75">
  <defs>
    <clipPath id="clip-path">
      <rect id="Rectángulo_313055" data-name="Rectángulo 313055" width="75" height="75" fill="none"/>
    </clipPath>
  </defs>
  <g id="Grupo_235913" data-name="Grupo 235913" clip-path="url(#clip-path)">
    <path id="Trazado_228236" data-name="Trazado 228236" d="M53.226,53.226v6.048l2.481.828a1.678,1.678,0,0,1,0,3.184l-2.481.827v6.048H70.161V53.226Z" fill="#f8a800"/>
    <path id="Trazado_228237" data-name="Trazado 228237" d="M18.145,0V2.42H72.58V72.58H19.354V67.741H47.4l8.75-3.279a2.957,2.957,0,0,0,0-5.536L47.4,55.646H19.354V38.71H16.935V55.646H6.048a6.047,6.047,0,1,0,0,12.095H16.935V75H75V0ZM45.967,60.483H16.935V58.065H45.967Zm-31.451,4.84H12.1V58.065h2.419Zm2.419-2.42H45.967v2.42H16.935Zm38.71-1.21a.538.538,0,0,1-.349.5l-6.909,2.59V58.6l6.91,2.59a.538.538,0,0,1,.348.5m-53.226,0a3.634,3.634,0,0,1,3.629-3.628H9.677v7.258H6.048a3.635,3.635,0,0,1-3.629-3.63"/>
    <rect id="Rectángulo_313046" data-name="Rectángulo 313046" width="29.032" height="2.419" transform="translate(21.774 48.387)"/>
    <rect id="Rectángulo_313047" data-name="Rectángulo 313047" width="29.032" height="2.419" transform="translate(21.774 43.548)"/>
    <path id="Trazado_228238" data-name="Trazado 228238" d="M70.161,21.774H38.709V19.355H67.742V7.258H31.709V4.839H70.161Z"/>
    <path id="Trazado_228239" data-name="Trazado 228239" d="M38.71,23.928V14.781l-3.31-.826a16.941,16.941,0,0,0-.879-2.134L36.275,8.9,29.807,2.435,26.889,4.189a17.185,17.185,0,0,0-2.134-.88L23.928,0H14.782l-.827,3.309a16.858,16.858,0,0,0-2.134.88L8.9,2.435,2.435,8.9l1.754,2.918a17.118,17.118,0,0,0-.879,2.134L0,14.781v9.147l3.31.826a16.941,16.941,0,0,0,.879,2.134L2.435,29.806,8.9,36.275l2.918-1.753a17.18,17.18,0,0,0,2.134.879l.826,3.308h9.146l.827-3.309a16.858,16.858,0,0,0,2.134-.88l2.918,1.754,6.469-6.469-1.754-2.918a17.275,17.275,0,0,0,.88-2.134ZM19.355,25.4A6.049,6.049,0,1,1,25.4,19.355,6.048,6.048,0,0,1,19.355,25.4" fill="#f8a800"/>
    <path id="Trazado_228240" data-name="Trazado 228240" d="M19.355,31.451a12.1,12.1,0,1,1,12.1-12.1,12.11,12.11,0,0,1-12.1,12.1m0-21.774a9.677,9.677,0,1,0,9.677,9.677,9.688,9.688,0,0,0-9.677-9.677"/>
    <path id="Trazado_228241" data-name="Trazado 228241" d="M19.355,26.613a7.258,7.258,0,1,1,7.258-7.258,7.265,7.265,0,0,1-7.258,7.258m0-12.1a4.839,4.839,0,1,0,4.839,4.839,4.843,4.843,0,0,0-4.839-4.839"/>
    <rect id="Rectángulo_313048" data-name="Rectángulo 313048" width="16.935" height="16.935" transform="translate(53.226 33.871)" fill="#f8a800"/>
    <rect id="Rectángulo_313049" data-name="Rectángulo 313049" width="21.774" height="2.419" transform="translate(29.032 38.71)"/>
    <rect id="Rectángulo_313050" data-name="Rectángulo 313050" width="14.516" height="2.419" transform="translate(36.29 33.871)"/>
    <rect id="Rectángulo_313051" data-name="Rectángulo 313051" width="2.419" height="2.419" transform="translate(67.742 29.032)"/>
    <rect id="Rectángulo_313052" data-name="Rectángulo 313052" width="24.194" height="2.419" transform="translate(41.129 29.032)"/>
    <rect id="Rectángulo_313053" data-name="Rectángulo 313053" width="2.419" height="2.419" transform="translate(41.129 24.194)"/>
    <rect id="Rectángulo_313054" data-name="Rectángulo 313054" width="24.194" height="2.419" transform="translate(45.968 24.194)"/>
  </g>
</svg>
