<svg xmlns="http://www.w3.org/2000/svg" xmlns:xlink="http://www.w3.org/1999/xlink" width="935" height="298" viewBox="0 0 935 298">
  <defs>
    <clipPath id="clip-path">
      <rect id="Rectángulo_313593" data-name="Rectángulo 313593" width="800" height="249.19" fill="none"/>
    </clipPath>
  </defs>
  <g id="Grupo_238133" data-name="Grupo 238133" transform="translate(9425 2439)">
    <g id="Trazado_232701" data-name="Trazado 232701" transform="translate(-9425 -2439)" fill="#fff">
      <path d="M 934.5 297.5 L 0.5 297.5 L 0.5 0.5 L 934.5 0.5 L 934.5 297.5 Z" stroke="none"/>
      <path d="M 1 1 L 1 297 L 934 297 L 934 1 L 1 1 M 0 0 L 935 0 L 935 298 L 0 298 L 0 0 Z" stroke="none" fill="#707070"/>
    </g>
    <path id="Trazado_232702" data-name="Trazado 232702" d="M.567-3.652l2.2-.214a2.69,2.69,0,0,0,.808,1.631,2.442,2.442,0,0,0,1.642.521,2.524,2.524,0,0,0,1.65-.463,1.378,1.378,0,0,0,.555-1.083,1.022,1.022,0,0,0-.233-.678,1.866,1.866,0,0,0-.815-.486q-.4-.138-1.814-.49a6.155,6.155,0,0,1-2.557-1.11A2.92,2.92,0,0,1,.972-8.283a2.885,2.885,0,0,1,.486-1.6,3.044,3.044,0,0,1,1.4-1.137,5.615,5.615,0,0,1,2.209-.39,4.738,4.738,0,0,1,3.181.926A3.27,3.27,0,0,1,9.371-8.015l-2.266.1A1.924,1.924,0,0,0,6.481-9.16a2.284,2.284,0,0,0-1.435-.379A2.589,2.589,0,0,0,3.5-9.133a.818.818,0,0,0-.36.7.862.862,0,0,0,.337.681A5.957,5.957,0,0,0,5.558-7,10.989,10.989,0,0,1,8-6.2a3.152,3.152,0,0,1,1.24,1.141,3.336,3.336,0,0,1,.448,1.788,3.305,3.305,0,0,1-.536,1.807A3.212,3.212,0,0,1,7.64-.211,6.357,6.357,0,0,1,5.2.2,4.862,4.862,0,0,1,1.929-.785,4.279,4.279,0,0,1,.567-3.652ZM16.291-2.588l2.144.36a3.516,3.516,0,0,1-1.305,1.8A3.835,3.835,0,0,1,14.9.184,3.638,3.638,0,0,1,11.759-1.2a4.655,4.655,0,0,1-.8-2.8A4.489,4.489,0,0,1,12.012-7.17a3.479,3.479,0,0,1,2.672-1.145,3.609,3.609,0,0,1,2.863,1.2,5.3,5.3,0,0,1,1,3.671H13.16a2.177,2.177,0,0,0,.521,1.489,1.628,1.628,0,0,0,1.24.532,1.317,1.317,0,0,0,.85-.276A1.7,1.7,0,0,0,16.291-2.588Zm.122-2.174a2.071,2.071,0,0,0-.482-1.42,1.48,1.48,0,0,0-1.118-.486,1.494,1.494,0,0,0-1.164.513A1.985,1.985,0,0,0,13.2-4.762ZM27.7,0H25.547V-4.149a6.413,6.413,0,0,0-.138-1.7,1.2,1.2,0,0,0-.448-.6,1.28,1.28,0,0,0-.746-.214,1.725,1.725,0,0,0-1,.306,1.543,1.543,0,0,0-.609.812,7.014,7.014,0,0,0-.165,1.868V0H20.288V-8.13h2v1.194a3.255,3.255,0,0,1,2.679-1.378,3.228,3.228,0,0,1,1.3.256,2.181,2.181,0,0,1,.892.655,2.371,2.371,0,0,1,.421.9A6.72,6.72,0,0,1,27.7-5.053Zm9.638,0h-2V-1.194A3.228,3.228,0,0,1,34.163-.157,3.015,3.015,0,0,1,32.8.184,3.1,3.1,0,0,1,30.4-.945a4.593,4.593,0,0,1-1-3.15,4.54,4.54,0,0,1,.972-3.143,3.17,3.17,0,0,1,2.457-1.076,3.044,3.044,0,0,1,2.358,1.133v-4.042h2.151ZM31.595-4.241a3.723,3.723,0,0,0,.36,1.883,1.626,1.626,0,0,0,1.455.842,1.583,1.583,0,0,0,1.263-.632,2.915,2.915,0,0,0,.521-1.887,3.19,3.19,0,0,0-.505-2.017,1.6,1.6,0,0,0-1.294-.616,1.616,1.616,0,0,0-1.282.609A2.75,2.75,0,0,0,31.595-4.241ZM44.166-2.588l2.144.36A3.516,3.516,0,0,1,45-.433a3.835,3.835,0,0,1-2.232.616A3.638,3.638,0,0,1,39.633-1.2a4.655,4.655,0,0,1-.8-2.8A4.489,4.489,0,0,1,39.886-7.17a3.479,3.479,0,0,1,2.672-1.145,3.609,3.609,0,0,1,2.863,1.2,5.3,5.3,0,0,1,1,3.671h-5.39a2.177,2.177,0,0,0,.521,1.489,1.628,1.628,0,0,0,1.24.532,1.317,1.317,0,0,0,.85-.276A1.7,1.7,0,0,0,44.166-2.588Zm.122-2.174a2.071,2.071,0,0,0-.482-1.42,1.48,1.48,0,0,0-1.118-.486,1.494,1.494,0,0,0-1.164.513,1.985,1.985,0,0,0-.452,1.393ZM50.236,0H48.085V-8.13h2v1.156a3.475,3.475,0,0,1,.923-1.079,1.7,1.7,0,0,1,.93-.26,2.73,2.73,0,0,1,1.416.406l-.666,1.876a1.888,1.888,0,0,0-1.011-.352,1.194,1.194,0,0,0-.766.249,1.7,1.7,0,0,0-.494.9,12.779,12.779,0,0,0-.18,2.725Z" transform="translate(-9336.571 -2284.541)"/>
    <path id="Trazado_232703" data-name="Trazado 232703" d="M1.141,0V-11.223H4.777a13.187,13.187,0,0,1,2.695.168,2.943,2.943,0,0,1,1.615,1.1A3.484,3.484,0,0,1,9.738-7.77a3.662,3.662,0,0,1-.375,1.738A3.077,3.077,0,0,1,8.41-4.926a3.284,3.284,0,0,1-1.175.532,12.935,12.935,0,0,1-2.35.161H3.407V0ZM3.407-9.325V-6.14h1.24a5.86,5.86,0,0,0,1.791-.176,1.488,1.488,0,0,0,.708-.551A1.509,1.509,0,0,0,7.4-7.74a1.45,1.45,0,0,0-.36-1.011,1.567,1.567,0,0,0-.911-.5A10.892,10.892,0,0,0,4.5-9.325ZM11.583,0V-11.223h2.151V0Zm5.964-5.65L15.595-6a3.041,3.041,0,0,1,1.133-1.745,4.146,4.146,0,0,1,2.389-.567,5.148,5.148,0,0,1,2.144.341,2.138,2.138,0,0,1,.991.865,4.436,4.436,0,0,1,.287,1.925l-.023,2.511a8.718,8.718,0,0,0,.1,1.581A4.614,4.614,0,0,0,23.005,0H20.877q-.084-.214-.207-.635-.054-.191-.077-.253a3.878,3.878,0,0,1-1.179.8,3.377,3.377,0,0,1-1.34.268A2.77,2.77,0,0,1,16.1-.5a2.265,2.265,0,0,1-.723-1.723A2.312,2.312,0,0,1,15.7-3.449a2.151,2.151,0,0,1,.923-.827,7.21,7.21,0,0,1,1.711-.5,11.721,11.721,0,0,0,2.09-.528V-5.52a1.114,1.114,0,0,0-.306-.884,1.835,1.835,0,0,0-1.156-.264,1.539,1.539,0,0,0-.9.226A1.569,1.569,0,0,0,17.547-5.65ZM20.425-3.9a13.446,13.446,0,0,1-1.309.329,3.943,3.943,0,0,0-1.171.375.9.9,0,0,0-.421.758,1.055,1.055,0,0,0,.337.781,1.176,1.176,0,0,0,.857.329,1.863,1.863,0,0,0,1.11-.383,1.347,1.347,0,0,0,.513-.712,4.248,4.248,0,0,0,.084-1.049Zm4.234-5.328v-1.99H26.81v1.99Zm0,9.233V-8.13H26.81V0ZM36.41,0H34.259V-4.149a6.413,6.413,0,0,0-.138-1.7,1.2,1.2,0,0,0-.448-.6,1.28,1.28,0,0,0-.746-.214,1.725,1.725,0,0,0-1,.306,1.543,1.543,0,0,0-.609.812,7.014,7.014,0,0,0-.165,1.868V0H29V-8.13h2v1.194a3.255,3.255,0,0,1,2.679-1.378,3.228,3.228,0,0,1,1.3.256,2.181,2.181,0,0,1,.892.655,2.371,2.371,0,0,1,.421.9,6.72,6.72,0,0,1,.119,1.447Zm5.91-8.13v1.715h-1.47v3.277a8.149,8.149,0,0,0,.042,1.16.473.473,0,0,0,.191.272.607.607,0,0,0,.364.107,2.783,2.783,0,0,0,.865-.207L42.5-.138a4.276,4.276,0,0,1-1.7.322,2.7,2.7,0,0,1-1.049-.2,1.531,1.531,0,0,1-.685-.505,1.994,1.994,0,0,1-.3-.838,10.428,10.428,0,0,1-.069-1.516V-6.415H37.7V-8.13h.988V-9.746L40.851-11V-8.13Zm6.2,5.543,2.144.36a3.516,3.516,0,0,1-1.305,1.8,3.835,3.835,0,0,1-2.232.616A3.638,3.638,0,0,1,43.989-1.2a4.655,4.655,0,0,1-.8-2.8A4.489,4.489,0,0,1,44.242-7.17a3.479,3.479,0,0,1,2.672-1.145,3.609,3.609,0,0,1,2.863,1.2,5.3,5.3,0,0,1,1,3.671H45.39a2.177,2.177,0,0,0,.521,1.489,1.628,1.628,0,0,0,1.24.532A1.317,1.317,0,0,0,48-1.7,1.7,1.7,0,0,0,48.522-2.588Zm.122-2.174a2.071,2.071,0,0,0-.482-1.42,1.48,1.48,0,0,0-1.118-.486,1.494,1.494,0,0,0-1.164.513,1.985,1.985,0,0,0-.452,1.393ZM51.5,0l2.932-4.188L51.622-8.13h2.626l1.439,2.235L57.2-8.13h2.526L56.973-4.28,59.982,0H57.341L55.687-2.519,54.018,0ZM64.981-8.13v1.715h-1.47v3.277a8.149,8.149,0,0,0,.042,1.16.473.473,0,0,0,.191.272.607.607,0,0,0,.364.107,2.783,2.783,0,0,0,.865-.207l.184,1.669a4.276,4.276,0,0,1-1.7.322,2.7,2.7,0,0,1-1.049-.2,1.531,1.531,0,0,1-.685-.505,1.994,1.994,0,0,1-.3-.838,10.428,10.428,0,0,1-.069-1.516V-6.415h-.988V-8.13h.988V-9.746L63.511-11V-8.13Z" transform="translate(-9201.217 -2315.412)"/>
    <path id="Trazado_232704" data-name="Trazado 232704" d="M8.582,0h-2V-1.194A3.228,3.228,0,0,1,5.409-.157,3.015,3.015,0,0,1,4.042.184a3.1,3.1,0,0,1-2.4-1.129,4.593,4.593,0,0,1-1-3.15,4.54,4.54,0,0,1,.972-3.143A3.17,3.17,0,0,1,4.073-8.314,3.044,3.044,0,0,1,6.431-7.181v-4.042H8.582ZM2.84-4.241A3.723,3.723,0,0,0,3.2-2.358a1.626,1.626,0,0,0,1.455.842,1.583,1.583,0,0,0,1.263-.632,2.915,2.915,0,0,0,.521-1.887,3.19,3.19,0,0,0-.505-2.017,1.6,1.6,0,0,0-1.294-.616,1.616,1.616,0,0,0-1.282.609A2.75,2.75,0,0,0,2.84-4.241ZM12.31-5.65,10.358-6a3.041,3.041,0,0,1,1.133-1.745,4.146,4.146,0,0,1,2.389-.567,5.148,5.148,0,0,1,2.144.341,2.138,2.138,0,0,1,.991.865A4.436,4.436,0,0,1,17.3-5.183l-.023,2.511a8.718,8.718,0,0,0,.1,1.581A4.614,4.614,0,0,0,17.769,0H15.641q-.084-.214-.207-.635-.054-.191-.077-.253a3.878,3.878,0,0,1-1.179.8,3.377,3.377,0,0,1-1.34.268A2.77,2.77,0,0,1,10.86-.5a2.265,2.265,0,0,1-.723-1.723,2.312,2.312,0,0,1,.329-1.229,2.151,2.151,0,0,1,.923-.827,7.21,7.21,0,0,1,1.711-.5,11.721,11.721,0,0,0,2.09-.528V-5.52a1.114,1.114,0,0,0-.306-.884,1.835,1.835,0,0,0-1.156-.264,1.539,1.539,0,0,0-.9.226A1.569,1.569,0,0,0,12.31-5.65ZM15.189-3.9a13.447,13.447,0,0,1-1.309.329,3.943,3.943,0,0,0-1.171.375.9.9,0,0,0-.421.758,1.055,1.055,0,0,0,.337.781,1.176,1.176,0,0,0,.857.329,1.863,1.863,0,0,0,1.11-.383,1.347,1.347,0,0,0,.513-.712,4.248,4.248,0,0,0,.084-1.049ZM23.151-8.13v1.715h-1.47v3.277a8.15,8.15,0,0,0,.042,1.16.473.473,0,0,0,.191.272.607.607,0,0,0,.364.107,2.783,2.783,0,0,0,.865-.207l.184,1.669a4.276,4.276,0,0,1-1.7.322,2.7,2.7,0,0,1-1.049-.2,1.531,1.531,0,0,1-.685-.505,1.994,1.994,0,0,1-.3-.838,10.428,10.428,0,0,1-.069-1.516V-6.415h-.988V-8.13h.988V-9.746L21.681-11V-8.13Zm3.1,2.48L24.3-6a3.041,3.041,0,0,1,1.133-1.745,4.146,4.146,0,0,1,2.389-.567,5.148,5.148,0,0,1,2.144.341,2.138,2.138,0,0,1,.991.865,4.436,4.436,0,0,1,.287,1.925L31.22-2.672a8.718,8.718,0,0,0,.1,1.581A4.614,4.614,0,0,0,31.71,0H29.581q-.084-.214-.207-.635-.054-.191-.077-.253a3.878,3.878,0,0,1-1.179.8,3.377,3.377,0,0,1-1.34.268A2.77,2.77,0,0,1,24.8-.5a2.265,2.265,0,0,1-.723-1.723,2.312,2.312,0,0,1,.329-1.229,2.151,2.151,0,0,1,.923-.827,7.21,7.21,0,0,1,1.711-.5,11.721,11.721,0,0,0,2.09-.528V-5.52a1.114,1.114,0,0,0-.306-.884,1.835,1.835,0,0,0-1.156-.264,1.539,1.539,0,0,0-.9.226A1.569,1.569,0,0,0,26.251-5.65ZM29.13-3.9a13.446,13.446,0,0,1-1.309.329,3.943,3.943,0,0,0-1.171.375.9.9,0,0,0-.421.758,1.055,1.055,0,0,0,.337.781,1.176,1.176,0,0,0,.857.329,1.863,1.863,0,0,0,1.11-.383,1.348,1.348,0,0,0,.513-.712,4.248,4.248,0,0,0,.084-1.049Z" transform="translate(-9184.659 -2296.598)"/>
    <path id="Trazado_232705" data-name="Trazado 232705" d="M8.322-4.126l2.2.7A4.928,4.928,0,0,1,8.838-.7,4.793,4.793,0,0,1,5.857.191,4.828,4.828,0,0,1,2.182-1.336,5.844,5.844,0,0,1,.743-5.512,6.135,6.135,0,0,1,2.19-9.864a4.961,4.961,0,0,1,3.8-1.55A4.668,4.668,0,0,1,9.34-10.2,4.427,4.427,0,0,1,10.488-8.13l-2.243.536a2.379,2.379,0,0,0-.831-1.378A2.38,2.38,0,0,0,5.88-9.478a2.554,2.554,0,0,0-2.025.9,4.391,4.391,0,0,0-.777,2.9,4.708,4.708,0,0,0,.766,3.032,2.486,2.486,0,0,0,1.99.9A2.27,2.27,0,0,0,7.388-2.32,3.335,3.335,0,0,0,8.322-4.126Zm4.126-5.106v-1.99H14.6v1.99Zm0,9.233V-8.13H14.6V0Zm4.295-8.13h2.006v1.194a3,3,0,0,1,1.056-1,2.912,2.912,0,0,1,1.478-.383,3.1,3.1,0,0,1,2.4,1.11,4.493,4.493,0,0,1,.988,3.093,4.629,4.629,0,0,1-1,3.166A3.1,3.1,0,0,1,21.267.184a2.74,2.74,0,0,1-1.221-.268A4.116,4.116,0,0,1,18.894-1v4.1H16.743ZM18.871-4.2a3.132,3.132,0,0,0,.544,2.025,1.663,1.663,0,0,0,1.324.655,1.554,1.554,0,0,0,1.248-.6,3.1,3.1,0,0,0,.5-1.971,2.939,2.939,0,0,0-.513-1.9,1.587,1.587,0,0,0-1.271-.62,1.65,1.65,0,0,0-1.309.609A2.709,2.709,0,0,0,18.871-4.2Zm9.654-7.02V-7.1a3.173,3.173,0,0,1,2.488-1.217,3.16,3.16,0,0,1,1.34.276,2.189,2.189,0,0,1,.9.7,2.553,2.553,0,0,1,.413.949,8.487,8.487,0,0,1,.111,1.615V0H31.626V-4.295A6.359,6.359,0,0,0,31.5-5.918a1.065,1.065,0,0,0-.433-.547,1.391,1.391,0,0,0-.777-.2,1.783,1.783,0,0,0-.957.26,1.5,1.5,0,0,0-.616.785,4.687,4.687,0,0,0-.2,1.55V0H26.374V-11.223ZM40.667-2.588l2.144.36a3.516,3.516,0,0,1-1.305,1.8,3.835,3.835,0,0,1-2.232.616A3.638,3.638,0,0,1,36.135-1.2a4.655,4.655,0,0,1-.8-2.8A4.489,4.489,0,0,1,36.387-7.17a3.479,3.479,0,0,1,2.672-1.145,3.609,3.609,0,0,1,2.863,1.2,5.3,5.3,0,0,1,1,3.671h-5.39a2.177,2.177,0,0,0,.521,1.489,1.628,1.628,0,0,0,1.24.532,1.317,1.317,0,0,0,.85-.276A1.7,1.7,0,0,0,40.667-2.588Zm.122-2.174a2.071,2.071,0,0,0-.482-1.42,1.48,1.48,0,0,0-1.118-.486,1.494,1.494,0,0,0-1.164.513,1.985,1.985,0,0,0-.452,1.393ZM46.738,0H44.587V-8.13h2v1.156a3.475,3.475,0,0,1,.923-1.079,1.7,1.7,0,0,1,.93-.26,2.73,2.73,0,0,1,1.416.406l-.666,1.876a1.888,1.888,0,0,0-1.011-.352,1.194,1.194,0,0,0-.766.249,1.7,1.7,0,0,0-.494.9,12.779,12.779,0,0,0-.18,2.725Zm8.75-2.588,2.144.36a3.516,3.516,0,0,1-1.305,1.8,3.835,3.835,0,0,1-2.232.616A3.638,3.638,0,0,1,50.956-1.2a4.655,4.655,0,0,1-.8-2.8A4.489,4.489,0,0,1,51.209-7.17a3.479,3.479,0,0,1,2.672-1.145,3.609,3.609,0,0,1,2.863,1.2,5.3,5.3,0,0,1,1,3.671h-5.39a2.177,2.177,0,0,0,.521,1.489,1.628,1.628,0,0,0,1.24.532,1.317,1.317,0,0,0,.85-.276A1.7,1.7,0,0,0,55.488-2.588Zm.122-2.174a2.071,2.071,0,0,0-.482-1.42,1.48,1.48,0,0,0-1.118-.486,1.494,1.494,0,0,0-1.164.513A1.985,1.985,0,0,0,52.4-4.762ZM66.956,0h-2V-1.194A3.228,3.228,0,0,1,63.783-.157a3.015,3.015,0,0,1-1.367.341,3.1,3.1,0,0,1-2.4-1.129,4.593,4.593,0,0,1-1-3.15,4.54,4.54,0,0,1,.972-3.143,3.17,3.17,0,0,1,2.457-1.076,3.044,3.044,0,0,1,2.358,1.133v-4.042h2.151ZM61.215-4.241a3.723,3.723,0,0,0,.36,1.883,1.626,1.626,0,0,0,1.455.842,1.583,1.583,0,0,0,1.263-.632,2.915,2.915,0,0,0,.521-1.887,3.19,3.19,0,0,0-.505-2.017,1.6,1.6,0,0,0-1.294-.616,1.616,1.616,0,0,0-1.282.609A2.75,2.75,0,0,0,61.215-4.241Z" transform="translate(-8996.153 -2295.312)"/>
    <path id="Trazado_232706" data-name="Trazado 232706" d="M1.133-11.223H5.275a8.088,8.088,0,0,1,2.136.214A3.753,3.753,0,0,1,9.1-9.975a4.9,4.9,0,0,1,1.072,1.818A8.283,8.283,0,0,1,10.542-5.5,7.376,7.376,0,0,1,10.2-3.116,4.948,4.948,0,0,1,9-1.133a3.984,3.984,0,0,1-1.592.9A6.856,6.856,0,0,1,5.4,0H1.133ZM3.4-9.325v7.434H5.091A6.174,6.174,0,0,0,6.461-2a2.092,2.092,0,0,0,.915-.467A2.376,2.376,0,0,0,7.97-3.548,7.322,7.322,0,0,0,8.2-5.6a6.7,6.7,0,0,0-.23-2,2.568,2.568,0,0,0-.643-1.087,2.156,2.156,0,0,0-1.049-.528,10.274,10.274,0,0,0-1.86-.107ZM14.056-5.65,12.1-6a3.041,3.041,0,0,1,1.133-1.745,4.146,4.146,0,0,1,2.389-.567,5.148,5.148,0,0,1,2.144.341,2.138,2.138,0,0,1,.991.865,4.436,4.436,0,0,1,.287,1.925l-.023,2.511a8.718,8.718,0,0,0,.1,1.581A4.614,4.614,0,0,0,19.514,0H17.386q-.084-.214-.207-.635-.054-.191-.077-.253a3.878,3.878,0,0,1-1.179.8,3.377,3.377,0,0,1-1.34.268A2.77,2.77,0,0,1,12.605-.5a2.265,2.265,0,0,1-.723-1.723,2.312,2.312,0,0,1,.329-1.229,2.151,2.151,0,0,1,.923-.827,7.21,7.21,0,0,1,1.711-.5,11.721,11.721,0,0,0,2.09-.528V-5.52a1.114,1.114,0,0,0-.306-.884,1.835,1.835,0,0,0-1.156-.264,1.539,1.539,0,0,0-.9.226A1.569,1.569,0,0,0,14.056-5.65ZM16.934-3.9a13.446,13.446,0,0,1-1.309.329,3.943,3.943,0,0,0-1.171.375.9.9,0,0,0-.421.758,1.055,1.055,0,0,0,.337.781,1.176,1.176,0,0,0,.857.329,1.863,1.863,0,0,0,1.11-.383,1.347,1.347,0,0,0,.513-.712,4.248,4.248,0,0,0,.084-1.049ZM24.9-8.13v1.715h-1.47v3.277a8.15,8.15,0,0,0,.042,1.16.473.473,0,0,0,.191.272.607.607,0,0,0,.364.107,2.783,2.783,0,0,0,.865-.207l.184,1.669a4.276,4.276,0,0,1-1.7.322,2.7,2.7,0,0,1-1.049-.2,1.531,1.531,0,0,1-.685-.505,1.994,1.994,0,0,1-.3-.838,10.428,10.428,0,0,1-.069-1.516V-6.415H20.28V-8.13h.988V-9.746L23.426-11V-8.13ZM28-5.65,26.045-6a3.041,3.041,0,0,1,1.133-1.745,4.146,4.146,0,0,1,2.389-.567,5.148,5.148,0,0,1,2.144.341,2.138,2.138,0,0,1,.991.865,4.436,4.436,0,0,1,.287,1.925l-.023,2.511a8.718,8.718,0,0,0,.1,1.581A4.614,4.614,0,0,0,33.455,0H31.327q-.084-.214-.207-.635-.054-.191-.077-.253a3.878,3.878,0,0,1-1.179.8,3.377,3.377,0,0,1-1.34.268A2.77,2.77,0,0,1,26.546-.5a2.265,2.265,0,0,1-.723-1.723,2.312,2.312,0,0,1,.329-1.229,2.151,2.151,0,0,1,.923-.827,7.21,7.21,0,0,1,1.711-.5,11.721,11.721,0,0,0,2.09-.528V-5.52a1.114,1.114,0,0,0-.306-.884,1.835,1.835,0,0,0-1.156-.264,1.539,1.539,0,0,0-.9.226A1.569,1.569,0,0,0,28-5.65ZM30.875-3.9a13.446,13.446,0,0,1-1.309.329,3.943,3.943,0,0,0-1.171.375.9.9,0,0,0-.421.758,1.055,1.055,0,0,0,.337.781,1.176,1.176,0,0,0,.857.329,1.863,1.863,0,0,0,1.11-.383,1.347,1.347,0,0,0,.513-.712,4.248,4.248,0,0,0,.084-1.049Z" transform="translate(-8979.173 -2276.498)"/>
    <path id="Trazado_232707" data-name="Trazado 232707" d="M1.141,0V-11.223H4.777a13.187,13.187,0,0,1,2.695.168,2.943,2.943,0,0,1,1.615,1.1A3.484,3.484,0,0,1,9.738-7.77a3.662,3.662,0,0,1-.375,1.738A3.077,3.077,0,0,1,8.41-4.926a3.284,3.284,0,0,1-1.175.532,12.935,12.935,0,0,1-2.35.161H3.407V0ZM3.407-9.325V-6.14h1.24a5.86,5.86,0,0,0,1.791-.176,1.488,1.488,0,0,0,.708-.551A1.509,1.509,0,0,0,7.4-7.74a1.45,1.45,0,0,0-.36-1.011,1.567,1.567,0,0,0-.911-.5A10.892,10.892,0,0,0,4.5-9.325ZM16.934,0V-1.217A3.134,3.134,0,0,1,15.767-.191,3.273,3.273,0,0,1,14.24.184a2.986,2.986,0,0,1-1.47-.36,2.124,2.124,0,0,1-.942-1.011,4.509,4.509,0,0,1-.291-1.8V-8.13h2.151v3.736a10.36,10.36,0,0,0,.119,2.1,1.146,1.146,0,0,0,.433.612,1.329,1.329,0,0,0,.8.226,1.693,1.693,0,0,0,.988-.3,1.538,1.538,0,0,0,.6-.75A8.708,8.708,0,0,0,16.781-4.7V-8.13h2.151V0Zm4.134,0V-11.223H23.22v4.042a3.044,3.044,0,0,1,2.358-1.133,3.17,3.17,0,0,1,2.457,1.076,4.454,4.454,0,0,1,.972,3.089,4.7,4.7,0,0,1-.991,3.208A3.094,3.094,0,0,1,25.608.184a2.976,2.976,0,0,1-1.374-.348,3.286,3.286,0,0,1-1.167-1.03V0ZM23.2-4.241a3.458,3.458,0,0,0,.4,1.868,1.7,1.7,0,0,0,1.485.857A1.522,1.522,0,0,0,26.3-2.124a3,3,0,0,0,.5-1.918,3.175,3.175,0,0,0-.505-2.01A1.6,1.6,0,0,0,25-6.668a1.621,1.621,0,0,0-1.286.6A2.759,2.759,0,0,0,23.2-4.241ZM30.737,0V-11.223h2.151V0Zm4.356-9.233v-1.99h2.151v1.99Zm0,9.233V-8.13h2.151V0ZM46.539-5.726l-2.121.383a1.539,1.539,0,0,0-.486-.957,1.468,1.468,0,0,0-.984-.322,1.607,1.607,0,0,0-1.282.555,2.844,2.844,0,0,0-.478,1.856,3.29,3.29,0,0,0,.486,2.044,1.6,1.6,0,0,0,1.305.6,1.45,1.45,0,0,0,1-.348,2.1,2.1,0,0,0,.551-1.2l2.113.36a3.75,3.75,0,0,1-1.263,2.2,3.91,3.91,0,0,1-2.5.743A3.722,3.722,0,0,1,40.035-.942a4.363,4.363,0,0,1-1.06-3.116,4.373,4.373,0,0,1,1.064-3.135,3.779,3.779,0,0,1,2.879-1.122,3.927,3.927,0,0,1,2.362.639A3.542,3.542,0,0,1,46.539-5.726ZM52.571,0V-11.223h2.266v4.984l4.578-4.984h3.047L58.237-6.852,62.692,0H59.76L56.675-5.267,54.838-3.391V0ZM68.556-2.588l2.144.36a3.516,3.516,0,0,1-1.305,1.8,3.835,3.835,0,0,1-2.232.616A3.638,3.638,0,0,1,64.024-1.2a4.655,4.655,0,0,1-.8-2.8A4.489,4.489,0,0,1,64.277-7.17a3.479,3.479,0,0,1,2.672-1.145,3.609,3.609,0,0,1,2.863,1.2,5.3,5.3,0,0,1,1,3.671h-5.39a2.176,2.176,0,0,0,.521,1.489,1.628,1.628,0,0,0,1.24.532,1.317,1.317,0,0,0,.85-.276A1.7,1.7,0,0,0,68.556-2.588Zm.122-2.174a2.071,2.071,0,0,0-.482-1.42,1.48,1.48,0,0,0-1.118-.486,1.494,1.494,0,0,0-1.164.513,1.985,1.985,0,0,0-.452,1.393ZM71.55-8.13h2.289l1.945,5.772,1.9-5.772H79.91L77.039-.306,76.526,1.11a5.773,5.773,0,0,1-.54,1.087,2.355,2.355,0,0,1-.589.609,2.577,2.577,0,0,1-.819.364,4.254,4.254,0,0,1-1.1.13,5.7,5.7,0,0,1-1.217-.13L72.07,1.485a4.759,4.759,0,0,0,.911.1,1.35,1.35,0,0,0,1.11-.44A3.055,3.055,0,0,0,74.643.023Z" transform="translate(-9108.319 -2173.503)"/>
    <path id="Trazado_232708" data-name="Trazado 232708" d="M1.141,0V-11.223H4.777a13.187,13.187,0,0,1,2.695.168,2.943,2.943,0,0,1,1.615,1.1A3.484,3.484,0,0,1,9.738-7.77a3.662,3.662,0,0,1-.375,1.738A3.077,3.077,0,0,1,8.41-4.926a3.284,3.284,0,0,1-1.175.532,12.935,12.935,0,0,1-2.35.161H3.407V0ZM3.407-9.325V-6.14h1.24a5.86,5.86,0,0,0,1.791-.176,1.488,1.488,0,0,0,.708-.551A1.509,1.509,0,0,0,7.4-7.74a1.45,1.45,0,0,0-.36-1.011,1.567,1.567,0,0,0-.911-.5A10.892,10.892,0,0,0,4.5-9.325ZM13.642,0H11.491V-8.13h2v1.156a3.475,3.475,0,0,1,.923-1.079,1.7,1.7,0,0,1,.93-.26,2.73,2.73,0,0,1,1.416.406l-.666,1.876a1.888,1.888,0,0,0-1.011-.352,1.194,1.194,0,0,0-.766.249,1.7,1.7,0,0,0-.494.9,12.779,12.779,0,0,0-.18,2.725Zm4.042-9.233v-1.99h2.151v1.99Zm0,9.233V-8.13h2.151V0Zm6.592,0L21-8.13h2.258l1.531,4.149L25.233-2.6q.176-.528.222-.7.107-.345.23-.689L27.231-8.13h2.212L26.213,0Zm8.092-5.65L30.416-6a3.041,3.041,0,0,1,1.133-1.745,4.146,4.146,0,0,1,2.389-.567,5.148,5.148,0,0,1,2.144.341,2.138,2.138,0,0,1,.991.865,4.436,4.436,0,0,1,.287,1.925l-.023,2.511a8.718,8.718,0,0,0,.1,1.581A4.614,4.614,0,0,0,37.827,0H35.7q-.084-.214-.207-.635-.054-.191-.077-.253a3.878,3.878,0,0,1-1.179.8A3.377,3.377,0,0,1,32.9.184,2.77,2.77,0,0,1,30.917-.5a2.265,2.265,0,0,1-.723-1.723,2.312,2.312,0,0,1,.329-1.229,2.151,2.151,0,0,1,.923-.827,7.21,7.21,0,0,1,1.711-.5,11.721,11.721,0,0,0,2.09-.528V-5.52A1.114,1.114,0,0,0,34.94-6.4a1.835,1.835,0,0,0-1.156-.264,1.539,1.539,0,0,0-.9.226A1.569,1.569,0,0,0,32.368-5.65ZM35.247-3.9a13.447,13.447,0,0,1-1.309.329,3.943,3.943,0,0,0-1.171.375.9.9,0,0,0-.421.758,1.055,1.055,0,0,0,.337.781,1.176,1.176,0,0,0,.857.329,1.863,1.863,0,0,0,1.11-.383,1.347,1.347,0,0,0,.513-.712,4.248,4.248,0,0,0,.084-1.049ZM43.209-8.13v1.715h-1.47v3.277a8.149,8.149,0,0,0,.042,1.16.473.473,0,0,0,.191.272.607.607,0,0,0,.364.107,2.783,2.783,0,0,0,.865-.207l.184,1.669a4.276,4.276,0,0,1-1.7.322,2.7,2.7,0,0,1-1.049-.2,1.531,1.531,0,0,1-.685-.505,1.994,1.994,0,0,1-.3-.838,10.428,10.428,0,0,1-.069-1.516V-6.415h-.988V-8.13h.988V-9.746L41.739-11V-8.13Zm6.2,5.543,2.144.36a3.516,3.516,0,0,1-1.305,1.8,3.835,3.835,0,0,1-2.232.616A3.638,3.638,0,0,1,44.877-1.2a4.655,4.655,0,0,1-.8-2.8A4.489,4.489,0,0,1,45.13-7.17,3.479,3.479,0,0,1,47.8-8.314a3.609,3.609,0,0,1,2.863,1.2,5.3,5.3,0,0,1,1,3.671h-5.39A2.177,2.177,0,0,0,46.8-1.956a1.628,1.628,0,0,0,1.24.532,1.317,1.317,0,0,0,.85-.276A1.7,1.7,0,0,0,49.41-2.588Zm.122-2.174a2.071,2.071,0,0,0-.482-1.42,1.48,1.48,0,0,0-1.118-.486,1.494,1.494,0,0,0-1.164.513,1.985,1.985,0,0,0-.452,1.393ZM57.823,0V-11.223h2.266v4.984l4.578-4.984h3.047L63.488-6.852,67.944,0H65.012L61.927-5.267,60.089-3.391V0ZM73.808-2.588l2.144.36a3.516,3.516,0,0,1-1.305,1.8,3.835,3.835,0,0,1-2.232.616A3.638,3.638,0,0,1,69.276-1.2a4.655,4.655,0,0,1-.8-2.8A4.489,4.489,0,0,1,69.529-7.17,3.479,3.479,0,0,1,72.2-8.314a3.609,3.609,0,0,1,2.863,1.2,5.3,5.3,0,0,1,1,3.671h-5.39A2.176,2.176,0,0,0,71.2-1.956a1.628,1.628,0,0,0,1.24.532,1.317,1.317,0,0,0,.85-.276A1.7,1.7,0,0,0,73.808-2.588Zm.122-2.174a2.071,2.071,0,0,0-.482-1.42,1.48,1.48,0,0,0-1.118-.486,1.494,1.494,0,0,0-1.164.513,1.985,1.985,0,0,0-.452,1.393ZM76.8-8.13h2.289l1.945,5.772,1.9-5.772h2.228L82.291-.306,81.778,1.11a5.774,5.774,0,0,1-.54,1.087,2.356,2.356,0,0,1-.589.609,2.577,2.577,0,0,1-.819.364,4.254,4.254,0,0,1-1.1.13,5.7,5.7,0,0,1-1.217-.13l-.191-1.684a4.759,4.759,0,0,0,.911.1,1.35,1.35,0,0,0,1.11-.44A3.055,3.055,0,0,0,79.895.023Z" transform="translate(-8898.192 -2173.503)"/>
    <path id="Trazado_232709" data-name="Trazado 232709" d="M1.133-11.223H5.275a8.088,8.088,0,0,1,2.136.214A3.753,3.753,0,0,1,9.1-9.975a4.9,4.9,0,0,1,1.072,1.818A8.283,8.283,0,0,1,10.542-5.5,7.376,7.376,0,0,1,10.2-3.116,4.948,4.948,0,0,1,9-1.133a3.984,3.984,0,0,1-1.592.9A6.856,6.856,0,0,1,5.4,0H1.133ZM3.4-9.325v7.434H5.091A6.174,6.174,0,0,0,6.461-2a2.092,2.092,0,0,0,.915-.467A2.376,2.376,0,0,0,7.97-3.548,7.322,7.322,0,0,0,8.2-5.6a6.7,6.7,0,0,0-.23-2,2.568,2.568,0,0,0-.643-1.087,2.156,2.156,0,0,0-1.049-.528,10.274,10.274,0,0,0-1.86-.107ZM17.156-2.588l2.144.36a3.516,3.516,0,0,1-1.305,1.8,3.835,3.835,0,0,1-2.232.616A3.638,3.638,0,0,1,12.624-1.2a4.655,4.655,0,0,1-.8-2.8A4.489,4.489,0,0,1,12.877-7.17a3.479,3.479,0,0,1,2.672-1.145,3.609,3.609,0,0,1,2.863,1.2,5.3,5.3,0,0,1,1,3.671h-5.39a2.177,2.177,0,0,0,.521,1.489,1.628,1.628,0,0,0,1.24.532,1.317,1.317,0,0,0,.85-.276A1.7,1.7,0,0,0,17.156-2.588Zm.122-2.174a2.071,2.071,0,0,0-.482-1.42,1.48,1.48,0,0,0-1.118-.486,1.494,1.494,0,0,0-1.164.513,1.985,1.985,0,0,0-.452,1.393Zm10.978-.965-2.121.383A1.539,1.539,0,0,0,25.65-6.3a1.468,1.468,0,0,0-.984-.322,1.607,1.607,0,0,0-1.282.555,2.844,2.844,0,0,0-.478,1.856,3.29,3.29,0,0,0,.486,2.044,1.6,1.6,0,0,0,1.305.6,1.45,1.45,0,0,0,1-.348,2.1,2.1,0,0,0,.551-1.2l2.113.36A3.75,3.75,0,0,1,27.1-.559a3.91,3.91,0,0,1-2.5.743A3.722,3.722,0,0,1,21.754-.942a4.363,4.363,0,0,1-1.06-3.116,4.373,4.373,0,0,1,1.064-3.135,3.779,3.779,0,0,1,2.879-1.122A3.927,3.927,0,0,1,27-7.675,3.542,3.542,0,0,1,28.257-5.726ZM31.947,0H29.8V-8.13h2v1.156a3.475,3.475,0,0,1,.923-1.079,1.7,1.7,0,0,1,.93-.26,2.73,2.73,0,0,1,1.416.406L34.4-6.033a1.888,1.888,0,0,0-1.011-.352,1.194,1.194,0,0,0-.766.249,1.7,1.7,0,0,0-.494.9,12.779,12.779,0,0,0-.18,2.725Zm3.024-8.13H37.26L39.2-2.358,41.1-8.13h2.228L40.46-.306,39.947,1.11a5.774,5.774,0,0,1-.54,1.087,2.355,2.355,0,0,1-.589.609A2.577,2.577,0,0,1,38,3.169a4.254,4.254,0,0,1-1.1.13,5.7,5.7,0,0,1-1.217-.13l-.191-1.684a4.759,4.759,0,0,0,.911.1,1.35,1.35,0,0,0,1.11-.44A3.055,3.055,0,0,0,38.064.023Zm9.677,0h2.006v1.194a3,3,0,0,1,1.056-1,2.912,2.912,0,0,1,1.478-.383,3.1,3.1,0,0,1,2.4,1.11,4.493,4.493,0,0,1,.988,3.093,4.629,4.629,0,0,1-1,3.166A3.1,3.1,0,0,1,49.172.184a2.74,2.74,0,0,1-1.221-.268A4.116,4.116,0,0,1,46.8-1v4.1H44.648ZM46.776-4.2a3.132,3.132,0,0,0,.544,2.025,1.663,1.663,0,0,0,1.324.655,1.554,1.554,0,0,0,1.248-.6,3.1,3.1,0,0,0,.5-1.971,2.939,2.939,0,0,0-.513-1.9,1.587,1.587,0,0,0-1.271-.62,1.65,1.65,0,0,0-1.309.609A2.709,2.709,0,0,0,46.776-4.2ZM58.015-8.13v1.715h-1.47v3.277a8.149,8.149,0,0,0,.042,1.16.473.473,0,0,0,.191.272.607.607,0,0,0,.364.107,2.783,2.783,0,0,0,.865-.207l.184,1.669a4.276,4.276,0,0,1-1.7.322,2.7,2.7,0,0,1-1.049-.2,1.531,1.531,0,0,1-.685-.505,1.994,1.994,0,0,1-.3-.838,10.428,10.428,0,0,1-.069-1.516V-6.415H53.4V-8.13h.988V-9.746L56.545-11V-8.13Zm6.2,5.543,2.144.36a3.516,3.516,0,0,1-1.305,1.8,3.835,3.835,0,0,1-2.232.616A3.638,3.638,0,0,1,59.684-1.2a4.655,4.655,0,0,1-.8-2.8A4.489,4.489,0,0,1,59.936-7.17a3.479,3.479,0,0,1,2.672-1.145,3.609,3.609,0,0,1,2.863,1.2,5.3,5.3,0,0,1,1,3.671h-5.39a2.177,2.177,0,0,0,.521,1.489,1.628,1.628,0,0,0,1.24.532A1.317,1.317,0,0,0,63.7-1.7,1.7,1.7,0,0,0,64.216-2.588Zm.122-2.174a2.071,2.071,0,0,0-.482-1.42,1.48,1.48,0,0,0-1.118-.486,1.494,1.494,0,0,0-1.164.513,1.985,1.985,0,0,0-.452,1.393ZM75.684,0h-2V-1.194A3.228,3.228,0,0,1,72.511-.157a3.015,3.015,0,0,1-1.367.341,3.1,3.1,0,0,1-2.4-1.129,4.593,4.593,0,0,1-1-3.15,4.54,4.54,0,0,1,.972-3.143,3.17,3.17,0,0,1,2.457-1.076,3.044,3.044,0,0,1,2.358,1.133v-4.042h2.151ZM69.942-4.241a3.723,3.723,0,0,0,.36,1.883,1.626,1.626,0,0,0,1.455.842,1.583,1.583,0,0,0,1.263-.632,2.915,2.915,0,0,0,.521-1.887,3.19,3.19,0,0,0-.505-2.017,1.6,1.6,0,0,0-1.294-.616,1.616,1.616,0,0,0-1.282.609A2.75,2.75,0,0,0,69.942-4.241Z" transform="translate(-8788.629 -2315.412)"/>
    <path id="Trazado_232710" data-name="Trazado 232710" d="M1.141,0V-11.223H4.777a13.187,13.187,0,0,1,2.695.168,2.943,2.943,0,0,1,1.615,1.1A3.484,3.484,0,0,1,9.738-7.77a3.662,3.662,0,0,1-.375,1.738A3.077,3.077,0,0,1,8.41-4.926a3.284,3.284,0,0,1-1.175.532,12.935,12.935,0,0,1-2.35.161H3.407V0ZM3.407-9.325V-6.14h1.24a5.86,5.86,0,0,0,1.791-.176,1.488,1.488,0,0,0,.708-.551A1.509,1.509,0,0,0,7.4-7.74a1.45,1.45,0,0,0-.36-1.011,1.567,1.567,0,0,0-.911-.5A10.892,10.892,0,0,0,4.5-9.325ZM11.583,0V-11.223h2.151V0Zm5.964-5.65L15.595-6a3.041,3.041,0,0,1,1.133-1.745,4.146,4.146,0,0,1,2.389-.567,5.148,5.148,0,0,1,2.144.341,2.138,2.138,0,0,1,.991.865,4.436,4.436,0,0,1,.287,1.925l-.023,2.511a8.718,8.718,0,0,0,.1,1.581A4.614,4.614,0,0,0,23.005,0H20.877q-.084-.214-.207-.635-.054-.191-.077-.253a3.878,3.878,0,0,1-1.179.8,3.377,3.377,0,0,1-1.34.268A2.77,2.77,0,0,1,16.1-.5a2.265,2.265,0,0,1-.723-1.723A2.312,2.312,0,0,1,15.7-3.449a2.151,2.151,0,0,1,.923-.827,7.21,7.21,0,0,1,1.711-.5,11.721,11.721,0,0,0,2.09-.528V-5.52a1.114,1.114,0,0,0-.306-.884,1.835,1.835,0,0,0-1.156-.264,1.539,1.539,0,0,0-.9.226A1.569,1.569,0,0,0,17.547-5.65ZM20.425-3.9a13.446,13.446,0,0,1-1.309.329,3.943,3.943,0,0,0-1.171.375.9.9,0,0,0-.421.758,1.055,1.055,0,0,0,.337.781,1.176,1.176,0,0,0,.857.329,1.863,1.863,0,0,0,1.11-.383,1.347,1.347,0,0,0,.513-.712,4.248,4.248,0,0,0,.084-1.049Zm4.234-5.328v-1.99H26.81v1.99Zm0,9.233V-8.13H26.81V0ZM36.41,0H34.259V-4.149a6.413,6.413,0,0,0-.138-1.7,1.2,1.2,0,0,0-.448-.6,1.28,1.28,0,0,0-.746-.214,1.725,1.725,0,0,0-1,.306,1.543,1.543,0,0,0-.609.812,7.014,7.014,0,0,0-.165,1.868V0H29V-8.13h2v1.194a3.255,3.255,0,0,1,2.679-1.378,3.228,3.228,0,0,1,1.3.256,2.181,2.181,0,0,1,.892.655,2.371,2.371,0,0,1,.421.9,6.72,6.72,0,0,1,.119,1.447Zm5.91-8.13v1.715h-1.47v3.277a8.149,8.149,0,0,0,.042,1.16.473.473,0,0,0,.191.272.607.607,0,0,0,.364.107,2.783,2.783,0,0,0,.865-.207L42.5-.138a4.276,4.276,0,0,1-1.7.322,2.7,2.7,0,0,1-1.049-.2,1.531,1.531,0,0,1-.685-.505,1.994,1.994,0,0,1-.3-.838,10.428,10.428,0,0,1-.069-1.516V-6.415H37.7V-8.13h.988V-9.746L40.851-11V-8.13Zm6.2,5.543,2.144.36a3.516,3.516,0,0,1-1.305,1.8,3.835,3.835,0,0,1-2.232.616A3.638,3.638,0,0,1,43.989-1.2a4.655,4.655,0,0,1-.8-2.8A4.489,4.489,0,0,1,44.242-7.17a3.479,3.479,0,0,1,2.672-1.145,3.609,3.609,0,0,1,2.863,1.2,5.3,5.3,0,0,1,1,3.671H45.39a2.177,2.177,0,0,0,.521,1.489,1.628,1.628,0,0,0,1.24.532A1.317,1.317,0,0,0,48-1.7,1.7,1.7,0,0,0,48.522-2.588Zm.122-2.174a2.071,2.071,0,0,0-.482-1.42,1.48,1.48,0,0,0-1.118-.486,1.494,1.494,0,0,0-1.164.513,1.985,1.985,0,0,0-.452,1.393ZM51.5,0l2.932-4.188L51.622-8.13h2.626l1.439,2.235L57.2-8.13h2.526L56.973-4.28,59.982,0H57.341L55.687-2.519,54.018,0ZM64.981-8.13v1.715h-1.47v3.277a8.149,8.149,0,0,0,.042,1.16.473.473,0,0,0,.191.272.607.607,0,0,0,.364.107,2.783,2.783,0,0,0,.865-.207l.184,1.669a4.276,4.276,0,0,1-1.7.322,2.7,2.7,0,0,1-1.049-.2,1.531,1.531,0,0,1-.685-.505,1.994,1.994,0,0,1-.3-.838,10.428,10.428,0,0,1-.069-1.516V-6.415h-.988V-8.13h.988V-9.746L63.511-11V-8.13Z" transform="translate(-8782.969 -2296.598)"/>
    <path id="Trazado_232711" data-name="Trazado 232711" d="M8.582,0h-2V-1.194A3.228,3.228,0,0,1,5.409-.157,3.015,3.015,0,0,1,4.042.184a3.1,3.1,0,0,1-2.4-1.129,4.593,4.593,0,0,1-1-3.15,4.54,4.54,0,0,1,.972-3.143A3.17,3.17,0,0,1,4.073-8.314,3.044,3.044,0,0,1,6.431-7.181v-4.042H8.582ZM2.84-4.241A3.723,3.723,0,0,0,3.2-2.358a1.626,1.626,0,0,0,1.455.842,1.583,1.583,0,0,0,1.263-.632,2.915,2.915,0,0,0,.521-1.887,3.19,3.19,0,0,0-.505-2.017,1.6,1.6,0,0,0-1.294-.616,1.616,1.616,0,0,0-1.282.609A2.75,2.75,0,0,0,2.84-4.241ZM12.31-5.65,10.358-6a3.041,3.041,0,0,1,1.133-1.745,4.146,4.146,0,0,1,2.389-.567,5.148,5.148,0,0,1,2.144.341,2.138,2.138,0,0,1,.991.865A4.436,4.436,0,0,1,17.3-5.183l-.023,2.511a8.718,8.718,0,0,0,.1,1.581A4.614,4.614,0,0,0,17.769,0H15.641q-.084-.214-.207-.635-.054-.191-.077-.253a3.878,3.878,0,0,1-1.179.8,3.377,3.377,0,0,1-1.34.268A2.77,2.77,0,0,1,10.86-.5a2.265,2.265,0,0,1-.723-1.723,2.312,2.312,0,0,1,.329-1.229,2.151,2.151,0,0,1,.923-.827,7.21,7.21,0,0,1,1.711-.5,11.721,11.721,0,0,0,2.09-.528V-5.52a1.114,1.114,0,0,0-.306-.884,1.835,1.835,0,0,0-1.156-.264,1.539,1.539,0,0,0-.9.226A1.569,1.569,0,0,0,12.31-5.65ZM15.189-3.9a13.447,13.447,0,0,1-1.309.329,3.943,3.943,0,0,0-1.171.375.9.9,0,0,0-.421.758,1.055,1.055,0,0,0,.337.781,1.176,1.176,0,0,0,.857.329,1.863,1.863,0,0,0,1.11-.383,1.347,1.347,0,0,0,.513-.712,4.248,4.248,0,0,0,.084-1.049ZM23.151-8.13v1.715h-1.47v3.277a8.15,8.15,0,0,0,.042,1.16.473.473,0,0,0,.191.272.607.607,0,0,0,.364.107,2.783,2.783,0,0,0,.865-.207l.184,1.669a4.276,4.276,0,0,1-1.7.322,2.7,2.7,0,0,1-1.049-.2,1.531,1.531,0,0,1-.685-.505,1.994,1.994,0,0,1-.3-.838,10.428,10.428,0,0,1-.069-1.516V-6.415h-.988V-8.13h.988V-9.746L21.681-11V-8.13Zm3.1,2.48L24.3-6a3.041,3.041,0,0,1,1.133-1.745,4.146,4.146,0,0,1,2.389-.567,5.148,5.148,0,0,1,2.144.341,2.138,2.138,0,0,1,.991.865,4.436,4.436,0,0,1,.287,1.925L31.22-2.672a8.718,8.718,0,0,0,.1,1.581A4.614,4.614,0,0,0,31.71,0H29.581q-.084-.214-.207-.635-.054-.191-.077-.253a3.878,3.878,0,0,1-1.179.8,3.377,3.377,0,0,1-1.34.268A2.77,2.77,0,0,1,24.8-.5a2.265,2.265,0,0,1-.723-1.723,2.312,2.312,0,0,1,.329-1.229,2.151,2.151,0,0,1,.923-.827,7.21,7.21,0,0,1,1.711-.5,11.721,11.721,0,0,0,2.09-.528V-5.52a1.114,1.114,0,0,0-.306-.884,1.835,1.835,0,0,0-1.156-.264,1.539,1.539,0,0,0-.9.226A1.569,1.569,0,0,0,26.251-5.65ZM29.13-3.9a13.446,13.446,0,0,1-1.309.329,3.943,3.943,0,0,0-1.171.375.9.9,0,0,0-.421.758,1.055,1.055,0,0,0,.337.781,1.176,1.176,0,0,0,.857.329,1.863,1.863,0,0,0,1.11-.383,1.348,1.348,0,0,0,.513-.712,4.248,4.248,0,0,0,.084-1.049Z" transform="translate(-8766.412 -2277.783)"/>
    <path id="Trazado_232712" data-name="Trazado 232712" d="M1.148,0V-11.223H5.918a8.163,8.163,0,0,1,2.614.3A2.579,2.579,0,0,1,9.838-9.845a3.233,3.233,0,0,1,.49,1.768,3,3,0,0,1-.743,2.086,3.566,3.566,0,0,1-2.22,1.037,5.287,5.287,0,0,1,1.213.942A12.791,12.791,0,0,1,9.868-2.19L11.239,0H8.528L6.89-2.442A15.842,15.842,0,0,0,5.7-4.092a1.739,1.739,0,0,0-.681-.467,3.735,3.735,0,0,0-1.141-.126H3.414V0ZM3.414-6.477H5.091a8.658,8.658,0,0,0,2.036-.138,1.22,1.22,0,0,0,.635-.475,1.461,1.461,0,0,0,.23-.842,1.346,1.346,0,0,0-.3-.915,1.388,1.388,0,0,0-.854-.44q-.276-.038-1.654-.038H3.414ZM17.156-2.588l2.144.36a3.516,3.516,0,0,1-1.305,1.8,3.835,3.835,0,0,1-2.232.616A3.638,3.638,0,0,1,12.624-1.2a4.655,4.655,0,0,1-.8-2.8A4.489,4.489,0,0,1,12.877-7.17a3.479,3.479,0,0,1,2.672-1.145,3.609,3.609,0,0,1,2.863,1.2,5.3,5.3,0,0,1,1,3.671h-5.39a2.177,2.177,0,0,0,.521,1.489,1.628,1.628,0,0,0,1.24.532,1.317,1.317,0,0,0,.85-.276A1.7,1.7,0,0,0,17.156-2.588Zm.122-2.174a2.071,2.071,0,0,0-.482-1.42,1.48,1.48,0,0,0-1.118-.486,1.494,1.494,0,0,0-1.164.513,1.985,1.985,0,0,0-.452,1.393Zm10.978-.965-2.121.383A1.539,1.539,0,0,0,25.65-6.3a1.468,1.468,0,0,0-.984-.322,1.607,1.607,0,0,0-1.282.555,2.844,2.844,0,0,0-.478,1.856,3.29,3.29,0,0,0,.486,2.044,1.6,1.6,0,0,0,1.305.6,1.45,1.45,0,0,0,1-.348,2.1,2.1,0,0,0,.551-1.2l2.113.36A3.75,3.75,0,0,1,27.1-.559a3.91,3.91,0,0,1-2.5.743A3.722,3.722,0,0,1,21.754-.942a4.363,4.363,0,0,1-1.06-3.116,4.373,4.373,0,0,1,1.064-3.135,3.779,3.779,0,0,1,2.879-1.122A3.927,3.927,0,0,1,27-7.675,3.542,3.542,0,0,1,28.257-5.726Zm1.631-3.506v-1.99h2.151v1.99Zm0,9.233V-8.13h2.151V0Zm4.295-8.13h2.006v1.194a3,3,0,0,1,1.056-1,2.912,2.912,0,0,1,1.478-.383,3.1,3.1,0,0,1,2.4,1.11,4.493,4.493,0,0,1,.988,3.093,4.629,4.629,0,0,1-1,3.166A3.1,3.1,0,0,1,38.707.184a2.74,2.74,0,0,1-1.221-.268A4.116,4.116,0,0,1,36.334-1v4.1H34.183ZM36.311-4.2a3.132,3.132,0,0,0,.544,2.025,1.663,1.663,0,0,0,1.324.655,1.554,1.554,0,0,0,1.248-.6,3.1,3.1,0,0,0,.5-1.971,2.939,2.939,0,0,0-.513-1.9,1.587,1.587,0,0,0-1.271-.62,1.65,1.65,0,0,0-1.309.609A2.709,2.709,0,0,0,36.311-4.2Zm7.51-5.03v-1.99h2.151v1.99Zm0,9.233V-8.13h2.151V0Zm9.064-2.588,2.144.36a3.516,3.516,0,0,1-1.305,1.8,3.835,3.835,0,0,1-2.232.616A3.638,3.638,0,0,1,48.353-1.2a4.655,4.655,0,0,1-.8-2.8A4.489,4.489,0,0,1,48.606-7.17a3.479,3.479,0,0,1,2.672-1.145,3.609,3.609,0,0,1,2.863,1.2,5.3,5.3,0,0,1,1,3.671h-5.39a2.177,2.177,0,0,0,.521,1.489,1.628,1.628,0,0,0,1.24.532,1.317,1.317,0,0,0,.85-.276A1.7,1.7,0,0,0,52.885-2.588Zm.122-2.174a2.071,2.071,0,0,0-.482-1.42,1.48,1.48,0,0,0-1.118-.486,1.494,1.494,0,0,0-1.164.513,1.985,1.985,0,0,0-.452,1.393ZM64.292,0H62.141V-4.149A6.413,6.413,0,0,0,62-5.853a1.2,1.2,0,0,0-.448-.6,1.28,1.28,0,0,0-.746-.214,1.725,1.725,0,0,0-1,.306,1.543,1.543,0,0,0-.609.812,7.014,7.014,0,0,0-.165,1.868V0H56.882V-8.13h2v1.194a3.255,3.255,0,0,1,2.679-1.378,3.228,3.228,0,0,1,1.3.256,2.181,2.181,0,0,1,.892.655,2.371,2.371,0,0,1,.421.9,6.719,6.719,0,0,1,.119,1.447ZM70.2-8.13v1.715h-1.47v3.277a8.15,8.15,0,0,0,.042,1.16.473.473,0,0,0,.191.272.607.607,0,0,0,.364.107,2.783,2.783,0,0,0,.865-.207l.184,1.669a4.276,4.276,0,0,1-1.7.322,2.7,2.7,0,0,1-1.049-.2,1.531,1.531,0,0,1-.685-.505,1.994,1.994,0,0,1-.3-.838,10.427,10.427,0,0,1-.069-1.516V-6.415h-.988V-8.13h.988V-9.746L68.733-11V-8.13Z" transform="translate(-8638.379 -2284.541)"/>
    <path id="Trazado_232152" data-name="Trazado 232152" d="M288.772,107.9v0Z" transform="translate(-9357 -2411)" fill="#00b373"/>
    <path id="Trazado_232713" data-name="Trazado 232713" d="M0,0V19.012" transform="translate(-9068.229 -2322.109)" fill="none" stroke="#2d2d2d" stroke-width="1.328"/>
    <path id="Trazado_232153" data-name="Trazado 232153" d="M501.521,107.9v0Z" transform="translate(-9357 -2411)" fill="#00b373"/>
    <path id="Trazado_232714" data-name="Trazado 232714" d="M0,0V19.012" transform="translate(-8855.479 -2322.109)" fill="none" stroke="#2d2d2d" stroke-width="1.328"/>
    <g id="Grupo_237778" data-name="Grupo 237778" transform="translate(-9357 -2411)" clip-path="url(#clip-path)">
      <path id="Trazado_232154" data-name="Trazado 232154" d="M288.711,101.477a26.92,26.92,0,0,0-13.521,50.2v8.415l5.966,4.921-5.228,5.535,8.3,8.488-9.041,8.241,8.918,8.655-7.38,7.978,11.983,9.753,12.619-9.6V152.182a26.923,26.923,0,0,0-12.619-50.705m0,23.622a7.427,7.427,0,1,1,7.427-7.427,7.427,7.427,0,0,1-7.427,7.427" fill="#f8a800"/>
      <path id="Trazado_232155" data-name="Trazado 232155" d="M501.52,101.477A26.92,26.92,0,0,0,488,151.677v8.415l5.966,4.921-5.228,5.535,8.3,8.488L488,187.277l8.918,8.655-7.38,7.978,11.983,9.753,12.619-9.6V152.182a26.923,26.923,0,0,0-12.619-50.705m0,23.622a7.427,7.427,0,1,1,7.427-7.427,7.427,7.427,0,0,1-7.427,7.427" fill="#f8a800"/>
      <path id="Trazado_232156" data-name="Trazado 232156" d="M193.761,0h-33.11V71.92h55.9V20.13Zm-.289,7.07,11.47,11.541h-11.47Zm17.89,59.151H165.844V5.7H188.6V24.094h22.759Z" fill="#8628a5"/>
      <path id="Trazado_232157" data-name="Trazado 232157" d="M204.545,54.246H172.372a1.262,1.262,0,0,0-1.262,1.262v1.515a1.263,1.263,0,0,0,1.262,1.263h32.173a1.263,1.263,0,0,0,1.262-1.263V55.508a1.262,1.262,0,0,0-1.262-1.262" fill="#8628a5"/>
      <path id="Trazado_232158" data-name="Trazado 232158" d="M204.545,47.033H172.372a1.262,1.262,0,0,0-1.262,1.262V49.81a1.263,1.263,0,0,0,1.262,1.263h32.173a1.263,1.263,0,0,0,1.262-1.263V48.295a1.262,1.262,0,0,0-1.262-1.262" fill="#8628a5"/>
      <path id="Trazado_232159" data-name="Trazado 232159" d="M204.545,40.035H172.372A1.262,1.262,0,0,0,171.11,41.3v1.515a1.263,1.263,0,0,0,1.262,1.263h32.173a1.263,1.263,0,0,0,1.262-1.263V41.3a1.262,1.262,0,0,0-1.262-1.262" fill="#8628a5"/>
      <path id="Trazado_232160" data-name="Trazado 232160" d="M171.11,33.651v1.515a1.262,1.262,0,0,0,1.262,1.262h32.173a1.262,1.262,0,0,0,1.262-1.262V33.651a1.262,1.262,0,0,0-1.262-1.262H172.372a1.262,1.262,0,0,0-1.262,1.262" fill="#8628a5"/>
      <path id="Trazado_232161" data-name="Trazado 232161" d="M172.145,29.648h9.9a1.035,1.035,0,0,0,1.035-1.035V26.644a1.035,1.035,0,0,0-1.035-1.036h-9.9a1.035,1.035,0,0,0-1.035,1.036v1.969a1.035,1.035,0,0,0,1.035,1.035" fill="#8628a5"/>
      <path id="Trazado_232162" data-name="Trazado 232162" d="M611.506,0H578.4V71.92H634.3V20.13Zm-.289,7.07,11.47,11.541h-11.47Zm17.89,59.151H583.589V5.7h22.759V24.094h22.759Z" fill="#8628a5"/>
      <path id="Trazado_232163" data-name="Trazado 232163" d="M622.29,54.246H590.117a1.262,1.262,0,0,0-1.262,1.262v1.515a1.263,1.263,0,0,0,1.262,1.263H622.29a1.263,1.263,0,0,0,1.262-1.263V55.508a1.262,1.262,0,0,0-1.262-1.262" fill="#8628a5"/>
      <path id="Trazado_232164" data-name="Trazado 232164" d="M622.29,47.033H590.117a1.262,1.262,0,0,0-1.262,1.262V49.81a1.263,1.263,0,0,0,1.262,1.263H622.29a1.263,1.263,0,0,0,1.262-1.263V48.295a1.262,1.262,0,0,0-1.262-1.262" fill="#8628a5"/>
      <path id="Trazado_232165" data-name="Trazado 232165" d="M622.29,40.035H590.117a1.262,1.262,0,0,0-1.262,1.262v1.515a1.263,1.263,0,0,0,1.262,1.263H622.29a1.263,1.263,0,0,0,1.262-1.263V41.3a1.262,1.262,0,0,0-1.262-1.262" fill="#8628a5"/>
      <path id="Trazado_232166" data-name="Trazado 232166" d="M588.855,33.651v1.515a1.262,1.262,0,0,0,1.262,1.262H622.29a1.262,1.262,0,0,0,1.262-1.262V33.651a1.262,1.262,0,0,0-1.262-1.262H590.117a1.262,1.262,0,0,0-1.262,1.262" fill="#8628a5"/>
      <path id="Trazado_232167" data-name="Trazado 232167" d="M589.89,29.648h9.9a1.035,1.035,0,0,0,1.035-1.035V26.644a1.035,1.035,0,0,0-1.035-1.036h-9.9a1.035,1.035,0,0,0-1.035,1.036v1.969a1.035,1.035,0,0,0,1.035,1.035" fill="#8628a5"/>
      <path id="Trazado_232168" data-name="Trazado 232168" d="M400.419,0h-33.11V71.92h55.9V20.13Zm-.289,7.07L411.6,18.611H400.13Zm17.89,59.151H372.5V5.7h22.759V24.094H418.02Z" fill="#666"/>
      <path id="Trazado_232169" data-name="Trazado 232169" d="M411.2,54.246H379.03a1.262,1.262,0,0,0-1.262,1.262v1.515a1.263,1.263,0,0,0,1.262,1.263H411.2a1.263,1.263,0,0,0,1.262-1.263V55.508a1.262,1.262,0,0,0-1.262-1.262" fill="#666"/>
      <path id="Trazado_232170" data-name="Trazado 232170" d="M411.2,47.033H379.03a1.262,1.262,0,0,0-1.262,1.262V49.81a1.263,1.263,0,0,0,1.262,1.263H411.2a1.263,1.263,0,0,0,1.262-1.263V48.295a1.262,1.262,0,0,0-1.262-1.262" fill="#666"/>
      <path id="Trazado_232171" data-name="Trazado 232171" d="M411.2,40.035H379.03a1.262,1.262,0,0,0-1.262,1.262v1.515a1.263,1.263,0,0,0,1.262,1.263H411.2a1.263,1.263,0,0,0,1.262-1.263V41.3a1.262,1.262,0,0,0-1.262-1.262" fill="#666"/>
      <path id="Trazado_232172" data-name="Trazado 232172" d="M377.768,33.651v1.515a1.262,1.262,0,0,0,1.262,1.262H411.2a1.262,1.262,0,0,0,1.262-1.262V33.651a1.262,1.262,0,0,0-1.262-1.262H379.03a1.262,1.262,0,0,0-1.262,1.262" fill="#666"/>
      <path id="Trazado_232173" data-name="Trazado 232173" d="M378.8,29.648h9.9a1.035,1.035,0,0,0,1.035-1.035V26.644a1.035,1.035,0,0,0-1.035-1.036h-9.9a1.035,1.035,0,0,0-1.035,1.036v1.969a1.035,1.035,0,0,0,1.035,1.035" fill="#666"/>
      <rect id="Rectángulo_313587" data-name="Rectángulo 313587" width="7.427" height="7.427" transform="translate(42.384 97.297)" fill="#2f077f"/>
      <rect id="Rectángulo_313588" data-name="Rectángulo 313588" width="37.183" height="7.427" transform="translate(0 97.297)" fill="#2f077f"/>
      <rect id="Rectángulo_313589" data-name="Rectángulo 313589" width="37.183" height="7.427" transform="translate(55.013 97.297)" fill="#2f077f"/>
      <path id="Trazado_232174" data-name="Trazado 232174" d="M83.671,81.976a3.591,3.591,0,0,0,3.59-3.591V64.151a3.59,3.59,0,0,0-3.59-3.59H8.524a3.589,3.589,0,0,0-3.589,3.59V78.385a3.59,3.59,0,0,0,3.589,3.591h33.86V92.67h7.428V81.976ZM17.514,74.795A3.083,3.083,0,1,1,20.6,71.712a3.082,3.082,0,0,1-3.083,3.083m12.559,0a3.083,3.083,0,1,1,3.082-3.083,3.082,3.082,0,0,1-3.082,3.083m9.475-3.083a3.083,3.083,0,1,1,3.082,3.083,3.082,3.082,0,0,1-3.082-3.083" fill="#2f077f"/>
      <path id="Trazado_232175" data-name="Trazado 232175" d="M8.524,56.22H83.67a3.59,3.59,0,0,0,3.591-3.59V38.4a3.591,3.591,0,0,0-3.591-3.591H8.524A3.59,3.59,0,0,0,4.934,38.4V52.63a3.59,3.59,0,0,0,3.59,3.59M42.63,42.873a3.083,3.083,0,1,1-3.083,3.083,3.083,3.083,0,0,1,3.083-3.083m-12.558,0a3.083,3.083,0,1,1-3.083,3.083,3.083,3.083,0,0,1,3.083-3.083m-12.558,0a3.083,3.083,0,1,1-3.083,3.083,3.083,3.083,0,0,1,3.083-3.083" fill="#2f077f"/>
      <path id="Trazado_232176" data-name="Trazado 232176" d="M8.524,30.465H83.67a3.59,3.59,0,0,0,3.591-3.59V12.641A3.591,3.591,0,0,0,83.67,9.05H8.524a3.59,3.59,0,0,0-3.59,3.591V26.875a3.59,3.59,0,0,0,3.59,3.59M42.63,17.118A3.083,3.083,0,1,1,39.547,20.2a3.083,3.083,0,0,1,3.083-3.083m-12.558,0A3.083,3.083,0,1,1,26.989,20.2a3.083,3.083,0,0,1,3.083-3.083m-12.558,0A3.083,3.083,0,1,1,14.431,20.2a3.083,3.083,0,0,1,3.083-3.083" fill="#2f077f"/>
      <rect id="Rectángulo_313590" data-name="Rectángulo 313590" width="7.427" height="7.427" transform="translate(750.189 97.297)" fill="#2f077f"/>
      <rect id="Rectángulo_313591" data-name="Rectángulo 313591" width="37.183" height="7.427" transform="translate(707.805 97.297)" fill="#2f077f"/>
      <rect id="Rectángulo_313592" data-name="Rectángulo 313592" width="37.183" height="7.427" transform="translate(762.817 97.297)" fill="#2f077f"/>
      <path id="Trazado_232177" data-name="Trazado 232177" d="M791.475,81.976a3.591,3.591,0,0,0,3.591-3.591V64.151a3.59,3.59,0,0,0-3.591-3.59H716.329a3.59,3.59,0,0,0-3.59,3.59V78.385a3.591,3.591,0,0,0,3.59,3.591h33.86V92.67h7.427V81.976Zm-66.156-7.181a3.083,3.083,0,1,1,3.083-3.083,3.083,3.083,0,0,1-3.083,3.083m12.558,0a3.083,3.083,0,1,1,3.083-3.083,3.083,3.083,0,0,1-3.083,3.083m9.475-3.083a3.083,3.083,0,1,1,3.083,3.083,3.083,3.083,0,0,1-3.083-3.083" fill="#2f077f"/>
      <path id="Trazado_232178" data-name="Trazado 232178" d="M716.329,56.22h75.146a3.59,3.59,0,0,0,3.591-3.59V38.4a3.591,3.591,0,0,0-3.591-3.591H716.329a3.59,3.59,0,0,0-3.59,3.591V52.63a3.59,3.59,0,0,0,3.59,3.59m34.106-13.347a3.083,3.083,0,1,1-3.083,3.083,3.083,3.083,0,0,1,3.083-3.083m-12.558,0a3.083,3.083,0,1,1-3.083,3.083,3.083,3.083,0,0,1,3.083-3.083m-12.558,0a3.083,3.083,0,1,1-3.083,3.083,3.083,3.083,0,0,1,3.083-3.083" fill="#2f077f"/>
      <path id="Trazado_232179" data-name="Trazado 232179" d="M716.329,30.465h75.146a3.59,3.59,0,0,0,3.591-3.59V12.641a3.591,3.591,0,0,0-3.591-3.591H716.329a3.59,3.59,0,0,0-3.59,3.591V26.875a3.59,3.59,0,0,0,3.59,3.59m34.106-13.347a3.083,3.083,0,1,1-3.083,3.083,3.083,3.083,0,0,1,3.083-3.083m-12.558,0a3.083,3.083,0,1,1-3.083,3.083,3.083,3.083,0,0,1,3.083-3.083m-12.558,0a3.083,3.083,0,1,1-3.083,3.083,3.083,3.083,0,0,1,3.083-3.083" fill="#2f077f"/>
      <path id="Trazado_232180" data-name="Trazado 232180" d="M306.892,50.669h-2.58V42.1a13.923,13.923,0,0,0-27.845,0v8.565h-2.581a2.569,2.569,0,0,0-2.569,2.569v27a2.569,2.569,0,0,0,2.569,2.569h33.006a2.569,2.569,0,0,0,2.569-2.569v-27a2.569,2.569,0,0,0-2.569-2.569M281.843,42.1a8.546,8.546,0,0,1,17.092,0v8.565H281.843Zm10.375,24.3v8.414H288.56V66.407a4.093,4.093,0,1,1,3.658,0" fill="#666"/>
      <path id="Trazado_232181" data-name="Trazado 232181" d="M378.8,98.275a3.4,3.4,0,0,1-3.394-3.394v-27A3.4,3.4,0,0,1,378.8,64.49h1.756V56.75a14.748,14.748,0,0,1,29.5,0v7.74H411.8a3.4,3.4,0,0,1,3.4,3.394v27a3.4,3.4,0,0,1-3.4,3.394ZM396.3,88.641v-8.1l.456-.229a3.267,3.267,0,1,0-2.92,0l.456.229v8.1Zm6.717-24.151V56.75a7.721,7.721,0,1,0-15.441,0v7.74Z" fill="#f1b434"/>
      <path id="Trazado_232182" data-name="Trazado 232182" d="M395.3,42.828A13.938,13.938,0,0,1,409.224,56.75v8.565h2.58a2.569,2.569,0,0,1,2.569,2.569v27A2.569,2.569,0,0,1,411.8,97.45h-33a2.57,2.57,0,0,1-2.57-2.569v-27a2.57,2.57,0,0,1,2.57-2.569h2.58V56.75A13.937,13.937,0,0,1,395.3,42.828m-8.546,22.487h17.092V56.75a8.546,8.546,0,1,0-17.092,0v8.565m6.718,24.152h3.657V81.053a4.093,4.093,0,1,0-3.657,0v8.414m1.828-48.29A15.59,15.59,0,0,0,379.729,56.75v6.915h-.93a4.224,4.224,0,0,0-4.22,4.219v27a4.225,4.225,0,0,0,4.22,4.22h33a4.225,4.225,0,0,0,4.22-4.22v-27a4.224,4.224,0,0,0-4.22-4.219h-.93V56.75A15.591,15.591,0,0,0,395.3,41.177m-6.895,22.488V56.75a6.9,6.9,0,0,1,13.791,0v6.915Zm6.717,24.152V80.033l-.912-.456a2.442,2.442,0,1,1,2.181,0l-.912.456v7.784Z" fill="#fff"/>
      <path id="Trazado_232183" data-name="Trazado 232183" d="M520.36,51.43H495.34V35.568a8.536,8.536,0,1,1,17.072.13v1.626a.412.412,0,0,0,.194.348l2.76,1.713-2.692,1.043a.41.41,0,0,0-.262.382v.985a.793.793,0,0,0,.792.792h3.787a.793.793,0,0,0,.792-.792V35.568a13.907,13.907,0,1,0-27.813.178V51.43h-2.578A2.566,2.566,0,0,0,484.826,54V80.962a2.566,2.566,0,0,0,2.566,2.567H520.36a2.566,2.566,0,0,0,2.566-2.567V54a2.566,2.566,0,0,0-2.566-2.566M505.7,67.15v6.578a1.827,1.827,0,1,1-3.654,0V67.15a4.089,4.089,0,1,1,3.654,0" fill="#2f077f"/>
      <line id="Línea_215" data-name="Línea 215" x2="61.645" transform="translate(92.195 38.299)" fill="#00b373"/>
      <line id="Línea_216" data-name="Línea 216" x2="54.255" transform="translate(92.195 38.299)" fill="none" stroke="#2d2d2d" stroke-miterlimit="10" stroke-width="1.65"/>
      <path id="Trazado_232184" data-name="Trazado 232184" d="M142.974,42.882l1.947-4.584-1.947-4.583L153.84,38.3Z" fill="#2d2d2d"/>
      <line id="Línea_217" data-name="Línea 217" x2="61.645" transform="translate(639.655 38.299)" fill="#00b373"/>
      <line id="Línea_218" data-name="Línea 218" x2="54.255" transform="translate(639.655 38.299)" fill="none" stroke="#2d2d2d" stroke-miterlimit="10" stroke-width="1.65"/>
      <path id="Trazado_232185" data-name="Trazado 232185" d="M690.434,42.882l1.947-4.584-1.947-4.583L701.3,38.3Z" fill="#2d2d2d"/>
      <line id="Línea_219" data-name="Línea 219" x2="50.917" transform="translate(221.172 38.299)" fill="#00b373"/>
      <line id="Línea_220" data-name="Línea 220" x2="43.528" transform="translate(221.172 38.299)" fill="none" stroke="#2d2d2d" stroke-miterlimit="10" stroke-width="1.65"/>
      <path id="Trazado_232186" data-name="Trazado 232186" d="M261.224,42.882l1.947-4.584-1.947-4.583L272.09,38.3Z" fill="#2d2d2d"/>
      <line id="Línea_221" data-name="Línea 221" x2="50.917" transform="translate(310.324 38.299)" fill="#00b373"/>
      <line id="Línea_222" data-name="Línea 222" x2="43.528" transform="translate(310.324 38.299)" fill="none" stroke="#2d2d2d" stroke-miterlimit="10" stroke-width="1.65"/>
      <path id="Trazado_232187" data-name="Trazado 232187" d="M350.376,42.882l1.948-4.584-1.948-4.583L361.242,38.3Z" fill="#2d2d2d"/>
      <line id="Línea_223" data-name="Línea 223" x2="50.917" transform="translate(434.289 38.299)" fill="#00b373"/>
      <line id="Línea_224" data-name="Línea 224" x2="43.528" transform="translate(434.289 38.299)" fill="none" stroke="#2d2d2d" stroke-miterlimit="10" stroke-width="1.65"/>
      <path id="Trazado_232188" data-name="Trazado 232188" d="M474.34,42.882l1.947-4.584-1.947-4.583L485.206,38.3Z" fill="#2d2d2d"/>
      <line id="Línea_225" data-name="Línea 225" x2="50.917" transform="translate(523.441 38.299)" fill="#00b373"/>
      <line id="Línea_226" data-name="Línea 226" x2="43.528" transform="translate(523.441 38.299)" fill="none" stroke="#2d2d2d" stroke-miterlimit="10" stroke-width="1.65"/>
      <path id="Trazado_232189" data-name="Trazado 232189" d="M563.492,42.882l1.947-4.584-1.947-4.583L574.358,38.3Z" fill="#2d2d2d"/>
    </g>
  </g>
</svg>
