<svg xmlns="http://www.w3.org/2000/svg" width="935" height="358" viewBox="0 0 935 358">
  <g id="Grupo_238134" data-name="Grupo 238134" transform="translate(9425 1811)">
    <g id="Trazado_232715" data-name="Trazado 232715" transform="translate(-9425 -1811)" fill="#fff">
      <path d="M 934.5 357.5 L 0.5 357.5 L 0.5 0.5 L 934.5 0.5 L 934.5 357.5 Z" stroke="none"/>
      <path d="M 1 1 L 1 357 L 934 357 L 934 1 L 1 1 M 0 0 L 935 0 L 935 358 L 0 358 L 0 0 Z" stroke="none" fill="#707070"/>
    </g>
    <path id="Trazado_232716" data-name="Trazado 232716" d="M.568-3.661l2.211-.215a2.7,2.7,0,0,0,.81,1.635,2.448,2.448,0,0,0,1.646.522,2.53,2.53,0,0,0,1.654-.464A1.382,1.382,0,0,0,7.446-3.27a1.024,1.024,0,0,0-.234-.679,1.871,1.871,0,0,0-.817-.487q-.4-.138-1.819-.491A6.171,6.171,0,0,1,2.011-6.041,2.928,2.928,0,0,1,.975-8.305a2.893,2.893,0,0,1,.487-1.608,3.052,3.052,0,0,1,1.4-1.14,5.63,5.63,0,0,1,2.214-.391,4.75,4.75,0,0,1,3.189.929A3.278,3.278,0,0,1,9.4-8.037l-2.272.1A1.929,1.929,0,0,0,6.5-9.184a2.29,2.29,0,0,0-1.439-.38,2.6,2.6,0,0,0-1.551.407.82.82,0,0,0-.361.7.864.864,0,0,0,.338.683,5.973,5.973,0,0,0,2.088.752,11.018,11.018,0,0,1,2.452.81A3.161,3.161,0,0,1,9.269-5.07a3.345,3.345,0,0,1,.449,1.792A3.314,3.314,0,0,1,9.18-1.466,3.22,3.22,0,0,1,7.66-.211,6.373,6.373,0,0,1,5.212.2,4.875,4.875,0,0,1,1.934-.787,4.29,4.29,0,0,1,.568-3.661ZM11.56,0V-11.253h2.272V0Zm9.671-4.137v-1.9h4.9v4.483A6.165,6.165,0,0,1,24.06-.334a7.529,7.529,0,0,1-2.744.526,6.159,6.159,0,0,1-3.078-.741,4.71,4.71,0,0,1-1.973-2.119,6.846,6.846,0,0,1-.66-3,6.477,6.477,0,0,1,.737-3.124,4.963,4.963,0,0,1,2.157-2.1,5.82,5.82,0,0,1,2.694-.56,5.375,5.375,0,0,1,3.274.879,3.969,3.969,0,0,1,1.516,2.429l-2.257.422a2.383,2.383,0,0,0-.894-1.309,2.7,2.7,0,0,0-1.639-.48,3.079,3.079,0,0,0-2.368.944,3.977,3.977,0,0,0-.879,2.8,4.406,4.406,0,0,0,.89,3.005,2.973,2.973,0,0,0,2.333,1A3.913,3.913,0,0,0,22.6-2.03a4.906,4.906,0,0,0,1.232-.679V-4.137ZM28.247,0V-11.253h2.211l4.605,7.515v-7.515h2.111V0h-2.28L30.358-7.338V0ZM39.576,0V-11.253H47.92v1.9H41.848v2.495H47.5v1.9H41.848V-1.9h6.286V0ZM50.069,0V-11.253h4.782a8.185,8.185,0,0,1,2.621.3,2.586,2.586,0,0,1,1.309,1.078A3.242,3.242,0,0,1,59.272-8.1a3,3,0,0,1-.745,2.092A3.576,3.576,0,0,1,56.3-4.966a5.3,5.3,0,0,1,1.217.944A12.825,12.825,0,0,1,58.812-2.2L60.186,0H57.469L55.826-2.449a15.883,15.883,0,0,0-1.2-1.654,1.744,1.744,0,0,0-.683-.468A3.745,3.745,0,0,0,52.8-4.7h-.461V0Zm2.272-6.494h1.681a8.681,8.681,0,0,0,2.042-.138,1.224,1.224,0,0,0,.637-.476,1.465,1.465,0,0,0,.23-.844,1.349,1.349,0,0,0-.3-.917,1.391,1.391,0,0,0-.856-.441q-.276-.038-1.658-.038H52.341Z" transform="translate(-9358.19 -1767.514)"/>
    <path id="Trazado_232717" data-name="Trazado 232717" d="M4.014,0-.008-11.253H2.456L5.3-2.924,8.06-11.253h2.41L6.44,0Zm7.614,0V-11.253h8.344v1.9H13.9v2.495H19.55v1.9H13.9V-1.9h6.286V0ZM22.122,0V-11.253H26.9a8.185,8.185,0,0,1,2.621.3,2.586,2.586,0,0,1,1.309,1.078A3.242,3.242,0,0,1,31.325-8.1a3,3,0,0,1-.745,2.092,3.576,3.576,0,0,1-2.226,1.04,5.3,5.3,0,0,1,1.217.944A12.825,12.825,0,0,1,30.864-2.2L32.238,0H29.521L27.878-2.449a15.883,15.883,0,0,0-1.2-1.654A1.744,1.744,0,0,0,26-4.571,3.745,3.745,0,0,0,24.854-4.7h-.461V0Zm2.272-6.494h1.681a8.681,8.681,0,0,0,2.042-.138,1.224,1.224,0,0,0,.637-.476,1.465,1.465,0,0,0,.23-.844,1.349,1.349,0,0,0-.3-.917,1.391,1.391,0,0,0-.856-.441q-.276-.038-1.658-.038H24.394ZM33.4,0V-11.253h2.272V0Zm4.452,0V-11.253h7.714v1.9H40.121v2.663h4.7v1.9h-4.7V0Zm9.518,0V-11.253h2.272V0ZM51.8,0V-11.253h8.344v1.9H54.076v2.495h5.649v1.9H54.076V-1.9h6.286V0ZM62.3,0V-11.253h4.782a8.185,8.185,0,0,1,2.621.3,2.586,2.586,0,0,1,1.309,1.078A3.242,3.242,0,0,1,71.5-8.1a3,3,0,0,1-.745,2.092,3.576,3.576,0,0,1-2.226,1.04,5.3,5.3,0,0,1,1.217.944A12.824,12.824,0,0,1,71.039-2.2L72.413,0H69.7L68.053-2.449a15.883,15.883,0,0,0-1.2-1.654,1.744,1.744,0,0,0-.683-.468A3.745,3.745,0,0,0,65.029-4.7h-.461V0Zm2.272-6.494H66.25a8.681,8.681,0,0,0,2.042-.138,1.224,1.224,0,0,0,.637-.476,1.465,1.465,0,0,0,.23-.844,1.349,1.349,0,0,0-.3-.917A1.391,1.391,0,0,0,68-9.311q-.276-.038-1.658-.038H64.569Z" transform="translate(-8622.919 -1767.514)"/>
    <path id="Trazado_232718" data-name="Trazado 232718" d="M0,0H851.274V298.786H0Z" transform="translate(-9383 -1781)" fill="none"/>
    <path id="Trazado_232719" data-name="Trazado 232719" d="M0,0H142.494V135.136H0Z" transform="translate(-9028.043 -1713.373)" fill="#defafd"/>
    <path id="Trazado_232196" data-name="Trazado 232196" d="M54.944,136.068v0Z" transform="translate(-9383 -1781)" fill="#00b373"/>
    <path id="Trazado_232720" data-name="Trazado 232720" d="M0,0V44.286" transform="translate(-9328.056 -1696.143)" fill="none" stroke="#2d2d2d" stroke-width="1.547"/>
    <path id="Trazado_232197" data-name="Trazado 232197" d="M50.649,125.885l4.3,1.825,4.3-1.825-4.3,10.183Z" transform="translate(-9383 -1781)" fill="#2d2d2d"/>
    <path id="Trazado_232198" data-name="Trazado 232198" d="M288.073,165.828h0Z" transform="translate(-9383 -1781)" fill="#00b373"/>
    <path id="Trazado_232721" data-name="Trazado 232721" d="M0,0H75.962" transform="translate(-9094.928 -1615.172)" fill="none" stroke="#2d2d2d" stroke-width="1.547"/>
    <path id="Trazado_232199" data-name="Trazado 232199" d="M360.777,170.124l1.825-4.3-1.825-4.295,10.183,4.295Z" transform="translate(-9383 -1781)" fill="#2d2d2d"/>
    <path id="Trazado_232200" data-name="Trazado 232200" d="M480.118,165.828h0Z" transform="translate(-9383 -1781)" fill="#00b373"/>
    <path id="Trazado_232722" data-name="Trazado 232722" d="M0,0H75.962" transform="translate(-8902.881 -1615.172)" fill="none" stroke="#2d2d2d" stroke-width="1.547"/>
    <path id="Trazado_232201" data-name="Trazado 232201" d="M552.823,170.124l1.825-4.3-1.825-4.295,10.183,4.295Z" transform="translate(-9383 -1781)" fill="#2d2d2d"/>
    <path id="Trazado_232202" data-name="Trazado 232202" d="M659.295,165.828h0Z" transform="translate(-9383 -1781)" fill="#00b373"/>
    <path id="Trazado_232723" data-name="Trazado 232723" d="M0,0H75.962" transform="translate(-8723.705 -1615.172)" fill="none" stroke="#2d2d2d" stroke-width="1.547"/>
    <path id="Trazado_232203" data-name="Trazado 232203" d="M732,170.124l1.825-4.3L732,161.533l10.183,4.295Z" transform="translate(-9383 -1781)" fill="#2d2d2d"/>
    <path id="Trazado_232204" data-name="Trazado 232204" d="M54.944,240.057v0Z" transform="translate(-9383 -1781)" fill="#00b373"/>
    <path id="Trazado_232724" data-name="Trazado 232724" d="M0,0V44.286" transform="translate(-9328.056 -1592.154)" fill="none" stroke="#2d2d2d" stroke-width="1.547"/>
    <path id="Trazado_232205" data-name="Trazado 232205" d="M50.649,229.874l4.3,1.825,4.3-1.825-4.3,10.183Z" transform="translate(-9383 -1781)" fill="#2d2d2d"/>
    <path id="Trazado_232725" data-name="Trazado 232725" d="M0,0H108.614V56.578H0Z" transform="translate(-9382.363 -1643.686)" fill="#59e5f5"/>
    <path id="Trazado_232726" data-name="Trazado 232726" d="M0,0H108.614V56.578H0Z" transform="translate(-9382.363 -1643.686)" fill="none" stroke="#000" stroke-linecap="square" stroke-width="1.274"/>
    <path id="Trazado_232727" data-name="Trazado 232727" d="M0,0H851.274V298.786H0Z" transform="translate(-9383 -1781)" fill="none"/>
    <path id="Trazado_232728" data-name="Trazado 232728" d="M1.1,0V-10.733H3.265v4.224H7.512v-4.224H9.679V0H7.512V-4.693H3.265V0ZM13.442-5.4,11.575-5.74a2.908,2.908,0,0,1,1.084-1.669,3.965,3.965,0,0,1,2.284-.542,4.923,4.923,0,0,1,2.05.326,2.045,2.045,0,0,1,.948.827,4.243,4.243,0,0,1,.275,1.841l-.022,2.4a8.337,8.337,0,0,0,.1,1.512A4.413,4.413,0,0,0,18.662,0H16.627q-.081-.205-.2-.608-.051-.183-.073-.242a3.709,3.709,0,0,1-1.128.769,3.229,3.229,0,0,1-1.281.256,2.649,2.649,0,0,1-1.893-.652,2.166,2.166,0,0,1-.692-1.647A2.211,2.211,0,0,1,11.678-3.3a2.057,2.057,0,0,1,.882-.791,6.9,6.9,0,0,1,1.636-.48,11.209,11.209,0,0,0,2-.505v-.205a1.065,1.065,0,0,0-.293-.846A1.755,1.755,0,0,0,14.8-6.377a1.472,1.472,0,0,0-.857.216A1.5,1.5,0,0,0,13.442-5.4ZM16.2-3.734a12.86,12.86,0,0,1-1.252.315,3.771,3.771,0,0,0-1.12.359.858.858,0,0,0-.4.725,1.009,1.009,0,0,0,.322.747,1.125,1.125,0,0,0,.82.315,1.782,1.782,0,0,0,1.062-.366,1.289,1.289,0,0,0,.491-.681,4.063,4.063,0,0,0,.081-1Zm3.324,1.516,2.065-.315a1.513,1.513,0,0,0,.534.912,1.806,1.806,0,0,0,1.128.311,2.035,2.035,0,0,0,1.2-.293.654.654,0,0,0,.271-.549.54.54,0,0,0-.146-.388,1.639,1.639,0,0,0-.688-.271,11.1,11.1,0,0,1-3.156-1,2,2,0,0,1-.923-1.75,2.157,2.157,0,0,1,.8-1.7,3.727,3.727,0,0,1,2.475-.688,4.317,4.317,0,0,1,2.372.52,2.657,2.657,0,0,1,1.069,1.538l-1.94.359a1.2,1.2,0,0,0-.472-.7,1.727,1.727,0,0,0-.992-.242,2.235,2.235,0,0,0-1.164.227.487.487,0,0,0-.234.417.455.455,0,0,0,.205.373,7.719,7.719,0,0,0,1.922.578,5.721,5.721,0,0,1,2.3.915,1.9,1.9,0,0,1,.644,1.53,2.349,2.349,0,0,1-.893,1.838,3.954,3.954,0,0,1-2.643.769,4.337,4.337,0,0,1-2.515-.644A2.968,2.968,0,0,1,19.519-2.218Zm11.114-8.515v3.946a3.034,3.034,0,0,1,2.379-1.164,3.022,3.022,0,0,1,1.281.264,2.094,2.094,0,0,1,.86.674,2.442,2.442,0,0,1,.4.908,8.116,8.116,0,0,1,.106,1.545V0H33.6V-4.107a6.082,6.082,0,0,0-.117-1.552,1.019,1.019,0,0,0-.414-.523,1.33,1.33,0,0,0-.743-.194,1.7,1.7,0,0,0-.915.249,1.436,1.436,0,0,0-.589.75A4.482,4.482,0,0,0,30.633-3.9V0H28.576V-10.733Zm7.109,1.9v-1.9H39.8v1.9Zm0,8.83V-7.775H39.8V0ZM48.981,0H46.923V-3.968A6.133,6.133,0,0,0,46.792-5.6a1.143,1.143,0,0,0-.428-.575,1.224,1.224,0,0,0-.714-.205,1.65,1.65,0,0,0-.959.293,1.476,1.476,0,0,0-.582.776,6.708,6.708,0,0,0-.157,1.786V0H41.894V-7.775H43.8v1.142a3.113,3.113,0,0,1,2.563-1.318,3.087,3.087,0,0,1,1.245.245,2.086,2.086,0,0,1,.853.626,2.268,2.268,0,0,1,.4.864,6.426,6.426,0,0,1,.113,1.384Zm1.9.513L53.227.8a.8.8,0,0,0,.271.564,1.547,1.547,0,0,0,.923.22,2.4,2.4,0,0,0,1.208-.242,1,1,0,0,0,.41-.52,3.124,3.124,0,0,0,.1-.944V-1.259A2.784,2.784,0,0,1,53.806,0a2.866,2.866,0,0,1-2.482-1.325,4.5,4.5,0,0,1-.718-2.606,4.287,4.287,0,0,1,.941-2.987,3.036,3.036,0,0,1,2.339-1.032,2.848,2.848,0,0,1,2.379,1.267V-7.775h1.926V-.8a6.952,6.952,0,0,1-.227,2.057,2.549,2.549,0,0,1-.637,1.069,2.818,2.818,0,0,1-1.095.608,5.762,5.762,0,0,1-1.732.22,4.482,4.482,0,0,1-2.8-.677A2.125,2.125,0,0,1,50.87.761Q50.87.659,50.877.513Zm1.838-4.561a2.8,2.8,0,0,0,.48,1.812,1.483,1.483,0,0,0,1.182.575,1.635,1.635,0,0,0,1.274-.589A2.569,2.569,0,0,0,56.17-4a2.723,2.723,0,0,0-.5-1.794,1.582,1.582,0,0,0-1.259-.586,1.519,1.519,0,0,0-1.219.575A2.7,2.7,0,0,0,52.715-4.049Z" transform="translate(-9357.63 -1618.976)"/>
    <path id="Trazado_232729" data-name="Trazado 232729" d="M1.106,0V-10.733H8.464v1.816H3.273v2.541H7.753v1.816H3.273V0ZM15.353,0V-1.164a3,3,0,0,1-1.117.981,3.13,3.13,0,0,1-1.461.359A2.856,2.856,0,0,1,11.37-.168a2.031,2.031,0,0,1-.9-.966,4.313,4.313,0,0,1-.278-1.721v-4.92h2.057V-4.2a9.908,9.908,0,0,0,.113,2.01,1.1,1.1,0,0,0,.414.586,1.271,1.271,0,0,0,.761.216,1.619,1.619,0,0,0,.944-.289,1.471,1.471,0,0,0,.571-.718,8.328,8.328,0,0,0,.154-2.1v-3.28h2.057V0ZM26.467,0H24.41V-3.968A6.133,6.133,0,0,0,24.278-5.6a1.143,1.143,0,0,0-.428-.575,1.224,1.224,0,0,0-.714-.205,1.65,1.65,0,0,0-.959.293,1.476,1.476,0,0,0-.582.776,6.708,6.708,0,0,0-.157,1.786V0H19.38V-7.775h1.911v1.142a3.113,3.113,0,0,1,2.563-1.318,3.087,3.087,0,0,1,1.245.245,2.086,2.086,0,0,1,.853.626,2.268,2.268,0,0,1,.4.864,6.426,6.426,0,0,1,.113,1.384Zm8.866-5.476-2.028.366a1.472,1.472,0,0,0-.465-.915,1.4,1.4,0,0,0-.941-.308,1.537,1.537,0,0,0-1.226.531,2.72,2.72,0,0,0-.458,1.775,3.146,3.146,0,0,0,.465,1.955,1.527,1.527,0,0,0,1.248.571,1.387,1.387,0,0,0,.959-.333,2,2,0,0,0,.527-1.146l2.021.344a3.586,3.586,0,0,1-1.208,2.1,3.739,3.739,0,0,1-2.394.71A3.559,3.559,0,0,1,29.114-.9,4.173,4.173,0,0,1,28.1-3.88a4.182,4.182,0,0,1,1.018-3A3.615,3.615,0,0,1,31.87-7.951a3.756,3.756,0,0,1,2.259.611A3.387,3.387,0,0,1,35.333-5.476Zm5.125-2.3v1.64H39.053V-3a7.794,7.794,0,0,0,.04,1.109.452.452,0,0,0,.183.26.581.581,0,0,0,.348.1,2.661,2.661,0,0,0,.827-.2l.176,1.6A4.09,4.09,0,0,1,39,.176a2.578,2.578,0,0,1-1-.187,1.464,1.464,0,0,1-.655-.483,1.907,1.907,0,0,1-.289-.8,9.972,9.972,0,0,1-.066-1.45v-3.39h-.944v-1.64h.944V-9.32l2.065-1.2v2.746ZM41.886-8.83v-1.9h2.057v1.9Zm0,8.83V-7.775h2.057V0Zm3.69-4a4.206,4.206,0,0,1,.505-1.984,3.468,3.468,0,0,1,1.431-1.464,4.248,4.248,0,0,1,2.068-.505,3.882,3.882,0,0,1,2.892,1.146A3.959,3.959,0,0,1,53.6-3.91,4.006,4.006,0,0,1,52.462-.985,3.848,3.848,0,0,1,49.6.176a4.515,4.515,0,0,1-2.039-.483,3.315,3.315,0,0,1-1.475-1.417A4.72,4.72,0,0,1,45.576-4Zm2.109.11a2.576,2.576,0,0,0,.549,1.772,1.745,1.745,0,0,0,1.354.615,1.734,1.734,0,0,0,1.351-.615A2.612,2.612,0,0,0,51.485-3.9a2.564,2.564,0,0,0-.545-1.757,1.734,1.734,0,0,0-1.351-.615,1.745,1.745,0,0,0-1.354.615A2.576,2.576,0,0,0,47.685-3.888ZM62.284,0H60.227V-3.968A6.133,6.133,0,0,0,60.095-5.6a1.143,1.143,0,0,0-.428-.575,1.224,1.224,0,0,0-.714-.205,1.65,1.65,0,0,0-.959.293,1.476,1.476,0,0,0-.582.776,6.708,6.708,0,0,0-.157,1.786V0H55.2V-7.775h1.911v1.142A3.113,3.113,0,0,1,59.67-7.951a3.087,3.087,0,0,1,1.245.245,2.086,2.086,0,0,1,.853.626,2.268,2.268,0,0,1,.4.864,6.426,6.426,0,0,1,.113,1.384Z" transform="translate(-9359.699 -1600.983)"/>
    <path id="Trazado_232730" data-name="Trazado 232730" d="M0,0H108.614V56.579H0Z" transform="translate(-9382.363 -1539.43)" fill="#59e5f5"/>
    <path id="Trazado_232731" data-name="Trazado 232731" d="M0,0H108.614V56.578H0Z" transform="translate(-9382.363 -1539.429)" fill="none" stroke="#000" stroke-linecap="square" stroke-width="1.274"/>
    <path id="Trazado_232732" data-name="Trazado 232732" d="M0,0H851.274V298.786H0Z" transform="translate(-9383 -1781)" fill="none"/>
    <path id="Trazado_232733" data-name="Trazado 232733" d="M1.1,0V-10.733H3.265v4.224H7.512v-4.224H9.679V0H7.512V-4.693H3.265V0ZM13.442-5.4,11.575-5.74a2.908,2.908,0,0,1,1.084-1.669,3.965,3.965,0,0,1,2.284-.542,4.923,4.923,0,0,1,2.05.326,2.045,2.045,0,0,1,.948.827,4.243,4.243,0,0,1,.275,1.841l-.022,2.4a8.337,8.337,0,0,0,.1,1.512A4.413,4.413,0,0,0,18.662,0H16.627q-.081-.205-.2-.608-.051-.183-.073-.242a3.709,3.709,0,0,1-1.128.769,3.229,3.229,0,0,1-1.281.256,2.649,2.649,0,0,1-1.893-.652,2.166,2.166,0,0,1-.692-1.647A2.211,2.211,0,0,1,11.678-3.3a2.057,2.057,0,0,1,.882-.791,6.9,6.9,0,0,1,1.636-.48,11.209,11.209,0,0,0,2-.505v-.205a1.065,1.065,0,0,0-.293-.846A1.755,1.755,0,0,0,14.8-6.377a1.472,1.472,0,0,0-.857.216A1.5,1.5,0,0,0,13.442-5.4ZM16.2-3.734a12.86,12.86,0,0,1-1.252.315,3.771,3.771,0,0,0-1.12.359.858.858,0,0,0-.4.725,1.009,1.009,0,0,0,.322.747,1.125,1.125,0,0,0,.82.315,1.782,1.782,0,0,0,1.062-.366,1.289,1.289,0,0,0,.491-.681,4.063,4.063,0,0,0,.081-1Zm3.324,1.516,2.065-.315a1.513,1.513,0,0,0,.534.912,1.806,1.806,0,0,0,1.128.311,2.035,2.035,0,0,0,1.2-.293.654.654,0,0,0,.271-.549.54.54,0,0,0-.146-.388,1.639,1.639,0,0,0-.688-.271,11.1,11.1,0,0,1-3.156-1,2,2,0,0,1-.923-1.75,2.157,2.157,0,0,1,.8-1.7,3.727,3.727,0,0,1,2.475-.688,4.317,4.317,0,0,1,2.372.52,2.657,2.657,0,0,1,1.069,1.538l-1.94.359a1.2,1.2,0,0,0-.472-.7,1.727,1.727,0,0,0-.992-.242,2.235,2.235,0,0,0-1.164.227.487.487,0,0,0-.234.417.455.455,0,0,0,.205.373,7.719,7.719,0,0,0,1.922.578,5.721,5.721,0,0,1,2.3.915,1.9,1.9,0,0,1,.644,1.53,2.349,2.349,0,0,1-.893,1.838,3.954,3.954,0,0,1-2.643.769,4.337,4.337,0,0,1-2.515-.644A2.968,2.968,0,0,1,19.519-2.218Zm11.114-8.515v3.946a3.034,3.034,0,0,1,2.379-1.164,3.022,3.022,0,0,1,1.281.264,2.094,2.094,0,0,1,.86.674,2.442,2.442,0,0,1,.4.908,8.116,8.116,0,0,1,.106,1.545V0H33.6V-4.107a6.082,6.082,0,0,0-.117-1.552,1.019,1.019,0,0,0-.414-.523,1.33,1.33,0,0,0-.743-.194,1.7,1.7,0,0,0-.915.249,1.436,1.436,0,0,0-.589.75A4.482,4.482,0,0,0,30.633-3.9V0H28.576V-10.733Z" transform="translate(-9346.388 -1506.284)"/>
    <path id="Trazado_232734" data-name="Trazado 232734" d="M0,0H108.614V56.578H0Z" transform="translate(-9382.363 -1747.942)" fill="#59e5f5"/>
    <path id="Trazado_232735" data-name="Trazado 232735" d="M0,0H108.614V56.578H0Z" transform="translate(-9382.363 -1747.943)" fill="none" stroke="#000" stroke-linecap="square" stroke-width="1.274"/>
    <path id="Trazado_232736" data-name="Trazado 232736" d="M0,0H851.274V298.786H0Z" transform="translate(-9383 -1781)" fill="none"/>
    <path id="Trazado_232737" data-name="Trazado 232737" d="M1.084-10.733H5.045a7.735,7.735,0,0,1,2.043.205,3.589,3.589,0,0,1,1.618.988A4.689,4.689,0,0,1,9.73-7.8a7.921,7.921,0,0,1,.351,2.537A7.054,7.054,0,0,1,9.752-2.98,4.732,4.732,0,0,1,8.6-1.084,3.81,3.81,0,0,1,7.08-.227,6.557,6.557,0,0,1,5.162,0H1.084ZM3.251-8.918v7.109H4.869a5.9,5.9,0,0,0,1.311-.1,2,2,0,0,0,.875-.447,2.272,2.272,0,0,0,.567-1.036,7,7,0,0,0,.22-1.966,6.412,6.412,0,0,0-.22-1.911,2.456,2.456,0,0,0-.615-1.04,2.062,2.062,0,0,0-1-.505,9.826,9.826,0,0,0-1.779-.1ZM13.442-5.4,11.575-5.74a2.908,2.908,0,0,1,1.084-1.669,3.965,3.965,0,0,1,2.284-.542,4.923,4.923,0,0,1,2.05.326,2.045,2.045,0,0,1,.948.827,4.243,4.243,0,0,1,.275,1.841l-.022,2.4a8.337,8.337,0,0,0,.1,1.512A4.413,4.413,0,0,0,18.662,0H16.627q-.081-.205-.2-.608-.051-.183-.073-.242a3.709,3.709,0,0,1-1.128.769,3.229,3.229,0,0,1-1.281.256,2.649,2.649,0,0,1-1.893-.652,2.166,2.166,0,0,1-.692-1.647A2.211,2.211,0,0,1,11.678-3.3a2.057,2.057,0,0,1,.882-.791,6.9,6.9,0,0,1,1.636-.48,11.209,11.209,0,0,0,2-.505v-.205a1.065,1.065,0,0,0-.293-.846A1.755,1.755,0,0,0,14.8-6.377a1.472,1.472,0,0,0-.857.216A1.5,1.5,0,0,0,13.442-5.4ZM16.2-3.734a12.86,12.86,0,0,1-1.252.315,3.771,3.771,0,0,0-1.12.359.858.858,0,0,0-.4.725,1.009,1.009,0,0,0,.322.747,1.125,1.125,0,0,0,.82.315,1.782,1.782,0,0,0,1.062-.366,1.289,1.289,0,0,0,.491-.681,4.063,4.063,0,0,0,.081-1Zm7.614-4.041v1.64H22.4V-3a7.794,7.794,0,0,0,.04,1.109.452.452,0,0,0,.183.26.581.581,0,0,0,.348.1,2.661,2.661,0,0,0,.827-.2l.176,1.6a4.09,4.09,0,0,1-1.625.308,2.578,2.578,0,0,1-1-.187,1.464,1.464,0,0,1-.655-.483,1.907,1.907,0,0,1-.289-.8,9.973,9.973,0,0,1-.066-1.45v-3.39h-.944v-1.64h.944V-9.32l2.065-1.2v2.746ZM26.775-5.4,24.908-5.74a2.908,2.908,0,0,1,1.084-1.669,3.965,3.965,0,0,1,2.284-.542,4.923,4.923,0,0,1,2.05.326,2.045,2.045,0,0,1,.948.827,4.242,4.242,0,0,1,.275,1.841l-.022,2.4a8.337,8.337,0,0,0,.1,1.512A4.413,4.413,0,0,0,31.995,0H29.96q-.081-.205-.2-.608-.051-.183-.073-.242a3.709,3.709,0,0,1-1.128.769A3.229,3.229,0,0,1,27.28.176a2.649,2.649,0,0,1-1.893-.652A2.166,2.166,0,0,1,24.7-2.123,2.211,2.211,0,0,1,25.01-3.3a2.057,2.057,0,0,1,.882-.791,6.9,6.9,0,0,1,1.636-.48,11.209,11.209,0,0,0,2-.505v-.205a1.065,1.065,0,0,0-.293-.846,1.755,1.755,0,0,0-1.106-.253,1.472,1.472,0,0,0-.857.216A1.5,1.5,0,0,0,26.775-5.4Zm2.753,1.669a12.86,12.86,0,0,1-1.252.315,3.771,3.771,0,0,0-1.12.359.858.858,0,0,0-.4.725,1.009,1.009,0,0,0,.322.747,1.125,1.125,0,0,0,.82.315,1.782,1.782,0,0,0,1.062-.366,1.289,1.289,0,0,0,.491-.681,4.063,4.063,0,0,0,.081-1Z" transform="translate(-9344.306 -1714.798)"/>
    <path id="Trazado_232206" data-name="Trazado 232206" d="M620.309,245.68v0Z" transform="translate(-9383 -1781)" fill="#00b373"/>
    <path id="Trazado_232738" data-name="Trazado 232738" d="M0,44.286V0" transform="translate(-8762.691 -1579.606)" fill="none" stroke="#2d2d2d" stroke-width="1.547"/>
    <path id="Trazado_232207" data-name="Trazado 232207" d="M624.6,204.652l-4.3-1.825-4.295,1.825,4.295-10.183Z" transform="translate(-9383 -1781)" fill="#2d2d2d"/>
    <path id="Trazado_232208" data-name="Trazado 232208" d="M796.33,173.816v0Z" transform="translate(-9383 -1781)" fill="#00b373"/>
    <path id="Trazado_232739" data-name="Trazado 232739" d="M0,44.286V0" transform="translate(-8586.67 -1651.47)" fill="none" stroke="#2d2d2d" stroke-width="1.547"/>
    <path id="Trazado_232209" data-name="Trazado 232209" d="M800.626,132.788l-4.3-1.825-4.295,1.825,4.295-10.183Z" transform="translate(-9383 -1781)" fill="#2d2d2d"/>
    <path id="Trazado_232740" data-name="Trazado 232740" d="M0,0H108.614V56.578H0Z" transform="translate(-8816.999 -1643.686)" fill="#8628a5"/>
    <path id="Trazado_232741" data-name="Trazado 232741" d="M0,0H108.614V56.578H0Z" transform="translate(-8816.999 -1643.686)" fill="none" stroke="#000" stroke-linecap="square" stroke-width="1.274"/>
    <path id="Trazado_232742" data-name="Trazado 232742" d="M3.829,0-.007-10.733h2.35L5.059-2.789l2.628-7.944h2.3L6.143,0Zm10.1-2.475,2.05.344A3.363,3.363,0,0,1,14.73-.414,3.667,3.667,0,0,1,12.6.176a3.479,3.479,0,0,1-3-1.325,4.452,4.452,0,0,1-.769-2.68,4.293,4.293,0,0,1,1.01-3.027,3.327,3.327,0,0,1,2.555-1.095,3.451,3.451,0,0,1,2.738,1.146,5.07,5.07,0,0,1,.959,3.511H10.934a2.081,2.081,0,0,0,.5,1.424,1.557,1.557,0,0,0,1.186.509,1.26,1.26,0,0,0,.813-.264A1.628,1.628,0,0,0,13.928-2.475Zm.117-2.079a1.981,1.981,0,0,0-.461-1.358,1.415,1.415,0,0,0-1.069-.465,1.429,1.429,0,0,0-1.113.491,1.9,1.9,0,0,0-.432,1.333ZM19.734,0H17.677V-7.775h1.911V-6.67A3.323,3.323,0,0,1,20.47-7.7a1.623,1.623,0,0,1,.89-.249,2.611,2.611,0,0,1,1.354.388l-.637,1.794a1.805,1.805,0,0,0-.966-.337,1.142,1.142,0,0,0-.732.238,1.627,1.627,0,0,0-.472.86A12.221,12.221,0,0,0,19.734-2.4ZM23.6-8.83v-1.9h2.057v1.9ZM23.6,0V-7.775h2.057V0Zm3.265-7.775h1.142v-.586a3.891,3.891,0,0,1,.209-1.464,1.649,1.649,0,0,1,.769-.787,2.949,2.949,0,0,1,1.417-.3,5.727,5.727,0,0,1,1.721.264l-.278,1.435a4.064,4.064,0,0,0-.944-.117.842.842,0,0,0-.641.209,1.209,1.209,0,0,0-.194.8v.549H31.6v1.618H30.065V0H28.007V-6.157H26.865ZM32.759-8.83v-1.9h2.057v1.9Zm0,8.83V-7.775h2.057V0ZM43.7-5.476l-2.028.366a1.472,1.472,0,0,0-.465-.915,1.4,1.4,0,0,0-.941-.308,1.537,1.537,0,0,0-1.226.531,2.72,2.72,0,0,0-.458,1.775,3.146,3.146,0,0,0,.465,1.955A1.527,1.527,0,0,0,40.3-1.5a1.387,1.387,0,0,0,.959-.333,2,2,0,0,0,.527-1.146l2.021.344A3.586,3.586,0,0,1,42.6-.534,3.739,3.739,0,0,1,40.2.176,3.559,3.559,0,0,1,37.485-.9a4.173,4.173,0,0,1-1.014-2.98,4.182,4.182,0,0,1,1.018-3,3.615,3.615,0,0,1,2.753-1.073A3.756,3.756,0,0,1,42.5-7.34,3.387,3.387,0,0,1,43.7-5.476Zm3.1.073L44.935-5.74a2.908,2.908,0,0,1,1.084-1.669A3.965,3.965,0,0,1,48.3-7.951a4.923,4.923,0,0,1,2.05.326A2.045,2.045,0,0,1,51.3-6.8a4.243,4.243,0,0,1,.275,1.841l-.022,2.4a8.337,8.337,0,0,0,.1,1.512A4.413,4.413,0,0,0,52.022,0H49.986q-.081-.205-.2-.608-.051-.183-.073-.242a3.709,3.709,0,0,1-1.128.769,3.229,3.229,0,0,1-1.281.256,2.65,2.65,0,0,1-1.893-.652,2.166,2.166,0,0,1-.692-1.647A2.211,2.211,0,0,1,45.037-3.3a2.057,2.057,0,0,1,.882-.791,6.9,6.9,0,0,1,1.636-.48,11.209,11.209,0,0,0,2-.505v-.205a1.065,1.065,0,0,0-.293-.846,1.755,1.755,0,0,0-1.106-.253,1.472,1.472,0,0,0-.857.216A1.5,1.5,0,0,0,46.8-5.4Zm2.753,1.669a12.86,12.86,0,0,1-1.252.315,3.771,3.771,0,0,0-1.12.359.858.858,0,0,0-.4.725,1.009,1.009,0,0,0,.322.747,1.125,1.125,0,0,0,.82.315,1.782,1.782,0,0,0,1.062-.366,1.289,1.289,0,0,0,.491-.681,4.062,4.062,0,0,0,.081-1Zm7.614-4.041v1.64H55.763V-3a7.794,7.794,0,0,0,.04,1.109.452.452,0,0,0,.183.26.581.581,0,0,0,.348.1,2.661,2.661,0,0,0,.827-.2l.176,1.6a4.09,4.09,0,0,1-1.625.308,2.578,2.578,0,0,1-1-.187,1.464,1.464,0,0,1-.655-.483,1.907,1.907,0,0,1-.289-.8,9.972,9.972,0,0,1-.066-1.45v-3.39h-.944v-1.64H53.7V-9.32l2.065-1.2v2.746ZM58.6-8.83v-1.9h2.057v1.9ZM58.6,0V-7.775h2.057V0Zm3.69-4a4.206,4.206,0,0,1,.505-1.984,3.468,3.468,0,0,1,1.431-1.464,4.248,4.248,0,0,1,2.068-.505,3.882,3.882,0,0,1,2.892,1.146,3.959,3.959,0,0,1,1.128,2.9A4.006,4.006,0,0,1,69.172-.985,3.848,3.848,0,0,1,66.306.176a4.515,4.515,0,0,1-2.039-.483,3.315,3.315,0,0,1-1.475-1.417A4.72,4.72,0,0,1,62.286-4Zm2.109.11a2.576,2.576,0,0,0,.549,1.772A1.745,1.745,0,0,0,66.3-1.5a1.734,1.734,0,0,0,1.351-.615A2.612,2.612,0,0,0,68.195-3.9a2.564,2.564,0,0,0-.545-1.757A1.734,1.734,0,0,0,66.3-6.275a1.745,1.745,0,0,0-1.354.615A2.576,2.576,0,0,0,64.4-3.888ZM78.994,0H76.937V-3.968A6.133,6.133,0,0,0,76.805-5.6a1.143,1.143,0,0,0-.428-.575,1.224,1.224,0,0,0-.714-.205,1.65,1.65,0,0,0-.959.293,1.476,1.476,0,0,0-.582.776,6.708,6.708,0,0,0-.157,1.786V0H71.907V-7.775h1.911v1.142A3.113,3.113,0,0,1,76.38-7.951a3.087,3.087,0,0,1,1.245.245,2.085,2.085,0,0,1,.853.626,2.268,2.268,0,0,1,.4.864,6.426,6.426,0,0,1,.113,1.384Z" transform="translate(-8803.105 -1618.976)" fill="#fff"/>
    <path id="Trazado_232743" data-name="Trazado 232743" d="M10.77,0H8.412L7.475-2.438H3.185L2.3,0H0L4.181-10.733H6.472ZM6.78-4.246,5.3-8.229,3.851-4.246ZM11.9,0V-10.733h2.057V0ZM15.88.513,18.23.8a.8.8,0,0,0,.271.564,1.547,1.547,0,0,0,.923.22,2.4,2.4,0,0,0,1.208-.242,1,1,0,0,0,.41-.52,3.124,3.124,0,0,0,.1-.944V-1.259A2.784,2.784,0,0,1,18.809,0a2.866,2.866,0,0,1-2.482-1.325,4.5,4.5,0,0,1-.718-2.606,4.287,4.287,0,0,1,.941-2.987,3.036,3.036,0,0,1,2.339-1.032,2.848,2.848,0,0,1,2.379,1.267V-7.775h1.926V-.8a6.952,6.952,0,0,1-.227,2.057,2.549,2.549,0,0,1-.637,1.069,2.818,2.818,0,0,1-1.095.608,5.762,5.762,0,0,1-1.732.22,4.482,4.482,0,0,1-2.8-.677A2.125,2.125,0,0,1,15.873.761Q15.873.659,15.88.513Zm1.838-4.561a2.8,2.8,0,0,0,.48,1.812,1.483,1.483,0,0,0,1.182.575,1.635,1.635,0,0,0,1.274-.589A2.569,2.569,0,0,0,21.174-4a2.723,2.723,0,0,0-.5-1.794,1.582,1.582,0,0,0-1.259-.586A1.519,1.519,0,0,0,18.2-5.8,2.7,2.7,0,0,0,17.718-4.049ZM24.754-4a4.206,4.206,0,0,1,.505-1.984A3.468,3.468,0,0,1,26.69-7.446a4.248,4.248,0,0,1,2.068-.505,3.882,3.882,0,0,1,2.892,1.146,3.959,3.959,0,0,1,1.128,2.9A4.006,4.006,0,0,1,31.64-.985,3.848,3.848,0,0,1,28.773.176a4.515,4.515,0,0,1-2.039-.483,3.315,3.315,0,0,1-1.475-1.417A4.72,4.72,0,0,1,24.754-4Zm2.109.11a2.576,2.576,0,0,0,.549,1.772,1.745,1.745,0,0,0,1.354.615,1.734,1.734,0,0,0,1.351-.615A2.612,2.612,0,0,0,30.662-3.9a2.564,2.564,0,0,0-.545-1.757,1.734,1.734,0,0,0-1.351-.615,1.745,1.745,0,0,0-1.354.615A2.576,2.576,0,0,0,26.863-3.888ZM36.358,0H34.3V-7.775h1.911V-6.67A3.323,3.323,0,0,1,37.094-7.7a1.623,1.623,0,0,1,.89-.249,2.611,2.611,0,0,1,1.354.388L38.7-5.769a1.805,1.805,0,0,0-.966-.337A1.142,1.142,0,0,0,37-5.868a1.627,1.627,0,0,0-.472.86A12.221,12.221,0,0,0,36.358-2.4Zm3.866-8.83v-1.9h2.057v1.9Zm0,8.83V-7.775h2.057V0Zm7.731-7.775v1.64H46.55V-3a7.794,7.794,0,0,0,.04,1.109.452.452,0,0,0,.183.26.581.581,0,0,0,.348.1,2.661,2.661,0,0,0,.827-.2l.176,1.6A4.09,4.09,0,0,1,46.5.176a2.578,2.578,0,0,1-1-.187,1.464,1.464,0,0,1-.655-.483,1.907,1.907,0,0,1-.289-.8,9.972,9.972,0,0,1-.066-1.45v-3.39h-.944v-1.64h.944V-9.32l2.065-1.2v2.746Zm3.478-2.958v3.946a3.034,3.034,0,0,1,2.379-1.164,3.022,3.022,0,0,1,1.281.264,2.094,2.094,0,0,1,.86.674,2.442,2.442,0,0,1,.4.908,8.116,8.116,0,0,1,.106,1.545V0H54.4V-4.107a6.081,6.081,0,0,0-.117-1.552,1.019,1.019,0,0,0-.414-.523,1.33,1.33,0,0,0-.743-.194,1.7,1.7,0,0,0-.915.249,1.436,1.436,0,0,0-.589.75A4.482,4.482,0,0,0,51.433-3.9V0H49.376V-10.733Zm6.955,2.958h1.9v1.062a3.051,3.051,0,0,1,2.423-1.237,2.61,2.61,0,0,1,1.3.308,2.363,2.363,0,0,1,.9.93,3.592,3.592,0,0,1,1.106-.93,2.712,2.712,0,0,1,1.267-.308,2.821,2.821,0,0,1,1.45.348,2.13,2.13,0,0,1,.886,1.021,4.431,4.431,0,0,1,.212,1.611V0H67.768V-4.444a3.306,3.306,0,0,0-.212-1.494.975.975,0,0,0-.879-.439,1.4,1.4,0,0,0-.813.264,1.462,1.462,0,0,0-.549.772,5.557,5.557,0,0,0-.168,1.607V0H63.089V-4.261a5.911,5.911,0,0,0-.11-1.464.934.934,0,0,0-.34-.491,1.076,1.076,0,0,0-.626-.161,1.5,1.5,0,0,0-.857.256,1.406,1.406,0,0,0-.545.739,5.5,5.5,0,0,0-.165,1.6V0H58.389Z" transform="translate(-8798.082 -1600.983)" fill="#fff"/>
    <path id="Trazado_232744" data-name="Trazado 232744" d="M0,0H108.614V56.578H0Z" transform="translate(-8640.977 -1643.686)" fill="#8628a5"/>
    <path id="Trazado_232745" data-name="Trazado 232745" d="M0,0H108.614V56.578H0Z" transform="translate(-8640.977 -1643.686)" fill="none" stroke="#000" stroke-linecap="square" stroke-width="1.274"/>
    <path id="Trazado_232746" data-name="Trazado 232746" d="M0,0H851.274V298.786H0Z" transform="translate(-9383 -1781)" fill="none"/>
    <path id="Trazado_232747" data-name="Trazado 232747" d="M1.1,0V-10.733H3.265v4.224H7.512v-4.224H9.679V0H7.512V-4.693H3.265V0ZM13.442-5.4,11.575-5.74a2.908,2.908,0,0,1,1.084-1.669,3.965,3.965,0,0,1,2.284-.542,4.923,4.923,0,0,1,2.05.326,2.045,2.045,0,0,1,.948.827,4.243,4.243,0,0,1,.275,1.841l-.022,2.4a8.337,8.337,0,0,0,.1,1.512A4.413,4.413,0,0,0,18.662,0H16.627q-.081-.205-.2-.608-.051-.183-.073-.242a3.709,3.709,0,0,1-1.128.769,3.229,3.229,0,0,1-1.281.256,2.649,2.649,0,0,1-1.893-.652,2.166,2.166,0,0,1-.692-1.647A2.211,2.211,0,0,1,11.678-3.3a2.057,2.057,0,0,1,.882-.791,6.9,6.9,0,0,1,1.636-.48,11.209,11.209,0,0,0,2-.505v-.205a1.065,1.065,0,0,0-.293-.846A1.755,1.755,0,0,0,14.8-6.377a1.472,1.472,0,0,0-.857.216A1.5,1.5,0,0,0,13.442-5.4ZM16.2-3.734a12.86,12.86,0,0,1-1.252.315,3.771,3.771,0,0,0-1.12.359.858.858,0,0,0-.4.725,1.009,1.009,0,0,0,.322.747,1.125,1.125,0,0,0,.82.315,1.782,1.782,0,0,0,1.062-.366,1.289,1.289,0,0,0,.491-.681,4.063,4.063,0,0,0,.081-1Zm3.324,1.516,2.065-.315a1.513,1.513,0,0,0,.534.912,1.806,1.806,0,0,0,1.128.311,2.035,2.035,0,0,0,1.2-.293.654.654,0,0,0,.271-.549.54.54,0,0,0-.146-.388,1.639,1.639,0,0,0-.688-.271,11.1,11.1,0,0,1-3.156-1,2,2,0,0,1-.923-1.75,2.157,2.157,0,0,1,.8-1.7,3.727,3.727,0,0,1,2.475-.688,4.317,4.317,0,0,1,2.372.52,2.657,2.657,0,0,1,1.069,1.538l-1.94.359a1.2,1.2,0,0,0-.472-.7,1.727,1.727,0,0,0-.992-.242,2.235,2.235,0,0,0-1.164.227.487.487,0,0,0-.234.417.455.455,0,0,0,.205.373,7.719,7.719,0,0,0,1.922.578,5.721,5.721,0,0,1,2.3.915,1.9,1.9,0,0,1,.644,1.53,2.349,2.349,0,0,1-.893,1.838,3.954,3.954,0,0,1-2.643.769,4.337,4.337,0,0,1-2.515-.644A2.968,2.968,0,0,1,19.519-2.218Zm11.114-8.515v3.946a3.034,3.034,0,0,1,2.379-1.164,3.022,3.022,0,0,1,1.281.264,2.094,2.094,0,0,1,.86.674,2.442,2.442,0,0,1,.4.908,8.116,8.116,0,0,1,.106,1.545V0H33.6V-4.107a6.082,6.082,0,0,0-.117-1.552,1.019,1.019,0,0,0-.414-.523,1.33,1.33,0,0,0-.743-.194,1.7,1.7,0,0,0-.915.249,1.436,1.436,0,0,0-.589.75A4.482,4.482,0,0,0,30.633-3.9V0H28.576V-10.733Z" transform="translate(-8605.002 -1609.604)" fill="#fff"/>
    <path id="Trazado_232748" data-name="Trazado 232748" d="M0,0H108.614V43.313H0Z" transform="translate(-8640.977 -1701.475)" fill="#8628a5"/>
    <path id="Trazado_232749" data-name="Trazado 232749" d="M0,0H108.614V43.313H0Z" transform="translate(-8640.977 -1701.475)" fill="none" stroke="#000" stroke-linecap="square" stroke-width="1.274"/>
    <path id="Trazado_232750" data-name="Trazado 232750" d="M0,0H851.274V298.786H0Z" transform="translate(-9383 -1781)" fill="none"/>
    <path id="Trazado_232751" data-name="Trazado 232751" d="M1.091,0V-10.733H9.049v1.816H3.258v2.379H8.647V-4.73H3.258v2.921h6V0ZM16.159,2.958V-.952a2.917,2.917,0,0,1-1,.824,2.829,2.829,0,0,1-1.3.3,2.751,2.751,0,0,1-2.182-1,4.649,4.649,0,0,1-1.01-3.156A4.21,4.21,0,0,1,11.616-6.9a3.042,3.042,0,0,1,2.354-1.051,2.629,2.629,0,0,1,1.343.329,3.075,3.075,0,0,1,1.007,1V-7.775h1.9V2.958Zm.066-6.941a2.724,2.724,0,0,0-.487-1.775,1.525,1.525,0,0,0-1.219-.582,1.57,1.57,0,0,0-1.248.593,2.887,2.887,0,0,0-.5,1.882,2.839,2.839,0,0,0,.483,1.849,1.507,1.507,0,0,0,1.193.567,1.588,1.588,0,0,0,1.245-.637A2.89,2.89,0,0,0,16.224-3.983ZM25.354,0V-1.164a3,3,0,0,1-1.117.981,3.13,3.13,0,0,1-1.461.359,2.856,2.856,0,0,1-1.406-.344,2.031,2.031,0,0,1-.9-.966,4.313,4.313,0,0,1-.278-1.721v-4.92H22.25V-4.2a9.908,9.908,0,0,0,.113,2.01,1.1,1.1,0,0,0,.414.586,1.271,1.271,0,0,0,.761.216,1.619,1.619,0,0,0,.944-.289,1.471,1.471,0,0,0,.571-.718,8.328,8.328,0,0,0,.154-2.1v-3.28h2.057V0Zm5.579-5.4L29.066-5.74A2.908,2.908,0,0,1,30.15-7.409a3.965,3.965,0,0,1,2.284-.542,4.923,4.923,0,0,1,2.05.326,2.045,2.045,0,0,1,.948.827,4.243,4.243,0,0,1,.275,1.841l-.022,2.4a8.337,8.337,0,0,0,.1,1.512A4.413,4.413,0,0,0,36.153,0H34.118q-.081-.205-.2-.608-.051-.183-.073-.242a3.709,3.709,0,0,1-1.128.769,3.229,3.229,0,0,1-1.281.256,2.649,2.649,0,0,1-1.893-.652,2.166,2.166,0,0,1-.692-1.647A2.211,2.211,0,0,1,29.169-3.3a2.057,2.057,0,0,1,.882-.791,6.9,6.9,0,0,1,1.636-.48,11.209,11.209,0,0,0,2-.505v-.205a1.065,1.065,0,0,0-.293-.846,1.755,1.755,0,0,0-1.106-.253,1.472,1.472,0,0,0-.857.216A1.5,1.5,0,0,0,30.933-5.4Zm2.753,1.669a12.86,12.86,0,0,1-1.252.315,3.771,3.771,0,0,0-1.12.359.858.858,0,0,0-.4.725,1.009,1.009,0,0,0,.322.747,1.125,1.125,0,0,0,.82.315,1.782,1.782,0,0,0,1.062-.366,1.289,1.289,0,0,0,.491-.681,4.063,4.063,0,0,0,.081-1ZM37.735,0V-10.733h2.057V0Z" transform="translate(-8607.082 -1675.973)" fill="#fff"/>
    <path id="Trazado_232752" data-name="Trazado 232752" d="M0,0H108.614V43.313H0Z" transform="translate(-9011.103 -1702.93)" fill="#8628a5"/>
    <path id="Trazado_232753" data-name="Trazado 232753" d="M0,0H108.614V43.313H0Z" transform="translate(-9011.103 -1702.93)" fill="none" stroke="#000" stroke-linecap="square" stroke-width="1.274"/>
    <path id="Trazado_232754" data-name="Trazado 232754" d="M1.084-10.733H5.045a7.735,7.735,0,0,1,2.043.205,3.589,3.589,0,0,1,1.618.988A4.689,4.689,0,0,1,9.73-7.8a7.921,7.921,0,0,1,.351,2.537A7.054,7.054,0,0,1,9.752-2.98,4.732,4.732,0,0,1,8.6-1.084,3.81,3.81,0,0,1,7.08-.227,6.557,6.557,0,0,1,5.162,0H1.084ZM3.251-8.918v7.109H4.869a5.9,5.9,0,0,0,1.311-.1,2,2,0,0,0,.875-.447,2.272,2.272,0,0,0,.567-1.036,7,7,0,0,0,.22-1.966,6.412,6.412,0,0,0-.22-1.911,2.456,2.456,0,0,0-.615-1.04,2.062,2.062,0,0,0-1-.505,9.826,9.826,0,0,0-1.779-.1ZM13.442-5.4,11.575-5.74a2.908,2.908,0,0,1,1.084-1.669,3.965,3.965,0,0,1,2.284-.542,4.923,4.923,0,0,1,2.05.326,2.045,2.045,0,0,1,.948.827,4.243,4.243,0,0,1,.275,1.841l-.022,2.4a8.337,8.337,0,0,0,.1,1.512A4.413,4.413,0,0,0,18.662,0H16.627q-.081-.205-.2-.608-.051-.183-.073-.242a3.709,3.709,0,0,1-1.128.769,3.229,3.229,0,0,1-1.281.256,2.649,2.649,0,0,1-1.893-.652,2.166,2.166,0,0,1-.692-1.647A2.211,2.211,0,0,1,11.678-3.3a2.057,2.057,0,0,1,.882-.791,6.9,6.9,0,0,1,1.636-.48,11.209,11.209,0,0,0,2-.505v-.205a1.065,1.065,0,0,0-.293-.846A1.755,1.755,0,0,0,14.8-6.377a1.472,1.472,0,0,0-.857.216A1.5,1.5,0,0,0,13.442-5.4ZM16.2-3.734a12.86,12.86,0,0,1-1.252.315,3.771,3.771,0,0,0-1.12.359.858.858,0,0,0-.4.725,1.009,1.009,0,0,0,.322.747,1.125,1.125,0,0,0,.82.315,1.782,1.782,0,0,0,1.062-.366,1.289,1.289,0,0,0,.491-.681,4.063,4.063,0,0,0,.081-1Zm7.614-4.041v1.64H22.4V-3a7.794,7.794,0,0,0,.04,1.109.452.452,0,0,0,.183.26.581.581,0,0,0,.348.1,2.661,2.661,0,0,0,.827-.2l.176,1.6a4.09,4.09,0,0,1-1.625.308,2.578,2.578,0,0,1-1-.187,1.464,1.464,0,0,1-.655-.483,1.907,1.907,0,0,1-.289-.8,9.973,9.973,0,0,1-.066-1.45v-3.39h-.944v-1.64h.944V-9.32l2.065-1.2v2.746ZM26.775-5.4,24.908-5.74a2.908,2.908,0,0,1,1.084-1.669,3.965,3.965,0,0,1,2.284-.542,4.923,4.923,0,0,1,2.05.326,2.045,2.045,0,0,1,.948.827,4.242,4.242,0,0,1,.275,1.841l-.022,2.4a8.337,8.337,0,0,0,.1,1.512A4.413,4.413,0,0,0,31.995,0H29.96q-.081-.205-.2-.608-.051-.183-.073-.242a3.709,3.709,0,0,1-1.128.769A3.229,3.229,0,0,1,27.28.176a2.649,2.649,0,0,1-1.893-.652A2.166,2.166,0,0,1,24.7-2.123,2.211,2.211,0,0,1,25.01-3.3a2.057,2.057,0,0,1,.882-.791,6.9,6.9,0,0,1,1.636-.48,11.209,11.209,0,0,0,2-.505v-.205a1.065,1.065,0,0,0-.293-.846,1.755,1.755,0,0,0-1.106-.253,1.472,1.472,0,0,0-.857.216A1.5,1.5,0,0,0,26.775-5.4Zm2.753,1.669a12.86,12.86,0,0,1-1.252.315,3.771,3.771,0,0,0-1.12.359.858.858,0,0,0-.4.725,1.009,1.009,0,0,0,.322.747,1.125,1.125,0,0,0,.82.315,1.782,1.782,0,0,0,1.062-.366,1.289,1.289,0,0,0,.491-.681,4.063,4.063,0,0,0,.081-1Z" transform="translate(-8973.046 -1677.428)" fill="#fff"/>
    <path id="Trazado_232755" data-name="Trazado 232755" d="M0,0H108.614V43.313H0Z" transform="translate(-9011.103 -1635.891)" fill="#59e5f5"/>
    <path id="Trazado_232756" data-name="Trazado 232756" d="M0,0H108.614V43.313H0Z" transform="translate(-9011.103 -1635.891)" fill="none" stroke="#000" stroke-linecap="square" stroke-width="1.274"/>
    <path id="Trazado_232757" data-name="Trazado 232757" d="M.542-3.492,2.65-3.7a2.572,2.572,0,0,0,.772,1.559,2.335,2.335,0,0,0,1.57.5,2.414,2.414,0,0,0,1.578-.443A1.318,1.318,0,0,0,7.1-3.119a.977.977,0,0,0-.223-.648,1.785,1.785,0,0,0-.78-.465Q5.718-4.364,4.364-4.7A5.886,5.886,0,0,1,1.918-5.762,2.793,2.793,0,0,1,.93-7.922a2.759,2.759,0,0,1,.465-1.534,2.911,2.911,0,0,1,1.34-1.087,5.37,5.37,0,0,1,2.112-.373,4.531,4.531,0,0,1,3.042.886A3.127,3.127,0,0,1,8.961-7.666l-2.167.1a1.84,1.84,0,0,0-.6-1.19,2.185,2.185,0,0,0-1.373-.362,2.476,2.476,0,0,0-1.479.388A.782.782,0,0,0,3-8.068a.824.824,0,0,0,.322.652A5.7,5.7,0,0,0,5.315-6.7a10.509,10.509,0,0,1,2.339.772A3.015,3.015,0,0,1,8.841-4.836a3.191,3.191,0,0,1,.428,1.71A3.161,3.161,0,0,1,8.756-1.4,3.071,3.071,0,0,1,7.307-.2,6.079,6.079,0,0,1,4.971.19,4.65,4.65,0,0,1,1.845-.75,4.092,4.092,0,0,1,.542-3.492ZM11.077-8.83v-1.9h2.057v1.9Zm0,8.83V-7.775h2.057V0Zm3.976.513L17.4.8a.8.8,0,0,0,.271.564,1.547,1.547,0,0,0,.923.22A2.4,2.4,0,0,0,19.8,1.34a1,1,0,0,0,.41-.52,3.124,3.124,0,0,0,.1-.944V-1.259A2.784,2.784,0,0,1,17.982,0,2.866,2.866,0,0,1,15.5-1.325a4.5,4.5,0,0,1-.718-2.606,4.287,4.287,0,0,1,.941-2.987,3.036,3.036,0,0,1,2.339-1.032,2.848,2.848,0,0,1,2.379,1.267V-7.775h1.926V-.8a6.952,6.952,0,0,1-.227,2.057A2.549,2.549,0,0,1,21.5,2.328a2.818,2.818,0,0,1-1.095.608,5.762,5.762,0,0,1-1.732.22,4.482,4.482,0,0,1-2.8-.677A2.125,2.125,0,0,1,15.046.761Q15.046.659,15.053.513Zm1.838-4.561a2.8,2.8,0,0,0,.48,1.812,1.483,1.483,0,0,0,1.182.575,1.635,1.635,0,0,0,1.274-.589A2.569,2.569,0,0,0,20.346-4a2.723,2.723,0,0,0-.5-1.794,1.582,1.582,0,0,0-1.259-.586A1.519,1.519,0,0,0,17.37-5.8,2.7,2.7,0,0,0,16.891-4.049ZM31.475,0H29.418V-3.968A6.133,6.133,0,0,0,29.286-5.6a1.143,1.143,0,0,0-.428-.575,1.224,1.224,0,0,0-.714-.205,1.65,1.65,0,0,0-.959.293,1.476,1.476,0,0,0-.582.776,6.708,6.708,0,0,0-.157,1.786V0H24.388V-7.775H26.3v1.142a3.113,3.113,0,0,1,2.563-1.318,3.087,3.087,0,0,1,1.245.245,2.086,2.086,0,0,1,.853.626,2.268,2.268,0,0,1,.4.864,6.426,6.426,0,0,1,.113,1.384ZM35.1-5.4,33.232-5.74a2.908,2.908,0,0,1,1.084-1.669A3.965,3.965,0,0,1,36.6-7.951a4.923,4.923,0,0,1,2.05.326A2.045,2.045,0,0,1,39.6-6.8a4.243,4.243,0,0,1,.275,1.841l-.022,2.4a8.337,8.337,0,0,0,.1,1.512A4.413,4.413,0,0,0,40.319,0H38.284q-.081-.205-.2-.608-.051-.183-.073-.242a3.709,3.709,0,0,1-1.128.769A3.229,3.229,0,0,1,35.6.176a2.65,2.65,0,0,1-1.893-.652,2.166,2.166,0,0,1-.692-1.647A2.211,2.211,0,0,1,33.335-3.3a2.057,2.057,0,0,1,.882-.791,6.9,6.9,0,0,1,1.636-.48,11.209,11.209,0,0,0,2-.505v-.205a1.065,1.065,0,0,0-.293-.846,1.755,1.755,0,0,0-1.106-.253,1.472,1.472,0,0,0-.857.216A1.5,1.5,0,0,0,35.1-5.4Zm2.753,1.669a12.86,12.86,0,0,1-1.252.315,3.771,3.771,0,0,0-1.12.359.858.858,0,0,0-.4.725,1.009,1.009,0,0,0,.322.747,1.125,1.125,0,0,0,.82.315,1.782,1.782,0,0,0,1.062-.366,1.289,1.289,0,0,0,.491-.681,4.063,4.063,0,0,0,.081-1Zm7.614-4.041v1.64H44.061V-3a7.794,7.794,0,0,0,.04,1.109.452.452,0,0,0,.183.26.581.581,0,0,0,.348.1,2.661,2.661,0,0,0,.827-.2l.176,1.6a4.09,4.09,0,0,1-1.625.308,2.578,2.578,0,0,1-1-.187,1.464,1.464,0,0,1-.655-.483,1.907,1.907,0,0,1-.289-.8A9.972,9.972,0,0,1,42-2.746v-3.39h-.944v-1.64H42V-9.32l2.065-1.2v2.746ZM52.012,0V-1.164A3,3,0,0,1,50.9-.183a3.13,3.13,0,0,1-1.461.359,2.856,2.856,0,0,1-1.406-.344,2.031,2.031,0,0,1-.9-.966,4.313,4.313,0,0,1-.278-1.721v-4.92h2.057V-4.2a9.908,9.908,0,0,0,.113,2.01,1.1,1.1,0,0,0,.414.586,1.271,1.271,0,0,0,.761.216,1.619,1.619,0,0,0,.944-.289,1.471,1.471,0,0,0,.571-.718,8.328,8.328,0,0,0,.154-2.1v-3.28h2.057V0Zm6.011,0H55.965V-7.775h1.911V-6.67A3.323,3.323,0,0,1,58.759-7.7a1.623,1.623,0,0,1,.89-.249A2.611,2.611,0,0,1,61-7.563l-.637,1.794a1.805,1.805,0,0,0-.966-.337,1.142,1.142,0,0,0-.732.238,1.627,1.627,0,0,0-.472.86A12.221,12.221,0,0,0,58.023-2.4Zm8.368-2.475,2.05.344A3.363,3.363,0,0,1,67.193-.414a3.667,3.667,0,0,1-2.134.589,3.479,3.479,0,0,1-3-1.325,4.452,4.452,0,0,1-.769-2.68A4.293,4.293,0,0,1,62.3-6.857a3.327,3.327,0,0,1,2.555-1.095,3.451,3.451,0,0,1,2.738,1.146,5.07,5.07,0,0,1,.959,3.511H63.4a2.082,2.082,0,0,0,.5,1.424,1.557,1.557,0,0,0,1.186.509,1.26,1.26,0,0,0,.813-.264A1.628,1.628,0,0,0,66.391-2.475Zm.117-2.079a1.981,1.981,0,0,0-.461-1.358,1.415,1.415,0,0,0-1.069-.465,1.429,1.429,0,0,0-1.113.491,1.9,1.9,0,0,0-.432,1.333Z" transform="translate(-8991.371 -1610.389)"/>
    <path id="Trazado_232758" data-name="Trazado 232758" d="M0,0H108.615V56.579H0Z" transform="translate(-8816.999 -1539.43)" fill="#8628a5"/>
    <path id="Trazado_232759" data-name="Trazado 232759" d="M0,0H108.614V56.578H0Z" transform="translate(-8816.999 -1539.429)" fill="none" stroke="#000" stroke-linecap="square" stroke-width="1.274"/>
    <path id="Trazado_232760" data-name="Trazado 232760" d="M0,0H851.274V298.786H0Z" transform="translate(-9383 -1781)" fill="none"/>
    <path id="Trazado_232761" data-name="Trazado 232761" d="M.542-3.492,2.65-3.7a2.572,2.572,0,0,0,.772,1.559,2.335,2.335,0,0,0,1.57.5,2.414,2.414,0,0,0,1.578-.443A1.318,1.318,0,0,0,7.1-3.119a.977.977,0,0,0-.223-.648,1.785,1.785,0,0,0-.78-.465Q5.718-4.364,4.364-4.7A5.886,5.886,0,0,1,1.918-5.762,2.793,2.793,0,0,1,.93-7.922a2.759,2.759,0,0,1,.465-1.534,2.911,2.911,0,0,1,1.34-1.087,5.37,5.37,0,0,1,2.112-.373,4.531,4.531,0,0,1,3.042.886A3.127,3.127,0,0,1,8.961-7.666l-2.167.1a1.84,1.84,0,0,0-.6-1.19,2.185,2.185,0,0,0-1.373-.362,2.476,2.476,0,0,0-1.479.388A.782.782,0,0,0,3-8.068a.824.824,0,0,0,.322.652A5.7,5.7,0,0,0,5.315-6.7a10.509,10.509,0,0,1,2.339.772A3.015,3.015,0,0,1,8.841-4.836a3.191,3.191,0,0,1,.428,1.71A3.161,3.161,0,0,1,8.756-1.4,3.071,3.071,0,0,1,7.307-.2,6.079,6.079,0,0,1,4.971.19,4.65,4.65,0,0,1,1.845-.75,4.092,4.092,0,0,1,.542-3.492ZM11.077-8.83v-1.9h2.057v1.9Zm0,8.83V-7.775h2.057V0Zm3.976.513L17.4.8a.8.8,0,0,0,.271.564,1.547,1.547,0,0,0,.923.22A2.4,2.4,0,0,0,19.8,1.34a1,1,0,0,0,.41-.52,3.124,3.124,0,0,0,.1-.944V-1.259A2.784,2.784,0,0,1,17.982,0,2.866,2.866,0,0,1,15.5-1.325a4.5,4.5,0,0,1-.718-2.606,4.287,4.287,0,0,1,.941-2.987,3.036,3.036,0,0,1,2.339-1.032,2.848,2.848,0,0,1,2.379,1.267V-7.775h1.926V-.8a6.952,6.952,0,0,1-.227,2.057A2.549,2.549,0,0,1,21.5,2.328a2.818,2.818,0,0,1-1.095.608,5.762,5.762,0,0,1-1.732.22,4.482,4.482,0,0,1-2.8-.677A2.125,2.125,0,0,1,15.046.761Q15.046.659,15.053.513Zm1.838-4.561a2.8,2.8,0,0,0,.48,1.812,1.483,1.483,0,0,0,1.182.575,1.635,1.635,0,0,0,1.274-.589A2.569,2.569,0,0,0,20.346-4a2.723,2.723,0,0,0-.5-1.794,1.582,1.582,0,0,0-1.259-.586A1.519,1.519,0,0,0,17.37-5.8,2.7,2.7,0,0,0,16.891-4.049ZM31.475,0H29.418V-3.968A6.133,6.133,0,0,0,29.286-5.6a1.143,1.143,0,0,0-.428-.575,1.224,1.224,0,0,0-.714-.205,1.65,1.65,0,0,0-.959.293,1.476,1.476,0,0,0-.582.776,6.708,6.708,0,0,0-.157,1.786V0H24.388V-7.775H26.3v1.142a3.113,3.113,0,0,1,2.563-1.318,3.087,3.087,0,0,1,1.245.245,2.086,2.086,0,0,1,.853.626,2.268,2.268,0,0,1,.4.864,6.426,6.426,0,0,1,.113,1.384Zm6.589-2.475,2.05.344A3.363,3.363,0,0,1,38.866-.414a3.667,3.667,0,0,1-2.134.589,3.479,3.479,0,0,1-3-1.325,4.452,4.452,0,0,1-.769-2.68,4.293,4.293,0,0,1,1.01-3.027,3.327,3.327,0,0,1,2.555-1.095,3.451,3.451,0,0,1,2.738,1.146,5.07,5.07,0,0,1,.959,3.511H35.07a2.082,2.082,0,0,0,.5,1.424,1.557,1.557,0,0,0,1.186.509,1.26,1.26,0,0,0,.813-.264A1.628,1.628,0,0,0,38.064-2.475Zm.117-2.079a1.981,1.981,0,0,0-.461-1.358,1.415,1.415,0,0,0-1.069-.465,1.429,1.429,0,0,0-1.113.491,1.9,1.9,0,0,0-.432,1.333ZM43.87,0H41.813V-7.775h1.911V-6.67A3.323,3.323,0,0,1,44.606-7.7a1.623,1.623,0,0,1,.89-.249,2.611,2.611,0,0,1,1.354.388l-.637,1.794a1.805,1.805,0,0,0-.966-.337,1.142,1.142,0,0,0-.732.238,1.627,1.627,0,0,0-.472.86A12.221,12.221,0,0,0,43.87-2.4Zm3.851-6.919-.388-2v-1.816h2.24v1.816l-.337,2Zm2.855,4.7,2.065-.315a1.513,1.513,0,0,0,.534.912,1.806,1.806,0,0,0,1.128.311A2.035,2.035,0,0,0,55.5-1.6a.654.654,0,0,0,.271-.549.54.54,0,0,0-.146-.388,1.639,1.639,0,0,0-.688-.271,11.1,11.1,0,0,1-3.156-1,2,2,0,0,1-.923-1.75,2.157,2.157,0,0,1,.8-1.7,3.727,3.727,0,0,1,2.475-.688,4.317,4.317,0,0,1,2.372.52,2.657,2.657,0,0,1,1.069,1.538l-1.94.359a1.2,1.2,0,0,0-.472-.7,1.727,1.727,0,0,0-.992-.242,2.235,2.235,0,0,0-1.164.227.487.487,0,0,0-.234.417.455.455,0,0,0,.2.373,7.719,7.719,0,0,0,1.922.578,5.721,5.721,0,0,1,2.3.915,1.9,1.9,0,0,1,.644,1.53,2.349,2.349,0,0,1-.893,1.838A3.954,3.954,0,0,1,54.3.176a4.337,4.337,0,0,1-2.515-.644A2.968,2.968,0,0,1,50.577-2.218Z" transform="translate(-8791.974 -1511.907)" fill="#fff"/>
    <path id="Trazado_232762" data-name="Trazado 232762" d="M1.091,0V-10.733H4.569a12.611,12.611,0,0,1,2.577.161A2.814,2.814,0,0,1,8.691-9.522a3.332,3.332,0,0,1,.622,2.09,3.5,3.5,0,0,1-.359,1.662,2.943,2.943,0,0,1-.912,1.058A3.141,3.141,0,0,1,6.919-4.2a12.371,12.371,0,0,1-2.248.154H3.258V0ZM3.258-8.918v3.046H4.444A5.6,5.6,0,0,0,6.157-6.04a1.423,1.423,0,0,0,.677-.527A1.443,1.443,0,0,0,7.08-7.4a1.386,1.386,0,0,0-.344-.966,1.5,1.5,0,0,0-.871-.476,10.416,10.416,0,0,0-1.559-.073ZM16.2,0V-1.164a3,3,0,0,1-1.117.981,3.13,3.13,0,0,1-1.461.359,2.856,2.856,0,0,1-1.406-.344,2.031,2.031,0,0,1-.9-.966,4.313,4.313,0,0,1-.278-1.721v-4.92h2.057V-4.2a9.908,9.908,0,0,0,.113,2.01,1.1,1.1,0,0,0,.414.586,1.271,1.271,0,0,0,.761.216,1.619,1.619,0,0,0,.944-.289,1.471,1.471,0,0,0,.571-.718,8.328,8.328,0,0,0,.154-2.1v-3.28h2.057V0Zm3.954,0V-10.733h2.057v3.866a2.911,2.911,0,0,1,2.255-1.084,3.031,3.031,0,0,1,2.35,1.029,4.259,4.259,0,0,1,.93,2.954A4.5,4.5,0,0,1,26.793-.9,2.959,2.959,0,0,1,24.49.176a2.846,2.846,0,0,1-1.314-.333,3.142,3.142,0,0,1-1.117-.985V0Zm2.043-4.056a3.307,3.307,0,0,0,.381,1.786,1.628,1.628,0,0,0,1.42.82,1.455,1.455,0,0,0,1.16-.582,2.864,2.864,0,0,0,.48-1.834,3.037,3.037,0,0,0-.483-1.922,1.529,1.529,0,0,0-1.237-.589,1.55,1.55,0,0,0-1.23.575A2.639,2.639,0,0,0,22.191-4.056ZM29.4,0V-10.733h2.057V0Zm4.166-8.83v-1.9h2.057v1.9Zm0,8.83V-7.775h2.057V0ZM44.507-5.476l-2.028.366a1.472,1.472,0,0,0-.465-.915,1.4,1.4,0,0,0-.941-.308,1.537,1.537,0,0,0-1.226.531,2.72,2.72,0,0,0-.458,1.775,3.146,3.146,0,0,0,.465,1.955A1.527,1.527,0,0,0,41.1-1.5a1.387,1.387,0,0,0,.959-.333,2,2,0,0,0,.527-1.146l2.021.344A3.586,3.586,0,0,1,43.4-.534a3.739,3.739,0,0,1-2.394.71A3.559,3.559,0,0,1,38.288-.9a4.173,4.173,0,0,1-1.014-2.98,4.182,4.182,0,0,1,1.018-3,3.615,3.615,0,0,1,2.753-1.073A3.756,3.756,0,0,1,43.3-7.34,3.387,3.387,0,0,1,44.507-5.476ZM50.277,0V-10.733h2.167v4.766l4.378-4.766h2.914L55.695-6.553,59.956,0h-2.8L54.2-5.037,52.444-3.243V0ZM65.564-2.475l2.05.344A3.363,3.363,0,0,1,66.366-.414a3.667,3.667,0,0,1-2.134.589,3.479,3.479,0,0,1-3-1.325,4.452,4.452,0,0,1-.769-2.68,4.293,4.293,0,0,1,1.01-3.027,3.327,3.327,0,0,1,2.555-1.095,3.451,3.451,0,0,1,2.738,1.146,5.07,5.07,0,0,1,.959,3.511H62.569a2.082,2.082,0,0,0,.5,1.424,1.557,1.557,0,0,0,1.186.509,1.26,1.26,0,0,0,.813-.264A1.628,1.628,0,0,0,65.564-2.475Zm.117-2.079a1.981,1.981,0,0,0-.461-1.358,1.415,1.415,0,0,0-1.069-.465,1.429,1.429,0,0,0-1.113.491,1.9,1.9,0,0,0-.432,1.333Zm2.746-3.221h2.189l1.86,5.52,1.816-5.52h2.131L73.676-.293l-.491,1.354a5.522,5.522,0,0,1-.516,1.04,2.253,2.253,0,0,1-.564.582,2.464,2.464,0,0,1-.783.348,4.068,4.068,0,0,1-1.051.124,5.451,5.451,0,0,1-1.164-.124L68.924,1.42a4.551,4.551,0,0,0,.871.1,1.291,1.291,0,0,0,1.062-.421A2.921,2.921,0,0,0,71.384.022Z" transform="translate(-8801.016 -1493.914)" fill="#fff"/>
    <path id="Trazado_232763" data-name="Trazado 232763" d="M0,0H108.614V56.578H0Z" transform="translate(-8816.999 -1747.943)" fill="#8628a5"/>
    <path id="Trazado_232764" data-name="Trazado 232764" d="M0,0H108.614V56.578H0Z" transform="translate(-8816.999 -1747.943)" fill="none" stroke="#000" stroke-linecap="square" stroke-width="1.274"/>
    <path id="Trazado_232765" data-name="Trazado 232765" d="M1.1,0V-10.733H3.265v4.224H7.512v-4.224H9.679V0H7.512V-4.693H3.265V0ZM13.442-5.4,11.575-5.74a2.908,2.908,0,0,1,1.084-1.669,3.965,3.965,0,0,1,2.284-.542,4.923,4.923,0,0,1,2.05.326,2.045,2.045,0,0,1,.948.827,4.243,4.243,0,0,1,.275,1.841l-.022,2.4a8.337,8.337,0,0,0,.1,1.512A4.413,4.413,0,0,0,18.662,0H16.627q-.081-.205-.2-.608-.051-.183-.073-.242a3.709,3.709,0,0,1-1.128.769,3.229,3.229,0,0,1-1.281.256,2.649,2.649,0,0,1-1.893-.652,2.166,2.166,0,0,1-.692-1.647A2.211,2.211,0,0,1,11.678-3.3a2.057,2.057,0,0,1,.882-.791,6.9,6.9,0,0,1,1.636-.48,11.209,11.209,0,0,0,2-.505v-.205a1.065,1.065,0,0,0-.293-.846A1.755,1.755,0,0,0,14.8-6.377a1.472,1.472,0,0,0-.857.216A1.5,1.5,0,0,0,13.442-5.4ZM16.2-3.734a12.86,12.86,0,0,1-1.252.315,3.771,3.771,0,0,0-1.12.359.858.858,0,0,0-.4.725,1.009,1.009,0,0,0,.322.747,1.125,1.125,0,0,0,.82.315,1.782,1.782,0,0,0,1.062-.366,1.289,1.289,0,0,0,.491-.681,4.063,4.063,0,0,0,.081-1Zm3.324,1.516,2.065-.315a1.513,1.513,0,0,0,.534.912,1.806,1.806,0,0,0,1.128.311,2.035,2.035,0,0,0,1.2-.293.654.654,0,0,0,.271-.549.54.54,0,0,0-.146-.388,1.639,1.639,0,0,0-.688-.271,11.1,11.1,0,0,1-3.156-1,2,2,0,0,1-.923-1.75,2.157,2.157,0,0,1,.8-1.7,3.727,3.727,0,0,1,2.475-.688,4.317,4.317,0,0,1,2.372.52,2.657,2.657,0,0,1,1.069,1.538l-1.94.359a1.2,1.2,0,0,0-.472-.7,1.727,1.727,0,0,0-.992-.242,2.235,2.235,0,0,0-1.164.227.487.487,0,0,0-.234.417.455.455,0,0,0,.205.373,7.719,7.719,0,0,0,1.922.578,5.721,5.721,0,0,1,2.3.915,1.9,1.9,0,0,1,.644,1.53,2.349,2.349,0,0,1-.893,1.838,3.954,3.954,0,0,1-2.643.769,4.337,4.337,0,0,1-2.515-.644A2.968,2.968,0,0,1,19.519-2.218Zm11.114-8.515v3.946a3.034,3.034,0,0,1,2.379-1.164,3.022,3.022,0,0,1,1.281.264,2.094,2.094,0,0,1,.86.674,2.442,2.442,0,0,1,.4.908,8.116,8.116,0,0,1,.106,1.545V0H33.6V-4.107a6.082,6.082,0,0,0-.117-1.552,1.019,1.019,0,0,0-.414-.523,1.33,1.33,0,0,0-.743-.194,1.7,1.7,0,0,0-.915.249,1.436,1.436,0,0,0-.589.75A4.482,4.482,0,0,0,30.633-3.9V0H28.576V-10.733Zm7.109,1.9v-1.9H39.8v1.9Zm0,8.83V-7.775H39.8V0ZM48.981,0H46.923V-3.968A6.133,6.133,0,0,0,46.792-5.6a1.143,1.143,0,0,0-.428-.575,1.224,1.224,0,0,0-.714-.205,1.65,1.65,0,0,0-.959.293,1.476,1.476,0,0,0-.582.776,6.708,6.708,0,0,0-.157,1.786V0H41.894V-7.775H43.8v1.142a3.113,3.113,0,0,1,2.563-1.318,3.087,3.087,0,0,1,1.245.245,2.086,2.086,0,0,1,.853.626,2.268,2.268,0,0,1,.4.864,6.426,6.426,0,0,1,.113,1.384Zm1.9.513L53.227.8a.8.8,0,0,0,.271.564,1.547,1.547,0,0,0,.923.22,2.4,2.4,0,0,0,1.208-.242,1,1,0,0,0,.41-.52,3.124,3.124,0,0,0,.1-.944V-1.259A2.784,2.784,0,0,1,53.806,0a2.866,2.866,0,0,1-2.482-1.325,4.5,4.5,0,0,1-.718-2.606,4.287,4.287,0,0,1,.941-2.987,3.036,3.036,0,0,1,2.339-1.032,2.848,2.848,0,0,1,2.379,1.267V-7.775h1.926V-.8a6.952,6.952,0,0,1-.227,2.057,2.549,2.549,0,0,1-.637,1.069,2.818,2.818,0,0,1-1.095.608,5.762,5.762,0,0,1-1.732.22,4.482,4.482,0,0,1-2.8-.677A2.125,2.125,0,0,1,50.87.761Q50.87.659,50.877.513Zm1.838-4.561a2.8,2.8,0,0,0,.48,1.812,1.483,1.483,0,0,0,1.182.575,1.635,1.635,0,0,0,1.274-.589A2.569,2.569,0,0,0,56.17-4a2.723,2.723,0,0,0-.5-1.794,1.582,1.582,0,0,0-1.259-.586,1.519,1.519,0,0,0-1.219.575A2.7,2.7,0,0,0,52.715-4.049Z" transform="translate(-8792.266 -1721.358)" fill="#fff"/>
    <path id="Trazado_232766" data-name="Trazado 232766" d="M1.106,0V-10.733H8.464v1.816H3.273v2.541H7.753v1.816H3.273V0ZM15.353,0V-1.164a3,3,0,0,1-1.117.981,3.13,3.13,0,0,1-1.461.359A2.856,2.856,0,0,1,11.37-.168a2.031,2.031,0,0,1-.9-.966,4.313,4.313,0,0,1-.278-1.721v-4.92h2.057V-4.2a9.908,9.908,0,0,0,.113,2.01,1.1,1.1,0,0,0,.414.586,1.271,1.271,0,0,0,.761.216,1.619,1.619,0,0,0,.944-.289,1.471,1.471,0,0,0,.571-.718,8.328,8.328,0,0,0,.154-2.1v-3.28h2.057V0ZM26.467,0H24.41V-3.968A6.133,6.133,0,0,0,24.278-5.6a1.143,1.143,0,0,0-.428-.575,1.224,1.224,0,0,0-.714-.205,1.65,1.65,0,0,0-.959.293,1.476,1.476,0,0,0-.582.776,6.708,6.708,0,0,0-.157,1.786V0H19.38V-7.775h1.911v1.142a3.113,3.113,0,0,1,2.563-1.318,3.087,3.087,0,0,1,1.245.245,2.086,2.086,0,0,1,.853.626,2.268,2.268,0,0,1,.4.864,6.426,6.426,0,0,1,.113,1.384Zm8.866-5.476-2.028.366a1.472,1.472,0,0,0-.465-.915,1.4,1.4,0,0,0-.941-.308,1.537,1.537,0,0,0-1.226.531,2.72,2.72,0,0,0-.458,1.775,3.146,3.146,0,0,0,.465,1.955,1.527,1.527,0,0,0,1.248.571,1.387,1.387,0,0,0,.959-.333,2,2,0,0,0,.527-1.146l2.021.344a3.586,3.586,0,0,1-1.208,2.1,3.739,3.739,0,0,1-2.394.71A3.559,3.559,0,0,1,29.114-.9,4.173,4.173,0,0,1,28.1-3.88a4.182,4.182,0,0,1,1.018-3A3.615,3.615,0,0,1,31.87-7.951a3.756,3.756,0,0,1,2.259.611A3.387,3.387,0,0,1,35.333-5.476Zm5.125-2.3v1.64H39.053V-3a7.794,7.794,0,0,0,.04,1.109.452.452,0,0,0,.183.26.581.581,0,0,0,.348.1,2.661,2.661,0,0,0,.827-.2l.176,1.6A4.09,4.09,0,0,1,39,.176a2.578,2.578,0,0,1-1-.187,1.464,1.464,0,0,1-.655-.483,1.907,1.907,0,0,1-.289-.8,9.972,9.972,0,0,1-.066-1.45v-3.39h-.944v-1.64h.944V-9.32l2.065-1.2v2.746ZM41.886-8.83v-1.9h2.057v1.9Zm0,8.83V-7.775h2.057V0Zm3.69-4a4.206,4.206,0,0,1,.505-1.984,3.468,3.468,0,0,1,1.431-1.464,4.248,4.248,0,0,1,2.068-.505,3.882,3.882,0,0,1,2.892,1.146A3.959,3.959,0,0,1,53.6-3.91,4.006,4.006,0,0,1,52.462-.985,3.848,3.848,0,0,1,49.6.176a4.515,4.515,0,0,1-2.039-.483,3.315,3.315,0,0,1-1.475-1.417A4.72,4.72,0,0,1,45.576-4Zm2.109.11a2.576,2.576,0,0,0,.549,1.772,1.745,1.745,0,0,0,1.354.615,1.734,1.734,0,0,0,1.351-.615A2.612,2.612,0,0,0,51.485-3.9a2.564,2.564,0,0,0-.545-1.757,1.734,1.734,0,0,0-1.351-.615,1.745,1.745,0,0,0-1.354.615A2.576,2.576,0,0,0,47.685-3.888ZM62.284,0H60.227V-3.968A6.133,6.133,0,0,0,60.095-5.6a1.143,1.143,0,0,0-.428-.575,1.224,1.224,0,0,0-.714-.205,1.65,1.65,0,0,0-.959.293,1.476,1.476,0,0,0-.582.776,6.708,6.708,0,0,0-.157,1.786V0H55.2V-7.775h1.911v1.142A3.113,3.113,0,0,1,59.67-7.951a3.087,3.087,0,0,1,1.245.245,2.086,2.086,0,0,1,.853.626,2.268,2.268,0,0,1,.4.864,6.426,6.426,0,0,1,.113,1.384Z" transform="translate(-8794.335 -1703.364)" fill="#fff"/>
    <path id="Trazado_232210" data-name="Trazado 232210" d="M232.223,136.068v0Z" transform="translate(-9383 -1781)" fill="#00b373"/>
    <path id="Trazado_232767" data-name="Trazado 232767" d="M0,0V44.286" transform="translate(-9150.777 -1696.143)" fill="none" stroke="#2d2d2d" stroke-width="1.547"/>
    <path id="Trazado_232211" data-name="Trazado 232211" d="M227.927,125.885l4.3,1.825,4.295-1.825-4.295,10.183Z" transform="translate(-9383 -1781)" fill="#2d2d2d"/>
    <path id="Trazado_232768" data-name="Trazado 232768" d="M0,0H108.614V56.578H0Z" transform="translate(-9205.084 -1643.686)" fill="#59e5f5"/>
    <path id="Trazado_232769" data-name="Trazado 232769" d="M0,0H108.614V56.578H0Z" transform="translate(-9205.084 -1643.686)" fill="none" stroke="#000" stroke-linecap="square" stroke-width="1.274"/>
    <path id="Trazado_232770" data-name="Trazado 232770" d="M.542-3.492,2.65-3.7a2.572,2.572,0,0,0,.772,1.559,2.335,2.335,0,0,0,1.57.5,2.414,2.414,0,0,0,1.578-.443A1.318,1.318,0,0,0,7.1-3.119a.977.977,0,0,0-.223-.648,1.785,1.785,0,0,0-.78-.465Q5.718-4.364,4.364-4.7A5.886,5.886,0,0,1,1.918-5.762,2.793,2.793,0,0,1,.93-7.922a2.759,2.759,0,0,1,.465-1.534,2.911,2.911,0,0,1,1.34-1.087,5.37,5.37,0,0,1,2.112-.373,4.531,4.531,0,0,1,3.042.886A3.127,3.127,0,0,1,8.961-7.666l-2.167.1a1.84,1.84,0,0,0-.6-1.19,2.185,2.185,0,0,0-1.373-.362,2.476,2.476,0,0,0-1.479.388A.782.782,0,0,0,3-8.068a.824.824,0,0,0,.322.652A5.7,5.7,0,0,0,5.315-6.7a10.509,10.509,0,0,1,2.339.772A3.015,3.015,0,0,1,8.841-4.836a3.191,3.191,0,0,1,.428,1.71A3.161,3.161,0,0,1,8.756-1.4,3.071,3.071,0,0,1,7.307-.2,6.079,6.079,0,0,1,4.971.19,4.65,4.65,0,0,1,1.845-.75,4.092,4.092,0,0,1,.542-3.492ZM11.077-8.83v-1.9h2.057v1.9Zm0,8.83V-7.775h2.057V0Zm3.976.513L17.4.8a.8.8,0,0,0,.271.564,1.547,1.547,0,0,0,.923.22A2.4,2.4,0,0,0,19.8,1.34a1,1,0,0,0,.41-.52,3.124,3.124,0,0,0,.1-.944V-1.259A2.784,2.784,0,0,1,17.982,0,2.866,2.866,0,0,1,15.5-1.325a4.5,4.5,0,0,1-.718-2.606,4.287,4.287,0,0,1,.941-2.987,3.036,3.036,0,0,1,2.339-1.032,2.848,2.848,0,0,1,2.379,1.267V-7.775h1.926V-.8a6.952,6.952,0,0,1-.227,2.057A2.549,2.549,0,0,1,21.5,2.328a2.818,2.818,0,0,1-1.095.608,5.762,5.762,0,0,1-1.732.22,4.482,4.482,0,0,1-2.8-.677A2.125,2.125,0,0,1,15.046.761Q15.046.659,15.053.513Zm1.838-4.561a2.8,2.8,0,0,0,.48,1.812,1.483,1.483,0,0,0,1.182.575,1.635,1.635,0,0,0,1.274-.589A2.569,2.569,0,0,0,20.346-4a2.723,2.723,0,0,0-.5-1.794,1.582,1.582,0,0,0-1.259-.586A1.519,1.519,0,0,0,17.37-5.8,2.7,2.7,0,0,0,16.891-4.049ZM31.475,0H29.418V-3.968A6.133,6.133,0,0,0,29.286-5.6a1.143,1.143,0,0,0-.428-.575,1.224,1.224,0,0,0-.714-.205,1.65,1.65,0,0,0-.959.293,1.476,1.476,0,0,0-.582.776,6.708,6.708,0,0,0-.157,1.786V0H24.388V-7.775H26.3v1.142a3.113,3.113,0,0,1,2.563-1.318,3.087,3.087,0,0,1,1.245.245,2.086,2.086,0,0,1,.853.626,2.268,2.268,0,0,1,.4.864,6.426,6.426,0,0,1,.113,1.384ZM35.1-5.4,33.232-5.74a2.908,2.908,0,0,1,1.084-1.669A3.965,3.965,0,0,1,36.6-7.951a4.923,4.923,0,0,1,2.05.326A2.045,2.045,0,0,1,39.6-6.8a4.243,4.243,0,0,1,.275,1.841l-.022,2.4a8.337,8.337,0,0,0,.1,1.512A4.413,4.413,0,0,0,40.319,0H38.284q-.081-.205-.2-.608-.051-.183-.073-.242a3.709,3.709,0,0,1-1.128.769A3.229,3.229,0,0,1,35.6.176a2.65,2.65,0,0,1-1.893-.652,2.166,2.166,0,0,1-.692-1.647A2.211,2.211,0,0,1,33.335-3.3a2.057,2.057,0,0,1,.882-.791,6.9,6.9,0,0,1,1.636-.48,11.209,11.209,0,0,0,2-.505v-.205a1.065,1.065,0,0,0-.293-.846,1.755,1.755,0,0,0-1.106-.253,1.472,1.472,0,0,0-.857.216A1.5,1.5,0,0,0,35.1-5.4Zm2.753,1.669a12.86,12.86,0,0,1-1.252.315,3.771,3.771,0,0,0-1.12.359.858.858,0,0,0-.4.725,1.009,1.009,0,0,0,.322.747,1.125,1.125,0,0,0,.82.315,1.782,1.782,0,0,0,1.062-.366,1.289,1.289,0,0,0,.491-.681,4.063,4.063,0,0,0,.081-1Zm7.614-4.041v1.64H44.061V-3a7.794,7.794,0,0,0,.04,1.109.452.452,0,0,0,.183.26.581.581,0,0,0,.348.1,2.661,2.661,0,0,0,.827-.2l.176,1.6a4.09,4.09,0,0,1-1.625.308,2.578,2.578,0,0,1-1-.187,1.464,1.464,0,0,1-.655-.483,1.907,1.907,0,0,1-.289-.8A9.972,9.972,0,0,1,42-2.746v-3.39h-.944v-1.64H42V-9.32l2.065-1.2v2.746ZM52.012,0V-1.164A3,3,0,0,1,50.9-.183a3.13,3.13,0,0,1-1.461.359,2.856,2.856,0,0,1-1.406-.344,2.031,2.031,0,0,1-.9-.966,4.313,4.313,0,0,1-.278-1.721v-4.92h2.057V-4.2a9.908,9.908,0,0,0,.113,2.01,1.1,1.1,0,0,0,.414.586,1.271,1.271,0,0,0,.761.216,1.619,1.619,0,0,0,.944-.289,1.471,1.471,0,0,0,.571-.718,8.328,8.328,0,0,0,.154-2.1v-3.28h2.057V0Zm6.011,0H55.965V-7.775h1.911V-6.67A3.323,3.323,0,0,1,58.759-7.7a1.623,1.623,0,0,1,.89-.249A2.611,2.611,0,0,1,61-7.563l-.637,1.794a1.805,1.805,0,0,0-.966-.337,1.142,1.142,0,0,0-.732.238,1.627,1.627,0,0,0-.472.86A12.221,12.221,0,0,0,58.023-2.4Zm8.368-2.475,2.05.344A3.363,3.363,0,0,1,67.193-.414a3.667,3.667,0,0,1-2.134.589,3.479,3.479,0,0,1-3-1.325,4.452,4.452,0,0,1-.769-2.68A4.293,4.293,0,0,1,62.3-6.857a3.327,3.327,0,0,1,2.555-1.095,3.451,3.451,0,0,1,2.738,1.146,5.07,5.07,0,0,1,.959,3.511H63.4a2.082,2.082,0,0,0,.5,1.424,1.557,1.557,0,0,0,1.186.509,1.26,1.26,0,0,0,.813-.264A1.628,1.628,0,0,0,66.391-2.475Zm.117-2.079a1.981,1.981,0,0,0-.461-1.358,1.415,1.415,0,0,0-1.069-.465,1.429,1.429,0,0,0-1.113.491,1.9,1.9,0,0,0-.432,1.333Z" transform="translate(-9185.353 -1618.976)"/>
    <path id="Trazado_232771" data-name="Trazado 232771" d="M10.77,0H8.412L7.475-2.438H3.185L2.3,0H0L4.181-10.733H6.472ZM6.78-4.246,5.3-8.229,3.851-4.246ZM11.9,0V-10.733h2.057V0ZM15.88.513,18.23.8a.8.8,0,0,0,.271.564,1.547,1.547,0,0,0,.923.22,2.4,2.4,0,0,0,1.208-.242,1,1,0,0,0,.41-.52,3.124,3.124,0,0,0,.1-.944V-1.259A2.784,2.784,0,0,1,18.809,0a2.866,2.866,0,0,1-2.482-1.325,4.5,4.5,0,0,1-.718-2.606,4.287,4.287,0,0,1,.941-2.987,3.036,3.036,0,0,1,2.339-1.032,2.848,2.848,0,0,1,2.379,1.267V-7.775h1.926V-.8a6.952,6.952,0,0,1-.227,2.057,2.549,2.549,0,0,1-.637,1.069,2.818,2.818,0,0,1-1.095.608,5.762,5.762,0,0,1-1.732.22,4.482,4.482,0,0,1-2.8-.677A2.125,2.125,0,0,1,15.873.761Q15.873.659,15.88.513Zm1.838-4.561a2.8,2.8,0,0,0,.48,1.812,1.483,1.483,0,0,0,1.182.575,1.635,1.635,0,0,0,1.274-.589A2.569,2.569,0,0,0,21.174-4a2.723,2.723,0,0,0-.5-1.794,1.582,1.582,0,0,0-1.259-.586A1.519,1.519,0,0,0,18.2-5.8,2.7,2.7,0,0,0,17.718-4.049ZM24.754-4a4.206,4.206,0,0,1,.505-1.984A3.468,3.468,0,0,1,26.69-7.446a4.248,4.248,0,0,1,2.068-.505,3.882,3.882,0,0,1,2.892,1.146,3.959,3.959,0,0,1,1.128,2.9A4.006,4.006,0,0,1,31.64-.985,3.848,3.848,0,0,1,28.773.176a4.515,4.515,0,0,1-2.039-.483,3.315,3.315,0,0,1-1.475-1.417A4.72,4.72,0,0,1,24.754-4Zm2.109.11a2.576,2.576,0,0,0,.549,1.772,1.745,1.745,0,0,0,1.354.615,1.734,1.734,0,0,0,1.351-.615A2.612,2.612,0,0,0,30.662-3.9a2.564,2.564,0,0,0-.545-1.757,1.734,1.734,0,0,0-1.351-.615,1.745,1.745,0,0,0-1.354.615A2.576,2.576,0,0,0,26.863-3.888ZM36.358,0H34.3V-7.775h1.911V-6.67A3.323,3.323,0,0,1,37.094-7.7a1.623,1.623,0,0,1,.89-.249,2.611,2.611,0,0,1,1.354.388L38.7-5.769a1.805,1.805,0,0,0-.966-.337A1.142,1.142,0,0,0,37-5.868a1.627,1.627,0,0,0-.472.86A12.221,12.221,0,0,0,36.358-2.4Zm3.866-8.83v-1.9h2.057v1.9Zm0,8.83V-7.775h2.057V0Zm7.731-7.775v1.64H46.55V-3a7.794,7.794,0,0,0,.04,1.109.452.452,0,0,0,.183.26.581.581,0,0,0,.348.1,2.661,2.661,0,0,0,.827-.2l.176,1.6A4.09,4.09,0,0,1,46.5.176a2.578,2.578,0,0,1-1-.187,1.464,1.464,0,0,1-.655-.483,1.907,1.907,0,0,1-.289-.8,9.972,9.972,0,0,1-.066-1.45v-3.39h-.944v-1.64h.944V-9.32l2.065-1.2v2.746Zm3.478-2.958v3.946a3.034,3.034,0,0,1,2.379-1.164,3.022,3.022,0,0,1,1.281.264,2.094,2.094,0,0,1,.86.674,2.442,2.442,0,0,1,.4.908,8.116,8.116,0,0,1,.106,1.545V0H54.4V-4.107a6.081,6.081,0,0,0-.117-1.552,1.019,1.019,0,0,0-.414-.523,1.33,1.33,0,0,0-.743-.194,1.7,1.7,0,0,0-.915.249,1.436,1.436,0,0,0-.589.75A4.482,4.482,0,0,0,51.433-3.9V0H49.376V-10.733Zm6.955,2.958h1.9v1.062a3.051,3.051,0,0,1,2.423-1.237,2.61,2.61,0,0,1,1.3.308,2.363,2.363,0,0,1,.9.93,3.592,3.592,0,0,1,1.106-.93,2.712,2.712,0,0,1,1.267-.308,2.821,2.821,0,0,1,1.45.348,2.13,2.13,0,0,1,.886,1.021,4.431,4.431,0,0,1,.212,1.611V0H67.768V-4.444a3.306,3.306,0,0,0-.212-1.494.975.975,0,0,0-.879-.439,1.4,1.4,0,0,0-.813.264,1.462,1.462,0,0,0-.549.772,5.557,5.557,0,0,0-.168,1.607V0H63.089V-4.261a5.911,5.911,0,0,0-.11-1.464.934.934,0,0,0-.34-.491,1.076,1.076,0,0,0-.626-.161,1.5,1.5,0,0,0-.857.256,1.406,1.406,0,0,0-.545.739,5.5,5.5,0,0,0-.165,1.6V0H58.389Z" transform="translate(-9186.178 -1600.983)"/>
    <path id="Trazado_232772" data-name="Trazado 232772" d="M0,0H108.614V56.578H0Z" transform="translate(-9205.084 -1747.943)" fill="#59e5f5"/>
    <path id="Trazado_232773" data-name="Trazado 232773" d="M0,0H108.614V56.578H0Z" transform="translate(-9205.084 -1747.943)" fill="none" stroke="#000" stroke-linecap="square" stroke-width="1.274"/>
    <path id="Trazado_232774" data-name="Trazado 232774" d="M.542-3.492,2.65-3.7a2.572,2.572,0,0,0,.772,1.559,2.335,2.335,0,0,0,1.57.5,2.414,2.414,0,0,0,1.578-.443A1.318,1.318,0,0,0,7.1-3.119a.977.977,0,0,0-.223-.648,1.785,1.785,0,0,0-.78-.465Q5.718-4.364,4.364-4.7A5.886,5.886,0,0,1,1.918-5.762,2.793,2.793,0,0,1,.93-7.922a2.759,2.759,0,0,1,.465-1.534,2.911,2.911,0,0,1,1.34-1.087,5.37,5.37,0,0,1,2.112-.373,4.531,4.531,0,0,1,3.042.886A3.127,3.127,0,0,1,8.961-7.666l-2.167.1a1.84,1.84,0,0,0-.6-1.19,2.185,2.185,0,0,0-1.373-.362,2.476,2.476,0,0,0-1.479.388A.782.782,0,0,0,3-8.068a.824.824,0,0,0,.322.652A5.7,5.7,0,0,0,5.315-6.7a10.509,10.509,0,0,1,2.339.772A3.015,3.015,0,0,1,8.841-4.836a3.191,3.191,0,0,1,.428,1.71A3.161,3.161,0,0,1,8.756-1.4,3.071,3.071,0,0,1,7.307-.2,6.079,6.079,0,0,1,4.971.19,4.65,4.65,0,0,1,1.845-.75,4.092,4.092,0,0,1,.542-3.492ZM11.077-8.83v-1.9h2.057v1.9Zm0,8.83V-7.775h2.057V0Zm3.976.513L17.4.8a.8.8,0,0,0,.271.564,1.547,1.547,0,0,0,.923.22A2.4,2.4,0,0,0,19.8,1.34a1,1,0,0,0,.41-.52,3.124,3.124,0,0,0,.1-.944V-1.259A2.784,2.784,0,0,1,17.982,0,2.866,2.866,0,0,1,15.5-1.325a4.5,4.5,0,0,1-.718-2.606,4.287,4.287,0,0,1,.941-2.987,3.036,3.036,0,0,1,2.339-1.032,2.848,2.848,0,0,1,2.379,1.267V-7.775h1.926V-.8a6.952,6.952,0,0,1-.227,2.057A2.549,2.549,0,0,1,21.5,2.328a2.818,2.818,0,0,1-1.095.608,5.762,5.762,0,0,1-1.732.22,4.482,4.482,0,0,1-2.8-.677A2.125,2.125,0,0,1,15.046.761Q15.046.659,15.053.513Zm1.838-4.561a2.8,2.8,0,0,0,.48,1.812,1.483,1.483,0,0,0,1.182.575,1.635,1.635,0,0,0,1.274-.589A2.569,2.569,0,0,0,20.346-4a2.723,2.723,0,0,0-.5-1.794,1.582,1.582,0,0,0-1.259-.586A1.519,1.519,0,0,0,17.37-5.8,2.7,2.7,0,0,0,16.891-4.049ZM31.475,0H29.418V-3.968A6.133,6.133,0,0,0,29.286-5.6a1.143,1.143,0,0,0-.428-.575,1.224,1.224,0,0,0-.714-.205,1.65,1.65,0,0,0-.959.293,1.476,1.476,0,0,0-.582.776,6.708,6.708,0,0,0-.157,1.786V0H24.388V-7.775H26.3v1.142a3.113,3.113,0,0,1,2.563-1.318,3.087,3.087,0,0,1,1.245.245,2.086,2.086,0,0,1,.853.626,2.268,2.268,0,0,1,.4.864,6.426,6.426,0,0,1,.113,1.384Zm6.589-2.475,2.05.344A3.363,3.363,0,0,1,38.866-.414a3.667,3.667,0,0,1-2.134.589,3.479,3.479,0,0,1-3-1.325,4.452,4.452,0,0,1-.769-2.68,4.293,4.293,0,0,1,1.01-3.027,3.327,3.327,0,0,1,2.555-1.095,3.451,3.451,0,0,1,2.738,1.146,5.07,5.07,0,0,1,.959,3.511H35.07a2.082,2.082,0,0,0,.5,1.424,1.557,1.557,0,0,0,1.186.509,1.26,1.26,0,0,0,.813-.264A1.628,1.628,0,0,0,38.064-2.475Zm.117-2.079a1.981,1.981,0,0,0-.461-1.358,1.415,1.415,0,0,0-1.069-.465,1.429,1.429,0,0,0-1.113.491,1.9,1.9,0,0,0-.432,1.333ZM43.87,0H41.813V-7.775h1.911V-6.67A3.323,3.323,0,0,1,44.606-7.7a1.623,1.623,0,0,1,.89-.249,2.611,2.611,0,0,1,1.354.388l-.637,1.794a1.805,1.805,0,0,0-.966-.337,1.142,1.142,0,0,0-.732.238,1.627,1.627,0,0,0-.472.86A12.221,12.221,0,0,0,43.87-2.4Zm3.851-6.919-.388-2v-1.816h2.24v1.816l-.337,2Zm2.855,4.7,2.065-.315a1.513,1.513,0,0,0,.534.912,1.806,1.806,0,0,0,1.128.311A2.035,2.035,0,0,0,55.5-1.6a.654.654,0,0,0,.271-.549.54.54,0,0,0-.146-.388,1.639,1.639,0,0,0-.688-.271,11.1,11.1,0,0,1-3.156-1,2,2,0,0,1-.923-1.75,2.157,2.157,0,0,1,.8-1.7,3.727,3.727,0,0,1,2.475-.688,4.317,4.317,0,0,1,2.372.52,2.657,2.657,0,0,1,1.069,1.538l-1.94.359a1.2,1.2,0,0,0-.472-.7,1.727,1.727,0,0,0-.992-.242,2.235,2.235,0,0,0-1.164.227.487.487,0,0,0-.234.417.455.455,0,0,0,.2.373,7.719,7.719,0,0,0,1.922.578,5.721,5.721,0,0,1,2.3.915,1.9,1.9,0,0,1,.644,1.53,2.349,2.349,0,0,1-.893,1.838A3.954,3.954,0,0,1,54.3.176a4.337,4.337,0,0,1-2.515-.644A2.968,2.968,0,0,1,50.577-2.218Z" transform="translate(-9180.06 -1723.232)"/>
    <path id="Trazado_232775" data-name="Trazado 232775" d="M1.091,0V-10.733H4.569a12.611,12.611,0,0,1,2.577.161A2.814,2.814,0,0,1,8.691-9.522a3.332,3.332,0,0,1,.622,2.09,3.5,3.5,0,0,1-.359,1.662,2.943,2.943,0,0,1-.912,1.058A3.141,3.141,0,0,1,6.919-4.2a12.371,12.371,0,0,1-2.248.154H3.258V0ZM3.258-8.918v3.046H4.444A5.6,5.6,0,0,0,6.157-6.04a1.423,1.423,0,0,0,.677-.527A1.443,1.443,0,0,0,7.08-7.4a1.386,1.386,0,0,0-.344-.966,1.5,1.5,0,0,0-.871-.476,10.416,10.416,0,0,0-1.559-.073ZM13.047,0H10.99V-7.775H12.9V-6.67A3.323,3.323,0,0,1,13.783-7.7a1.623,1.623,0,0,1,.89-.249,2.611,2.611,0,0,1,1.354.388L15.39-5.769a1.805,1.805,0,0,0-.966-.337,1.142,1.142,0,0,0-.732.238,1.627,1.627,0,0,0-.472.86A12.221,12.221,0,0,0,13.047-2.4Zm3.866-8.83v-1.9H18.97v1.9Zm0,8.83V-7.775H18.97V0Zm6.3,0L20.083-7.775h2.16l1.464,3.968.425,1.325q.168-.505.212-.666.1-.329.22-.659l1.479-3.968h2.116L25.069,0Zm7.739-5.4L29.088-5.74a2.908,2.908,0,0,1,1.084-1.669,3.965,3.965,0,0,1,2.284-.542,4.923,4.923,0,0,1,2.05.326,2.045,2.045,0,0,1,.948.827,4.243,4.243,0,0,1,.275,1.841l-.022,2.4a8.337,8.337,0,0,0,.1,1.512A4.413,4.413,0,0,0,36.175,0H34.14q-.081-.205-.2-.608-.051-.183-.073-.242a3.709,3.709,0,0,1-1.128.769A3.229,3.229,0,0,1,31.46.176a2.649,2.649,0,0,1-1.893-.652,2.166,2.166,0,0,1-.692-1.647A2.211,2.211,0,0,1,29.191-3.3a2.057,2.057,0,0,1,.882-.791,6.9,6.9,0,0,1,1.636-.48,11.209,11.209,0,0,0,2-.505v-.205a1.065,1.065,0,0,0-.293-.846,1.755,1.755,0,0,0-1.106-.253,1.472,1.472,0,0,0-.857.216A1.5,1.5,0,0,0,30.955-5.4Zm2.753,1.669a12.86,12.86,0,0,1-1.252.315,3.771,3.771,0,0,0-1.12.359.858.858,0,0,0-.4.725,1.009,1.009,0,0,0,.322.747,1.125,1.125,0,0,0,.82.315,1.782,1.782,0,0,0,1.062-.366,1.289,1.289,0,0,0,.491-.681,4.063,4.063,0,0,0,.081-1Zm7.614-4.041v1.64H39.917V-3a7.794,7.794,0,0,0,.04,1.109.452.452,0,0,0,.183.26.581.581,0,0,0,.348.1,2.661,2.661,0,0,0,.827-.2l.176,1.6a4.09,4.09,0,0,1-1.625.308,2.578,2.578,0,0,1-1-.187,1.464,1.464,0,0,1-.655-.483,1.907,1.907,0,0,1-.289-.8,9.972,9.972,0,0,1-.066-1.45v-3.39h-.944v-1.64h.944V-9.32l2.065-1.2v2.746Zm5.93,5.3,2.05.344A3.363,3.363,0,0,1,48.055-.414,3.667,3.667,0,0,1,45.92.176a3.479,3.479,0,0,1-3-1.325,4.452,4.452,0,0,1-.769-2.68,4.293,4.293,0,0,1,1.01-3.027,3.327,3.327,0,0,1,2.555-1.095,3.451,3.451,0,0,1,2.738,1.146,5.07,5.07,0,0,1,.959,3.511H44.258a2.082,2.082,0,0,0,.5,1.424,1.557,1.557,0,0,0,1.186.509,1.26,1.26,0,0,0,.813-.264A1.628,1.628,0,0,0,47.253-2.475Zm.117-2.079a1.981,1.981,0,0,0-.461-1.358,1.415,1.415,0,0,0-1.069-.465,1.429,1.429,0,0,0-1.113.491,1.9,1.9,0,0,0-.432,1.333ZM55.3,0V-10.733h2.167v4.766l4.378-4.766h2.914L60.717-6.553,64.978,0h-2.8L59.223-5.037,57.466-3.243V0ZM70.586-2.475l2.05.344A3.363,3.363,0,0,1,71.388-.414a3.667,3.667,0,0,1-2.134.589,3.479,3.479,0,0,1-3-1.325,4.452,4.452,0,0,1-.769-2.68,4.293,4.293,0,0,1,1.01-3.027,3.327,3.327,0,0,1,2.555-1.095,3.451,3.451,0,0,1,2.738,1.146,5.07,5.07,0,0,1,.959,3.511H67.592a2.081,2.081,0,0,0,.5,1.424,1.557,1.557,0,0,0,1.186.509,1.26,1.26,0,0,0,.813-.264A1.628,1.628,0,0,0,70.586-2.475ZM70.7-4.554a1.981,1.981,0,0,0-.461-1.358,1.415,1.415,0,0,0-1.069-.465,1.429,1.429,0,0,0-1.113.491,1.9,1.9,0,0,0-.432,1.333Zm2.746-3.221h2.189l1.86,5.52,1.816-5.52h2.131L78.7-.293l-.491,1.354a5.522,5.522,0,0,1-.516,1.04,2.253,2.253,0,0,1-.564.582,2.464,2.464,0,0,1-.783.348,4.068,4.068,0,0,1-1.051.124,5.451,5.451,0,0,1-1.164-.124L73.947,1.42a4.551,4.551,0,0,0,.871.1,1.291,1.291,0,0,0,1.062-.421A2.921,2.921,0,0,0,76.407.022Z" transform="translate(-9191.62 -1705.238)"/>
    <path id="Trazado_232212" data-name="Trazado 232212" d="M109.251,271.66H232.223V202.593" transform="translate(-9383 -1781)" fill="none" stroke="#2d2d2d" stroke-miterlimit="10" stroke-width="1.547"/>
    <path id="Trazado_232213" data-name="Trazado 232213" d="M236.519,205.851l-4.3-1.825-4.295,1.825,4.295-10.183Z" transform="translate(-9383 -1781)" fill="#2d2d2d"/>
    <path id="Trazado_232214" data-name="Trazado 232214" d="M674.616,58.2H796.33v12.86" transform="translate(-9383 -1781)" fill="none" stroke="#2d2d2d" stroke-miterlimit="10" stroke-width="1.547"/>
    <path id="Trazado_232215" data-name="Trazado 232215" d="M792.034,67.805l4.3,1.825,4.295-1.825L796.33,77.988Z" transform="translate(-9383 -1781)" fill="#2d2d2d"/>
    <path id="Trazado_232216" data-name="Trazado 232216" d="M426.2,77.051V58.2H557.852" transform="translate(-9383 -1781)" fill="none" stroke="#2d2d2d" stroke-miterlimit="10" stroke-width="1.547"/>
    <path id="Trazado_232217" data-name="Trazado 232217" d="M554.594,62.5l1.825-4.3-1.825-4.295L564.777,58.2Z" transform="translate(-9383 -1781)" fill="#2d2d2d"/>
  </g>
</svg>
